<svg width="140" height="70" viewBox="0 0 140 70" fill="none" xmlns="http://www.w3.org/2000/svg">
<g clip-path="url(#clip0_288_42996)">
<path d="M140 57.7941V16.2766V13C139.986 5.81633 134.159 0 126.975 0H89H27H12.2059C5.46476 0 0 5.46476 0 12.2059V16.2766V57.7941C0 64.5353 5.46476 70 12.2059 70H127.794C134.535 70 140 64.5353 140 57.7941Z" fill="#204D71"/>
<path d="M127.794 1.2207H12.2058C6.13875 1.2207 1.22046 6.13899 1.22046 12.206V57.7942C1.22046 63.8612 6.13875 68.7795 12.2058 68.7795H127.794C133.861 68.7795 138.779 63.8612 138.779 57.7942V12.206C138.779 6.13899 133.861 1.2207 127.794 1.2207Z" stroke="white" stroke-width="2.44118"/>
</g>
<defs>
<clipPath id="clip0_288_42996">
<rect width="140" height="70" fill="white"/>
</clipPath>
</defs>
</svg>
