<svg width="330" height="70" viewBox="0 0 330 70" fill="none" xmlns="http://www.w3.org/2000/svg">
<g clip-path="url(#clip0_288_42967)">
<path d="M329.61 57.5365V16.603C329.61 16.5871 329.597 16.5742 329.582 16.5742C329.566 16.5742 329.553 16.5613 329.553 16.5453V11.9718C329.553 5.61723 324.401 0.46582 318.047 0.46582H311.898H17.7065H12.2574C5.51627 0.46582 0.0515137 5.93057 0.0515137 12.6717V16.5742V57.5365C0.0515137 64.2777 5.51627 69.7424 12.2574 69.7424H317.404C324.146 69.7424 329.61 64.2776 329.61 57.5365Z" fill="#204D71"/>
<path d="M101.603 37.9538V48.9998H98.2891V21.3848H112.886C113.517 21.3848 114.148 21.6478 114.779 22.1738L115.726 22.9628C116.357 23.4888 116.673 24.1463 116.673 24.9353V34.4033C116.673 35.1923 116.357 35.8498 115.726 36.3758L114.779 37.1648C114.148 37.6908 113.517 37.9538 112.886 37.9538H101.603ZM101.603 24.1463V35.1923H111.426C111.899 35.1923 112.202 35.1791 112.333 35.1528C112.465 35.1002 112.649 34.9819 112.886 34.7978C113.122 34.6137 113.254 34.469 113.28 34.3638C113.333 34.2323 113.359 33.9693 113.359 33.5748V25.7637C113.359 25.3692 113.333 25.1194 113.28 25.0142C113.254 24.8827 113.122 24.7249 112.886 24.5408C112.649 24.3567 112.465 24.2515 112.333 24.2252C112.202 24.1726 111.899 24.1463 111.426 24.1463H101.603ZM140.604 46.2383V48.9998H123.562V21.3848H126.876V46.2383H140.604ZM142.354 48.9998L151.822 21.3848H156.478L166.143 48.9998H162.829L160.778 43.2795H147.641L145.668 48.9998H142.354ZM154.229 23.7518H154.071C154.071 24.0674 153.979 24.4487 153.795 24.8958L148.469 40.7153H159.949L154.505 24.8958C154.321 24.4487 154.229 24.0674 154.229 23.7518ZM179.482 33.4565L185.833 21.3848H189.62L180.547 37.4804V48.9998H177.233V37.4804L168.16 21.3848H171.947L178.298 33.4565C178.614 34.0088 178.785 34.4164 178.811 34.6794H178.969C178.995 34.5216 179.166 34.114 179.482 33.4565Z" fill="white"/>
<path d="M101.603 37.9538V36.9538H100.603V37.9538H101.603ZM101.603 48.9998V49.9998H102.603V48.9998H101.603ZM98.2891 48.9998H97.2891V49.9998H98.2891V48.9998ZM98.2891 21.3848V20.3848H97.2891V21.3848H98.2891ZM114.779 22.1738L114.139 22.942L114.779 22.1738ZM115.726 22.9628L116.366 22.1946L115.726 22.9628ZM115.726 36.3758L116.366 37.144L115.726 36.3758ZM114.779 37.1648L114.139 36.3966L114.779 37.1648ZM101.603 24.1463V23.1463H100.603V24.1463H101.603ZM101.603 35.1923H100.603V36.1923H101.603V35.1923ZM112.333 35.1528L112.529 36.1334L112.619 36.1154L112.705 36.0813L112.333 35.1528ZM113.28 34.3638L112.352 33.9925L112.326 34.0555L112.31 34.1213L113.28 34.3638ZM113.28 25.0142L112.3 25.2103L112.326 25.3416L112.386 25.4614L113.28 25.0142ZM112.886 24.5408L112.272 25.3302L112.886 24.5408ZM112.333 24.2252L111.962 25.1537L112.047 25.1878L112.137 25.2058L112.333 24.2252ZM100.603 37.9538V48.9998H102.603V37.9538H100.603ZM101.603 47.9998H98.2891V49.9998H101.603V47.9998ZM99.2891 48.9998V21.3848H97.2891V48.9998H99.2891ZM98.2891 22.3848H112.886V20.3848H98.2891V22.3848ZM112.886 22.3848C113.22 22.3848 113.632 22.5199 114.139 22.942L115.419 21.4056C114.663 20.7757 113.814 20.3848 112.886 20.3848V22.3848ZM114.139 22.942L115.086 23.731L116.366 22.1946L115.419 21.4056L114.139 22.942ZM115.086 23.731C115.5 24.0761 115.673 24.4569 115.673 24.9353H117.673C117.673 23.8357 117.215 22.9015 116.366 22.1946L115.086 23.731ZM115.673 24.9353V34.4033H117.673V24.9353H115.673ZM115.673 34.4033C115.673 34.8817 115.5 35.2625 115.086 35.6076L116.366 37.144C117.215 36.4371 117.673 35.5029 117.673 34.4033H115.673ZM115.086 35.6076L114.139 36.3966L115.419 37.933L116.366 37.144L115.086 35.6076ZM114.139 36.3966C113.632 36.8187 113.22 36.9538 112.886 36.9538V38.9538C113.814 38.9538 114.663 38.5629 115.419 37.933L114.139 36.3966ZM112.886 36.9538H101.603V38.9538H112.886V36.9538ZM100.603 24.1463V35.1923H102.603V24.1463H100.603ZM101.603 36.1923H111.426V34.1923H101.603V36.1923ZM111.426 36.1923C111.871 36.1923 112.281 36.1831 112.529 36.1334L112.137 34.1723C112.153 34.1691 112.112 34.177 111.964 34.1834C111.833 34.1891 111.655 34.1923 111.426 34.1923V36.1923ZM112.705 36.0813C112.975 35.9732 113.252 35.7795 113.5 35.5872L112.272 34.0084C112.169 34.0883 112.089 34.1451 112.029 34.1835C111.965 34.2246 111.946 34.2308 111.962 34.2244L112.705 36.0813ZM113.5 35.5872C113.642 35.4764 113.783 35.3548 113.902 35.2239C114.003 35.113 114.177 34.9013 114.25 34.6064L112.31 34.1213C112.324 34.0661 112.341 34.0218 112.356 33.9894C112.371 33.9569 112.385 33.9323 112.395 33.9162C112.415 33.8854 112.427 33.8726 112.422 33.8786C112.417 33.8834 112.404 33.8975 112.377 33.9212C112.351 33.9444 112.317 33.9735 112.272 34.0084L113.5 35.5872ZM114.209 34.7352C114.288 34.5371 114.318 34.3265 114.334 34.1675C114.352 33.9911 114.359 33.7909 114.359 33.5748H112.359C112.359 33.7533 112.353 33.8818 112.344 33.9685C112.34 34.0112 112.336 34.0352 112.334 34.0445C112.332 34.0566 112.335 34.0344 112.352 33.9925L114.209 34.7352ZM114.359 33.5748V25.7637H112.359V33.5748H114.359ZM114.359 25.7637C114.359 25.5488 114.352 25.3492 114.334 25.1758C114.319 25.0359 114.287 24.7919 114.175 24.567L112.386 25.4614C112.365 25.4204 112.354 25.3879 112.348 25.37C112.342 25.3514 112.339 25.3396 112.338 25.3372C112.338 25.3336 112.341 25.3474 112.345 25.3852C112.353 25.4616 112.359 25.5842 112.359 25.7637H114.359ZM114.261 24.8181C114.202 24.5246 114.051 24.3018 113.93 24.157C113.803 24.0042 113.651 23.8694 113.5 23.7514L112.272 25.3302C112.312 25.3616 112.342 25.3872 112.363 25.4067C112.373 25.4164 112.381 25.4239 112.386 25.4293C112.391 25.4348 112.394 25.4375 112.394 25.4374C112.393 25.4374 112.39 25.4336 112.385 25.4262C112.38 25.4189 112.372 25.4066 112.363 25.3895C112.345 25.3566 112.317 25.2959 112.3 25.2103L114.261 24.8181ZM113.5 23.7514C113.256 23.562 112.911 23.3209 112.529 23.2446L112.137 25.2058C112.091 25.1965 112.063 25.1851 112.057 25.1828C112.051 25.18 112.056 25.1817 112.074 25.1921C112.112 25.2138 112.177 25.2563 112.272 25.3302L113.5 23.7514ZM112.705 23.2967C112.493 23.212 112.258 23.184 112.094 23.1698C111.903 23.1531 111.678 23.1463 111.426 23.1463V25.1463C111.648 25.1463 111.81 25.1526 111.921 25.1623C111.976 25.1671 112.009 25.1719 112.024 25.1745C112.044 25.1783 112.015 25.1751 111.962 25.1537L112.705 23.2967ZM111.426 23.1463H101.603V25.1463H111.426V23.1463ZM140.604 46.2383H141.604V45.2383H140.604V46.2383ZM140.604 48.9998V49.9998H141.604V48.9998H140.604ZM123.562 48.9998H122.562V49.9998H123.562V48.9998ZM123.562 21.3848V20.3848H122.562V21.3848H123.562ZM126.876 21.3848H127.876V20.3848H126.876V21.3848ZM126.876 46.2383H125.876V47.2383H126.876V46.2383ZM139.604 46.2383V48.9998H141.604V46.2383H139.604ZM140.604 47.9998H123.562V49.9998H140.604V47.9998ZM124.562 48.9998V21.3848H122.562V48.9998H124.562ZM123.562 22.3848H126.876V20.3848H123.562V22.3848ZM125.876 21.3848V46.2383H127.876V21.3848H125.876ZM126.876 47.2383H140.604V45.2383H126.876V47.2383ZM142.354 48.9998L141.408 48.6755L140.954 49.9998H142.354V48.9998ZM151.822 21.3848V20.3848H151.108L150.876 21.0605L151.822 21.3848ZM156.478 21.3848L157.421 21.0544L157.187 20.3848H156.478V21.3848ZM166.143 48.9998V49.9998H167.552L167.087 48.6695L166.143 48.9998ZM162.829 48.9998L161.888 49.3374L162.125 49.9998H162.829V48.9998ZM160.778 43.2795L161.719 42.942L161.481 42.2795H160.778V43.2795ZM147.641 43.2795V42.2795H146.928L146.695 42.9536L147.641 43.2795ZM145.668 48.9998V49.9998H146.381L146.614 49.3258L145.668 48.9998ZM154.229 23.7518H155.229V22.7518H154.229V23.7518ZM154.071 23.7518V22.7518H153.071V23.7518H154.071ZM153.795 24.8958L152.87 24.5151L152.858 24.5456L152.847 24.5768L153.795 24.8958ZM148.469 40.7153L147.521 40.3962L147.077 41.7153H148.469V40.7153ZM159.949 40.7153V41.7153H161.351L160.895 40.3899L159.949 40.7153ZM154.505 24.8958L155.451 24.5704L155.441 24.5425L155.43 24.5151L154.505 24.8958ZM143.3 49.3241L152.768 21.7091L150.876 21.0605L141.408 48.6755L143.3 49.3241ZM151.822 22.3848H156.478V20.3848H151.822V22.3848ZM155.534 21.7151L165.199 49.3301L167.087 48.6695L157.421 21.0544L155.534 21.7151ZM166.143 47.9998H162.829V49.9998H166.143V47.9998ZM163.77 48.6622L161.719 42.942L159.836 43.6171L161.888 49.3374L163.77 48.6622ZM160.778 42.2795H147.641V44.2795H160.778V42.2795ZM146.695 42.9536L144.723 48.6738L146.614 49.3258L148.586 43.6055L146.695 42.9536ZM145.668 47.9998H142.354V49.9998H145.668V47.9998ZM154.229 22.7518H154.071V24.7518H154.229V22.7518ZM153.071 23.7518C153.071 23.8863 153.028 24.1311 152.87 24.5151L154.72 25.2766C154.93 24.7664 155.071 24.2485 155.071 23.7518H153.071ZM152.847 24.5768L147.521 40.3962L149.417 41.0344L154.743 25.2149L152.847 24.5768ZM148.469 41.7153H159.949V39.7153H148.469V41.7153ZM160.895 40.3899L155.451 24.5704L153.559 25.2213L159.004 41.0407L160.895 40.3899ZM155.43 24.5151C155.272 24.1311 155.229 23.8863 155.229 23.7518H153.229C153.229 24.2485 153.37 24.7664 153.58 25.2766L155.43 24.5151ZM179.482 33.4565L178.597 32.9909L178.588 33.0072L178.58 33.0238L179.482 33.4565ZM185.833 21.3848V20.3848H185.229L184.948 20.9192L185.833 21.3848ZM189.62 21.3848L190.492 21.8759L191.332 20.3848H189.62V21.3848ZM180.547 37.4804L179.676 36.9893L179.547 37.218V37.4804H180.547ZM180.547 48.9998V49.9998H181.547V48.9998H180.547ZM177.233 48.9998H176.233V49.9998H177.233V48.9998ZM177.233 37.4804H178.233V37.218L178.104 36.9893L177.233 37.4804ZM168.16 21.3848V20.3848H166.448L167.289 21.8759L168.16 21.3848ZM171.947 21.3848L172.832 20.9192L172.551 20.3848H171.947V21.3848ZM178.298 33.4565L177.413 33.9221L177.421 33.9375L177.43 33.9526L178.298 33.4565ZM178.811 34.6794L177.816 34.779L177.906 35.6794H178.811V34.6794ZM178.969 34.6794V35.6794H179.816L179.955 34.8439L178.969 34.6794ZM180.367 33.9221L186.718 21.8504L184.948 20.9192L178.597 32.9909L180.367 33.9221ZM185.833 22.3848H189.62V20.3848H185.833V22.3848ZM188.749 20.8937L179.676 36.9893L181.418 37.9715L190.492 21.8759L188.749 20.8937ZM179.547 37.4804V48.9998H181.547V37.4804H179.547ZM180.547 47.9998H177.233V49.9998H180.547V47.9998ZM178.233 48.9998V37.4804H176.233V48.9998H178.233ZM178.104 36.9893L169.031 20.8937L167.289 21.8759L176.362 37.9715L178.104 36.9893ZM168.16 22.3848H171.947V20.3848H168.16V22.3848ZM171.062 21.8504L177.413 33.9221L179.183 32.9909L172.832 20.9192L171.062 21.8504ZM177.43 33.9526C177.576 34.2074 177.676 34.4092 177.741 34.5632C177.81 34.7281 177.817 34.7905 177.816 34.779L179.806 34.5799C179.757 34.083 179.48 33.5095 179.167 32.9604L177.43 33.9526ZM178.811 35.6794H178.969V33.6794H178.811V35.6794ZM179.955 34.8439C179.948 34.8895 179.941 34.8984 179.96 34.8436C179.976 34.799 180.001 34.7331 180.039 34.6421C180.115 34.4604 180.229 34.2112 180.383 33.8892L178.58 33.0238C178.419 33.3593 178.289 33.6426 178.195 33.8686C178.114 34.0606 178.018 34.3045 177.983 34.515L179.955 34.8439Z" fill="white"/>
<path d="M288.473 53.79L290.626 55.958C291.537 56.876 293.011 56.876 293.913 55.958L312.764 36.9834C313.675 36.0654 313.675 34.5811 312.764 33.6729L293.913 14.6885C293.001 13.7705 291.527 13.7705 290.626 14.6885L288.473 16.8565C287.552 17.7842 287.571 19.2979 288.512 20.2061L300.196 31.417H272.327C271.038 31.417 270 32.4619 270 33.7607V36.8857C270 38.1846 271.038 39.2295 272.327 39.2295H300.196L288.512 50.4404C287.561 51.3486 287.542 52.8623 288.473 53.79Z" fill="white"/>
<path d="M317.405 1.68652H12.2575C6.1905 1.68652 1.27222 6.60481 1.27222 12.6718V57.5366C1.27222 63.6036 6.1905 68.5219 12.2575 68.5219H317.405C323.472 68.5219 328.39 63.6036 328.39 57.5366V12.6718C328.39 6.60481 323.472 1.68652 317.405 1.68652Z" stroke="white" stroke-width="2.44118"/>
</g>
<defs>
<clipPath id="clip0_288_42967">
<rect width="330" height="70" fill="white"/>
</clipPath>
</defs>
</svg>
