<svg width="600" height="100" viewBox="0 0 600 100" fill="none" xmlns="http://www.w3.org/2000/svg">
<g clip-path="url(#clip0_288_42985)">
<path d="M600 79.9999V36.4998L599.895 23.2523C599.895 10.4104 589.484 0 576.643 0H567.752H32.143H20.0001C8.95444 0 0.00012207 8.95431 0.00012207 20V23.2523V79.9999C0.00012207 91.0456 8.95444 99.9998 20.0001 99.9998H580C591.046 99.9998 600 91.0456 600 79.9999Z" fill="#204D71"/>
<path d="M580 2H20C10.0589 2 2 10.0589 2 20V79.9998C2 89.9409 10.0589 97.9998 20 97.9998H580C589.941 97.9998 598 89.9409 598 79.9998V20C598 10.0589 589.941 2 580 2Z" stroke="white" stroke-width="4"/>
</g>
<defs>
<clipPath id="clip0_288_42985">
<rect width="600" height="100" fill="white"/>
</clipPath>
</defs>
</svg>
