<svg width="330" height="70" viewBox="0 0 330 70" fill="none" xmlns="http://www.w3.org/2000/svg">
<g clip-path="url(#clip0_290_43004)">
<path d="M329.611 57.5365V16.603C329.611 16.5871 329.598 16.5742 329.582 16.5742C329.566 16.5742 329.553 16.5613 329.553 16.5453V11.9718C329.553 5.61723 324.401 0.46582 318.047 0.46582H311.898H17.7067H12.2576C5.51652 0.46582 0.0517578 5.93057 0.0517578 12.6717V16.5742V57.5365C0.0517578 64.2777 5.51651 69.7424 12.2576 69.7424H317.405C324.146 69.7424 329.611 64.2776 329.611 57.5365Z" fill="#204D71"/>
<path d="M43.9745 16.8564L41.8217 14.6885C40.9102 13.7705 39.4363 13.7705 38.5344 14.6885L19.6834 33.6631C18.7719 34.581 18.7719 36.0654 19.6834 36.9736L38.5344 55.958C39.4459 56.876 40.9199 56.876 41.8217 55.958L43.9745 53.79C44.8957 52.8623 44.8763 51.3486 43.9357 50.4404L32.2508 39.2295H60.12C61.4097 39.2295 62.4473 38.1846 62.4473 36.8857V33.7607C62.4473 32.4619 61.4097 31.417 60.12 31.417H32.2508L43.9357 20.2061C44.886 19.2978 44.9054 17.7842 43.9745 16.8564Z" fill="white"/>
<path d="M317.405 1.68652H12.2572C6.19014 1.68652 1.27185 6.60481 1.27185 12.6718V57.5366C1.27185 63.6036 6.19014 68.5219 12.2572 68.5219H317.405C323.472 68.5219 328.39 63.6036 328.39 57.5366V12.6718C328.39 6.60481 323.472 1.68652 317.405 1.68652Z" stroke="white" stroke-width="2.44118"/>
<path d="M110.583 21.7H113.859V45.49C113.859 46.27 113.547 46.92 112.923 47.44L111.987 48.22C111.363 48.74 110.739 49 110.115 49H96.8554C96.2314 49 95.6074 48.74 94.9834 48.22L94.0474 47.44C93.4234 46.92 93.1114 46.27 93.1114 45.49V21.7H96.3874V44.671C96.3874 45.061 96.4004 45.321 96.4264 45.451C96.4784 45.555 96.6214 45.698 96.8554 45.88C97.0894 46.062 97.2714 46.179 97.4014 46.231C97.5314 46.257 97.8304 46.27 98.2984 46.27H108.672C109.14 46.27 109.439 46.257 109.569 46.231C109.699 46.179 109.881 46.062 110.115 45.88C110.349 45.698 110.479 45.555 110.505 45.451C110.557 45.321 110.583 45.061 110.583 44.671V21.7ZM124.952 38.08V49H121.676V21.7H136.106C136.73 21.7 137.354 21.96 137.978 22.48L138.914 23.26C139.538 23.78 139.85 24.43 139.85 25.21V34.57C139.85 35.35 139.538 36 138.914 36.52L137.978 37.3C137.354 37.82 136.73 38.08 136.106 38.08H124.952ZM124.952 24.43V35.35H134.663C135.131 35.35 135.43 35.337 135.56 35.311C135.69 35.259 135.872 35.142 136.106 34.96C136.34 34.778 136.47 34.635 136.496 34.531C136.548 34.401 136.574 34.141 136.574 33.751V26.029C136.574 25.639 136.548 25.392 136.496 25.288C136.47 25.158 136.34 25.002 136.106 24.82C135.872 24.638 135.69 24.534 135.56 24.508C135.43 24.456 135.131 24.43 134.663 24.43H124.952ZM166.628 26.77H163.352V26.029C163.352 25.639 163.326 25.392 163.274 25.288C163.248 25.158 163.118 25.002 162.884 24.82C162.65 24.638 162.468 24.534 162.338 24.508C162.208 24.456 161.909 24.43 161.441 24.43H151.847C151.379 24.43 151.08 24.456 150.95 24.508C150.82 24.534 150.638 24.638 150.404 24.82C150.17 25.002 150.027 25.158 149.975 25.288C149.949 25.392 149.936 25.639 149.936 26.029V44.671C149.936 45.061 149.949 45.321 149.975 45.451C150.027 45.555 150.17 45.698 150.404 45.88C150.638 46.062 150.82 46.179 150.95 46.231C151.08 46.257 151.379 46.27 151.847 46.27H161.441C161.909 46.27 162.208 46.257 162.338 46.231C162.468 46.179 162.65 46.062 162.884 45.88C163.118 45.698 163.248 45.555 163.274 45.451C163.326 45.321 163.352 45.061 163.352 44.671V37.69H157.424V34.96H166.628V45.49C166.628 46.27 166.316 46.92 165.692 47.44L164.756 48.22C164.132 48.74 163.508 49 162.884 49H150.404C149.78 49 149.156 48.74 148.532 48.22L147.596 47.44C146.972 46.92 146.66 46.27 146.66 45.49V25.21C146.66 24.43 146.972 23.78 147.596 23.26L148.532 22.48C149.156 21.96 149.78 21.7 150.404 21.7H162.884C163.508 21.7 164.132 21.96 164.756 22.48L165.692 23.26C166.316 23.78 166.628 24.43 166.628 25.21V26.77ZM173.435 21.7H187.865C188.489 21.7 189.113 21.96 189.737 22.48L190.673 23.26C191.297 23.78 191.609 24.43 191.609 25.21V34.336C191.609 35.142 191.284 35.818 190.634 36.364L189.659 37.183C189.087 37.651 188.489 37.885 187.865 37.885H185.681L189.698 44.125C189.984 44.567 190.179 44.853 190.283 44.983C190.413 45.087 190.686 45.256 191.102 45.49L191.531 45.724C191.999 45.984 192.272 46.192 192.35 46.348C192.428 46.504 192.467 46.881 192.467 47.479V49H191.492C191.024 49 190.699 48.974 190.517 48.922C190.361 48.87 190.075 48.701 189.659 48.415L188.918 47.908C188.346 47.518 187.878 47.011 187.514 46.387L182.327 38.08H176.711V49H173.435V21.7ZM176.711 24.43V35.35H186.422C186.89 35.35 187.189 35.337 187.319 35.311C187.449 35.259 187.631 35.142 187.865 34.96C188.099 34.778 188.229 34.635 188.255 34.531C188.307 34.401 188.333 34.141 188.333 33.751V26.029C188.333 25.639 188.307 25.392 188.255 25.288C188.229 25.158 188.099 25.002 187.865 24.82C187.631 24.638 187.449 24.534 187.319 24.508C187.189 24.456 186.89 24.43 186.422 24.43H176.711ZM197.726 49L207.086 21.7H211.688L221.243 49H217.967L215.939 43.345H202.952L201.002 49H197.726ZM209.465 24.04H209.309C209.309 24.352 209.218 24.729 209.036 25.171L203.771 40.81H215.12L209.738 25.171C209.556 24.729 209.465 24.352 209.465 24.04ZM227.098 49V21.7H241.528C242.204 21.7 242.828 21.96 243.4 22.48L247.144 25.6C247.768 26.12 248.08 26.64 248.08 27.16V43.54C248.08 44.06 247.768 44.58 247.144 45.1L243.4 48.22C242.828 48.74 242.204 49 241.528 49H227.098ZM244.804 42.37V28.33C244.804 27.81 244.492 27.29 243.868 26.77L241.996 25.21C241.424 24.69 240.8 24.43 240.124 24.43H230.374V46.27H240.124C240.8 46.27 241.424 46.01 241.996 45.49L243.868 43.93C244.492 43.41 244.804 42.89 244.804 42.37ZM272.372 46.27V49H254.9V21.7H272.372V24.43H258.176V33.79H270.188V36.52H258.176V46.27H272.372ZM291.679 36.52H282.358C281.734 36.52 281.11 36.26 280.486 35.74L279.433 34.843C278.887 34.401 278.614 33.881 278.614 33.283V25.21C278.614 24.43 278.926 23.78 279.55 23.26L280.486 22.48C281.11 21.96 281.734 21.7 282.358 21.7H292.732C293.356 21.7 293.98 21.96 294.604 22.48L295.54 23.26C296.164 23.78 296.476 24.43 296.476 25.21V26.77H293.2V26.029C293.2 25.639 293.174 25.392 293.122 25.288C293.096 25.158 292.966 25.002 292.732 24.82C292.498 24.638 292.316 24.534 292.186 24.508C292.056 24.456 291.757 24.43 291.289 24.43H283.801C283.333 24.43 283.034 24.456 282.904 24.508C282.774 24.534 282.592 24.638 282.358 24.82C282.124 25.002 281.981 25.158 281.929 25.288C281.903 25.392 281.89 25.639 281.89 26.029V32.191C281.89 32.581 281.903 32.841 281.929 32.971C281.981 33.075 282.124 33.218 282.358 33.4C282.592 33.582 282.774 33.699 282.904 33.751C283.034 33.777 283.333 33.79 283.801 33.79H293.122C293.746 33.79 294.37 34.05 294.994 34.57L295.93 35.35C296.554 35.87 296.866 36.52 296.866 37.3V45.49C296.866 46.27 296.554 46.92 295.93 47.44L294.994 48.22C294.37 48.74 293.746 49 293.122 49H281.968C281.344 49 280.72 48.74 280.096 48.22L279.16 47.44C278.536 46.92 278.224 46.27 278.224 45.49V43.93H281.5V44.671C281.5 45.061 281.513 45.321 281.539 45.451C281.591 45.555 281.734 45.698 281.968 45.88C282.202 46.062 282.384 46.179 282.514 46.231C282.644 46.257 282.943 46.27 283.411 46.27H291.679C292.147 46.27 292.446 46.257 292.576 46.231C292.706 46.179 292.888 46.062 293.122 45.88C293.356 45.698 293.486 45.555 293.512 45.451C293.564 45.321 293.59 45.061 293.59 44.671V38.119C293.59 37.729 293.564 37.482 293.512 37.378C293.486 37.248 293.356 37.092 293.122 36.91C292.888 36.728 292.706 36.624 292.576 36.598C292.446 36.546 292.147 36.52 291.679 36.52Z" fill="white"/>
<path d="M110.583 21.7V20.7H109.583V21.7H110.583ZM113.859 21.7H114.859V20.7H113.859V21.7ZM112.923 47.44L112.283 46.6718L112.283 46.6718L112.923 47.44ZM111.987 48.22L112.628 48.9882L112.628 48.9882L111.987 48.22ZM94.9834 48.22L94.3432 48.9882L94.3432 48.9882L94.9834 48.22ZM94.0474 47.44L94.6876 46.6718L94.6876 46.6718L94.0474 47.44ZM93.1114 21.7V20.7H92.1114V21.7H93.1114ZM96.3874 21.7H97.3874V20.7H96.3874V21.7ZM96.4264 45.451L95.4458 45.6471L95.4721 45.7784L95.532 45.8982L96.4264 45.451ZM97.4014 46.231L97.03 47.1595L97.1153 47.1936L97.2053 47.2116L97.4014 46.231ZM109.569 46.231L109.766 47.2116L109.856 47.1936L109.941 47.1595L109.569 46.231ZM110.505 45.451L109.577 45.0796L109.552 45.1426L109.535 45.2085L110.505 45.451ZM110.583 22.7H113.859V20.7H110.583V22.7ZM112.859 21.7V45.49H114.859V21.7H112.859ZM112.859 45.49C112.859 45.9594 112.69 46.3327 112.283 46.6718L113.564 48.2082C114.405 47.5073 114.859 46.5806 114.859 45.49H112.859ZM112.283 46.6718L111.347 47.4518L112.628 48.9882L113.564 48.2082L112.283 46.6718ZM111.347 47.4518C110.848 47.8679 110.443 48 110.115 48V50C111.036 50 111.879 49.6121 112.628 48.9882L111.347 47.4518ZM110.115 48H96.8554V50H110.115V48ZM96.8554 48C96.5282 48 96.1229 47.8679 95.6236 47.4518L94.3432 48.9882C95.0919 49.6121 95.9347 50 96.8554 50V48ZM95.6236 47.4518L94.6876 46.6718L93.4072 48.2082L94.3432 48.9882L95.6236 47.4518ZM94.6876 46.6718C94.2808 46.3327 94.1114 45.9594 94.1114 45.49H92.1114C92.1114 46.5806 92.5661 47.5073 93.4072 48.2082L94.6876 46.6718ZM94.1114 45.49V21.7H92.1114V45.49H94.1114ZM93.1114 22.7H96.3874V20.7H93.1114V22.7ZM95.3874 21.7V44.671H97.3874V21.7H95.3874ZM95.3874 44.671C95.3874 45.0455 95.3973 45.4043 95.4458 45.6471L97.407 45.2549C97.4089 45.2645 97.4018 45.2267 97.3959 45.1086C97.3906 45.0012 97.3874 44.8567 97.3874 44.671H95.3874ZM95.532 45.8982C95.6289 46.0921 95.7655 46.2433 95.8656 46.3434C95.9765 46.4542 96.1053 46.5635 96.2415 46.6694L97.4694 45.0906C97.3715 45.0145 97.3119 44.9613 97.2798 44.9291C97.2643 44.9137 97.2619 44.9097 97.2674 44.9167C97.2715 44.9219 97.2948 44.9516 97.3209 45.0038L95.532 45.8982ZM96.2415 46.6694C96.4861 46.8596 96.7612 47.0519 97.03 47.1595L97.7728 45.3025C97.7897 45.3093 97.7712 45.3036 97.7082 45.2631C97.6496 45.2254 97.5707 45.1695 97.4694 45.0906L96.2415 46.6694ZM97.2053 47.2116C97.4522 47.261 97.8592 47.27 98.2984 47.27V45.27C98.0718 45.27 97.896 45.2668 97.7666 45.2612C97.621 45.2549 97.5807 45.2471 97.5975 45.2504L97.2053 47.2116ZM98.2984 47.27H108.672V45.27H98.2984V47.27ZM108.672 47.27C109.112 47.27 109.519 47.261 109.766 47.2116L109.373 45.2504C109.39 45.2471 109.35 45.2549 109.204 45.2612C109.075 45.2668 108.899 45.27 108.672 45.27V47.27ZM109.941 47.1595C110.21 47.0519 110.485 46.8596 110.729 46.6694L109.501 45.0906C109.4 45.1695 109.321 45.2254 109.263 45.2631C109.2 45.3036 109.181 45.3093 109.198 45.3025L109.941 47.1595ZM110.729 46.6694C110.87 46.5596 111.01 46.4389 111.128 46.3089C111.228 46.1988 111.402 45.9879 111.476 45.6935L109.535 45.2085C109.549 45.1531 109.566 45.1086 109.581 45.0761C109.596 45.0434 109.611 45.0187 109.621 45.0023C109.641 44.9712 109.654 44.958 109.648 44.9636C109.644 44.968 109.631 44.9817 109.605 45.0049C109.58 45.0277 109.546 45.0562 109.501 45.0906L110.729 46.6694ZM111.434 45.8224C111.513 45.625 111.543 45.4155 111.559 45.258C111.576 45.0831 111.583 44.8848 111.583 44.671H109.583C109.583 44.8472 109.577 44.9739 109.569 45.059C109.565 45.101 109.561 45.1243 109.559 45.133C109.557 45.1446 109.56 45.1219 109.577 45.0796L111.434 45.8224ZM111.583 44.671V21.7H109.583V44.671H111.583ZM124.952 38.08V37.08H123.952V38.08H124.952ZM124.952 49V50H125.952V49H124.952ZM121.676 49H120.676V50H121.676V49ZM121.676 21.7V20.7H120.676V21.7H121.676ZM137.978 22.48L137.338 23.2482L137.338 23.2482L137.978 22.48ZM138.914 23.26L139.554 22.4918L139.554 22.4918L138.914 23.26ZM138.914 36.52L139.554 37.2882L139.554 37.2882L138.914 36.52ZM137.978 37.3L137.338 36.5318L137.338 36.5318L137.978 37.3ZM124.952 24.43V23.43H123.952V24.43H124.952ZM124.952 35.35H123.952V36.35H124.952V35.35ZM135.56 35.311L135.756 36.2916L135.846 36.2736L135.931 36.2395L135.56 35.311ZM136.496 34.531L135.567 34.1596L135.542 34.2226L135.526 34.2885L136.496 34.531ZM136.496 25.288L135.515 25.4841L135.542 25.6154L135.601 25.7352L136.496 25.288ZM136.106 24.82L135.492 25.6094L135.492 25.6094L136.106 24.82ZM135.56 24.508L135.188 25.4365L135.274 25.4706L135.364 25.4886L135.56 24.508ZM123.952 38.08V49H125.952V38.08H123.952ZM124.952 48H121.676V50H124.952V48ZM122.676 49V21.7H120.676V49H122.676ZM121.676 22.7H136.106V20.7H121.676V22.7ZM136.106 22.7C136.433 22.7 136.838 22.8321 137.338 23.2482L138.618 21.7118C137.869 21.0879 137.027 20.7 136.106 20.7V22.7ZM137.338 23.2482L138.274 24.0282L139.554 22.4918L138.618 21.7118L137.338 23.2482ZM138.274 24.0282C138.681 24.3673 138.85 24.7406 138.85 25.21H140.85C140.85 24.1194 140.395 23.1927 139.554 22.4918L138.274 24.0282ZM138.85 25.21V34.57H140.85V25.21H138.85ZM138.85 34.57C138.85 35.0394 138.681 35.4127 138.274 35.7518L139.554 37.2882C140.395 36.5873 140.85 35.6606 140.85 34.57H138.85ZM138.274 35.7518L137.338 36.5318L138.618 38.0682L139.554 37.2882L138.274 35.7518ZM137.338 36.5318C136.838 36.9479 136.433 37.08 136.106 37.08V39.08C137.027 39.08 137.869 38.6921 138.618 38.0682L137.338 36.5318ZM136.106 37.08H124.952V39.08H136.106V37.08ZM123.952 24.43V35.35H125.952V24.43H123.952ZM124.952 36.35H134.663V34.35H124.952V36.35ZM134.663 36.35C135.102 36.35 135.509 36.341 135.756 36.2916L135.364 34.3304C135.381 34.3271 135.34 34.3349 135.195 34.3412C135.065 34.3468 134.889 34.35 134.663 34.35V36.35ZM135.931 36.2395C136.2 36.1319 136.475 35.9396 136.72 35.7494L135.492 34.1706C135.391 34.2495 135.312 34.3054 135.253 34.3431C135.19 34.3836 135.172 34.3893 135.188 34.3825L135.931 36.2395ZM136.72 35.7494C136.861 35.6396 137.001 35.5189 137.119 35.3889C137.219 35.2788 137.392 35.0679 137.466 34.7735L135.526 34.2885C135.54 34.2331 135.557 34.1886 135.572 34.1561C135.587 34.1234 135.601 34.0987 135.611 34.0823C135.631 34.0512 135.644 34.038 135.639 34.0436C135.635 34.048 135.622 34.0617 135.596 34.0849C135.57 34.1077 135.536 34.1362 135.492 34.1706L136.72 35.7494ZM137.424 34.9024C137.503 34.705 137.534 34.4955 137.549 34.338C137.567 34.1631 137.574 33.9648 137.574 33.751H135.574C135.574 33.9272 135.568 34.0539 135.559 34.139C135.555 34.181 135.551 34.2043 135.549 34.213C135.547 34.2246 135.55 34.2019 135.567 34.1596L137.424 34.9024ZM137.574 33.751V26.029H135.574V33.751H137.574ZM137.574 26.029C137.574 25.8163 137.567 25.6186 137.549 25.4466C137.534 25.3081 137.502 25.0651 137.39 24.8408L135.601 25.7352C135.581 25.694 135.569 25.6613 135.563 25.6433C135.557 25.6245 135.554 25.6125 135.554 25.6097C135.553 25.6056 135.556 25.6188 135.56 25.6559C135.568 25.7309 135.574 25.8517 135.574 26.029H137.574ZM137.476 25.0919C137.418 24.7992 137.267 24.5771 137.147 24.4333C137.02 24.2814 136.87 24.1475 136.72 24.0306L135.492 25.6094C135.532 25.6403 135.561 25.6653 135.581 25.6844C135.592 25.6938 135.599 25.7011 135.604 25.7063C135.609 25.7115 135.611 25.714 135.611 25.7137C135.61 25.7134 135.607 25.7095 135.602 25.7018C135.597 25.6943 135.588 25.6818 135.579 25.6645C135.561 25.6311 135.532 25.5701 135.515 25.4841L137.476 25.0919ZM136.72 24.0306C136.479 23.8433 136.136 23.6034 135.756 23.5274L135.364 25.4886C135.317 25.4792 135.289 25.4677 135.283 25.4652C135.275 25.4623 135.28 25.4637 135.298 25.4737C135.335 25.4949 135.398 25.5365 135.492 25.6094L136.72 24.0306ZM135.931 23.5795C135.72 23.4951 135.487 23.4673 135.325 23.4533C135.135 23.4368 134.912 23.43 134.663 23.43V25.43C134.882 25.43 135.042 25.4362 135.151 25.4457C135.206 25.4505 135.238 25.4552 135.252 25.4577C135.272 25.4613 135.242 25.4581 135.188 25.4365L135.931 23.5795ZM134.663 23.43H124.952V25.43H134.663V23.43ZM166.628 26.77V27.77H167.628V26.77H166.628ZM163.352 26.77H162.352V27.77H163.352V26.77ZM163.274 25.288L162.294 25.4841L162.32 25.6154L162.38 25.7352L163.274 25.288ZM162.884 24.82L162.27 25.6094L162.27 25.6094L162.884 24.82ZM162.338 24.508L161.967 25.4365L162.052 25.4706L162.142 25.4886L162.338 24.508ZM150.95 24.508L151.146 25.4886L151.236 25.4706L151.322 25.4365L150.95 24.508ZM150.404 24.82L151.018 25.6094L151.018 25.6094L150.404 24.82ZM149.975 25.288L149.047 24.9166L149.022 24.9796L149.005 25.0455L149.975 25.288ZM149.975 45.451L148.995 45.6471L149.021 45.7784L149.081 45.8982L149.975 45.451ZM150.95 46.231L150.579 47.1595L150.664 47.1936L150.754 47.2116L150.95 46.231ZM162.338 46.231L162.534 47.2116L162.624 47.1936L162.71 47.1595L162.338 46.231ZM163.274 45.451L162.346 45.0796L162.321 45.1426L162.304 45.2085L163.274 45.451ZM163.352 37.69H164.352V36.69H163.352V37.69ZM157.424 37.69H156.424V38.69H157.424V37.69ZM157.424 34.96V33.96H156.424V34.96H157.424ZM166.628 34.96H167.628V33.96H166.628V34.96ZM165.692 47.44L165.052 46.6718L165.052 46.6718L165.692 47.44ZM148.532 48.22L147.892 48.9882L147.892 48.9882L148.532 48.22ZM147.596 47.44L148.236 46.6718L148.236 46.6718L147.596 47.44ZM147.596 23.26L148.236 24.0282L148.236 24.0282L147.596 23.26ZM148.532 22.48L149.172 23.2482L149.172 23.2482L148.532 22.48ZM164.756 22.48L164.116 23.2482L164.116 23.2482L164.756 22.48ZM165.692 23.26L165.052 24.0282L165.052 24.0282L165.692 23.26ZM166.628 25.77H163.352V27.77H166.628V25.77ZM164.352 26.77V26.029H162.352V26.77H164.352ZM164.352 26.029C164.352 25.8163 164.345 25.6186 164.327 25.4466C164.313 25.3081 164.281 25.0651 164.169 24.8408L162.38 25.7352C162.359 25.694 162.348 25.6613 162.342 25.6433C162.336 25.6245 162.333 25.6125 162.332 25.6097C162.331 25.6056 162.334 25.6188 162.338 25.6559C162.346 25.7309 162.352 25.8517 162.352 26.029H164.352ZM164.255 25.0919C164.196 24.7992 164.045 24.5771 163.925 24.4333C163.799 24.2814 163.648 24.1475 163.498 24.0306L162.27 25.6094C162.31 25.6403 162.339 25.6653 162.36 25.6844C162.37 25.6938 162.377 25.7011 162.382 25.7063C162.387 25.7115 162.389 25.714 162.389 25.7137C162.389 25.7134 162.386 25.7095 162.38 25.7018C162.375 25.6943 162.367 25.6818 162.357 25.6645C162.339 25.6311 162.311 25.5701 162.294 25.4841L164.255 25.0919ZM163.498 24.0306C163.257 23.8433 162.914 23.6034 162.534 23.5274L162.142 25.4886C162.095 25.4792 162.067 25.4677 162.061 25.4652C162.054 25.4623 162.058 25.4637 162.076 25.4737C162.113 25.4949 162.177 25.5365 162.27 25.6094L163.498 24.0306ZM162.71 23.5795C162.499 23.4951 162.265 23.4673 162.103 23.4533C161.914 23.4368 161.69 23.43 161.441 23.43V25.43C161.66 25.43 161.82 25.4362 161.93 25.4457C161.984 25.4505 162.016 25.4552 162.03 25.4577C162.05 25.4613 162.021 25.4581 161.967 25.4365L162.71 23.5795ZM161.441 23.43H151.847V25.43H161.441V23.43ZM151.847 23.43C151.598 23.43 151.375 23.4368 151.185 23.4533C151.023 23.4673 150.79 23.4951 150.579 23.5795L151.322 25.4365C151.268 25.4581 151.239 25.4613 151.258 25.4577C151.272 25.4552 151.304 25.4505 151.359 25.4457C151.468 25.4362 151.628 25.43 151.847 25.43V23.43ZM150.754 23.5274C150.374 23.6034 150.031 23.8433 149.79 24.0306L151.018 25.6094C151.112 25.5365 151.175 25.4949 151.212 25.4737C151.23 25.4637 151.235 25.4623 151.228 25.4652C151.222 25.4677 151.193 25.4792 151.146 25.4886L150.754 23.5274ZM149.79 24.0306C149.54 24.2249 149.205 24.52 149.047 24.9166L150.904 25.6594C150.884 25.708 150.865 25.7381 150.858 25.749C150.85 25.7603 150.848 25.7604 150.859 25.7492C150.881 25.7252 150.929 25.6785 151.018 25.6094L149.79 24.0306ZM149.005 25.0455C148.967 25.1995 148.954 25.3722 148.947 25.4987C148.94 25.6467 148.936 25.8252 148.936 26.029H150.936C150.936 25.8428 150.939 25.7028 150.945 25.6038C150.947 25.5544 150.95 25.522 150.952 25.5032C150.955 25.4794 150.954 25.4944 150.945 25.5305L149.005 25.0455ZM148.936 26.029V44.671H150.936V26.029H148.936ZM148.936 44.671C148.936 45.0455 148.946 45.4043 148.995 45.6471L150.956 45.2549C150.958 45.2645 150.951 45.2267 150.945 45.1086C150.939 45.0012 150.936 44.8567 150.936 44.671H148.936ZM149.081 45.8982C149.178 46.0921 149.314 46.2433 149.414 46.3434C149.525 46.4542 149.654 46.5635 149.79 46.6694L151.018 45.0906C150.92 45.0145 150.861 44.9613 150.829 44.9291C150.813 44.9137 150.811 44.9097 150.816 44.9167C150.82 44.9219 150.844 44.9516 150.87 45.0038L149.081 45.8982ZM149.79 46.6694C150.035 46.8596 150.31 47.0519 150.579 47.1595L151.322 45.3025C151.339 45.3093 151.32 45.3036 151.257 45.2631C151.198 45.2254 151.12 45.1695 151.018 45.0906L149.79 46.6694ZM150.754 47.2116C151.001 47.261 151.408 47.27 151.847 47.27V45.27C151.621 45.27 151.445 45.2668 151.315 45.2612C151.17 45.2549 151.13 45.2471 151.146 45.2504L150.754 47.2116ZM151.847 47.27H161.441V45.27H151.847V47.27ZM161.441 47.27C161.88 47.27 162.287 47.261 162.534 47.2116L162.142 45.2504C162.159 45.2471 162.119 45.2549 161.973 45.2612C161.844 45.2668 161.668 45.27 161.441 45.27V47.27ZM162.71 47.1595C162.978 47.0519 163.254 46.8596 163.498 46.6694L162.27 45.0906C162.169 45.1695 162.09 45.2254 162.031 45.2631C161.968 45.3036 161.95 45.3093 161.967 45.3025L162.71 47.1595ZM163.498 46.6694C163.639 46.5596 163.779 46.4389 163.897 46.3089C163.997 46.1988 164.171 45.9879 164.244 45.6935L162.304 45.2085C162.318 45.1531 162.335 45.1086 162.35 45.0761C162.365 45.0434 162.379 45.0187 162.39 45.0023C162.409 44.9712 162.422 44.958 162.417 44.9636C162.413 44.968 162.4 44.9817 162.374 45.0049C162.349 45.0277 162.315 45.0562 162.27 45.0906L163.498 46.6694ZM164.203 45.8224C164.282 45.625 164.312 45.4155 164.328 45.258C164.345 45.0831 164.352 44.8848 164.352 44.671H162.352C162.352 44.8472 162.346 44.9739 162.338 45.059C162.334 45.101 162.33 45.1243 162.328 45.133C162.325 45.1446 162.329 45.1219 162.346 45.0796L164.203 45.8224ZM164.352 44.671V37.69H162.352V44.671H164.352ZM163.352 36.69H157.424V38.69H163.352V36.69ZM158.424 37.69V34.96H156.424V37.69H158.424ZM157.424 35.96H166.628V33.96H157.424V35.96ZM165.628 34.96V45.49H167.628V34.96H165.628ZM165.628 45.49C165.628 45.9594 165.459 46.3327 165.052 46.6718L166.332 48.2082C167.174 47.5073 167.628 46.5806 167.628 45.49H165.628ZM165.052 46.6718L164.116 47.4518L165.396 48.9882L166.332 48.2082L165.052 46.6718ZM164.116 47.4518C163.617 47.8679 163.212 48 162.884 48V50C163.805 50 164.648 49.6121 165.396 48.9882L164.116 47.4518ZM162.884 48H150.404V50H162.884V48ZM150.404 48C150.077 48 149.672 47.8679 149.172 47.4518L147.892 48.9882C148.641 49.6121 149.484 50 150.404 50V48ZM149.172 47.4518L148.236 46.6718L146.956 48.2082L147.892 48.9882L149.172 47.4518ZM148.236 46.6718C147.83 46.3327 147.66 45.9594 147.66 45.49H145.66C145.66 46.5806 146.115 47.5073 146.956 48.2082L148.236 46.6718ZM147.66 45.49V25.21H145.66V45.49H147.66ZM147.66 25.21C147.66 24.7406 147.83 24.3673 148.236 24.0282L146.956 22.4918C146.115 23.1927 145.66 24.1194 145.66 25.21H147.66ZM148.236 24.0282L149.172 23.2482L147.892 21.7118L146.956 22.4918L148.236 24.0282ZM149.172 23.2482C149.672 22.8321 150.077 22.7 150.404 22.7V20.7C149.483 20.7 148.641 21.0879 147.892 21.7118L149.172 23.2482ZM150.404 22.7H162.884V20.7H150.404V22.7ZM162.884 22.7C163.212 22.7 163.617 22.8321 164.116 23.2482L165.396 21.7118C164.648 21.0879 163.805 20.7 162.884 20.7V22.7ZM164.116 23.2482L165.052 24.0282L166.332 22.4918L165.396 21.7118L164.116 23.2482ZM165.052 24.0282C165.459 24.3673 165.628 24.7406 165.628 25.21H167.628C167.628 24.1194 167.174 23.1927 166.332 22.4918L165.052 24.0282ZM165.628 25.21V26.77H167.628V25.21H165.628ZM173.435 21.7V20.7H172.435V21.7H173.435ZM189.737 22.48L189.096 23.2482L189.096 23.2482L189.737 22.48ZM190.673 23.26L191.313 22.4918L191.313 22.4918L190.673 23.26ZM190.634 36.364L189.99 35.5983L189.99 35.5983L190.634 36.364ZM189.659 37.183L190.292 37.957L190.302 37.9487L189.659 37.183ZM185.681 37.885V36.885H183.848L184.84 38.4263L185.681 37.885ZM189.698 44.125L188.857 44.6663L188.858 44.6683L189.698 44.125ZM190.283 44.983L189.502 45.6077L189.571 45.6945L189.658 45.7639L190.283 44.983ZM191.102 45.49L190.611 46.3616L190.623 46.3679L191.102 45.49ZM191.531 45.724L192.016 44.8498L192.01 44.8461L191.531 45.724ZM192.35 46.348L193.244 45.9008L193.244 45.9008L192.35 46.348ZM192.467 49V50H193.467V49H192.467ZM190.517 48.922L190.2 49.8707L190.221 49.8776L190.242 49.8835L190.517 48.922ZM189.659 48.415L190.225 47.591L190.223 47.5897L189.659 48.415ZM188.918 47.908L189.482 47.0827L189.481 47.0818L188.918 47.908ZM187.514 46.387L188.377 45.8831L188.37 45.8701L188.362 45.8574L187.514 46.387ZM182.327 38.08L183.175 37.5504L182.881 37.08H182.327V38.08ZM176.711 38.08V37.08H175.711V38.08H176.711ZM176.711 49V50H177.711V49H176.711ZM173.435 49H172.435V50H173.435V49ZM176.711 24.43V23.43H175.711V24.43H176.711ZM176.711 35.35H175.711V36.35H176.711V35.35ZM187.319 35.311L187.515 36.2916L187.605 36.2736L187.69 36.2395L187.319 35.311ZM188.255 34.531L187.326 34.1596L187.301 34.2226L187.285 34.2885L188.255 34.531ZM188.255 25.288L187.274 25.4841L187.3 25.6154L187.36 25.7352L188.255 25.288ZM187.865 24.82L187.251 25.6094L187.251 25.6094L187.865 24.82ZM187.319 24.508L186.947 25.4365L187.033 25.4706L187.123 25.4886L187.319 24.508ZM173.435 22.7H187.865V20.7H173.435V22.7ZM187.865 22.7C188.192 22.7 188.597 22.8321 189.096 23.2482L190.377 21.7118C189.628 21.0879 188.785 20.7 187.865 20.7V22.7ZM189.096 23.2482L190.032 24.0282L191.313 22.4918L190.377 21.7118L189.096 23.2482ZM190.032 24.0282C190.439 24.3673 190.609 24.7406 190.609 25.21H192.609C192.609 24.1194 192.154 23.1927 191.313 22.4918L190.032 24.0282ZM190.609 25.21V34.336H192.609V25.21H190.609ZM190.609 34.336C190.609 34.8291 190.428 35.2307 189.99 35.5983L191.277 37.1297C192.139 36.4053 192.609 35.4549 192.609 34.336H190.609ZM189.99 35.5983L189.015 36.4173L190.302 37.9487L191.277 37.1297L189.99 35.5983ZM189.025 36.409C188.598 36.759 188.217 36.885 187.865 36.885V38.885C188.76 38.885 189.576 38.543 190.292 37.957L189.025 36.409ZM187.865 36.885H185.681V38.885H187.865V36.885ZM184.84 38.4263L188.857 44.6663L190.539 43.5837L186.522 37.3437L184.84 38.4263ZM188.858 44.6683C189.138 45.1015 189.361 45.4314 189.502 45.6077L191.064 44.3583C190.997 44.2746 190.829 44.0325 190.537 43.5817L188.858 44.6683ZM189.658 45.7639C189.861 45.9266 190.205 46.133 190.611 46.3616L191.592 44.6184C191.166 44.379 190.964 44.2474 190.907 44.2021L189.658 45.7639ZM190.623 46.3679L191.052 46.6019L192.01 44.8461L191.581 44.6121L190.623 46.3679ZM191.045 46.5982C191.257 46.7162 191.397 46.8069 191.48 46.8704C191.521 46.9017 191.536 46.9168 191.535 46.9154C191.533 46.914 191.524 46.9046 191.511 46.8871C191.498 46.8699 191.477 46.8392 191.455 46.7952L193.244 45.9008C193.098 45.6089 192.855 45.4033 192.692 45.2796C192.503 45.1351 192.272 44.9918 192.016 44.8498L191.045 46.5982ZM191.455 46.7952C191.423 46.731 191.418 46.695 191.424 46.7208C191.428 46.7396 191.435 46.7806 191.443 46.8506C191.457 46.9913 191.467 47.1972 191.467 47.479H193.467C193.467 47.1628 193.457 46.8812 193.432 46.6449C193.411 46.4438 193.37 46.153 193.244 45.9008L191.455 46.7952ZM191.467 47.479V49H193.467V47.479H191.467ZM192.467 48H191.492V50H192.467V48ZM191.492 48C191.274 48 191.104 47.9939 190.977 47.9837C190.84 47.9728 190.789 47.9599 190.791 47.9605L190.242 49.8835C190.574 49.9783 191.027 50 191.492 50V48ZM190.833 47.9733C190.86 47.9823 190.824 47.9725 190.694 47.8953C190.578 47.8268 190.423 47.7269 190.225 47.591L189.092 49.239C189.486 49.5096 189.887 49.7663 190.2 49.8707L190.833 47.9733ZM190.223 47.5897L189.482 47.0827L188.353 48.7333L189.094 49.2403L190.223 47.5897ZM189.481 47.0818C189.037 46.7792 188.67 46.3844 188.377 45.8831L186.65 46.8909C187.085 47.6376 187.654 48.2568 188.354 48.7342L189.481 47.0818ZM188.362 45.8574L183.175 37.5504L181.478 38.6096L186.665 46.9166L188.362 45.8574ZM182.327 37.08H176.711V39.08H182.327V37.08ZM175.711 38.08V49H177.711V38.08H175.711ZM176.711 48H173.435V50H176.711V48ZM174.435 49V21.7H172.435V49H174.435ZM175.711 24.43V35.35H177.711V24.43H175.711ZM176.711 36.35H186.422V34.35H176.711V36.35ZM186.422 36.35C186.861 36.35 187.268 36.341 187.515 36.2916L187.123 34.3304C187.139 34.3271 187.099 34.3349 186.953 34.3412C186.824 34.3468 186.648 34.35 186.422 34.35V36.35ZM187.69 36.2395C187.959 36.1319 188.234 35.9396 188.479 35.7494L187.251 34.1706C187.149 34.2495 187.07 34.3054 187.012 34.3431C186.949 34.3836 186.93 34.3893 186.947 34.3825L187.69 36.2395ZM188.479 35.7494C188.62 35.6396 188.759 35.5189 188.878 35.3889C188.978 35.2788 189.151 35.0679 189.225 34.7735L187.285 34.2885C187.298 34.2331 187.316 34.1886 187.331 34.1561C187.346 34.1234 187.36 34.0987 187.37 34.0823C187.39 34.0512 187.403 34.038 187.398 34.0436C187.394 34.048 187.381 34.0617 187.355 34.0849C187.329 34.1077 187.295 34.1362 187.251 34.1706L188.479 35.7494ZM189.183 34.9024C189.262 34.705 189.292 34.4955 189.308 34.338C189.326 34.1631 189.333 33.9648 189.333 33.751H187.333C187.333 33.9272 187.327 34.0539 187.318 34.139C187.314 34.181 187.31 34.2043 187.308 34.213C187.306 34.2246 187.309 34.2019 187.326 34.1596L189.183 34.9024ZM189.333 33.751V26.029H187.333V33.751H189.333ZM189.333 26.029C189.333 25.8163 189.326 25.6186 189.308 25.4466C189.293 25.3081 189.261 25.0651 189.149 24.8408L187.36 25.7352C187.34 25.694 187.328 25.6613 187.322 25.6433C187.316 25.6245 187.313 25.6125 187.313 25.6097C187.312 25.6056 187.315 25.6188 187.319 25.6559C187.327 25.7309 187.333 25.8517 187.333 26.029H189.333ZM189.235 25.0919C189.177 24.7992 189.026 24.5771 188.906 24.4333C188.779 24.2814 188.629 24.1475 188.479 24.0306L187.251 25.6094C187.29 25.6403 187.32 25.6653 187.34 25.6844C187.35 25.6938 187.358 25.7011 187.363 25.7063C187.368 25.7115 187.37 25.714 187.369 25.7137C187.369 25.7134 187.366 25.7095 187.361 25.7018C187.355 25.6943 187.347 25.6818 187.338 25.6645C187.32 25.6311 187.291 25.5701 187.274 25.4841L189.235 25.0919ZM188.479 24.0306C188.238 23.8433 187.895 23.6034 187.515 23.5274L187.123 25.4886C187.076 25.4792 187.047 25.4677 187.041 25.4652C187.034 25.4623 187.039 25.4637 187.057 25.4737C187.094 25.4949 187.157 25.5365 187.251 25.6094L188.479 24.0306ZM187.69 23.5795C187.479 23.4951 187.245 23.4673 187.084 23.4533C186.894 23.4368 186.671 23.43 186.422 23.43V25.43C186.641 25.43 186.801 25.4362 186.91 25.4457C186.965 25.4505 186.996 25.4552 187.011 25.4577C187.03 25.4613 187.001 25.4581 186.947 25.4365L187.69 23.5795ZM186.422 23.43H176.711V25.43H186.422V23.43ZM197.726 49L196.78 48.6757L196.326 50H197.726V49ZM207.086 21.7V20.7H206.372L206.14 21.3757L207.086 21.7ZM211.688 21.7L212.632 21.3696L212.397 20.7H211.688V21.7ZM221.243 49V50H222.652L222.187 48.6696L221.243 49ZM217.967 49L217.026 49.3376L217.263 50H217.967V49ZM215.939 43.345L216.88 43.0074L216.643 42.345H215.939V43.345ZM202.952 43.345V42.345H202.239L202.007 43.019L202.952 43.345ZM201.002 49V50H201.715L201.947 49.326L201.002 49ZM209.465 24.04H210.465V23.04H209.465V24.04ZM209.309 24.04V23.04H208.309V24.04H209.309ZM209.036 25.171L208.111 24.7903L208.099 24.8207L208.088 24.8519L209.036 25.171ZM203.771 40.81L202.823 40.4909L202.379 41.81H203.771V40.81ZM215.12 40.81V41.81H216.522L216.065 40.4846L215.12 40.81ZM209.738 25.171L210.683 24.8456L210.674 24.8176L210.663 24.7903L209.738 25.171ZM198.672 49.3243L208.032 22.0243L206.14 21.3757L196.78 48.6757L198.672 49.3243ZM207.086 22.7H211.688V20.7H207.086V22.7ZM210.744 22.0303L220.299 49.3304L222.187 48.6696L212.632 21.3696L210.744 22.0303ZM221.243 48H217.967V50H221.243V48ZM218.908 48.6624L216.88 43.0074L214.998 43.6826L217.026 49.3376L218.908 48.6624ZM215.939 42.345H202.952V44.345H215.939V42.345ZM202.007 43.019L200.057 48.674L201.947 49.326L203.897 43.671L202.007 43.019ZM201.002 48H197.726V50H201.002V48ZM209.465 23.04H209.309V25.04H209.465V23.04ZM208.309 24.04C208.309 24.1709 208.267 24.4113 208.111 24.7903L209.961 25.5517C210.169 25.0467 210.309 24.5331 210.309 24.04H208.309ZM208.088 24.8519L202.823 40.4909L204.719 41.1291L209.984 25.4901L208.088 24.8519ZM203.771 41.81H215.12V39.81H203.771V41.81ZM216.065 40.4846L210.683 24.8456L208.792 25.4964L214.174 41.1354L216.065 40.4846ZM210.663 24.7903C210.507 24.4113 210.465 24.1709 210.465 24.04H208.465C208.465 24.5331 208.605 25.0467 208.813 25.5517L210.663 24.7903ZM227.098 49H226.098V50H227.098V49ZM227.098 21.7V20.7H226.098V21.7H227.098ZM243.4 22.48L242.727 23.2199L242.743 23.2344L242.76 23.2482L243.4 22.48ZM247.144 25.6L246.504 26.3682L246.504 26.3682L247.144 25.6ZM247.144 45.1L247.784 45.8682L247.784 45.8682L247.144 45.1ZM243.4 48.22L242.76 47.4518L242.743 47.4656L242.727 47.4801L243.4 48.22ZM243.868 26.77L244.508 26.0018L244.508 26.0018L243.868 26.77ZM241.996 25.21L241.323 25.9499L241.339 25.9644L241.356 25.9782L241.996 25.21ZM230.374 24.43V23.43H229.374V24.43H230.374ZM230.374 46.27H229.374V47.27H230.374V46.27ZM241.996 45.49L241.356 44.7218L241.339 44.7356L241.323 44.7501L241.996 45.49ZM243.868 43.93L244.508 44.6982L244.508 44.6982L243.868 43.93ZM228.098 49V21.7H226.098V49H228.098ZM227.098 22.7H241.528V20.7H227.098V22.7ZM241.528 22.7C241.919 22.7 242.311 22.8416 242.727 23.2199L244.072 21.7401C243.345 21.0784 242.488 20.7 241.528 20.7V22.7ZM242.76 23.2482L246.504 26.3682L247.784 24.8318L244.04 21.7118L242.76 23.2482ZM246.504 26.3682C247.028 26.8051 247.08 27.0708 247.08 27.16H249.08C249.08 26.2092 248.508 25.4349 247.784 24.8318L246.504 26.3682ZM247.08 27.16V43.54H249.08V27.16H247.08ZM247.08 43.54C247.08 43.6292 247.028 43.8949 246.504 44.3318L247.784 45.8682C248.508 45.2651 249.08 44.4908 249.08 43.54H247.08ZM246.504 44.3318L242.76 47.4518L244.04 48.9882L247.784 45.8682L246.504 44.3318ZM242.727 47.4801C242.311 47.8584 241.919 48 241.528 48V50C242.488 50 243.345 49.6216 244.072 48.9599L242.727 47.4801ZM241.528 48H227.098V50H241.528V48ZM245.804 42.37V28.33H243.804V42.37H245.804ZM245.804 28.33C245.804 27.3792 245.232 26.6049 244.508 26.0018L243.228 27.5382C243.752 27.9751 243.804 28.2408 243.804 28.33H245.804ZM244.508 26.0018L242.636 24.4418L241.356 25.9782L243.228 27.5382L244.508 26.0018ZM242.668 24.4701C241.941 23.8084 241.084 23.43 240.124 23.43V25.43C240.515 25.43 240.907 25.5716 241.323 25.9499L242.668 24.4701ZM240.124 23.43H230.374V25.43H240.124V23.43ZM229.374 24.43V46.27H231.374V24.43H229.374ZM230.374 47.27H240.124V45.27H230.374V47.27ZM240.124 47.27C241.084 47.27 241.941 46.8916 242.668 46.2299L241.323 44.7501C240.907 45.1284 240.515 45.27 240.124 45.27V47.27ZM242.636 46.2582L244.508 44.6982L243.228 43.1618L241.356 44.7218L242.636 46.2582ZM244.508 44.6982C245.232 44.0951 245.804 43.3208 245.804 42.37H243.804C243.804 42.4592 243.752 42.7249 243.228 43.1618L244.508 44.6982ZM272.372 46.27H273.372V45.27H272.372V46.27ZM272.372 49V50H273.372V49H272.372ZM254.9 49H253.9V50H254.9V49ZM254.9 21.7V20.7H253.9V21.7H254.9ZM272.372 21.7H273.372V20.7H272.372V21.7ZM272.372 24.43V25.43H273.372V24.43H272.372ZM258.176 24.43V23.43H257.176V24.43H258.176ZM258.176 33.79H257.176V34.79H258.176V33.79ZM270.188 33.79H271.188V32.79H270.188V33.79ZM270.188 36.52V37.52H271.188V36.52H270.188ZM258.176 36.52V35.52H257.176V36.52H258.176ZM258.176 46.27H257.176V47.27H258.176V46.27ZM271.372 46.27V49H273.372V46.27H271.372ZM272.372 48H254.9V50H272.372V48ZM255.9 49V21.7H253.9V49H255.9ZM254.9 22.7H272.372V20.7H254.9V22.7ZM271.372 21.7V24.43H273.372V21.7H271.372ZM272.372 23.43H258.176V25.43H272.372V23.43ZM257.176 24.43V33.79H259.176V24.43H257.176ZM258.176 34.79H270.188V32.79H258.176V34.79ZM269.188 33.79V36.52H271.188V33.79H269.188ZM270.188 35.52H258.176V37.52H270.188V35.52ZM257.176 36.52V46.27H259.176V36.52H257.176ZM258.176 47.27H272.372V45.27H258.176V47.27ZM280.486 35.74L279.838 36.5013L279.846 36.5082L280.486 35.74ZM279.433 34.843L280.082 34.0818L280.072 34.0736L280.063 34.0658L279.433 34.843ZM279.55 23.26L280.191 24.0282L280.191 24.0282L279.55 23.26ZM280.486 22.48L281.127 23.2482L281.127 23.2482L280.486 22.48ZM294.604 22.48L293.964 23.2482L293.964 23.2482L294.604 22.48ZM295.54 23.26L296.181 22.4918L296.181 22.4918L295.54 23.26ZM296.476 26.77V27.77H297.476V26.77H296.476ZM293.2 26.77H292.2V27.77H293.2V26.77ZM293.122 25.288L292.142 25.4841L292.168 25.6154L292.228 25.7352L293.122 25.288ZM292.732 24.82L292.118 25.6094L292.118 25.6094L292.732 24.82ZM292.186 24.508L291.815 25.4365L291.9 25.4706L291.99 25.4886L292.186 24.508ZM282.904 24.508L283.1 25.4886L283.19 25.4706L283.276 25.4365L282.904 24.508ZM282.358 24.82L282.972 25.6094L282.972 25.6094L282.358 24.82ZM281.929 25.288L281.001 24.9166L280.976 24.9796L280.959 25.0455L281.929 25.288ZM281.929 32.971L280.949 33.1671L280.975 33.2984L281.035 33.4182L281.929 32.971ZM282.904 33.751L282.533 34.6795L282.618 34.7136L282.708 34.7316L282.904 33.751ZM294.994 34.57L294.354 35.3382L294.354 35.3382L294.994 34.57ZM295.93 35.35L296.571 34.5818L296.571 34.5818L295.93 35.35ZM295.93 47.44L296.571 48.2082L296.571 48.2082L295.93 47.44ZM294.994 48.22L294.354 47.4518L294.354 47.4518L294.994 48.22ZM279.16 47.44L279.801 46.6718L279.801 46.6718L279.16 47.44ZM278.224 43.93V42.93H277.224V43.93H278.224ZM281.5 43.93H282.5V42.93H281.5V43.93ZM281.539 45.451L280.559 45.6471L280.585 45.7784L280.645 45.8982L281.539 45.451ZM282.514 46.231L282.143 47.1595L282.228 47.1936L282.318 47.2116L282.514 46.231ZM292.576 46.231L292.772 47.2116L292.862 47.1936L292.948 47.1595L292.576 46.231ZM293.512 45.451L292.584 45.0796L292.559 45.1426L292.542 45.2085L293.512 45.451ZM293.512 37.378L292.532 37.5741L292.558 37.7054L292.618 37.8252L293.512 37.378ZM292.576 36.598L292.205 37.5265L292.29 37.5606L292.38 37.5786L292.576 36.598ZM291.679 35.52H282.358V37.52H291.679V35.52ZM282.358 35.52C282.031 35.52 281.626 35.3879 281.127 34.9718L279.846 36.5082C280.595 37.1321 281.438 37.52 282.358 37.52V35.52ZM281.135 34.9788L280.082 34.0818L278.785 35.6042L279.838 36.5012L281.135 34.9788ZM280.063 34.0658C279.705 33.7766 279.614 33.5249 279.614 33.283H277.614C277.614 34.2371 278.069 35.0254 278.804 35.6202L280.063 34.0658ZM279.614 33.283V25.21H277.614V33.283H279.614ZM279.614 25.21C279.614 24.7406 279.784 24.3673 280.191 24.0282L278.91 22.4918C278.069 23.1927 277.614 24.1194 277.614 25.21H279.614ZM280.191 24.0282L281.127 23.2482L279.846 21.7118L278.91 22.4918L280.191 24.0282ZM281.127 23.2482C281.626 22.8321 282.031 22.7 282.358 22.7V20.7C281.438 20.7 280.595 21.0879 279.846 21.7118L281.127 23.2482ZM282.358 22.7H292.732V20.7H282.358V22.7ZM292.732 22.7C293.06 22.7 293.465 22.8321 293.964 23.2482L295.245 21.7118C294.496 21.0879 293.653 20.7 292.732 20.7V22.7ZM293.964 23.2482L294.9 24.0282L296.181 22.4918L295.245 21.7118L293.964 23.2482ZM294.9 24.0282C295.307 24.3673 295.476 24.7406 295.476 25.21H297.476C297.476 24.1194 297.022 23.1927 296.181 22.4918L294.9 24.0282ZM295.476 25.21V26.77H297.476V25.21H295.476ZM296.476 25.77H293.2V27.77H296.476V25.77ZM294.2 26.77V26.029H292.2V26.77H294.2ZM294.2 26.029C294.2 25.8163 294.193 25.6186 294.175 25.4466C294.161 25.3081 294.129 25.0651 294.017 24.8408L292.228 25.7352C292.207 25.694 292.196 25.6613 292.19 25.6433C292.184 25.6245 292.181 25.6125 292.18 25.6097C292.179 25.6056 292.182 25.6188 292.186 25.6559C292.194 25.7309 292.2 25.8517 292.2 26.029H294.2ZM294.103 25.0919C294.044 24.7992 293.893 24.5771 293.774 24.4333C293.647 24.2814 293.497 24.1475 293.346 24.0306L292.118 25.6094C292.158 25.6403 292.187 25.6653 292.208 25.6844C292.218 25.6938 292.225 25.7011 292.23 25.7063C292.235 25.7115 292.237 25.714 292.237 25.7137C292.237 25.7134 292.234 25.7095 292.228 25.7018C292.223 25.6943 292.215 25.6818 292.205 25.6645C292.187 25.6311 292.159 25.5701 292.142 25.4841L294.103 25.0919ZM293.346 24.0306C293.105 23.8433 292.762 23.6034 292.382 23.5274L291.99 25.4886C291.943 25.4792 291.915 25.4677 291.909 25.4652C291.902 25.4623 291.907 25.4637 291.924 25.4737C291.961 25.4949 292.025 25.5365 292.118 25.6094L293.346 24.0306ZM292.558 23.5795C292.347 23.4951 292.113 23.4673 291.951 23.4533C291.762 23.4368 291.538 23.43 291.289 23.43V25.43C291.508 25.43 291.668 25.4362 291.778 25.4457C291.832 25.4505 291.864 25.4552 291.878 25.4577C291.898 25.4613 291.869 25.4581 291.815 25.4365L292.558 23.5795ZM291.289 23.43H283.801V25.43H291.289V23.43ZM283.801 23.43C283.552 23.43 283.329 23.4368 283.139 23.4533C282.977 23.4673 282.744 23.4951 282.533 23.5795L283.276 25.4365C283.222 25.4581 283.193 25.4613 283.212 25.4577C283.227 25.4552 283.258 25.4505 283.313 25.4457C283.422 25.4362 283.582 25.43 283.801 25.43V23.43ZM282.708 23.5274C282.328 23.6034 281.985 23.8433 281.744 24.0306L282.972 25.6094C283.066 25.5365 283.129 25.4949 283.166 25.4737C283.184 25.4637 283.189 25.4623 283.182 25.4652C283.176 25.4677 283.147 25.4792 283.1 25.4886L282.708 23.5274ZM281.744 24.0306C281.495 24.2249 281.159 24.52 281.001 24.9166L282.858 25.6594C282.838 25.708 282.819 25.7381 282.812 25.749C282.804 25.7603 282.802 25.7604 282.813 25.7492C282.835 25.7252 282.883 25.6785 282.972 25.6094L281.744 24.0306ZM280.959 25.0455C280.921 25.1995 280.908 25.3722 280.901 25.4987C280.894 25.6467 280.89 25.8252 280.89 26.029H282.89C282.89 25.8428 282.893 25.7028 282.899 25.6038C282.901 25.5544 282.904 25.522 282.906 25.5032C282.909 25.4794 282.909 25.4944 282.899 25.5305L280.959 25.0455ZM280.89 26.029V32.191H282.89V26.029H280.89ZM280.89 32.191C280.89 32.5655 280.9 32.9243 280.949 33.1671L282.91 32.7749C282.912 32.7845 282.905 32.7467 282.899 32.6286C282.893 32.5212 282.89 32.3767 282.89 32.191H280.89ZM281.035 33.4182C281.132 33.6121 281.268 33.7633 281.368 33.8634C281.479 33.9742 281.608 34.0835 281.744 34.1894L282.972 32.6106C282.874 32.5345 282.815 32.4813 282.783 32.4491C282.767 32.4337 282.765 32.4297 282.77 32.4367C282.774 32.442 282.798 32.4716 282.824 32.5238L281.035 33.4182ZM281.744 34.1894C281.989 34.3796 282.264 34.5719 282.533 34.6795L283.276 32.8225C283.293 32.8293 283.274 32.8236 283.211 32.7831C283.152 32.7454 283.074 32.6895 282.972 32.6106L281.744 34.1894ZM282.708 34.7316C282.955 34.781 283.362 34.79 283.801 34.79V32.79C283.575 32.79 283.399 32.7868 283.27 32.7812C283.124 32.7749 283.084 32.7671 283.1 32.7704L282.708 34.7316ZM283.801 34.79H293.122V32.79H283.801V34.79ZM293.122 34.79C293.45 34.79 293.855 34.9221 294.354 35.3382L295.635 33.8018C294.886 33.1779 294.043 32.79 293.122 32.79V34.79ZM294.354 35.3382L295.29 36.1182L296.571 34.5818L295.634 33.8018L294.354 35.3382ZM295.29 36.1182C295.697 36.4573 295.866 36.8306 295.866 37.3H297.866C297.866 36.2094 297.412 35.2827 296.571 34.5818L295.29 36.1182ZM295.866 37.3V45.49H297.866V37.3H295.866ZM295.866 45.49C295.866 45.9594 295.697 46.3327 295.29 46.6718L296.571 48.2082C297.412 47.5073 297.866 46.5806 297.866 45.49H295.866ZM295.29 46.6718L294.354 47.4518L295.634 48.9882L296.571 48.2082L295.29 46.6718ZM294.354 47.4518C293.855 47.8679 293.45 48 293.122 48V50C294.043 50 294.886 49.6121 295.635 48.9882L294.354 47.4518ZM293.122 48H281.968V50H293.122V48ZM281.968 48C281.641 48 281.236 47.8679 280.737 47.4518L279.456 48.9882C280.205 49.6121 281.048 50 281.968 50V48ZM280.737 47.4518L279.801 46.6718L278.52 48.2082L279.456 48.9882L280.737 47.4518ZM279.801 46.6718C279.394 46.3327 279.224 45.9594 279.224 45.49H277.224C277.224 46.5806 277.679 47.5073 278.52 48.2082L279.801 46.6718ZM279.224 45.49V43.93H277.224V45.49H279.224ZM278.224 44.93H281.5V42.93H278.224V44.93ZM280.5 43.93V44.671H282.5V43.93H280.5ZM280.5 44.671C280.5 45.0455 280.51 45.4043 280.559 45.6471L282.52 45.2549C282.522 45.2645 282.515 45.2267 282.509 45.1086C282.503 45.0012 282.5 44.8567 282.5 44.671H280.5ZM280.645 45.8982C280.742 46.0921 280.878 46.2433 280.978 46.3434C281.089 46.4542 281.218 46.5635 281.354 46.6694L282.582 45.0906C282.484 45.0145 282.425 44.9613 282.393 44.9291C282.377 44.9137 282.375 44.9097 282.38 44.9167C282.384 44.922 282.408 44.9516 282.434 45.0038L280.645 45.8982ZM281.354 46.6694C281.599 46.8596 281.874 47.0519 282.143 47.1595L282.886 45.3025C282.903 45.3093 282.884 45.3036 282.821 45.2631C282.762 45.2254 282.684 45.1695 282.582 45.0906L281.354 46.6694ZM282.318 47.2116C282.565 47.261 282.972 47.27 283.411 47.27V45.27C283.185 45.27 283.009 45.2668 282.88 45.2612C282.734 45.2549 282.694 45.2471 282.71 45.2504L282.318 47.2116ZM283.411 47.27H291.679V45.27H283.411V47.27ZM291.679 47.27C292.119 47.27 292.526 47.261 292.772 47.2116L292.38 45.2504C292.397 45.2471 292.357 45.2549 292.211 45.2612C292.082 45.2668 291.906 45.27 291.679 45.27V47.27ZM292.948 47.1595C293.217 47.0519 293.492 46.8596 293.736 46.6694L292.508 45.0906C292.407 45.1695 292.328 45.2254 292.27 45.2631C292.207 45.3036 292.188 45.3093 292.205 45.3025L292.948 47.1595ZM293.736 46.6694C293.877 46.5596 294.017 46.4389 294.135 46.3089C294.235 46.1988 294.409 45.9879 294.482 45.6935L292.542 45.2085C292.556 45.1531 292.573 45.1086 292.588 45.0761C292.603 45.0434 292.617 45.0187 292.628 45.0023C292.647 44.9712 292.66 44.958 292.655 44.9636C292.651 44.968 292.638 44.9817 292.612 45.0049C292.587 45.0277 292.553 45.0562 292.508 45.0906L293.736 46.6694ZM294.441 45.8224C294.52 45.625 294.55 45.4155 294.566 45.258C294.583 45.0831 294.59 44.8848 294.59 44.671H292.59C292.59 44.8472 292.584 44.9739 292.576 45.059C292.572 45.101 292.568 45.1243 292.566 45.133C292.564 45.1446 292.567 45.1219 292.584 45.0796L294.441 45.8224ZM294.59 44.671V38.119H292.59V44.671H294.59ZM294.59 38.119C294.59 37.9063 294.583 37.7086 294.565 37.5366C294.551 37.3981 294.519 37.1551 294.407 36.9308L292.618 37.8252C292.597 37.784 292.586 37.7513 292.58 37.7333C292.574 37.7145 292.571 37.7025 292.57 37.6997C292.569 37.6956 292.572 37.7088 292.576 37.7459C292.584 37.8209 292.59 37.9417 292.59 38.119H294.59ZM294.493 37.1819C294.434 36.8892 294.283 36.6671 294.164 36.5233C294.037 36.3714 293.887 36.2375 293.736 36.1206L292.508 37.6994C292.548 37.7303 292.577 37.7553 292.598 37.7744C292.608 37.7838 292.615 37.7911 292.62 37.7963C292.625 37.8015 292.627 37.804 292.627 37.8037C292.627 37.8034 292.624 37.7995 292.618 37.7918C292.613 37.7843 292.605 37.7718 292.595 37.7545C292.577 37.7211 292.549 37.6601 292.532 37.5741L294.493 37.1819ZM293.736 36.1206C293.495 35.9333 293.152 35.6934 292.772 35.6174L292.38 37.5786C292.333 37.5692 292.305 37.5577 292.299 37.5552C292.292 37.5523 292.297 37.5537 292.314 37.5637C292.351 37.5849 292.415 37.6265 292.508 37.6994L293.736 36.1206ZM292.948 35.6695C292.737 35.5851 292.503 35.5573 292.341 35.5433C292.152 35.5268 291.928 35.52 291.679 35.52V37.52C291.898 37.52 292.058 37.5262 292.168 37.5357C292.222 37.5405 292.254 37.5452 292.268 37.5477C292.288 37.5513 292.259 37.5481 292.205 37.5265L292.948 35.6695Z" fill="white"/>
</g>
<defs>
<clipPath id="clip0_290_43004">
<rect width="330" height="70" fill="white"/>
</clipPath>
</defs>
</svg>
