<svg width="330" height="210" viewBox="0 0 330 210" fill="none" xmlns="http://www.w3.org/2000/svg">
<g clip-path="url(#clip0_288_42991)">
<path d="M330.051 197.936V49.2037C330.051 49.1877 330.039 49.1748 330.023 49.1748C330.007 49.1748 329.994 49.1619 329.994 49.1459V18.0848C329.994 8.3212 322.079 0.40625 312.315 0.40625H17.73H12.2574C5.51627 0.40625 0.0515137 5.87101 0.0515137 12.6121V49.1748V197.936C0.0515137 204.678 5.51626 210.142 12.2573 210.142H317.846C324.587 210.142 330.051 204.678 330.051 197.936Z" fill="#204D71"/>
<path d="M317.846 1.62598H12.2573C6.19026 1.62598 1.27197 6.54426 1.27197 12.6113V197.936C1.27197 204.003 6.19026 208.921 12.2573 208.921H317.846C323.913 208.921 328.831 204.003 328.831 197.936V12.6113C328.831 6.54426 323.913 1.62598 317.846 1.62598Z" stroke="white" stroke-width="2.44118"/>
</g>
<defs>
<clipPath id="clip0_288_42991">
<rect width="330" height="210" fill="white"/>
</clipPath>
</defs>
</svg>
