<svg width="164" height="202" viewBox="0 0 164 202" fill="none" xmlns="http://www.w3.org/2000/svg">
<g clip-path="url(#clip0_277_41811)">
<g clip-path="url(#clip1_277_41811)">
<path d="M161.783 170.456V191.568C161.783 196.307 157.914 200.148 153.204 200.148H10.2132C5.47491 200.148 1.63379 196.278 1.63379 191.568V170.456H161.783Z" fill="#204D71"/>
<path d="M161.783 39.1021V170.457H1.63379V39.1021H161.783Z" fill="#204D71"/>
<path d="M161.783 10.784V39.1018H1.63379V10.784C1.63379 6.07375 5.50295 2.20459 10.2132 2.20459H153.176C157.914 2.20459 161.755 6.07375 161.755 10.784H161.783Z" fill="#204D71"/>
<path d="M161.784 170.455V191.567C161.784 196.305 157.915 200.147 153.205 200.147H10.2142C5.47589 200.147 1.63477 196.277 1.63477 191.567V10.7821C1.63477 6.0718 5.50392 2.20264 10.2142 2.20264H153.177C157.915 2.20264 161.756 6.0718 161.756 10.7821V170.455H161.784Z" stroke="white" stroke-width="2.71358"/>
<path d="M1.63477 39.1001H161.784" stroke="white" stroke-width="2.04218"/>
<path d="M1.63477 170.454H161.784" stroke="white" stroke-width="2.04218"/>
</g>
</g>
<defs>
<clipPath id="clip0_277_41811">
<rect width="162.897" height="200.692" fill="white" transform="translate(0.262207 0.825195)"/>
</clipPath>
<clipPath id="clip1_277_41811">
<rect width="162.897" height="200.692" fill="white" transform="translate(0.262207 0.825195)"/>
</clipPath>
</defs>
</svg>
