<svg width="172" height="172" viewBox="0 0 172 172" fill="none" xmlns="http://www.w3.org/2000/svg">
<path d="M141.802 95.9606C140.986 100.613 139.58 105.097 137.723 109.299C138.736 109.552 139.692 109.778 140.564 109.975C138.426 114.825 135.698 119.365 132.407 123.426L129.285 122.665C126.332 126.246 122.872 129.432 119.103 132.139C119.862 132.873 120.565 133.521 121.24 134.17C117.049 137.272 112.436 139.838 107.486 141.783L105.151 139.584C100.848 141.107 96.3193 142.178 91.5938 142.657C91.9032 143.616 92.1845 144.603 92.4377 145.477C90.2437 145.731 88.0216 145.844 85.7714 145.844C82.6774 145.844 79.6396 145.618 76.6861 145.167L75.7861 142.093C71.145 141.276 66.7008 139.866 62.5098 138.005C62.2566 139.02 62.0316 139.979 61.8347 140.853C56.9686 138.71 52.4682 135.974 48.3615 132.675L49.121 129.545C45.5488 126.528 42.3703 123.116 39.6701 119.337C38.9388 120.099 38.2918 120.804 37.6449 121.48C34.5508 117.279 31.9912 112.654 30.0504 107.691L32.2725 105.351C30.6973 101.036 29.6566 96.4964 29.1784 91.759C28.2221 92.0692 27.2376 92.3512 26.3657 92.605C26.1125 90.4055 26 88.1778 26 85.9219C26 82.8201 26.2531 79.7746 26.6751 76.8138L29.741 75.9114C30.5848 71.2587 31.9631 66.8033 33.8195 62.6017C32.8069 62.3479 31.8506 62.1224 30.9786 61.925C33.1163 57.0466 35.8447 52.5348 39.1356 48.4179L42.2578 49.1792C45.2675 45.598 48.6709 42.4116 52.4401 39.7045C51.6806 38.9713 50.9774 38.3228 50.3023 37.6742C54.4934 34.5724 59.1063 32.0063 64.0849 30.0606L66.4195 32.2883C70.7231 30.7092 75.2235 29.6658 79.949 29.1864H79.9771C79.6677 28.2277 79.3864 27.2407 79.1333 26.3666C81.3272 26.1128 83.5493 26 85.7995 26C88.8655 26 91.9032 26.2538 94.8567 26.6768L95.7567 29.7504C100.398 30.5964 104.87 31.9781 109.061 33.8392C109.286 32.8241 109.539 31.8653 109.736 30.9911C114.574 33.1342 119.103 35.8695 123.153 39.1687L122.422 42.2988C125.938 45.316 129.144 48.728 131.845 52.5066C132.576 51.7453 133.223 51.0403 133.87 50.3636C136.964 54.5651 139.523 59.1897 141.464 64.1808L139.27 66.4931C140.789 70.8075 141.858 75.3475 142.364 80.0848C143.321 79.8028 144.277 79.5209 145.149 79.2671C145.402 81.4666 145.515 83.6942 145.515 85.9501C145.515 89.0238 145.29 92.0692 144.84 95.0301L141.774 95.9324H141.802V95.9606ZM122.281 86.0065C122.281 65.7882 105.911 49.4048 85.7714 49.4048C65.632 49.4048 49.2616 65.7882 49.2616 86.0065C49.2616 106.225 65.6038 122.608 85.7714 122.608C105.939 122.608 122.281 106.197 122.281 86.0065V86.0065Z" fill="url(#paint0_radial_54_234)"/>
<path d="M85.7714 49.3776C105.911 49.3776 122.281 65.761 122.281 85.9793C122.281 106.198 105.911 122.581 85.7714 122.581C65.6319 122.581 49.2616 106.17 49.2616 85.9793C49.2616 65.7892 65.6038 49.3776 85.7714 49.3776V49.3776ZM118.484 85.9793C118.484 67.8477 103.829 53.1562 85.7714 53.1562C67.7134 53.1562 53.0307 67.8477 53.0307 85.9793C53.0307 104.111 67.6852 118.774 85.7714 118.774C103.857 118.774 118.484 104.083 118.484 85.9793Z" fill="url(#paint1_radial_54_234)"/>
<path d="M109.624 76.8128C111.34 79.6608 110.468 83.3548 107.655 85.0749C104.843 86.8232 101.158 85.9491 99.414 83.1292C97.6983 80.2812 98.5702 76.5872 101.383 74.8671C104.196 73.1187 107.88 73.9929 109.624 76.8128Z" fill="url(#paint2_radial_54_234)"/>
<path d="M85.7709 53.1553C103.829 53.1553 118.483 67.8467 118.483 85.9784C118.483 104.11 103.829 118.773 85.7709 118.773C67.7129 118.773 53.0303 104.082 53.0303 85.9784C53.0303 67.8749 67.6848 53.1553 85.7709 53.1553ZM116.233 85.9784C116.233 69.1157 102.591 55.4112 85.7709 55.4112C68.9506 55.4112 55.2805 69.0875 55.2805 85.9784C55.2805 102.869 68.9224 116.517 85.7709 116.517C102.619 116.517 116.233 102.841 116.233 85.9784Z" fill="url(#paint3_radial_54_234)"/>
<path d="M85.7713 55.4103C102.564 55.4103 116.234 69.0866 116.234 85.9775C116.234 102.868 102.592 116.517 85.7713 116.517C68.951 116.517 55.2809 102.84 55.2809 85.9775C55.2809 69.1148 68.9228 55.4103 85.7713 55.4103V55.4103ZM107.655 85.047C110.467 83.3268 111.339 79.6328 109.624 76.7848C107.88 73.9649 104.195 73.0908 101.382 74.8391C98.5694 76.5592 97.6975 80.2532 99.4133 83.1013C101.157 85.9211 104.842 86.7953 107.655 85.047ZM101.804 105.857C103.942 103.32 103.661 99.541 101.129 97.3979C98.5976 95.2266 94.8285 95.5368 92.6907 98.0747C90.5249 100.584 90.8343 104.363 93.3658 106.534C95.8692 108.706 99.6383 108.395 101.804 105.857ZM97.7819 89.9253C98.2882 88.3462 97.4443 86.7107 95.8973 86.1749C94.3222 85.6673 92.6907 86.5133 92.1563 88.0642C91.65 89.6433 92.4939 91.307 94.0409 91.8146C95.616 92.3222 97.2756 91.4762 97.7819 89.9253ZM93.8721 79.8302C94.8285 78.5049 94.5472 76.6438 93.2533 75.685C91.9032 74.7263 90.0749 75.0083 89.0904 76.3054C88.1059 77.6025 88.4435 79.4636 89.7373 80.4506C91.0312 81.4375 92.8876 81.1274 93.8721 79.8302ZM87.2621 71.991C90.4687 71.2015 92.4376 67.9868 91.7063 64.7722C90.9187 61.5576 87.684 59.5837 84.4493 60.345C81.2146 61.1064 79.2738 64.3492 80.0333 67.5639C80.7927 70.7785 84.0274 72.7524 87.234 71.991H87.2621ZM90.8906 85.9211C90.8906 83.0731 88.6122 80.7608 85.7713 80.7608C82.9304 80.7608 80.624 83.0731 80.624 85.9211C80.624 88.7692 82.9304 91.0533 85.7713 91.0533C88.6122 91.0533 90.8906 88.7692 90.8906 85.9211V85.9211ZM85.7151 98.6105C87.3465 98.6387 88.6685 97.2851 88.6685 95.6778C88.6685 94.0705 87.3465 92.717 85.7432 92.717C84.1399 92.717 82.7898 94.0423 82.7898 95.6496C82.7898 97.2569 84.1118 98.6105 85.7151 98.6105ZM81.8053 80.4224C83.1555 79.4636 83.4367 77.6025 82.4804 76.2772C81.524 74.9237 79.6676 74.6417 78.3456 75.6004C76.9955 76.5592 76.7142 78.4203 77.6705 79.7456C78.6269 81.0992 80.4833 81.3811 81.8053 80.4224ZM79.6395 104.137C80.8771 101.064 79.4145 97.5671 76.3485 96.27C73.2826 95.0293 69.7948 96.4956 68.529 99.5692C67.2633 102.643 68.7259 106.139 71.7637 107.408C74.8296 108.706 78.3175 107.211 79.6114 104.166L79.6395 104.137ZM77.3893 91.7018C78.9644 91.1942 79.7801 89.5023 79.3301 87.9796C78.8238 86.4005 77.1361 85.5263 75.6172 86.0339C74.0421 86.5415 73.1701 88.2334 73.6764 89.7561C74.1827 91.3352 75.8704 92.153 77.3893 91.7018ZM73.0295 80.1404C73.2826 76.813 70.8074 73.9367 67.4883 73.6829C64.1974 73.4292 61.3283 75.9106 61.0752 79.2381C60.822 82.5373 63.2973 85.4417 66.5601 85.6955C69.8792 85.9493 72.7482 83.4678 73.0013 80.1404H73.0295Z" fill="url(#paint4_radial_54_234)"/>
<path d="M101.129 97.4257C103.661 99.5688 103.942 103.347 101.804 105.885C99.6384 108.423 95.8693 108.733 93.3659 106.562C90.8344 104.391 90.525 100.612 92.6908 98.1025C94.8285 95.5646 98.5977 95.2544 101.129 97.4257Z" fill="url(#paint5_radial_54_234)"/>
<path d="M95.9252 86.2027C97.4441 86.7385 98.288 88.4022 97.8098 89.9531C97.3035 91.4758 95.6158 92.3218 94.0688 91.8424C92.5499 91.3348 91.7061 89.6429 92.1842 88.092C92.7187 86.5693 94.3782 85.7233 95.9252 86.2027Z" fill="url(#paint6_radial_54_234)"/>
<path d="M93.2532 75.7436C94.5752 76.6742 94.8565 78.5635 93.872 79.8888C92.8875 81.2141 91.0592 81.4961 89.7372 80.5092C88.4152 79.5222 88.1058 77.6893 89.0903 76.364C90.0748 75.0386 91.9031 74.7566 93.2532 75.7436Z" fill="url(#paint7_radial_54_234)"/>
<path d="M91.707 64.8008C92.4665 68.0155 90.4975 71.2583 87.2629 72.0197C84.0282 72.781 80.8216 70.8353 80.0622 67.5925C79.3027 64.3497 81.2435 61.135 84.4782 60.3737C87.7129 59.6123 90.9476 61.558 91.7352 64.8008H91.707V64.8008Z" fill="url(#paint8_radial_54_234)"/>
<path d="M85.7719 80.8184C88.6128 80.8184 90.8911 83.1306 90.8911 85.9787C90.8911 88.8267 88.6128 91.1108 85.7719 91.1108C82.931 91.1108 80.6245 88.8267 80.6245 85.9787C80.6245 83.1306 82.931 80.8184 85.7719 80.8184V80.8184Z" fill="url(#paint9_radial_54_234)"/>
<path d="M88.6695 95.7085C88.6695 97.344 87.3193 98.6693 85.7161 98.6411C84.0846 98.6411 82.7908 97.3158 82.7908 95.6803C82.7908 94.0448 84.1409 92.7476 85.7442 92.7476C87.3475 92.7476 88.6695 94.1011 88.6695 95.7085Z" fill="url(#paint10_radial_54_234)"/>
<path d="M82.4805 76.3351C83.4087 77.6605 83.1274 79.4934 81.8054 80.4803C80.4834 81.4109 78.6551 81.1289 77.6707 79.8036C76.7425 78.4782 77.0237 76.6453 78.3457 75.6584C79.6677 74.7278 81.496 75.0098 82.4805 76.3351Z" fill="url(#paint11_radial_54_234)"/>
<path d="M76.377 96.299C79.443 97.5961 80.9056 101.093 79.668 104.166C78.3741 107.24 74.8863 108.706 71.8203 107.409C68.7544 106.168 67.3199 102.644 68.5857 99.57C69.8514 96.4964 73.3392 95.03 76.4052 96.2708H76.377V96.299Z" fill="url(#paint12_radial_54_234)"/>
<path d="M79.3312 88.0354C79.8094 89.5581 78.9656 91.2501 77.3904 91.7576C75.8715 92.237 74.1839 91.391 73.6776 89.8119C73.1713 88.2892 74.0432 86.5973 75.6184 86.0897C77.1373 85.5821 78.8249 86.4563 79.3312 88.0354Z" fill="url(#paint13_radial_54_234)"/>
<path d="M67.489 73.7676C70.8081 74.0213 73.2552 76.8976 73.0302 80.225C72.8052 83.5525 69.908 86.0057 66.589 85.7801C63.298 85.5264 60.8509 82.6219 61.1041 79.3227C61.3572 75.9952 64.2262 73.542 67.5172 73.7676H67.489Z" fill="url(#paint14_radial_54_234)"/>
<defs>
<radialGradient id="paint0_radial_54_234" cx="0" cy="0" r="1" gradientUnits="userSpaceOnUse" gradientTransform="translate(85.7433 85.9219) scale(59.7714 59.9219)">
<stop offset="0.62" stop-color="#212121"/>
<stop offset="0.7" stop-color="#2A2A2A"/>
<stop offset="0.75" stop-color="#333333"/>
<stop offset="0.85" stop-color="#272727"/>
<stop offset="0.9" stop-color="#202020"/>
<stop offset="1" stop-color="#353535"/>
</radialGradient>
<radialGradient id="paint1_radial_54_234" cx="0" cy="0" r="1" gradientUnits="userSpaceOnUse" gradientTransform="translate(85.7714 85.9793) scale(36.5098 36.6017)">
<stop offset="0.26" stop-color="#212121"/>
<stop offset="0.36" stop-color="#2A2A2A"/>
<stop offset="0.49" stop-color="#3F3F3F"/>
<stop offset="0.69" stop-color="#333333"/>
<stop offset="0.93" stop-color="#202020"/>
</radialGradient>
<radialGradient id="paint2_radial_54_234" cx="0" cy="0" r="1" gradientUnits="userSpaceOnUse" gradientTransform="translate(104.533 79.971) scale(5.9912 6.00629)">
<stop offset="0.69" stop-color="#171717"/>
<stop offset="0.8" stop-color="#1A1A1A"/>
<stop offset="0.89" stop-color="#242424"/>
<stop offset="0.97" stop-color="#343434"/>
<stop offset="1" stop-color="#3F3F3F"/>
</radialGradient>
<radialGradient id="paint3_radial_54_234" cx="0" cy="0" r="1" gradientUnits="userSpaceOnUse" gradientTransform="translate(85.7428 85.9502) scale(32.7407 32.8231)">
<stop stop-color="white"/>
<stop offset="0.13" stop-color="#F0F0F0"/>
<stop offset="0.37" stop-color="#C9CACB"/>
<stop offset="0.52" stop-color="#ADAEB0"/>
<stop offset="0.6" stop-color="#A3A5A7"/>
<stop offset="0.74" stop-color="#898D8F"/>
<stop offset="0.91" stop-color="#5E6669"/>
<stop offset="1" stop-color="#465053"/>
</radialGradient>
<radialGradient id="paint4_radial_54_234" cx="0" cy="0" r="1" gradientUnits="userSpaceOnUse" gradientTransform="translate(85.7432 85.9775) scale(30.4904 30.5672)">
<stop stop-color="white"/>
<stop offset="0.13" stop-color="#F0F0F0"/>
<stop offset="0.37" stop-color="#C9CACB"/>
<stop offset="0.52" stop-color="#ADAEB0"/>
<stop offset="0.6" stop-color="#A3A5A7"/>
<stop offset="0.74" stop-color="#898D8F"/>
<stop offset="0.91" stop-color="#5E6669"/>
<stop offset="1" stop-color="#465053"/>
</radialGradient>
<radialGradient id="paint5_radial_54_234" cx="0" cy="0" r="1" gradientUnits="userSpaceOnUse" gradientTransform="translate(97.2475 102.022) scale(5.9912 6.00629)">
<stop offset="0.69" stop-color="#171717"/>
<stop offset="0.8" stop-color="#1A1A1A"/>
<stop offset="0.89" stop-color="#242424"/>
<stop offset="0.97" stop-color="#343434"/>
<stop offset="1" stop-color="#3F3F3F"/>
</radialGradient>
<radialGradient id="paint6_radial_54_234" cx="0" cy="0" r="1" gradientUnits="userSpaceOnUse" gradientTransform="translate(94.997 89.0226) scale(2.95341 2.96085)">
<stop stop-color="white"/>
<stop offset="0.13" stop-color="#F0F0F0"/>
<stop offset="0.37" stop-color="#C9CACB"/>
<stop offset="0.52" stop-color="#ADAEB0"/>
<stop offset="0.6" stop-color="#A3A5A7"/>
<stop offset="0.74" stop-color="#898D8F"/>
<stop offset="0.91" stop-color="#5E6669"/>
<stop offset="1" stop-color="#465053"/>
</radialGradient>
<radialGradient id="paint7_radial_54_234" cx="0" cy="0" r="1" gradientUnits="userSpaceOnUse" gradientTransform="translate(91.5093 78.1123) scale(2.95341 2.96085)">
<stop stop-color="white"/>
<stop offset="0.13" stop-color="#F0F0F0"/>
<stop offset="0.37" stop-color="#C9CACB"/>
<stop offset="0.52" stop-color="#ADAEB0"/>
<stop offset="0.6" stop-color="#A3A5A7"/>
<stop offset="0.74" stop-color="#898D8F"/>
<stop offset="0.91" stop-color="#5E6669"/>
<stop offset="1" stop-color="#465053"/>
</radialGradient>
<radialGradient id="paint8_radial_54_234" cx="0" cy="0" r="1" gradientUnits="userSpaceOnUse" gradientTransform="translate(85.8846 66.2108) scale(5.9912 6.00629)">
<stop offset="0.69" stop-color="#171717"/>
<stop offset="0.8" stop-color="#1A1A1A"/>
<stop offset="0.89" stop-color="#242424"/>
<stop offset="0.97" stop-color="#343434"/>
<stop offset="1" stop-color="#3F3F3F"/>
</radialGradient>
<radialGradient id="paint9_radial_54_234" cx="0" cy="0" r="1" gradientUnits="userSpaceOnUse" gradientTransform="translate(85.7438 85.9505) scale(5.14737 5.16034)">
<stop stop-color="#AEB0B7"/>
<stop offset="0.32" stop-color="#A9A9A8"/>
<stop offset="0.35" stop-color="#A9A9A6"/>
<stop offset="0.5" stop-color="#9A9D9E"/>
<stop offset="0.67" stop-color="#838C92"/>
<stop offset="1" stop-color="#657076"/>
</radialGradient>
<radialGradient id="paint10_radial_54_234" cx="0" cy="0" r="1" gradientUnits="userSpaceOnUse" gradientTransform="translate(85.7161 95.7085) scale(2.95341 2.96085)">
<stop stop-color="white"/>
<stop offset="0.13" stop-color="#F0F0F0"/>
<stop offset="0.37" stop-color="#C9CACB"/>
<stop offset="0.52" stop-color="#ADAEB0"/>
<stop offset="0.6" stop-color="#A3A5A7"/>
<stop offset="0.74" stop-color="#898D8F"/>
<stop offset="0.91" stop-color="#5E6669"/>
<stop offset="1" stop-color="#465053"/>
</radialGradient>
<radialGradient id="paint11_radial_54_234" cx="0" cy="0" r="1" gradientUnits="userSpaceOnUse" gradientTransform="translate(80.0897 78.0552) scale(2.95341 2.96085)">
<stop stop-color="white"/>
<stop offset="0.13" stop-color="#F0F0F0"/>
<stop offset="0.37" stop-color="#C9CACB"/>
<stop offset="0.52" stop-color="#ADAEB0"/>
<stop offset="0.6" stop-color="#A3A5A7"/>
<stop offset="0.74" stop-color="#898D8F"/>
<stop offset="0.91" stop-color="#5E6669"/>
<stop offset="1" stop-color="#465053"/>
</radialGradient>
<radialGradient id="paint12_radial_54_234" cx="0" cy="0" r="1" gradientUnits="userSpaceOnUse" gradientTransform="translate(74.0987 101.882) scale(5.9912 6.00629)">
<stop offset="0.69" stop-color="#171717"/>
<stop offset="0.8" stop-color="#1A1A1A"/>
<stop offset="0.89" stop-color="#242424"/>
<stop offset="0.97" stop-color="#343434"/>
<stop offset="1" stop-color="#3F3F3F"/>
</radialGradient>
<radialGradient id="paint13_radial_54_234" cx="0" cy="0" r="1" gradientUnits="userSpaceOnUse" gradientTransform="translate(76.5185 88.9378) scale(2.95341 2.96085)">
<stop stop-color="white"/>
<stop offset="0.13" stop-color="#F0F0F0"/>
<stop offset="0.37" stop-color="#C9CACB"/>
<stop offset="0.52" stop-color="#ADAEB0"/>
<stop offset="0.6" stop-color="#A3A5A7"/>
<stop offset="0.74" stop-color="#898D8F"/>
<stop offset="0.91" stop-color="#5E6669"/>
<stop offset="1" stop-color="#465053"/>
</radialGradient>
<radialGradient id="paint14_radial_54_234" cx="0" cy="0" r="1" gradientUnits="userSpaceOnUse" gradientTransform="translate(67.0671 79.7739) scale(5.9912 6.00629)">
<stop offset="0.69" stop-color="#171717"/>
<stop offset="0.8" stop-color="#1A1A1A"/>
<stop offset="0.89" stop-color="#242424"/>
<stop offset="0.97" stop-color="#343434"/>
<stop offset="1" stop-color="#3F3F3F"/>
</radialGradient>
</defs>
</svg>
