<?xml version="1.0" encoding="UTF-8"?><svg xmlns="http://www.w3.org/2000/svg" viewBox="0 0 53.27 79.1"><defs><style>.cls-1{stroke-width:.4px;}.cls-1,.cls-2,.cls-3,.cls-4{fill:none;stroke:#231f20;stroke-miterlimit:10;}.cls-5{fill:#f3f2e1;}.cls-6{fill:#f2f1dc;}.cls-7{fill:#e8dcd5;}.cls-8{fill:#6b574a;}.cls-9{fill:#c2d2e0;}.cls-10{fill:#8c9b32;}.cls-11{fill:#b9cb5a;}.cls-12{fill:#aea132;}.cls-13{fill:#dddcbf;}.cls-14{fill:#d5cdb4;}.cls-15{fill:#231f20;}.cls-16{fill:#a2b0a8;}.cls-17{fill:#637057;}.cls-18{fill:#5e6d6e;}.cls-19{fill:#5e624a;}.cls-20{fill:#494c59;}.cls-21{fill:#787b54;}.cls-22{fill:#504e47;}.cls-23{mix-blend-mode:multiply;}.cls-2{stroke-width:.2px;}.cls-3{stroke-width:.3px;}.cls-24{isolation:isolate;}.cls-4{stroke-width:.25px;}</style></defs><g class="cls-24"><g id="Layer_2"><g id="Zombie"><g id="Arm_2"><g><path class="cls-11" d="M29.26,23.41l.02-.02c1.68-1.09,6.76,1.01,4.24,5.4-1.39,2.22-5.27,2.11-6.6-.01-2.23,.8-4.08-.25-4.86-1.53-.6-1-.56-2.14,.46-2.67l-.66-1.37s-.34-.58-1.09-1.08c.52-.3,1.09-.62,1.19-.62,.19,0,1.44-.09,1.51,.16,.06,.22,.27,.73,.32,.85,1.14-.37,3.64-.88,5.47,.89Z"/><path class="cls-11" d="M19.74,27.13c-2.03,2.04-3.97-.81-7.66-.63,.31-.93,.01-2.37-.47-3.18,3.6-.51,4.52-1.52,5.76-1.79,1.57-.27,2.67,.12,3.4,.6,.75,.5,1.09,1.08,1.09,1.08l.66,1.37c-1.02,.53-1.06,1.67-.46,2.67l-.06,.04c-.49,.14-1.06-.34-2.26-.16Z"/><path class="cls-20" d="M11.61,23.32c.48,.81,.78,2.25,.47,3.18-.04,.13-.09,.24-.15,.34-.43,.51-1.87,.35-2.06,.29s-.26-.44-.26-.44c1-.28,.26-3.56-.75-3.27v-.03c-.02-.08-.03-.32,.18-.48,.32-.19,1.75-.26,2.07-.14,.18,.1,.35,.29,.5,.55Z"/><path class="cls-11" d="M9.19,30.4c-.07-.16-.28-.56-.45-.73,.37-.11,.74-.42,.91-.76,.27,.55,1.26,.91,1.21,1.15-.04,.22-.41,.51-.61,1.02-.25,.64-.04,1.19-.54,1.33-1.59-.45-1.14-1.47-.52-2.01Z"/><path class="cls-8" d="M4.57,29.85h0s-.72,.3-1.07,.35c.71-.68,.36-2.01,.47-2.59,.05-.03,.14,0,.25,.06,.36,.17,.99,.61,1.52,.47,.43-.19,.78-1.96,.78-1.96,0,0-.34-.68-1.53-.65-.16-.13,.01-.26,.24-.39,1.06-.64,1.34-1.06,1.61-1.98,.24,.01,.62,.21,1.02,.55,.7,.61,1.43,1.67,1.48,3.01,.01,.09,.01,.18,.01,.27-.29-.01-.59-.37-.87-.17,.24,.64,.53,1.35,1.28,1.63,.02,.15-.02,.3-.11,.46-.17,.34-.54,.65-.91,.76-.17,.05-.34,.06-.49,.02,0,0-.1-.48-.52-.83-.81,.1-1.54,1.29-1.94,2.22l-.09-.18h-.01c-.27-.52-.75-.94-1.12-1.05Z"/><path class="cls-11" d="M8.86,23.42c1.01-.29,1.75,2.99,.75,3.27l-.27,.03c-.05-1.34-.78-2.4-1.48-3.01l1-.32v.03Z"/><path class="cls-11" d="M5.63,32.9c.85-.37,2.2,.02,1.66,1.5-.75-.6-2.07-.09-2.39-.02-.31,.07-.64-.56-.64-.56,.05-.43-.07-.91-.25-1.37-.03-.08-.07-.16-.1-.24-.28-.6-.63-1.12-.77-1.32-.12-.04-.16-.13-.13-.24,.02-.2,.24-.46,.31-.45,.03,.02,.09,.02,.18,0,.35-.05,1.07-.34,1.07-.34h0c.37,.1,.85,.52,1.12,1.04-.39,.11-.48,.26-.76,.34h0c.41,.41,.67,.93,.7,1.66Z"/><path class="cls-11" d="M6.52,26.18s-.35,1.77-.78,1.96c-.53,.14-1.16-.3-1.52-.47v-.03c.01-.06,.02-1.26,.77-2.11,1.19-.03,1.53,.65,1.53,.65Z"/><path class="cls-11" d="M2.85,32.22c.1,.24,.14,.47,.15,.68,.02,.35-.04,.61-.04,.61v.02c.13-.03,.24-.03,.36,0,1.47,.32,1.38,1.96,.97,1.86-.24-.05-.47-.31-.78-.51,0-.01-.01-.01-.01-.01-.33-.22-.75-.37-1.36-.13-.5,.07-1.01-.23-.76-.61,.15-.25,.04-1.17-.11-1.94-.09-.44-.19-.83-.26-1.01-.19-.5,.62-.7,.69-.52,.69-.01,1.31-.01,1.31-.01-.03,.11,.01,.2,.13,.24,.14,.2,.49,.72,.77,1.32-.3-.01-.7-.11-1.06,.01Z"/><path class="cls-11" d="M3.91,32.21c.03,.08,.07,.16,.1,.24-.53,.06-1.01,.45-1.01,.45-.01-.21-.05-.44-.15-.68,.36-.12,.76-.02,1.06-.01Z"/><path class="cls-11" d="M3.51,34.88c.26,.18,.35,.85,.17,.94-.19,.05-.62-.24-1.21-.21-.57,.04-.46,.16-.96,.17-.25,.01-.25-.45-.57-1.24-.33-.8-.78-1.15-.67-1.44,.1-.28,.59-.1,1-.91,.15,.77,.26,1.69,.11,1.94-.25,.38,.26,.68,.76,.61,.61-.24,1.03-.09,1.36,.13,0,0,.01,0,.01,.01Z"/></g><g id="Layer_89"><path class="cls-10" d="M19.54,22.59c-.17,.03-.29,.08-.42,.17-.02,.07-.04,.13-.07,.2,.23,.24,.6,.5,.93,.5,.18,0,.35-.08,.48-.29-.1-.2-.18-.35-.38-.44"/><path class="cls-10" d="M26.24,22.23c-.29,.11-.42,.28-.42,.46,0,.6,1.07,1.11,1.91,1.11,.04,0,.08,0,.13,0,.43-.02,.61-.27,.61-.56,0-.77-.87-1.02-1.7-1.02-.18,0-.36,0-.53,0,0,0,0,0,0,0Z"/><path class="cls-10" d="M28.89,24.94c-.08,.09-.11,.19-.11,.29,0,.36,.46,.73,.88,.73,.19,0,.37-.08,.49-.27-.17-.47-.53-.83-1-.83-.12,0-.24,.02-.37,.07"/><path class="cls-10" d="M16.04,23.41c.23,.21,.47,.3,.73,.3,.18,0,.38-.05,.57-.13,.03-.07,.06-.14,.09-.21-.25-.22-.48-.32-.75-.32-.13,0-.26,.02-.41,.06"/><path class="cls-10" d="M12.69,23.72c.17,.16,.45,.29,.71,.29,.14,0,.28-.04,.39-.13-.14-.28-.36-.41-.63-.41-.09,0-.2,.02-.3,.05"/><path class="cls-10" d="M17.35,21.54c.18,.48,.69,.8,1.2,.8,.24,0,.47-.07,.67-.23-.29-.46-.78-.65-1.3-.65-.19,0-.38,.03-.57,.07Z"/><path class="cls-10" d="M25.17,22.92s-.01-.03-.03-.05c-.03-.03-.07-.07-.11-.09-.04-.03-.09-.05-.14-.06-.01,0-.02,0-.03,0-.04-.01-.09-.02-.14-.03-.06,0-.12,0-.18,0-.09,.01-.16,.04-.24,.06-.03,0-.05,0-.08,0-.09,0-.18,.03-.26,.07-.06,.02-.11,.06-.15,.1-.04,.03-.08,.07-.1,.12-.03,.05-.04,.11-.02,.17,0,.07,.04,.14,.08,.2,.01,.02,.03,.04,.04,.05,.04,.03,.08,.07,.12,.1,.25,.15,.55,.12,.81,.01,.11-.05,.21-.12,.29-.21,.08-.08,.12-.17,.15-.28,0,0,0-.02,0-.03,0-.06,0-.09-.02-.13Z"/><path class="cls-10" d="M31.65,23.55c-.17-.16-.4-.23-.64-.24-.06-.03-.14-.05-.2-.05-.25,0-.5,.02-.75,.03,0,0-.02,0-.02,0-.2-.04-.42,0-.6,.08-.23,.09-.47,.26-.45,.53,0,.04,.04,.07,.09,.09,0,.04,0,.07,.03,.11,.05,.08,.16,.12,.25,.13,.05,.06,.11,.12,.16,.18,.06,.06,.18,.08,.26,.08,.12,0,.27-.03,.38-.08,.09-.04,.21-.09,.26-.18,.04-.07,.04-.12,0-.19,0,0,0-.01-.01-.02,.06-.04,.12-.09,.15-.15,.02,0,.05-.01,.07-.02,.01,0,.03,.01,.04,.02,.02,.01,.04,.02,.06,.04-.06-.04,.02,.02,.03,.03,.15,.15,.47,.08,.64,0,.1-.05,.42-.23,.26-.38Z"/><path class="cls-10" d="M15.62,24.47c-.19,0-.55,.02-.68,.18-.09,.11-.18,.23,.06,.23,.19,0,.55-.02,.68-.18,.09-.11,.18-.23-.06-.23Z"/><path class="cls-10" d="M15.05,23.28c-.2,0-.55,.06-.63,.28-.08,.2,.07,.36,.28,.36,.2,0,.55-.06,.63-.28,.08-.2-.07-.36-.28-.36Z"/><path class="cls-10" d="M26.05,23.6c-.31,0-1.04,.46-.4,.46,.31,0,1.04-.46,.4-.46Z"/><path class="cls-10" d="M27.83,24.28c-.55,0-.74,.7-.09,.7,.55,0,.74-.7,.09-.7Z"/><path class="cls-10" d="M22.8,21.91s-.02,0-.04-.02c0-.02,0-.05-.01-.07-.04-.09-.09-.14-.18-.19,0,0,0,0-.01,0,0-.01,0-.03,0-.04-.03-.06-.06-.11-.11-.15-.03-.02-.07-.05-.11-.07-.08-.03-.15-.05-.24-.05-.03,0-.06,0-.09,0-.08,0-.13,0-.21,.03-.17,.05-.38,.14-.43,.33,0,0,0,0,0,0-.02,.01-.04,.02-.06,.04-.02,.02-.04,.05-.06,.07-.03,.04-.04,.09-.03,.14,0,.06,.04,.11,.07,.16,.04,.05,.09,.09,.15,.11,.07,.03,.14,.04,.21,.05,.02,.01,.04,.02,.06,.03,.04,.02,.09,.02,.14,.03,0,0,0,.02,0,.03,.01,.04,.03,.07,.07,.09,.03,.03,.08,.05,.12,.06,.04,0,.07,0,.11,.01,.09,0,.17,0,.25-.03,.04-.01,.08-.03,.13-.04,.07-.03,.14-.07,.2-.12,.03-.03,.05-.06,.08-.09,.04-.03,.06-.07,.08-.11,.02-.03,.03-.07,.02-.11-.01-.04-.03-.07-.07-.09Z"/><path class="cls-10" d="M9.54,23.68c-.35,0-1.03,.53-.38,.53,.35,0,1.03-.53,.38-.53Z"/><path class="cls-10" d="M5.24,26.02c-.55,0-.75,.7-.09,.7,.55,0,.75-.7,.09-.7Z"/><path class="cls-10" d="M5.32,27c-.19,0-.56,.06-.64,.27-.07,.2,.06,.3,.27,.3,.19,0,.56-.06,.64-.27,.07-.2-.06-.3-.27-.3Z"/><path class="cls-10" d="M10.99,29.88s.04-.06,.03-.1c0-.04,0-.07-.03-.09-.02-.01-.04-.03-.06-.04-.06-.03-.13-.04-.2-.04-.04,0-.08,0-.12,0-.09,.01-.17,.03-.26,.07-.1,.05-.15,.08-.24,.14-.04,.03-.07,.07-.1,.1-.01,.01-.02,.03-.03,.05-.02,.04-.04,.07-.05,.11,0,.02,0,.03,0,.05,0,.04,0,.08,0,.12,0,.06,.04,.11,.08,.15,.03,.03,.07,.05,.11,.06,.05,.02,.1,.03,.15,.02,.06,0,.13,0,.19-.02,.07-.01,.13-.03,.19-.06,.04-.02,.07-.04,.11-.05,.06-.03,.11-.08,.15-.13,.01-.02,.02-.05,.03-.07,.01-.05,0-.08-.03-.12l.02,.03s-.02-.05-.02-.08c0-.01,0-.02,0-.03,.03-.02,.06-.04,.08-.07Z"/><path class="cls-10" d="M31.6,24.8c-.04-.07-.07-.14-.11-.21-.03-.05-.08-.06-.13-.05-.02-.01-.04-.03-.06-.02-.03,0-.06,.01-.09,.04-.04,.04-.06,.1-.07,.16,0,0,0,0,0,0,0,0,0,0,0,0-.02,.02-.04,.06-.04,.09,0,.03,.01,.07,.04,.09,.02,.02,.06,.04,.09,.04,0,0,.01,0,.02,0,0,0,0,0,0,0,.04,.03,.08,.06,.13,.07,.04,0,.07,0,.11,0,.03,0,.05-.02,.07-.03,.03-.02,.05-.04,.06-.07,0-.03,0-.07-.01-.1Z"/><path class="cls-10" d="M18.3,22.99s-.06,.02-.08,.03c.05-.07,.02-.2-.1-.2-.16,0-.16,.25,0,.25,.03,0,.06-.02,.08-.03-.05,.07-.02,.2,.1,.2,.16,0,.16-.25,0-.25Z"/><path class="cls-10" d="M17.41,22.34s-.02,0-.03,0c-.01-.02-.02-.04-.04-.06,0,0,0,0-.01,0-.01,0-.03-.01-.04-.02-.01,0-.03,0-.04,0,0,0-.01,0-.02,0,0,0-.02,0-.03,0,0,0,0,0-.01,0-.01,0-.02,0-.03,0-.02,0-.03,.01-.04,.02-.01,0-.02,.02-.02,.03-.02,.02-.04,.03-.06,.06,0,.02-.02,.04-.02,.06,0,0,0,0,0,.01,0,.02,0,.03,0,.05,0,.01,0,.03,0,.04,0,0,0,0,0,.01,0,.01,.01,.03,.02,.04,.01,.02,.03,.04,.05,.05,0,0,0,0,.01,0,.01,0,.03,.01,.04,.02,.02,0,.04,0,.06,0,.03,0,.05,0,.08-.02,.03-.01,.04-.02,.06-.04,0,0,0,0,.01-.01,0,0,0,0,0,0,.02,0,.04-.02,.06-.04,0,0,0,0,.01-.01,0-.01,.02-.02,.03-.04,.02-.03,.02-.06,.01-.1,0-.03-.03-.06-.06-.07Z"/></g><g id="Layer_88" class="cls-23"><path class="cls-7" d="M12.3,26.35c-.12-.01-.07-1.47-.07-1.47,0,0,1.78,.93,4.12,1.02s4.63-1.13,4.63-1.13l.93,.28,.46-.3s1.71,4.12,7.33,2.09c0,0,1.47,2.74,4.43-.62,.07,.8-.29,3.2-2.24,3.85-1.11,.37-3.76,.61-4.96-1.21,0,0-2.87,1.06-4.93-1.55l-2.18-.21s-1.28,1.11-2.08,.71-4.13-1.31-5.43-1.46Z"/><path class="cls-7" d="M9.88,24.55s-.21,.21-.72-.24-.77-.74-.77-.74c0,0-.63,.09-.5,.13s1.33,1.53,1.42,2.2,.06,.92,.06,.92l.46-.22s.31-1.26,.05-2.05Z"/><path class="cls-7" d="M8.89,25.28s-.15,.92-1.04,.4l.69,.99,.93,.36-.58-1.75Z"/><path class="cls-7" d="M4.32,27.41s.6,.62,1.09-.02,.14-1.85,.14-1.85l.93,.53-.72,2.23s-1.43-.06-1.44-.9Z"/><path class="cls-7" d="M5.37,30.12s.62-.35,.95-.94,.36-.72,.53-.72,.49-.55,1.09-.14,1.36,1.07,1.36,1.07l.43,.54-.54,.47-.39-.66s-.5,.22-.5,.09-.56-.87-.56-.87c0,0-.54,.14-.87,.48s-1.06,1.65-1.06,1.65c0,0-.13-.25-.3-.2s-.62,.35-.62,.35l.78,1.45s.96-.27,1.3,.31c0,0-1.3-.06-1.79,.62,0,0,.2-.67-.24-1.5s-.91-1.62-.91-1.62c0,0,.8,.36,1.33-.36Z"/><path class="cls-7" d="M3.42,31.11l-1.38,.28s.47,.7,.24,1.59-.6,1.35-.4,1.18,.91-.69,1.55-.15,1.03,1.32,1.03,1.32l.03-.92-.81-.78-.67-.16,.03-.71,.83-.48-.44-1.17Z"/><path class="cls-7" d="M1.59,34.62s-.41,.64,.14,.63,1.42,.02,1.68,.26l.26,.25v-.63s-.65-.53-.65-.53l-.79,.14-.63-.11Z"/><path class="cls-7" d="M3.78,29.93c.12-.09,.32-.89,.32-.89l1.5-.24c-.5,.78-1.1,1.18-1.82,1.12Z"/><path class="cls-7" d="M10.1,24.92s.15,1.34-.1,1.59-.33,.51-.2,.51,1.68,.26,2.05,0,.43-1.64,.43-1.64l-.36-1.21s.74,1.62-.26,1.68-1.57-.94-1.57-.94Z"/></g><g><path class="cls-15" d="M22.51,24.58c-2.19,1.8,.91,4.61,3.01,4.32,.78-.03,1.5-.28,2.27-.52-.61,.53-1.41,.89-2.26,.91-1.69,.08-3.45-.93-3.97-2.6-.3-.8,.03-1.93,.95-2.12h0Z"/><path class="cls-1" d="M26.92,28.78c1.32,2.12,5.21,2.23,6.6,.01,2.52-4.39-2.56-6.49-4.24-5.39"/><path class="cls-15" d="M23.17,22.75c2.14-1.53,6.03-.92,6.94,1.76-1.78-2.53-4.22-2.52-6.94-1.76h0Z"/><path class="cls-1" d="M20.77,22.13c.52-.3,1.09-.62,1.19-.62,.19,0,1.44-.09,1.51,.16s.33,.87,.33,.87"/><path class="cls-15" d="M21.86,23.21c-1.23-1.36-3.19-1.92-4.91-1.33-1.65,.8-3.5,1.49-5.37,1.65,0,0-.05-.4-.05-.4,1.88-.26,3.54-.87,5.27-1.66,1.8-.6,4.22-.1,5.06,1.74h0Z"/><path class="cls-15" d="M20.59,26c-.56,1.82-2.3,2.5-4,1.76-1.48-.54-2.93-1.09-4.51-1.05,0,0-.02-.4-.02-.4,.81-.04,1.63,.04,2.42,.25,2.87,.81,3.78,2.22,6.11-.55h0Z"/><path class="cls-1" d="M19.67,27.15c1.25-.21,1.83,.28,2.33,.15"/><path class="cls-1" d="M8.86,23.42s-.08-.31,.18-.51c.31-.19,1.75-.26,2.07-.14,.8,.43,1.5,2.93,.83,4.07-.43,.51-1.88,.35-2.07,.29s-.26-.44-.26-.44c1-.28,.26-3.56-.74-3.28Z"/><path class="cls-1" d="M8.48,26.82c.28-.19,.57,.17,.87,.17,.06-2.27-1.84-3.8-2.51-3.83-.28,.93-.55,1.34-1.61,1.99-.23,.13-.4,.26-.24,.38,1.19-.02,1.53,.66,1.53,.66,0,0-.35,1.77-.78,1.96-.7,.18-1.58-.64-1.77-.53-.1,.58,.24,1.91-.47,2.59"/><path class="cls-15" d="M6.62,28.5c.77-.24,1.74,.3,1.83,1.15,0,0-.15-.15-.15-.15,.51,.12,1.29-.51,1.26-1.03,0,0,.13,.17,.13,.17-1.02-.3-1.31-1.48-1.61-2.36-.1-.27-.21-.55-.51-.68,.35-.05,.67,.25,.83,.53,.44,.75,.62,1.75,1.43,2.13,.13,.08,.14,.02,.13,.17-.02,.93-.95,1.63-1.84,1.45-.24-.69-.72-1.24-1.5-1.37h0Z"/><path class="cls-15" d="M7.76,29.05c-1.06,.29-1.57,1.66-1.99,2.6-.2-.69-.63-1.6-1.4-1.75,0,0-.15-.01-.15-.01,.3-.67,.99-.94,1.59-1.25-.28,.52-.9,.87-1.13,1.29,0,0-.34-.47-.34-.47,.87,.04,1.42,.8,1.63,1.55,0,0-.37,0-.37,0,.46-.95,.94-2.07,2.1-2.36,0,0,.05,.4,.05,.4h0Z"/><path class="cls-15" d="M4.65,30.04c-.37,.14-.74,.29-1.14,.36-.09-.01-.1,.06-.32-.07l.1,.05c.17-.01,.07-.02,.08,0-.07,.07-.17,.22-.17,.31,0,0-.02-.03,0,0,.41,.38,.66,.99,.92,1.5,.21,.5,.4,1.05,.34,1.65l-.02-.12c.1,.2,.33,.46,.41,.45,.16-.04,.51-.15,.78-.2,.56-.11,1.24-.16,1.78,.26l-.31,.09c.16-.55,.09-1.07-.39-1.27-.5-.19-1.13-.14-1.57,.22,.28-.62,1.1-.84,1.73-.62,.76,.2,.94,1.19,.61,1.8,0,0-.09,.27-.09,.27-.69-.69-1.64-.37-2.54-.15-.44-.06-.57-.36-.77-.67-.03-.05-.03-.06-.02-.12,.07-.99-.54-1.98-1.09-2.8,0,0,.11,.08,.11,.08-.12-.02-.27-.16-.28-.31-.02-.29,.11-.47,.29-.66,.06-.03,.02-.09,.27-.11,0,0,.1,.05,.1,.05-.13-.07-.02-.02,0-.04,.36-.07,.7-.21,1.04-.34,0,0,.15,.37,.15,.37h0Z"/><path class="cls-15" d="M4.34,30.8c.85,.34,1.45,1.19,1.49,2.11,0,0-.4,.01-.4,.01-.07-.85-.47-1.55-1.09-2.13h0Z"/><path class="cls-1" d="M4.93,31.25c.28-.08,.36-.23,.76-.34"/><path class="cls-15" d="M9.91,30.02c-.51,.31-1.34,1.23-.82,1.78,.16,.15,.4,.3,.67,.42,0,0-.11,0-.11,0,.23-.02,.22-.38,.29-.78,.07-.49,.36-.92,.65-1.29,.05-.04,.07-.19,.07-.07,0-.01-.2-.17-.34-.26-.3-.21-.65-.42-.86-.83l.36-.17c.26,.52,.86,.59,1.21,1.13,.04,.3-.07,.32-.12,.43-.44,.5-.61,1.04-.68,1.69-.02,.23-.28,.53-.55,.55-.33-.08-.66-.18-.94-.44-.9-.78,.17-2.24,1.16-2.16h0Z"/><path class="cls-1" d="M8.65,29.6c.19,.06,.58,.87,.58,.87"/><path class="cls-1" d="M5,25.52c-.78,.87-.77,2.13-.77,2.13"/><path class="cls-15" d="M3,30.85H1.7s-.19-.12-.19-.12c.06,.1,.07,.06,.04,.07-.1,0-.24,.06-.3,.12-.04,.05-.05,.08-.05,.13,.31,1.02,.57,1.95,.44,3.05-.11,.29-.15,.2-.01,.33,.44,.27,.77-.12,1.32,0,.54,.05,.98,.58,1.38,.77,.04,0-.05,.02-.03,.01,0,0,.03-.05,.04-.09,.12-.55-.26-1.13-.79-1.33-.43-.25-.87-.04-1.41,.07,.87-1.03,2.46-.38,2.62,.89,.07,1.21-.64,.93-1.26,.37-.39-.3-.82-.36-1.26-.17-.28,.06-.58,.02-.85-.15-.12-.08-.26-.23-.29-.44-.04-.19,.13-.42,.11-.4,.06-.33,0-.81-.07-1.23-.08-.58-.19-1.06-.35-1.64-.03-.18,.06-.38,.18-.48,.23-.21,.72-.4,.94-.03,0,0-.19-.13-.19-.13,0,0,1.31-.01,1.31-.01v.4h0Z"/><path class="cls-15" d="M2.82,33.48c-.09-.04,.02-.62-.05-.97-.03-.33-.18-.64-.36-.95,.31,.19,.54,.51,.68,.86,.11,.25,.23,.94,.01,1.12,0,0-.28-.07-.28-.07h0Z"/><path class="cls-1" d="M2.84,32.22c.36-.13,.76-.03,1.07-.02"/><path class="cls-1" d="M1.28,32.18c-.43,.82-.91,.64-1.01,.92s.34,.64,.67,1.43,.32,1.25,.57,1.25c.5,0,.39-.14,.96-.17s1.02,.26,1.2,.21c.19-.1,.1-.79-.17-.96"/><line class="cls-1" x1="7.86" y1="23.71" x2="8.92" y2="23.37"/><line class="cls-1" x1="9.33" y1="26.72" x2="9.61" y2="26.69"/><path class="cls-15" d="M2.87,32.74c.25-.2,.52-.31,.8-.43,.09-.04,.21-.1,.33,.15-.06,.25-.13,.24-.21,.26-.24,.05-.48,.2-.67,.34,0,0-.25-.31-.25-.31h0Z"/></g></g><g id="Leg_1"><g><path class="cls-18" d="M28.95,67.49l.03,.03s-.11,.02-.27,.06c-.02,0-.03,0-.05,.01-.47,.11-1.32,.35-1.43,.71-.1,.35,.46,2.42,1.45,1.25,.03,.48,.12,.78,.23,.95,.21,.33,.52,.18,.71,.03-1.23,1.69,.48,3.67,.84,4.92,.35,1.25-1.08,.86-1.08,.86-.02-.07-.04-.14-.07-.21-.98-3.08-3.83-3.45-5.3-3.44-.68-.94-1.73-1.38-2.46-1.37,.24-.44,.9-.65,1.51-1.25,.03-.02,.06-.05,.1-.09,.11-.12,.22-.26,.32-.41,1.4-2.06,.03-7.33-1.14-10.22h0c.06-.04,.13-.03,.21,.02,.68,.4,.86,1.07,.86,1.07,.15-1.1,1-.02,1.3,2.66,.15-.92,.18-4.28,.6-4.37,.41-.09,.95,1.91,.95,1.91,0,0,.12-2.85-.5-4.6h-.05c.05-.46,.06-1,.02-1.67-.14-.96-.43-1-.69-.78-.22,.16-.41,.49-.46,.6-.01,.02-.02,.03-.02,.03,.52-2.6-.58-2.69-1.37-1.75-.03,.03-.06,.06-.09,.1-.04-.17-.08-.33-.12-.47-.37-1.33-.83-1.17-1.38,.75-.38-2.84,1.77-5.8,2.58-8.02,1.58-5.14,8.38-2.65,6.05,2.92,0,0-2.34,5.24-2.62,8.34-.29,3.11,2.91,8.58,3.43,9.58s-.3,1.77-.3,1.77c0,0-.36-.7-.96-.93-.17-.07-.36-.09-.57-.05-.82,.16-.36,.91-.26,1.06Z"/><path class="cls-11" d="M28.68,69.55c-.99,1.17-1.55-.9-1.45-1.25,.11-.36,.96-.6,1.43-.71,.02-.01,.03-.01,.05-.01,.16-.04,.27-.06,.27-.06l-.03-.03c-.1-.15-.56-.9,.26-1.06,.21-.04,.4-.02,.57,.05-.27,.5-.24,1.22-.37,1.98-.18,1.01-.47,2.02-.47,2.02l-.03,.02c-.11-.17-.2-.47-.23-.95Z"/><path class="cls-14" d="M29.38,76.31s.17,.57-.03,1.08c-.37,.17-1.96,.07-1.96,.07,.04-.73-.95-.74-1-.01l-.76,.02c-.01-.8-1.1-.78-1.09,0l-7.51,.16c-.18,0-.34-.13-.36-.31-.07-.68-.11-1.48-.02-2.23h.01c1.17-.15,2.47-.22,3.04,1.32,3.48-.13,8.15-.18,9.61-.32,.03,.07,.05,.14,.07,.21Z"/><path class="cls-16" d="M25.76,56.01c.62,1.75,.5,4.6,.5,4.6,0,0-.54-2-.95-1.91-.42,.09-.45,3.45-.6,4.37-.3-2.68-1.15-3.76-1.3-2.66,0,0-.18-.67-.86-1.07-.08-.05-.15-.06-.21-.03h0c-.44,.21-.34,2.22-.34,2.22-.7-2.17-.4-3.77-.4-3.77,.35-.33,.95-.21,1.59-.09,1.08,.22,2.27,.41,2.52-1.67h.05Z"/><path class="cls-11" d="M23.09,56.64c-.1-.04-.19-.1-.25-.16-.34-.33-.38-2.5-.38-2.5l.52-1.91c.04,.14,.08,.3,.12,.47,.03-.04,.06-.07,.09-.1,.79-.94,1.89-.85,1.37,1.75,0,0,.01,0,.02-.03,.07-.07,.24-.28,.46-.6,.26-.22,.55-.18,.69,.78,.04,.67,.03,1.21-.02,1.66-.25,2.08-1.44,1.89-2.52,1.67v-.02l-.1-1h0Z"/><path class="cls-19" d="M29.31,76.1c-1.46,.14-6.13,.19-9.61,.32-.57-1.54-1.87-1.47-3.04-1.32h-.01c.05-.43,.15-.85,.31-1.22,.36,.13,.71,.32,.96,.5-.19-.24-.21-.7-.21-.7,.56,.04,1.01,.56,1.45,1.09l-.56-1.26c.11,.05,.99,.46,1.26,.68-.15-.45-.69-1.12-.69-1.12l.75,.07s-.26-.5-.81-.88c.3-.06,.6-.08,.89-.07v-.03c1.44,.14,1.96,.62,2.31,2.25,.08,.6,1.05,.46,.96-.14-.09-.57-.25-1.09-.48-1.52,.47,.2,.76,.5,.94,1.43,.22,.61,1.1,.32,.83-.4-.12-.43-.31-.8-.55-1.12,1.47-.01,4.32,.36,5.3,3.44Z"/><path class="cls-14" d="M24.01,72.66c.24,.32,.43,.69,.55,1.12,.27,.72-.61,1.01-.83,.4-.18-.93-.47-1.23-.94-1.43-.31-.57-.75-.99-1.32-1.18,.01-.11,.04-.2,.08-.28,.73-.01,1.78,.43,2.46,1.37Z"/><path class="cls-14" d="M20.93,71.47c.19,0,.37,.04,.54,.1,.57,.19,1.01,.61,1.32,1.18,.23,.43,.39,.95,.48,1.52,.09,.6-.88,.74-.96,.14-.35-1.63-.87-2.11-2.31-2.25-.07-.01-.15-.02-.23-.02-.06-.27,.11-.54,.38-.6,.28-.06,.54-.09,.78-.07Z"/></g><g id="Layer_96" class="cls-23"><path class="cls-7" d="M24.96,74.97c1.62-.91,1.36-1.28,2.39,.34s1.8,2.23,1.8,2.23l.61-1.27,.62-.26-.92-2.12-.41-2.13s-.76-.36-1.14-.23-.87,.39-1.25,.27-3.14,.31-3.14,.31v.75s-1.13-.48-1.13-.48l-.36,.76,.53,1.62s.77,1.12,2.39,.21Z"/><path class="cls-7" d="M27.24,68.4l1.62-.66s-.78-1.62-.3-2.76c0,0,2.53,.71,2.3,2.35l-1.14-.48-.46,2.27-1.88,.16-.14-.88Z"/><path class="cls-7" d="M23.43,52c-.2,.34-.73,1.65-.73,1.65,0,0,1.86-1.16,1.53,1.48,0,0,1.5-.4,1.28,1.36l.66-5.42-1.36,1.41s-1.02-1.11-1.39-.48Z"/><path class="cls-7" d="M23.5,48.86c.45-.26-.45,2.77-.45,2.77l-.76-.11s.09-2.01,1.21-2.66Z"/><path class="cls-7" d="M25.39,49.2c.38,.24,1.02,.86,2.15,.59s1.5-.4,1.5-.4l-.27-1.13,1.38-.4-1.8,4.68s-.84,2.53-.68,4.41,1.47,5.13,1.47,5.13c0,0-2.44-3.1-2.24-5.74l.22-1.51s-.2-4.14-.93-3.13l-.8-2.5Z"/><path class="cls-7" d="M22.69,59.8c-.06,.45,1.36,5.76,1.36,5.76l.18,3.26,.57-3.28s.86-1.4,.82-3.41l.67,2.63,.19-3.65-.92-2.37-.6,1.39-.34,1.89s.09-2.26-.54-2-.62,.64-.62,.64c0,0-.66-1.75-.77-.87Z"/></g><g><path class="cls-1" d="M29.38,76.31s1.43,.39,1.07-.86-2.07-3.23-.84-4.93c-.28,.23-.85,.46-.94-.99-.98,1.19-1.55-.88-1.45-1.23,.15-.51,1.75-.78,1.75-.78,0,0-.69-.91,.23-1.09s1.53,.98,1.53,.98c0,0,.82-.77,.3-1.76s-3.72-6.47-3.43-9.58,2.62-8.34,2.62-8.34c2.33-5.57-4.46-8.06-6.05-2.92-.81,2.22-2.96,5.18-2.58,8.02,.61-2.11,1.11-2.09,1.5-.28,.8-1.04,1.99-1.04,1.45,1.65,0,0,.89-1.78,1.18,.15,.35,5.69-3.06,2.4-4.13,3.42,0,0-.31,1.6,.4,3.76,0,0-.13-2.6,.55-2.19s.86,1.07,.86,1.07c.16-1.1,1.01-.02,1.3,2.66,.15-.92,.18-4.28,.59-4.37s.96,1.91,.96,1.91c0,0,.12-2.85-.5-4.6"/><path class="cls-1" d="M20.9,71.49c.67-.59,3.03,.08,3.66,2.29,.27,.71-.6,1-.83,.39-.18-.96-.48-1.25-.99-1.45"/><path class="cls-1" d="M22.3,74.41c-.37-1.71-.92-2.16-2.53-2.27-.06-.27,.11-.54,.37-.6,1.8-.42,2.85,.9,3.12,2.73,.09,.6-.87,.74-.96,.14Z"/><path class="cls-1" d="M23.91,72.67c1.47-.04,4.53,.3,5.47,3.65,0,0,.17,.57-.03,1.08-.37,.17-1.97,.08-1.97,.08,.05-.73-.95-.75-1-.01h-.75c-.01-.79-1.1-.77-1.09,.03l-7.51,.16c-.18,0-.34-.13-.36-.31-.11-1.07-.15-2.41,.29-3.45,.36,.13,.7,.31,.96,.5-.19-.24-.21-.71-.21-.71,.56,.05,1,.57,1.45,1.09l-.57-1.27s.98,.45,1.26,.68c-.15-.45-.69-1.12-.69-1.12l.76,.07s-.26-.5-.81-.87c.3-.06,.6-.09,.89-.08"/><path class="cls-1" d="M22.34,59.31c1.16,2.89,2.54,8.17,1.14,10.23-.82,1.21-2.02,1.25-2.02,2.11"/><path class="cls-15" d="M23.2,52.01l-.55,2.02v-.06c.08,.72,.07,1.49,.24,2.15,.07,.33,.37,.44,.67,.52,.33,.07,.7,.07,1.03-.11-.25,.29-.68,.39-1.07,.36-.4-.02-.93-.21-1.01-.65-.21-.76-.26-1.51-.26-2.29,0,0,0-.03,0-.03l.55-2.02,.39,.11h0Z"/><line class="cls-1" x1="23.09" y1="56.65" x2="23.19" y2="57.65"/><path class="cls-2" d="M16.66,75.1c1.17-.15,2.47-.21,3.04,1.33,3.57-.14,8.38-.19,9.71-.34"/><path class="cls-1" d="M28.94,70.48s.29-1.01,.47-2.02c.14-.78,.1-1.51,.38-2.02"/><path class="cls-15" d="M24.66,71.24c1.43-.24,2.97,.58,3.68,1.82-.9-1.05-2.29-1.79-3.68-1.82h0Z"/><path class="cls-15" d="M26.17,70.92c.79-.17,1.58,.44,1.87,1.14-.48-.51-1.15-1.05-1.87-1.14h0Z"/><path class="cls-15" d="M25.71,56.41c-.02,1.32-1.54,1.75-1.24,3.16-.25-.51-.13-1.25,.31-1.67,.43-.41,.76-.96,.94-1.49h0Z"/><path class="cls-15" d="M24.55,54.18c.82-1.29,1.45-2.71,1.81-4.16-.1,1.52-.81,3.07-1.81,4.16h0Z"/><path class="cls-15" d="M23.2,52.55c-.44-1.28-.22-2.74,.35-3.95-.31,1.24-.53,2.67-.35,3.95h0Z"/><path class="cls-15" d="M27.18,54.25c-.35,1.73-.49,3.48-.2,5.23-.55-1.62-.39-3.65,.2-5.23h0Z"/><path class="cls-15" d="M22.84,70.06c1.45-1.22,1.85-3.24,2.05-5.05-.02,1.82-.26,4.22-1.96,5.24,0,0-.1-.19-.1-.19h0Z"/><path class="cls-15" d="M28.9,67.6c-.82-.72-.8-2.05-.54-3.03-.07,1.02,.12,2.04,.69,2.87,0,0-.15,.16-.15,.16h0Z"/><path class="cls-15" d="M28.71,67.69c-1.26,.19-2.65,.82-2.73,2.29-.18-1.45,1.36-2.59,2.72-2.5,0,0,.02,.21,.02,.21h0Z"/><path class="cls-15" d="M28.6,44.16c1.05,1.39,.67,3.35,.03,4.84,0,0-.35,.62-.35,.62,.68-1.66,1.23-3.78,.32-5.46h0Z"/></g></g><g id="Leg_2"><g><path class="cls-18" d="M48.78,70.93c-.3-.18-.64-.33-1.02-.44-2.85-.84-7.51,.22-8.36,1.77-.06,.05-.1,.11-.13,.19-1.13-1.03-.39-3.49-.74-5.1-.41-1.88-2.45-3.35-2.45-3.35,.37,.1,.73,.06,1.02-.12,.69-.42,.96-1.62,.05-3.55-1.31-2.74-2.02-.34-2.02-.34-.37-.56-.78-.9-1.14-.91-.53-.05-.95,.59-.97,2.2-1.31-3.11-2.1-9.31-4.31-13.29-2.31-5.32,7.16-7.41,7.56-1.56,.2,3.02,4.53,14.22,4.53,14.22,.62,1.67,3.89,5.16,3.89,5.16-1.25,.23-.8,2.19,.73,1.62-.44,.68,.54,1.71,1.16,1.03,1.37,.82,1.81-.1,1.59-.79,.97,.84,1.62,2.37,1.73,3.37,.13,1.2-.99,1.19-1.29,1.16,.16-.76,.16-1.26,.16-1.26h0Z"/><path class="cls-14" d="M48.61,72.2c-.33,1.55-1.29,4.2-4.11,6.1-1.74,1.04-7.28,.38-7.67-.24-.14-.22-.27-.67-.34-1.19h0c-.02-.14-.03-.28-.05-.42,.14-.12,.87-.64,1.85-.43,1.63,.33,3.95,1.54,5.34,1,2.33-.93,4.12-4.14,4.12-6.49v-.04c.39,.11,.73,.26,1.03,.44h0s0,.51-.16,1.27Z"/><path class="cls-19" d="M40.97,73.45c.83-.09,1.52-.15,2.48,.61-.01,.06-.02,.11-.02,.17,0,.47,.38,.85,.85,.85s.85-.38,.85-.85c0-.24-.1-.47-.27-.62,.13,.08,.29,.13,.45,.13,.47,0,.85-.38,.85-.85s-.38-.85-.85-.85c-.09,0-.16,.01-.24,.04h-.01c-1.74-1.14-4.49-.78-5.63,.14-.01,0-.02,.02-.03,.04,.85-1.55,5.51-2.61,8.36-1.77v.04c-.01,2.35-1.8,5.56-4.13,6.49-1.39,.54-3.71-.67-5.34-1-.98-.21-1.71,.31-1.85,.43-.07-.82,0-1.71,.32-2.16,.34-.47,1.22-.89,2.28-1,.6-.06,1.26-.02,1.91,.16,.01-.01,.02,0,.02,0Z"/><path class="cls-14" d="M39.4,72.26s.02-.03,.03-.04c1.14-.92,3.89-1.28,5.63-.14h.01c.11,.07,.21,.15,.31,.23,.22,.18,.35,.43,.22,.68-.08,.17-.26,.27-.44,.27-.08,0-.15-.02-.23-.05-.16-.08-.31-.15-.46-.22-1.08-.5-2.02-.71-2.81-.64-1.03-.1-1.89,.14-2.21,.25-.06-.04-.12-.09-.18-.15,.03-.08,.07-.14,.13-.19Z"/><path class="cls-14" d="M45.6,72.99c.13-.25,0-.5-.22-.68-.1-.08-.2-.16-.31-.23,.08-.03,.15-.04,.24-.04,.47,0,.85,.38,.85,.85s-.38,.85-.85,.85c-.16,0-.32-.05-.45-.13-.04-.02-.08-.05-.12-.09-.15-.13-.25-.32-.27-.53,.15,.07,.3,.14,.46,.22,.08,.03,.15,.05,.23,.05,.18,0,.36-.1,.44-.27Z"/><path class="cls-14" d="M44.86,73.61c.17,.15,.27,.38,.27,.62,0,.47-.38,.85-.85,.85s-.85-.38-.85-.85c0-.06,0-.11,.02-.17,.12,.09,.25,.2,.38,.33,.1,.1,.22,.14,.35,.14s.26-.05,.35-.15c.2-.2,.19-.51,0-.7-.11-.1-.21-.2-.32-.29,.03-.01,.05-.01,.08-.01,.17,0,.33,.05,.46,.14,.04,.04,.08,.07,.12,.09Z"/><path class="cls-14" d="M44.52,73.68c.2,.19,.21,.5,0,.7-.09,.1-.22,.15-.35,.15s-.25-.04-.35-.14c-.13-.13-.26-.24-.38-.33-.96-.76-1.65-.7-2.48-.61,0,0-.01-.01-.02,0-.65-.18-1.31-.22-1.91-.16-.09-.23,.01-.49,.22-.61l.06-.03s.06-.02,.13-.05c.32-.11,1.18-.35,2.21-.25,.79,.08,1.69,.36,2.54,1.04,.11,.09,.21,.19,.32,.29Z"/><path class="cls-14" d="M44.47,72.99c.02,.21,.12,.4,.27,.53-.13-.09-.29-.14-.46-.14-.03,0-.05,0-.08,.01-.85-.68-1.75-.96-2.54-1.04,.79-.07,1.73,.14,2.81,.64Z"/><path class="cls-14" d="M39.27,72.45c.06,.06,.12,.11,.18,.15-.07,.03-.12,.04-.13,.05l-.06,.03c-.01-.08-.01-.16,.01-.23Z"/><path class="cls-11" d="M34.9,61.88l-.5-.75-.41-2.05c.36,.01,.77,.35,1.14,.91,0,0,.71-2.4,2.02,.34,.91,1.93,.64,3.13-.05,3.55l-.02-.03c-.39-.75-1.02-.98-1.78-1.35l-.4-.62Z"/></g><g id="Layer_97" class="cls-23"><path class="cls-7" d="M29.15,48.38l2.66,8.37s-.32-3.89,.32-3.02l1.81,2.73s-1.44-3.24-.31-3.26,4.93,1.8,4.93,1.8l-1.47-5-1.32-3.62-5.53,.1s-2.54-1.59-1.1,1.9Z"/><path class="cls-7" d="M34.25,59.6l.41,1.88s.48-1.14,1.25-.27,1.53,1.23,1.53,1.23l.5-.13-1.69-3.11-.73,1.27-1.27-.86Z"/><path class="cls-7" d="M38.66,67.57s-.07,3.27,.45,4.14l.52,.87,.26,.5s1.36-1.53,3.62-1.57,4.55,1.55,4.55,1.55l.74-.77s.88,.11,.87-.64-.15-1.38-.15-1.38l-2.27-.71-2.53-.71s-1.5,.65-2.39-.34-1.46-4.62-1.46-4.62c0,0,.19,3.52-.97,2.15s-1.95-3.74-1.95-3.74l-1.73,1.92s2.17,1.72,2.45,3.35Z"/><path class="cls-7" d="M36.53,75.02s1.32,3.5,4.83,3.06,4.88-1.34,6.35-3.63c0,0-.95,3.03-3.58,3.96s-7.29-.12-7.29-.12c0,0-.92-2.5-.31-3.26Z"/><path class="cls-7" d="M38.26,73.61s.3-.04,.75-.06c.94-.04,2.54,.04,3.41,.87,1.28,1.23,2.02,.72,2.02,.72l-.65-1.12-.89-.86-2.02-.34-2.63,.8Z"/></g><g><path class="cls-15" d="M48.97,70.94c-.19,2.97-1.79,5.76-4.23,7.43-1.57,.9-3.49,.67-5.21,.58-.89-.12-1.77-.19-2.6-.57-.31-.13-.43-.55-.51-.85-.21-1.17-.48-2.49,.34-3.52,1.47-1.18,3.51-1.1,5.1-.33,.52,.29,.98,.67,1.33,1.13-.52-.3-.97-.61-1.47-.85-1.42-.67-3.45-.68-4.67,.33-.65,.79-.43,2.18-.23,3.15,.07,.25,.15,.57,.32,.6,1.83,.66,3.94,.7,5.86,.51,3.29-.57,5.37-4.53,5.6-7.61,0,0,.4,0,.4,0h0Z"/><path class="cls-1" d="M48.54,72.2s1.51,.22,1.36-1.15c-.11-1-.76-2.53-1.74-3.38,.23,.69-.22,1.61-1.58,.79-.62,.68-1.6-.35-1.17-1.04-1.53,.58-1.98-1.38-.73-1.62,0,0-3.27-3.49-3.89-5.16,0,0-4.32-11.2-4.53-14.21-.4-5.86-9.87-3.77-7.56,1.56,2.21,3.98,3,10.17,4.31,13.29,.03-2.72,1.21-2.66,2.11-1.29,0,0,.71-2.4,2.02,.34s.2,4.02-1.07,3.66c0,0,2.04,1.47,2.45,3.35,.37,1.69-.47,4.31,.92,5.25"/><path class="cls-1" d="M40.8,73.46c1-.1,1.8-.24,3.03,.93,.1,.09,.22,.14,.35,.14s.26-.05,.36-.15c.19-.2,.19-.52-.01-.71-2.25-2.17-5.08-1.08-5.2-1.03-.26,.1-.38,.39-.28,.65"/><path class="cls-15" d="M39.18,72.22c1.52-2.34,8.58-3.25,10.23-.79-2.36-1.37-5.24-1.18-7.75-.4-.82,.29-1.69,.69-2.12,1.37l-.36-.18h0Z"/><path class="cls-1" d="M33.98,59.01l.41,2.13,.9,1.37c.76,.36,1.39,.6,1.78,1.35"/><path class="cls-15" d="M39.08,71.43c1.58-2.67,5.67-3.13,8.41-2.24,0,0,0,.02,0,.02-2.84-.59-6.54-.16-8.4,2.22h0Z"/><path class="cls-15" d="M36.75,51.04c1.15,2.65,2.66,6.02,2.14,8.89,.14-3.05-1.32-6.05-2.14-8.89h0Z"/><path class="cls-15" d="M31.2,50c.57,2.39,1.45,4.77,2.86,6.75-1.7-1.78-2.66-4.37-2.86-6.75h0Z"/><path class="cls-15" d="M36.76,59.58c1.19,1.5,2,3.59,1.61,5.51,.13-1.9-.66-3.9-1.61-5.51h0Z"/><path class="cls-1" d="M39.25,72.68c-.03-.17,.04-.34,.18-.46,1.21-.98,4.26-1.32,5.95,.1,.21,.18,.34,.42,.22,.67-.09,.17-.26,.27-.45,.27-.08,0-.15-.02-.23-.05-1.28-.65-2.37-.93-3.27-.86"/><path class="cls-1" d="M44.2,73.39s.06,0,.09,0c.47,0,.85,.38,.85,.85s-.38,.85-.85,.85-.85-.38-.85-.85c0-.06,0-.11,.02-.17"/><path class="cls-1" d="M45.06,72.08c.08-.02,.16-.04,.25-.04,.47,0,.85,.38,.85,.85s-.38,.85-.85,.85c-.44,0-.8-.33-.84-.75"/><path class="cls-4" d="M36.41,76.47s.77-.68,1.88-.45c1.63,.33,3.95,1.54,5.34,1,2.33-.92,4.12-4.14,4.12-6.48"/><path class="cls-15" d="M34.91,61.87c.62,.66,1.52,.82,2.27,.4-.51,.9-2.09,.53-2.27-.4h0Z"/><path class="cls-15" d="M40.46,62.78c.72,1.58,1.77,3.26,3.41,3.93-1.77-.43-2.97-2.3-3.41-3.93h0Z"/><path class="cls-15" d="M34.96,60.94c.36-.41,1.11-.56,1.51-.15-.51-.15-1.03,0-1.51,.15h0Z"/><path class="cls-15" d="M36.45,76.88c1.02-.96,2.61-.38,3.65,.26,0,0,.44,.34,.44,.34-1.18-.62-2.81-1.4-4.09-.6h0Z"/></g></g><g id="Body"><g><path class="cls-20" d="M37.88,26.1c.45-.2,.92-.33,1.43-.37,2.39,.34,3.28,.45,1.04,8.91-2.25,8.46,3.36,12.63,3.36,12.63-6.67-.26-6.21,4.26-10.13,2.82-.35-.95-.64-2.14-.84-3.49-.06-.43-.12-.88-.16-1.34-.73-7.05,.61-17.09,5.3-19.16Zm1.8,6.54c1.04-2.29,1.3-4.93,.41-5.54-4.19-1.41-6.16,8.8-2.09,10.09,1.38-.02,.65-2.27,1.68-4.55Z"/><path class="cls-11" d="M40.09,27.1c.89,.61,.63,3.25-.41,5.54-1.03,2.28-.3,4.53-1.68,4.55-4.07-1.29-2.1-11.5,2.09-10.09Z"/><path class="cls-11" d="M23.46,35.66c1.42-3.63,4.48-7.5,7.76-9.31,.09-.05,.17-.1,.26-.14,.19-.1,.37-.19,.56-.27,1.94-.82,4.36-.84,5.84,.16-4.69,2.07-6.03,12.11-5.3,19.16h-.01c-.46,0-.94-.01-1.44-.04-.18-2.66-4.59-3.91-6.25-1.75-.4-.26-.78-.55-1.11-.88-.21-.21-.4-.45-.55-.7-.91-1.54-.69-3.83,.24-6.23Z"/><path class="cls-22" d="M32.58,45.26c.04,.46,.1,.91,.16,1.34-.7,.11-1.35,.15-1.96,.15h0c.09-.15,.17-.32,.23-.51,.12-.36,.16-.7,.13-1.02,.5,.03,.98,.04,1.44,.04h.01Z"/><path class="cls-11" d="M32.04,25.94c-.19,.08-.37,.17-.56,.27,.06-.03,.11-.06,.17-.09l.39-.18Z"/><path class="cls-6" d="M31.13,45.22c.03,.32-.01,.66-.13,1.02-.06,.19-.14,.36-.23,.51-.45,.83-1.26,1.27-2.15,1.39l.17,1.28c-.23,.74-3.76,.05-3.53-.69l.44-1.25c-.9-.58-1.52-1.47-1.38-2.58,.01-.18,.05-.37,.11-.56,.11-.34,.26-.63,.45-.87,1.66-2.16,6.07-.91,6.25,1.75Zm-2.76,1.57c.01,.75,2.37,.52,1.86-1.29-1.14-.61-1.12,.9-1.86,1.29Zm-.61,1.39s.1-1.51-.4-1.5-.86,1.27-.86,1.27l1.26,.23Zm-2.08-3.86c-1.73,1.54,.43,2.88,.92,2.25-.51-.75-.22-2.5-.92-2.25Z"/><path class="cls-22" d="M30.23,45.5c.51,1.81-1.85,2.04-1.86,1.29,.74-.39,.72-1.9,1.86-1.29Z"/><path class="cls-22" d="M27.36,46.68c.5-.01,.4,1.5,.4,1.5l-1.26-.23s.36-1.26,.86-1.27Z"/><path class="cls-22" d="M26.6,46.57c-.49,.63-2.65-.71-.92-2.25,.7-.25,.41,1.5,.92,2.25Z"/><path class="cls-22" d="M24.88,43.47c-.19,.24-.34,.53-.45,.87-.06,.19-.1,.38-.11,.56h-.01c-.85-.56-1.27-1.03-1.27-1.03h0s.18-1.98,.18-1.98c.15,.25,.34,.49,.55,.7,.33,.33,.71,.62,1.11,.88Z"/><path class="cls-20" d="M20.76,45.32c.04,.94,.2,1.71,.45,2.22-.75,.01-2.28-1.34-2.28-1.34-.04-8.34,6.29-16.69,12.29-19.85-3.28,1.81-6.34,5.68-7.76,9.31-2.08,3.48-2.8,7.19-2.7,9.66Z"/><path class="cls-20" d="M23.22,41.89l-.18,1.97h0c-1.21,.42-2.03,1.2-2.28,1.46-.1-2.47,.62-6.18,2.7-9.66-.93,2.4-1.15,4.69-.24,6.23Z"/></g><g id="Layer_95"><path class="cls-10" d="M27.07,32.79s-.05-.1-.07-.15c.14-.22,.21-.47,.25-.72,.03-.15-.18-.18-.28-.17,0,0-.02,0-.03,0,.04-.04,.1-.06,.13-.11,.04-.07,.07-.13,.11-.2,.03-.06-.04-.13-.09-.15-.08-.03-.17-.03-.25-.02-.21,.02-.43,.09-.58,.25-.13,.13-.25,.26-.38,.39-.19,.1-.38,.22-.53,.38-.15,.16-.26,.41-.15,.62,.13,.25,.43,.32,.69,.3,.1,0,.2-.02,.3-.04,.03,.04,.04,.08,.09,.12,.17,.13,.46,.06,.63-.02,.08-.03,.43-.22,.27-.34-.05-.04-.09-.08-.12-.13Z"/><path class="cls-10" d="M29.75,30s-.07-.04-.1-.04c-.05-.01-.1-.02-.15-.01-.01,0-.03,0-.04,0-.01,0-.03-.02-.04-.02-.05-.01-.1-.02-.15-.01-.04,0-.08,0-.12,.01-.09,.01-.17,.04-.26,.07-.04,.02-.07,.03-.11,.05-.06,.03-.11,.07-.15,.12,0,0-.02,.02-.02,.03-.02,.02-.04,.06-.05,.09,0,0,0,.02,0,.03,0,.03,0,.06,0,.09,0,.02,0,.04,.02,.06,.01,.03,.03,.05,.05,.07,0,0,.01,.02,.02,.02,.02,.02,.06,.04,.08,.05,.04,.02,.08,.02,.12,.03,.04,0,.09,0,.14,0,.05,0,.09,0,.14-.01,.02,0,.05-.01,.07-.01,.02,0,.05,0,.07-.02,.09-.03,.18-.06,.26-.1,.04-.02,.08-.05,.12-.08,.03-.03,.06-.05,.09-.08,.02-.03,.04-.06,.06-.09,.02-.04,.02-.09,.02-.13,0-.05-.03-.08-.05-.12Z"/><path class="cls-10" d="M31.82,27.7c-.03-.18-.15-.32-.29-.43-.36-.29-.95-.24-1.3,.04-.18,.15-.3,.33-.34,.56-.02,.09-.01,.19,0,.28-.18,.05-.35,.16-.43,.32-.07,.15-.05,.31,.07,.42,.17,.16,.45,.14,.65,.07,.03-.01,.06-.04,.09-.05,.22-.01,.43-.04,.63-.11,.33-.11,.68-.29,.84-.62,.07-.15,.1-.32,.06-.48Z"/><path class="cls-10" d="M33.78,28.28s-.04-.02-.06-.03c-.06-.02-.13-.02-.19-.02-.04,0-.08,0-.13,0-.06,0-.12,.01-.19,.03-.07,.01-.13,.03-.19,.05-.06,.02-.11,.04-.16,.08-.04,.02-.08,.05-.11,.08l-.04,.06s0,.07,.03,.1c.02,0,.04,.02,.06,.03,.06,.02,.13,.02,.19,.02h.13c.06,0,.12-.01,.19-.03,.07-.01,.13-.03,.19-.05,.06-.02,.11-.04,.16-.08,.04-.02,.08-.05,.11-.08l.04-.06s0-.07-.03-.1Z"/><path class="cls-10" d="M30.97,33.61c-.18,0-.56,.06-.64,.27-.07,.2,.06,.3,.27,.3,.18,0,.56-.06,.64-.27,.07-.2-.06-.3-.27-.3Z"/><path class="cls-10" d="M25.6,34.31c-.16,0-.33,.03-.48,.09-.18,.07-.36,.13-.54,.2-.09,.03-.2,.08-.27,.14-.03,.03-.07,.09-.02,.13,.03,.02,.06,.02,.09,.03-.03,.04-.08,.06-.11,.1-.05,.08-.06,.16-.07,.25-.02,.17,.05,.33,.17,.44,.02,0,.04,.01,.06,.02,.04,0,.09,.01,.14,0,.03,0,.05,0,.08-.01,.02,0,.03,0,.05,0,.04,0,.08,0,.13,0,.06,0,.12-.01,.18-.03,.07-.01,.13-.03,.19-.05,.06-.02,.11-.04,.16-.07,.04-.02,.08-.05,.11-.08l.04-.05s0-.06-.02-.09c-.02,0-.04-.02-.06-.03-.02,0-.04,0-.06,0,.13-.3,.26-.59,.39-.89,.04-.1-.11-.11-.16-.11Z"/><path class="cls-10" d="M28.54,31.73c-.2,0-.55,.06-.63,.28-.07,.2,.07,.36,.28,.36,.2,0,.55-.06,.63-.28,.08-.2-.07-.36-.28-.36Z"/><path class="cls-10" d="M35.48,26.42c-.55,0-.74,.72-.08,.72,.55,0,.74-.72,.08-.72Z"/><path class="cls-10" d="M31.54,38.21c-.05-.14-.29-.14-.41-.12-.37,.06-.74,.22-.98,.52-.06,.07-.09,.15-.12,.23-.02,.01-.03,.02-.05,.04-.07,.13-.11,.26-.09,.42,.02,.12,.08,.24,.17,.33,.05,.05,.13,.06,.2,.07,.1,0,.21,0,.31-.03,.36-.11,.7-.31,.89-.65,.13-.25,.19-.54,.09-.81Z"/><path class="cls-10" d="M31.77,36.49c-.18,0-.56,.06-.64,.27-.07,.2,.06,.3,.27,.3,.18,0,.56-.06,.64-.27,.07-.2-.06-.3-.27-.3Z"/><path class="cls-10" d="M25.07,41.01c-.18,0-.56,.06-.64,.27-.07,.2,.06,.29,.26,.29,.18,0,.56-.06,.64-.27,.07-.2-.06-.29-.26-.29Z"/><path class="cls-10" d="M39.29,31.3s0,0,0-.01c-.01-.02-.02-.04-.04-.06,0,0,0-.01-.01-.02,0,0,0,0,0,0-.02-.02-.05-.03-.07-.05,0,0-.01,0-.02-.01-.03,0-.06-.02-.09-.03-.04,0-.07,0-.11,0-.04,0-.08,0-.12,0-.07,0-.13,.02-.19,.05-.04,.01-.08,.03-.12,.05-.04,.01-.07,.03-.1,.06-.03,.02-.05,.04-.08,.06-.03,.03-.05,.06-.07,.1-.04,.08-.08,.16-.11,.24-.01,.04,0,.07,.02,.09,0,.02,.03,.02,.04,.03,0,0,0,.01,.01,.02,0,0,.02,0,.03,.01,0,0,0,0,0,0,0,0,0,0,0,0,.04,.02,.07,.05,.12,.05,.02,0,.05,0,.07,0,.08,0,.1,0,.19,0,.02,0,.05,0,.07-.01,.02,0,.05,0,.07-.02,0,0,0,0,0,0,.03,0,.1-.03,.13-.04,0,0,0,0,0,0,.04-.02,.09-.04,.12-.06,.03-.02,.06-.04,.09-.07,0,0,0,0,0,0,.03-.03,.06-.06,.09-.1,.02-.03,.03-.05,.04-.08,0,0,0-.01,0-.02,0-.01,0-.03,.01-.04,0,0,0-.01,0-.02,0-.03,0-.06,0-.08,0-.01,0-.03,0-.04Z"/><path class="cls-10" d="M38.68,29.41c-.21,0-.55,.06-.63,.29-.07,.2,.07,.37,.29,.37,.21,0,.55-.06,.63-.29,.07-.2-.07-.37-.29-.37Z"/></g><g id="Layer_94" class="cls-23"><path class="cls-7" d="M24.88,43.47s-3.12-1.25-1.94-5.54c.44,3.4,1.5,5.28,4.2,3.07,0,0-.27-1.13,1.24-.9,0,0-1.1,1.78,.9,1.24s1.54-5.56,3.36-8.98,2.82-4.32,2.82-4.32c0,0-3.43,5.34-3.09,10.23s.81,10.42,2.44,10.01-.03-8.67-.02-8.29,1.14,7.65,2.76,6.99,3.34-3.33,3.34-3.33l2.82,3.62s-2.26-.27-4.88,.91c-2.05,.92-2.47,2.43-5.26,1.91l-.94-3.4-1.63,.15s.95-2.91-2.71-4.1c0,0-2.11-1.13-3.42,.73Z"/><path class="cls-7" d="M21.06,45.76s-.95-4.26,1.61-8.45c0,0-.57,3.53,.58,4.64,.25,0-.09,1.89-.09,1.89,0,0-2.51,.42-2.1,1.92Z"/><path class="cls-7" d="M28.76,33.43s.83-3.03,3.44-4.46c0,0-1.95,3.3-3.44,4.46Z"/><path class="cls-7" d="M36.86,29.02c-.24,.32-1.95,3.68-.26,6.92s2.5-.8,2.5-.8l.34-2.14s-2.47,2.43-2.02-.34,2.67-5.2,3.21-3.32c.46-.01-.35-4.9-3.78-.31Z"/><path class="cls-7" d="M25.21,45.81s.64,.87,1.26,.23c0,0,1.03,1.49,2.03,.84s1.36-1.41,1.36-1.41l1.26-.02s.15,1.51-2.47,2.68l.03,1.51-2.01-.09-1.14-.73,.48-1.39-1.02-.86,.24-.76Z"/></g><g><path class="cls-1" d="M32.57,45.26c-.46,0-.94-.01-1.44-.05"/><path class="cls-1" d="M24.88,43.47c-.4-.26-.77-.55-1.11-.88-3.55-3.5,1.92-13.52,7.88-16.48,2.02-1,4.7-1.09,6.28,.02"/><path class="cls-1" d="M33.57,50.09c3.92,1.44,3.47-3.08,10.13-2.82,0,0-5.6-4.18-3.36-12.64s1.36-8.57-1.04-8.91c-7.28,.63-8.11,17.99-5.73,24.36Z"/><path class="cls-1" d="M33.27,25.46c-6.5,2.12-14.38,11.44-14.34,20.74,0,0,1.53,1.36,2.29,1.34-.91-1.87-.63-7.15,2.3-11.98"/><path class="cls-1" d="M20.67,45.41s.89-1.04,2.36-1.55"/><path class="cls-1" d="M23.25,41.6l-.21,2.27s.43,.47,1.27,1.04"/><path class="cls-1" d="M30.77,46.75c.66,0,1.37-.06,2.11-.17"/><path class="cls-1" d="M25.7,47.48l-.44,1.24c-.22,.74,3.31,1.43,3.53,.69l-.17-1.28c1.06-.14,2.01-.73,2.38-1.9,1.17-3.66-5.39-5.55-6.57-1.9-.44,1.36,.22,2.47,1.27,3.14Z"/><path class="cls-2" d="M25.68,44.32c.7-.25,.4,1.5,.92,2.25-.49,.64-2.65-.71-.92-2.25Z"/><path class="cls-2" d="M28.36,46.79c.75-.39,.72-1.9,1.86-1.29,.51,1.82-1.85,2.04-1.86,1.29Z"/><path class="cls-2" d="M27.36,46.68c-.5,0-.86,1.27-.86,1.27l1.26,.23s.1-1.51-.4-1.5Z"/><path class="cls-15" d="M27.74,40.02c-.49,.12-.77,.52-.54,.97,.12,.48,.59,.63,1.06,.51-.15,.15-.51,.17-.73,.09-.83-.3-.75-1.68,.21-1.57h0Z"/><path class="cls-15" d="M32.33,28.88c-1.6,1.19-2.96,2.77-3.45,4.7,.22-2.01,1.75-3.78,3.45-4.7h0Z"/><path class="cls-15" d="M25.76,34.63c1.54-.53,3.55-.36,4.68,.93-1.26-1.05-3.12-1.18-4.68-.93h0Z"/><path class="cls-2" d="M40.09,27.1c-4.19-1.41-6.16,8.8-2.09,10.09,1.38-.02,.64-2.27,1.68-4.55s1.3-4.92,.41-5.54Z"/><path class="cls-15" d="M26.18,43.4c.23,.26,.39,.7,.55,1,.08,.33,.24,.77,.24,1.12-.29-.63-.6-1.46-.79-2.12h0Z"/><path class="cls-15" d="M28.32,43.5c.04,.34-.09,.79-.13,1.12-.13,.31-.25,.75-.46,1.03,.13-.67,.36-1.51,.59-2.15h0Z"/><path class="cls-15" d="M29.96,44.23c-.15,.3-.48,.59-.69,.83-.27,.18-.6,.47-.92,.58,.46-.47,1.09-1.02,1.61-1.41h0Z"/><path class="cls-15" d="M24.55,36.53c-.28,1.05-.32,2.06-.32,3.14-.28-.95-.19-2.27,.32-3.14h0Z"/><path class="cls-15" d="M25.19,36.89c.06,.56,.03,1.08-.1,1.63-.13-.46-.09-1.19,.1-1.63h0Z"/><path class="cls-15" d="M25.86,32.59c.79,.32,1.57,.64,2.4,.73-.84,.19-1.8-.22-2.4-.73h0Z"/><path class="cls-15" d="M30.16,33.9c.74,.09,1.4,.34,2.14,.46-.66,.15-1.56-.15-2.14-.46h0Z"/></g></g><g id="Head"><g id="Head-2"><g><path class="cls-17" d="M46.33,17.5c-.44-.05-1.26-.48-1.08-.73,.19-.26,2.21-3.12,4.04-2.9,0,0-.39-.37-1.33-.29,0,0,1.42-1.72,.89-3.03,.32,.18,.9,.86,.9,.86,0,0,.67-4.6-6.33-6.23-1.09-1.51-2.75-2.47-4.57-1.86-.11,.03-.23,.07-.35,.11,.04-.15,.43-1.32,1.78-1.4l.09-.07c-.34-.42-.86-.84-1.55-1.17,0,0,2.38-.23,4.31,2.51,0,0-.41-2.26,2.03-2.93-.68,.95-.6,2.15-.26,3.27,0,0,1.41-1.91,4.63-1.02-1.19,.21-2.31,.73-2.61,1.49,0,0,3.25-.62,4.6,.99,0,0-1.18-.19-2.61,.12,.15,.05,.3,.1,.44,.16,2.82,1.16,3.83,3.85,3.66,5.47-.14,1.22-1.3,1.53-1.3,1.53,1.46,1.11-1.87,2.6-2.8,4.18-.81-.34-1.96,.31-1.96,.31h-.01c-.26,.33-.42,.6-.61,.63Z"/><path class="cls-11" d="M35.16,15.25c.31-.2,.66-.88,1.08-.88,.05,0,.11,.01,.17,.04,.7,.3,.03,1.38,1.1,1.8,.17-.02,.31-.19,.41-.45h.01c.38-.92,.41-2.89,.22-2.89-.38-.18-.75,.52-1.06,.4-.17-.06-.04-.23,.06-.39,.08-.14,.13-.29-.08-.37-.44-.18-2.73,2.12-2.28,2.68,.12,.15,.24,.14,.37,.06Zm8.01-3s-.02-.01-.03-.01c-.01-.01-.03-.02-.04-.02-.29-.09-.57-.14-.84-.14,.39-.05,.8-.06,1.22,.01,1.37,.23,2.54,.96,2.71,.96,.38-.01,.72-2.09,.72-2.09-1.92-2.36-5.43-1.48-5.43-1.48,0,0,.49-.82-.08-.81-.24,0-.67,.57-1.05,1.25h0c-.51,.94-.91,2.07-.58,2.36,.29,.25,.83,.12,1.51-.02-2,.81-2.47,4.13,.21,4.95,3.75,1.15,5.36-3.78,1.68-4.96Zm3.14,5.42c.51,.41,.49,.94,.55,1.4-.1,.5-.35,.94-.68,1.31-.59,.69-1.44,1.11-1.98,1.12-.16,0-.36-.02-.56-.05h-.01c-1.12,.37-1.91,.84-2.73,1.83,.14-.53,.18-1.06,.1-1.6-.07-.37-.42-2.5-1.37-3.18-.12-.16-.28-.3-.45-.42-1.29-.91-3.78-.82-3.78-.82,0,0-.01,.02-.03,.05h0c-.06,.15-.23,.56-.21,.94-.22-.15-.42-.2-.51-.21,.27-.34,.37-.84,.37-.84,0,0-1.91-1.35-3.66-1.01-.22,.03-.36,.31-.43,.72-.66-1.13-.87-3.18-.69-3.59,.18-.42,.78-.75,1.21-.85-.1-.49,.53-.91,.98-.57,.03,.55,.28,1.06,.88,1.24,1.23,.44,2.16,.03,2.68-.6,.02-.03,.04-.06,.05-.08,.3-.39,.44-.86,.38-1.26h0c.72-.17,1.25-.91,1.49-1.28,.74-.83,.11-.71-.57-.37,.35-1.04-1.52-1.9-2.37-2.22h0c.6-2.12,2.29-3.43,3.52-3.89h.01c.12-.05,.24-.09,.35-.12,1.82-.61,3.48,.35,4.57,1.86,7,1.63,6.33,6.23,6.33,6.23,0,0-.58-.68-.9-.86,.53,1.31-.89,3.03-.89,3.03,.94-.08,1.33,.29,1.33,.29-1.83-.22-3.85,2.64-4.04,2.9-.18,.25,.64,.68,1.08,.73-.01,.07-.02,.13-.02,.17Z"/><path class="cls-11" d="M48.91,16.56c.19,.07,.36,.19,.49,.39,.71,1.05-.5,3.27-1.07,3.54-.74,.7-1.56,.59-2.13-.09l-.02-.02c.33-.37,.58-.81,.68-1.31-.06-.46-.04-.99-.55-1.4,0-.04,.01-.1,.02-.17,.19-.03,.35-.3,.61-.64h.01s1.15-.64,1.96-.3Z"/><path class="cls-17" d="M40.35,9.93h0c.38-.69,.81-1.26,1.05-1.26,.57-.01,.08,.81,.08,.81,0,0,3.51-.88,5.43,1.48,0,0-.34,2.08-.72,2.09-.17,0-1.34-.73-2.71-.96-.42-.07-.83-.06-1.22-.01-.34-.01-.65,.05-.93,.16-.02,0-.03,.01-.05,.02-.68,.14-1.22,.27-1.51,.02-.33-.29,.07-1.42,.58-2.35Z"/><path class="cls-6" d="M43.17,12.25c3.68,1.18,2.07,6.11-1.68,4.96-2.68-.82-2.21-4.14-.21-4.95,.02-.01,.03-.02,.05-.02,.29-.06,.6-.12,.93-.16,.27,0,.55,.05,.84,.14,0,0,.03,0,.04,.02,.01,0,.02,0,.03,.01Zm-1.14,2.18c0-.2-.16-.36-.36-.36s-.36,.16-.36,.36,.16,.37,.36,.37,.36-.17,.36-.37Z"/><path class="cls-11" d="M41.33,12.24c.28-.11,.59-.17,.93-.16-.33,.04-.64,.1-.93,.16Z"/><path class="cls-15" d="M41.67,14.07c.2,0,.36,.16,.36,.36s-.16,.37-.36,.37-.36-.17-.36-.37,.16-.36,.36-.36Z"/><path class="cls-17" d="M39.18,18.08c.17,.12,.33,.26,.45,.42,.95,.68,1.3,2.81,1.37,3.18,.08,.54,.04,1.07-.1,1.6-.27,1-.93,1.99-2.02,3.03-1.66,1.6-3.38,.68-3.38,.68,.07,.44,.64,.75,.64,.75-1.4,.67-3.79-1.38-4.3-2-.06,.5,.08,1,.08,1-2.54-1.34-1.77-3.86-1.77-3.86,.28-.6,.51-1.1,.66-1.59,.2-.59,.27-1.16,.16-1.88-.13-.82-.17-1.83-.04-2.5,.07-.41,.21-.69,.43-.72,1.75-.34,3.66,1.01,3.66,1.01,0,0-.1,.5-.37,.84-.11,.14-.25,.26-.43,.3-.51-.08-1.14-.3-1.77-.7,0,0-.22,.57-.21,1.06-.37,.4-.61,.97-.51,1.13,.14,.22,.52,.4,.85,.46,.08,.12,.35,.59,.16,1.01-.16-.02-.3-.01-.35,.03-.04,.24-.06,.51-.04,.77h0c-.18,.18-1.17,1.24-.82,1.93,.46,.9,1.44,1.01,1.97-.01,.19,.05,.4,.12,.62,.22-.18,1.16,1.04,1.38,1.04,1.38,2.14-.04,3.17-1.8,3.41-3.86,.07-.53,.09-1.08,.05-1.63-1.11-1.15-2.77-.94-3.2-1.3-.17-.15-.24-.36-.26-.57h0c-.02-.39,.15-.8,.21-.94h0l.03-.06s2.49-.09,3.78,.82Z"/><path class="cls-13" d="M38.62,20.13c.04,.55,.02,1.1-.05,1.63l-.33-.39c.09-.48,.02-.92-.43-.81,0-.12-.01-.23-.04-.33-.13-.56-.87,.2-.87,.2h-.01c.06-.31,.03-.62-.2-.87-.21-.15-.5,0-.77,.27-.17-.42-.87-.74-1.32-.68,0-.02,0-.04,0-.06-.02-.92-.74-.86-1.17-.32,.02-.13,.03-.22,.03-.22-.42-.44-.89-.23-1.23,.15-.01-.49,.21-1.06,.21-1.06,.63,.4,1.26,.62,1.77,.7,.18-.04,.32-.16,.43-.3,.09,.01,.29,.06,.51,.21h0c.02,.22,.09,.43,.26,.58,.43,.36,2.09,.15,3.2,1.3Z"/><path class="cls-11" d="M34.12,24.24c-.22-.1-.43-.17-.62-.22-.53,1.02-1.51,.91-1.97,.01-.35-.69,.64-1.75,.82-1.92,.05,.75,.38,1.38,1.07,.71,.13,.55,.51,.45,.85,.17,0,.23,.09,.43,.29,.5,.21,.07,.39-.01,.56-.14h.01c.23,.78,.67,.55,1.02,.21l.02,.02s-.14,1.26,.93-.18c0-.02,0-.03,0-.03,.08-.1,.16-.22,.25-.35h0s.02-.02,.02-.02c0,0,.37-.32,.49-.7,.15-.18,.31-.57,.37-.93l.33,.39c-.24,2.06-1.27,3.82-3.41,3.86,0,0-1.22-.22-1.04-1.38Z"/><path class="cls-5" d="M38.24,21.37c-.06,.36-.22,.75-.37,.93-.38-.05-.64-.49-.64-.49,.31-.11,.57-.72,.58-1.25,.45-.11,.52,.33,.43,.81Z"/><path class="cls-17" d="M37.34,9.55c.68-.34,1.31-.46,.57,.37-.24,.37-.77,1.11-1.49,1.27-.02,.01-.04,.02-.06,.02,0,0-1.48-1.86-3.04-1.21,0,0-.65-1.18-.53-1.37,.13-.19,1.17-1.66,1.87-1.42,.07,.02,.18,.06,.31,.11h0c.85,.33,2.72,1.19,2.37,2.23Z"/><path class="cls-17" d="M36.24,14.35v.02c-.42,0-.77,.68-1.08,.88-.07-.53,1.37-2.28,1.99-2.37-.1,.16-.23,.33-.06,.39,.31,.12,.68-.58,1.06-.4,.19,0,.16,1.97-.22,2.88h-.01c-.33,.32-.45-.28-.61-.93-.13-.52-.76-.51-1.07-.47Z"/><path class="cls-5" d="M37.81,20.56c-.01,.53-.27,1.14-.58,1.25-.37,.13-.82-.42-.82-.42,.17-.22,.4-.58,.48-.96h.01s.74-.76,.87-.2c.03,.1,.04,.21,.04,.33Z"/><path class="cls-12" d="M37.31,14.82c.16,.65,.28,1.25,.61,.94-.1,.26-.24,.43-.41,.45-1.07-.42-.4-1.5-1.1-1.8-.06-.03-.12-.04-.17-.04v-.02c.31-.04,.94-.05,1.07,.47Z"/><path class="cls-21" d="M37.87,22.3c-.12,.38-.49,.7-.49,.7h-.02c-.2-.36-.74-.65-1-.3-.19-.12-.44-.24-.69-.25,.04-.1,.06-.17,.06-.17-.32-.37-.76-.56-1.2-.42,0,0-.32-.5-.7-.62-.06,.04-.12,.11-.18,.19,0,0-.53-.11-.91-.13,.19-.42-.08-.89-.16-1.01,.14,.03,.27,.04,.36,.02,.08-.02,.16-.15,.23-.34,.33,.32,.69,.43,1.08,.32,0,0,.24-.42,.35-1.14,.45-.06,1.15,.26,1.32,.68-.29,.29-.55,.71-.65,1.01,.26,.56,.89,.61,1.14,.55,0,0,.45,.55,.82,.42,0,0,.26,.44,.64,.49Z"/><path class="cls-5" d="M37.36,23.01h0c-.09,.14-.17,.26-.25,.36,0,0,0,.01,0,.03-1.07,1.44-.93,.18-.93,.18l-.02-.02c.27-.27,.48-.61,.48-.61-.05-.07-.15-.16-.27-.25,.26-.35,.8-.06,1,.31Z"/><path class="cls-12" d="M37.07,12.51c.21,.08,.16,.23,.08,.37-.62,.09-2.06,1.84-1.99,2.37-.13,.08-.25,.09-.37-.06-.45-.56,1.84-2.86,2.28-2.68Z"/><path class="cls-5" d="M35.92,19.83c.27-.26,.56-.42,.77-.27,.23,.25,.26,.56,.2,.87-.08,.38-.31,.74-.48,.96-.25,.06-.88,0-1.14-.55,.1-.3,.36-.72,.65-1.01Z"/><path class="cls-6" d="M32.43,11.9c-.06-.85,.4-1.82,.89-1.9,1.56-.65,3.04,1.21,3.04,1.21,.02,0,.04-.01,.06-.02h0c.06,.41-.08,.88-.38,1.27-.01,.02-.03,.05-.05,.08-.52,.63-1.45,1.04-2.68,.6-.6-.18-.85-.69-.88-1.24Zm2.58-.3c0-.2-.16-.36-.36-.36s-.36,.16-.36,.36,.16,.37,.36,.37,.36-.17,.36-.37Z"/><path class="cls-5" d="M36.36,22.7c.12,.09,.22,.18,.27,.25,0,0-.21,.34-.48,.61-.35,.34-.79,.57-1.02-.2h-.01c.26-.25,.45-.67,.55-.91,.25,.01,.5,.13,.69,.25Z"/><path class="cls-5" d="M35.67,22.45c-.1,.24-.29,.66-.55,.9-.17,.13-.35,.21-.56,.14-.2-.07-.28-.27-.29-.5-.02-.49,.26-1.13,.26-1.13,.44-.14,.88,.05,1.2,.42,0,0-.02,.07-.06,.17Z"/><path class="cls-15" d="M34.65,11.24c.2,0,.36,.16,.36,.36s-.16,.37-.36,.37-.36-.17-.36-.37,.16-.36,.36-.36Z"/><path class="cls-5" d="M34.6,19.15c-.11,.72-.35,1.14-.35,1.14-.39,.11-.75,0-1.08-.32,.13-.35,.22-.9,.27-1.2,.43-.54,1.15-.6,1.17,.32,0,.02,0,.04,0,.06Z"/><path class="cls-5" d="M34.53,21.86s-.28,.64-.26,1.13c-.34,.28-.72,.38-.85-.17-.11-.45,.02-1.06,.23-1.39,.06-.08,.12-.15,.18-.19,.38,.12,.7,.62,.7,.62Z"/><path class="cls-5" d="M33.44,18.77c-.05,.3-.14,.85-.27,1.2-.07,.19-.15,.32-.23,.34-.09,.02-.22,0-.36-.02-.33-.06-.71-.24-.85-.46-.1-.16,.14-.73,.51-1.13,.34-.38,.81-.59,1.23-.15,0,0-.01,.09-.03,.22Z"/><path class="cls-5" d="M32.74,21.3c.38,.02,.91,.13,.91,.13-.21,.33-.34,.94-.23,1.39-.69,.67-1.02,.04-1.07-.71h0c-.02-.27,0-.54,.04-.78,.05-.04,.19-.05,.35-.03Z"/></g></g><g id="Layer_92" class="cls-23"><path class="cls-7" d="M30.25,13.63s-.06,1.79,.65,3.1c0,0,.06-.41,.4-.51s1.35,.04,1.35,.04c-1.51-.48-2.23-1.55-1.94-3.39l-.46,.76Z"/><path class="cls-7" d="M34.64,15.09s.2,.44,.44,.24,.73-1.27,1.18-.93,.39,.56,.59,1.15,.17,.91,.64,.71,.73-1.49,.73-1.49l.03-1.85s.51,2.38,.12,3.2-.45,1.26-1.12,.87-.63-1.78-1.09-1.52-1.99,1.45-1.51-.38Z"/><path class="cls-7" d="M39.01,11.93c.23-1.39,1.47-2.26,1.47-2.26,0,0-.93,2.31,.04,2.17s2.77-1.34,4.33-.52,1.54,1.73,1.54,1.73c0,0,.21,1.03-.06,1.79s-.86-.39-1.03,.18c-.06-.09,.32-1.51-.92-2.12s-3.53-.5-3.9-.03c-1.18,.71-.88,5.39,4.42,3.13-.27,.73-.47,1.77-1.7,1.69,0,0,1.29,.13,1.88-.13,0,0-1.29,1.75-4.58,.27-2.1-1.53-1.39-2.93-1.14-4.38,.12-.7-.42-1.08-.34-1.53Z"/><path class="cls-7" d="M32.68,10.82c-.32,1.7,.84,1.52,1.95,1.88s1.83-1.32,1.83-1.32l-.38,1.51s-.64,.99-2.3,1.23-2.57-1.4-2.57-1.4l.31-.16s.21-.44,.3-.67,.6-.07,.6-.07l.27-1.01Z"/><path class="cls-7" d="M32.89,8.71l.43,1.34s.43-.48,1.38,0,1.75,1.32,1.75,1.32v.53s.51,0,1.07-.65,.85-1.81,.75-1.8-.52,1.01-1.02,.74-.12-1.19-.58-1.09-1.06,.62-1.41,.37-2.06-1.22-2.37-.78Z"/><path class="cls-7" d="M38.58,3.17s.05-.57,.68-.8,1.13-.24,1.22-.18,1.09,1.27,1.09,1.27c0,0-2.43-.62-2.99-.29Z"/><path class="cls-7" d="M42.97,4.57c.16,.12,.45,.78,.45,.78,0,0,3.54,1.48,3.59,2.14s-.33,.73-.33,.73l.78-.11s.67,.74,.26,.72-.72-.05-.85,.01-.37,.54-.37,.54c0,0,.81-.33,1.24,1.05s.09,3.14,.09,3.14c0,0,.94-.33,1.04-1.46s0-1.48,0-1.48l.86,.8s.42-.98-.51-2.44-2.43-2.47-2.43-2.47l-3.29-1.33-.54-.62Z"/><path class="cls-7" d="M46.43,15.48c-.16,.07-1.24,1.18-1.14,1.37s.74,.77,.83,.87,.48,.31,.48,.31l.2,.41v1.04s-.34,.92-.34,.92c0,0,.11,.72,.76,.58s1.55-.97,1.55-.97c0,0-1.09,.4-.98-.39s.79-1.3,.79-1.3c0,0-.48-.31-.57-.4s-.24-1.1,.01-1.23,.97-.24,.97-.24c0,0,.58-.7,.46-.67s-1.56,.47-1.04-.39,1.61-1.22,1.45-1.28-.87,.33-.79-.43,.11-2.77,.11-2.77l-.72,2.05-.62,.61-1.41,1.91Z"/><path class="cls-7" d="M40.5,19.86s.95,2.4,.5,3.35c0,0,.27-.48,1.05-.99s1.72-.72,1.72-.72c0,0,.97-.11,1.1-.18s1.14-1.06,1.14-1.06c0,0-.62,.61-1.88,.54s-3.89-1.66-3.89-1.66l.26,.72Z"/><path class="cls-7" d="M32.16,22.42s-.53-.02-.34,.54,.49,.93,.89,.77,.66-.2,.66-.2c0,0-.22,.19,.38,.24s.85,.05,.85,.05c0,0,.13,.12,.45,.34s.57,.34,.7,.33-.18,.32,.16,.34,.45,.46,.75,.02,.39-1.08,.39-1.08c0,0-.56,.32-.53,.2s.27-.95,.27-.95c0,0-.37,.54-.71,.7s-.53-.02-.53-.02c0,0,.29-1.14,.2-1.07s-.33,.7-.61,.8-.69-.02-.69-.02l-.12-1.22s.01,.66-.27,.63-.57-.43-.57-.43c0,0,.02-.63-.04-.5s-.11,.72-.11,.72l-.66,.07-.51-.27Z"/><path class="cls-7" d="M32.72,20.53c.03,.09,.2,.47,.2,.47,0,0,.47-.26,.66-.17s.29,.21,.54,.21,.51,.34,.63,.02,.44-.16,.47-.26,.36-.82,.36-.82c0,0,.21-.6,.02-.66s-.73-.36-.89-.33-.22,.22-.24,.38-.17,.91-.33,.95-.54-.05-.6-.15,0-1.41,0-1.41c0,0-.23,1.17-.32,1.23s-.49,.54-.49,.54Z"/><path class="cls-7" d="M35.31,17.46s-.48,1.08,.02,1.32,1.84,.82,2.22,1.12,.83,.83,.83,.83c0,0,.36,.65,.33,.78s-.48,2.93-2.01,3.77c.13,.03,1.47-.34,2.05-1.58s.54-1.64,.54-1.64l.27,1.31s.62-.73,.15-2.17-.82-2.06-1.45-2.21-1.86-.5-1.96-.88-.36-.81-.36-.81l-.63,.14Z"/><path class="cls-7" d="M34.8,17.29l-.49,1.01-.88-.24s-.56,.26-.66,.26-.47,.23-.47,.23l-.34,.41-.3,.57,.16-1.61-.27-1.06s.98,.52,1.74,.57,1.51-.15,1.51-.15Z"/><path class="cls-7" d="M33.54,24.06c-.03,.09-.02,.44-.4,.57s-.62,.26-.82,.11-.73-.68-.73-.58,.14,.97,.58,1.06,1.78,1.26,1.78,1.26l-.42-.75s1.08,.8,1.65,.73"/><path class="cls-7" d="M34.89,25.64l-.64-.52,.72-.36s-.54-.52-.7-.62-.85-.33-.85-.33l-.27,.82-.82,.11-.66-.18,1.87,1.16,1.44-.03"/></g><g id="Layer_93"><path class="cls-10" d="M46.5,18.19c-.06-.08-.18-.13-.27-.16-.04-.02-.09-.01-.14-.03-.11-.06-.23-.09-.33-.11-.13-.02-.4-.07-.47,.09-.25,.56-.12,1.25,.29,1.7,.07,.08,.18,.13,.27,.16,.11,.04,.26,.07,.38,.07,.12,0,.39-.05,.24-.22-.03-.03-.05-.06-.08-.09,0,0,0,0,0,0,.08,.01,.17,.03,.26,.01,.06-.01,.16-.03,.18-.1,.12-.46-.02-.95-.32-1.32Z"/><path class="cls-10" d="M44.8,19.27c-.02-.08-.05-.14-.11-.19,0,0,0,0-.01-.01,0,0-.07-.05-.1-.07-.08-.03-.16-.05-.25-.04-.11,.01-.17,.03-.27,.08-.05,.02-.09,.06-.13,.09-.03,.03-.06,.07-.09,.11,0,0,0,0,0,.01-.03,.05-.05,.09-.06,.12,0,0-.01,.02-.02,.03-.03,.05-.05,.11-.05,.17,0,.06,0,.11,.03,.16,.01,.06,.04,.1,.09,.14,.03,.02,.06,.04,.09,.06,.07,.03,.15,.05,.23,.04,.04,0,.08-.02,.12-.02,.03,0,.04-.03,.07-.04,.02,0,.03,0,.05-.01,.06-.02,.12-.06,.17-.11,.01-.02,.03-.03,.04-.05,.02-.02,.04-.03,.06-.05,.05-.04,.09-.09,.11-.15,.03-.05,.05-.11,.05-.17,0-.04,0-.07,0-.11Z"/><path class="cls-10" d="M48.3,12.78c-.03-.06-.07-.11-.12-.14-.04-.02-.07-.04-.11-.06-.08-.03-.17-.04-.26-.03-.04,.01-.09,.02-.13,.04-.08,.04-.15,.09-.2,.16-.03,.03-.05,.06-.08,.09,0,0,0,0,0,0-.01,.01-.03,.03-.04,.04-.04,.05-.07,.11-.08,.17-.02,.06-.03,.13-.02,.2,0,.07,.03,.13,.07,.18,.03,.06,.07,.11,.12,.14,.04,.02,.07,.04,.11,.06,.08,.03,.17,.04,.26,.03,.04-.01,.09-.02,.13-.04,.08-.04,.15-.09,.2-.16,.04-.05,.08-.09,.12-.14,.04-.05,.07-.11,.08-.17,.02-.06,.03-.13,.02-.2,0-.07-.03-.13-.07-.18Z"/><path class="cls-10" d="M41.56,3.77c-.06-.29-.24-.54-.51-.66-.17-.08-.36-.09-.54-.08-.11,0-.22,.04-.33,.07-.07,0-.13,.03-.18,.07,0,0,0,0,0,0-.04,0-.09,0-.13,0-.12,0-.26,.1-.33,.19-.07,.1-.12,.25-.1,.37,.02,.13,.08,.25,.19,.33,.08,.06,.17,.08,.26,.09,0,0,0,0,0,0,0,0,0,0,0,0,0,0,0,0,0,0,0,0,0,0,.01,0,.12,.08,.22,.19,.34,.27,.27,.17,.57,.26,.88,.14,.17-.07,.31-.21,.39-.38,.03-.06,.05-.13,.06-.2,0-.07,0-.15,0-.22Z"/><path class="cls-10" d="M39.33,4.04s0-.03,0-.05c0,0,0,0,0,0-.01-.02-.02-.04-.03-.06,0,0,0,0,0,0-.02-.02-.05-.04-.07-.05,0,0-.02,0-.02-.01-.03-.01-.06-.02-.1-.03,0-.01,0-.03-.01-.04-.03-.03-.07-.05-.11-.06-.05-.02-.1-.03-.15-.02-.13,0-.26,.02-.38,.08-.04,.02-.07,.04-.11,.05-.06,.03-.11,.08-.15,.13-.01,.02-.02,.05-.03,.08-.3,.27-.28,.86,.22,.86,.27,0,.44-.18,.51-.39,.06-.01,.1-.03,.18-.06,.04-.02,.07-.04,.11-.05,.05-.02,.09-.06,.12-.1,.02-.02,.04-.04,.05-.07,.02-.03,.03-.06,.02-.1,0-.04-.01-.07-.02-.11Z"/><path class="cls-10" d="M42.58,4.29c-.64,0-.77,.99-.13,.99s.77-.99,.13-.99Z"/><path class="cls-10" d="M36.73,10.92c-.64,0-.77,.99-.13,.99s.77-.99,.13-.99Z"/><path class="cls-10" d="M33.99,14.89s-.01-.02-.01-.04c0,0,0-.01,.01-.02,0-.01,0-.03,0-.04,0,0,0,0,0,0,0-.04,0-.08,0-.12,0-.02-.01-.04-.02-.06-.01-.03-.03-.05-.04-.07,0,0-.01-.02-.02-.03-.03-.03-.07-.05-.11-.07-.06-.02-.13-.03-.19-.02-.06,0-.12,0-.19,.02-.07,.01-.13,.03-.19,.06-.01,0-.02,.01-.03,.02,0,0,0,0,0,0-.05,.01-.11,.03-.14,.04-.05,.02-.09,.04-.13,.06-.07,.04-.15,.09-.19,.15-.02,.03-.04,.06-.05,.09,0,.01,0,.02,0,.03,0,.03,0,.06,0,.08,0,.01,0,.02,0,.03,0,.02,.01,.04,.03,.06,.02,.03,.04,.07,.07,.1,.03,.03,.08,.05,.11,.07,0,0,.02,0,.03,.01,.04,.01,.08,.02,.12,.03,.14,.01,.28,0,.41-.04,.07-.02,.14-.04,.21-.08,.06-.03,.11-.06,.17-.1,.02-.02,.04-.03,.06-.05,.03-.02,.06-.03,.08-.06,.02-.02,.03-.04,.04-.07Z"/><path class="cls-10" d="M33.16,13.25s-.03-.05-.06-.06c-.03-.02-.07-.03-.12-.03-.06,0-.11,0-.17,0-.06,0-.13,.02-.19,.03-.04,.01-.08,.03-.13,.04-.07,.03-.14,.06-.2,.1-.02,.02-.04,.04-.07,.06-.03,.03-.05,.07-.04,.11,0,.02,0,.04,0,.06,.01,.03,.03,.05,.06,.06,.03,.02,.07,.03,.12,.03,.06,0,.11,0,.17,0,.06,0,.13-.02,.19-.03,.04-.01,.08-.03,.13-.04,.07-.03,.14-.06,.2-.1,.02-.02,.04-.04,.07-.06,.03-.03,.05-.07,.04-.11v-.06Z"/><path class="cls-10" d="M31.66,13.05c0-.06,0-.12-.02-.18-.01-.04-.03-.06-.07-.08-.03-.03-.07-.04-.12-.05-.04,0-.07,0-.11,0-.03,0-.06,0-.09,0-.02-.01-.03-.02-.05-.03-.03,0-.06-.02-.09-.03-.06-.01-.11-.01-.17,0-.09,0-.17,.02-.25,.05-.09,.03-.19,.07-.26,.14-.07,.06-.11,.12-.14,.21,0,0,0,.02,0,.03-.05,.03-.11,.05-.15,.09-.02,.02-.04,.04-.06,.07-.03,.03-.04,.06-.03,.1,0,0,0,.01,0,.02-.02,.04-.04,.07-.03,.12,.03,.07,.07,.11,.14,.14,.09,.04,.18,.05,.27,.04,.04,.04,.09,.07,.14,.07,.12,.02,.24,0,.36-.02,.16-.04,.32-.12,.45-.22,.06-.05,.12-.12,.16-.19,.02-.03,.02-.06,.03-.09,0,0,.01,0,.01-.01,.03-.05,.07-.11,.07-.17Z"/><path class="cls-10" d="M31.06,14.1c-.33,0-1.04,.5-.39,.5,.33,0,1.04-.5,.39-.5Z"/><path class="cls-10" d="M44.3,5.69c-.34,0-1.03,.51-.38,.51,.34,0,1.03-.51,.38-.51Z"/><path class="cls-10" d="M43.88,18.24c-.19,0-.56,.06-.64,.27-.07,.2,.06,.31,.27,.31,.19,0,.56-.06,.64-.27,.07-.2-.06-.31-.27-.31Z"/><path class="cls-10" d="M41.94,17.94c-.18,0-.55,.04-.68,.18-.1,.1-.19,.18,.05,.18,.18,0,.55-.04,.68-.18,.1-.1,.19-.18-.05-.18Z"/></g><g id="Head-3"><path class="cls-1" d="M31.73,19.83c.19,.31,.89,.55,1.2,.48s.53-1.77,.53-1.77c-.86-.91-1.93,.98-1.74,1.29Z"/><path class="cls-1" d="M33.41,18.8c.43-.57,1.18-.65,1.2,.29-.11,.76-.36,1.2-.36,1.2-.42,.12-.8,0-1.14-.36"/><path class="cls-1" d="M34.61,19.09c.43-.32,1.32,.17,1.21,.8"/><path class="cls-1" d="M36.69,19.56c-.45-.31-1.24,.71-1.42,1.28,.26,.56,.89,.61,1.14,.55,.31-.38,.79-1.27,.28-1.83Z"/><path class="cls-1" d="M36.89,20.43s.74-.77,.88-.2-.16,1.45-.54,1.58-.82-.43-.82-.43"/><path class="cls-1" d="M37.23,21.81s.26,.44,.64,.49c.37-.45,.73-1.97-.09-1.74"/><path class="cls-1" d="M34.56,23.49c-.63-.24-.03-1.63-.03-1.63,.44-.13,.88,.05,1.2,.42,0,0-.48,1.45-1.17,1.21Z"/><path class="cls-1" d="M34.53,21.86s-.32-.5-.7-.62c-.31,.19-.55,1.02-.41,1.58s.52,.45,.86,.16"/><path class="cls-1" d="M33.64,21.43s-1.07-.23-1.26-.1c-.17,.95,.1,2.39,1.03,1.49"/><path class="cls-1" d="M35.52,22.46c.44-.05,.97,.29,1.1,.5,0,0-1.1,1.78-1.5,.4"/><path class="cls-1" d="M36.17,23.58s-.16,1.47,1.18-.55c-.2-.41-.8-.71-1.05-.25"/><path class="cls-1" d="M37.38,23s.37-.32,.49-.7"/><path class="cls-1" d="M32.56,20.26s.45,.62,.15,1.13"/><path class="cls-15" d="M31.81,17.19c.71,.34,1.92,.8,2.36,.96,.33-.08,.56-.58,.65-.99l.08,.2c-1-.65-2.43-1.26-3.58-.93-.6,1.13-.06,2.63-.1,3.89-.07,.98-.52,1.82-.88,2.64-.38,1.3,.32,2.99,1.68,3.61,0,0-.29,.23-.29,.23-.14-.49-.1-1.03-.04-1.53,0,0,.31,.34,.31,.34,.99,.98,2.61,2.41,4.07,1.95,0,0,0,.36,0,.36-.5-.26-.77-.69-.81-1.26,0,0,.36,.17,.36,.17,2.73,1.25,5.87-2.98,5.13-5.5-.46-3.04-2.5-3.95-5.33-3.86,0,0,.17-.11,.17-.11-.23,.48-.29,1.16,.06,1.34,1.03,.3,2.54,.45,3.28,1.47,.41,.5,.62,1.13,.59,1.74-.29-.55-.53-1.06-.9-1.49-.36-.43-.86-.72-1.4-.88-.73-.27-2.43-.14-2.26-1.42,.03-.39,.16-.72,.33-1.05,0,0,.12,0,.12,0,1.47-.02,3.49,.22,4.36,1.28,1.49,1.48,1.97,4.21,.92,6.06-1.02,1.8-3.01,3.84-5.25,2.78,0,0,.29-.21,.29-.21,.05,.34,.56,.62,.88,.79-1.8,.98-3.66-.68-4.89-1.89,0,0,.35-.11,.35-.11-.06,.45,.08,.95,.18,1.39-1.23-.59-2.32-1.68-2.37-3.11-.18-1.33,.94-2.47,.97-3.74,.05-1.38-.57-2.83,.22-4.15,.09-.11,.3-.16,.43-.17,1.35-.18,2.68,.4,3.78,1.13-.07,.31-.15,.6-.31,.87-.14,.24-.37,.5-.7,.57-.94-.22-1.75-.73-2.42-1.36h0Z"/><path class="cls-1" d="M38.62,20.08c.17,2.67-.76,5.49-3.46,5.54,0,0-1.26-.23-1.03-1.43"/><path class="cls-15" d="M32.56,23.88c.9-.5,2.2,0,2.55,.97,0,0-.03,.03-.03,.03-.68-.64-1.69-.88-2.52-1h0Z"/><path class="cls-1" d="M33.54,23.94c-.51,1.11-1.54,1.01-2.01,.1-.39-.76,.85-1.96,.85-1.96"/><path class="cls-1" d="M34.79,15.19c-.45-.56,1.84-2.86,2.28-2.68s-.3,.63,.01,.75,.68-.58,1.06-.4c.25,0,.12,3.27-.63,3.34-1.08-.42-.4-1.5-1.1-1.8s-1.17,1.34-1.62,.78Z"/><path class="cls-1" d="M31,17.04c-.71-1.09-.95-3.29-.76-3.71s.78-.75,1.22-.85c-.1-.5,.55-.92,1-.55"/><path class="cls-1" d="M33.32,10s-.65-1.18-.53-1.37,1.17-1.65,1.86-1.41c.52,.18,3.1,1.14,2.68,2.34,.69-.35,1.31-.46,.57,.37-.24,.38-.8,1.15-1.55,1.28,0,0-1.48-1.86-3.04-1.2Z"/><path class="cls-1" d="M33.32,10c-.81,.14-1.52,2.67,0,3.14,2.02,.72,3.25-.87,3.11-1.94"/><path class="cls-1" d="M39.77,12.28c-.57-.49,1.07-3.6,1.63-3.61s.08,.82,.08,.82c0,0,3.5-.88,5.43,1.48,0,0-.34,2.08-.72,2.09-.17,0-1.34-.72-2.72-.96-1.61-.28-3.13,.68-3.7,.19Z"/><path class="cls-1" d="M43.1,12.22c-3.37-1.03-4.98,3.96-1.61,4.99,3.77,1.15,5.38-3.84,1.61-4.99Z"/><path class="cls-15" d="M45.91,17.2c.81,.26,1.16,1.1,1.16,1.87-.25,1.36-1.54,2.54-2.93,2.61-.8-.09-1.55-.36-2.27-.71,.52,.09,1.02,.21,1.53,.28,1.5,.33,2.89-.87,3.27-2.23,0,0,0,.06,0,.06-.04-.37-.06-.7-.21-.95-.14-.26-.41-.44-.71-.57l.15-.37h0Z"/><path class="cls-1" d="M40.82,23.37c.86-1.06,1.67-1.54,2.82-1.92"/><path class="cls-1" d="M46.95,16.87s1.74-.97,2.45,.08-.51,3.28-1.07,3.54c-.74,.7-1.56,.59-2.14-.09"/><path class="cls-15" d="M48.87,15.51c-.85,.54-1.47,1.09-2.05,1.88-.1,.1-.26,.31-.52,.31-.45-.08-1.54-.46-1.21-1.06,1.05-1.33,2.33-3.01,4.21-2.97,0,0-.16,.34-.16,.34-.44-.33-1.1-.25-1.62-.2,.69-.86,1.52-2.06,1.14-3.2,0,0-.21-.56-.21-.56,.56,.3,1.06,.74,1.45,1.22,0,0-.35,.1-.35,.1,.22-3.39-3.27-5.39-6.18-6.01,0,0-.08-.02-.08-.02-.53-.75-1.23-1.4-2.06-1.75-2.59-1.04-5.4,1.34-6.07,3.79,0,0-.39-.11-.39-.11,.74-2.67,3.78-5.19,6.61-4.05,.9,.38,1.63,1.06,2.19,1.83l-.12-.08s1.18,.33,1.18,.33l1.15,.43c2.44,1,4.56,3.34,4.11,6.17-.22-.25-.49-.58-.72-.81-.14-.14-.29-.29-.43-.37l.29-.25c.4,1.18-.25,2.32-.92,3.23,0,0-.17-.33-.17-.33,.83-.09,1.37,.17,1.96,.75-1.95-.46-3.42,1.35-4.48,2.74,0,.01,0-.07,0-.03,.03,.05,.14,.14,.24,.2,.21,.12,.47,.23,.69,.26,0,0-.06,0-.06,0,.57-.77,1.44-1.86,2.57-1.79h0Z"/><path class="cls-1" d="M48.89,16.58c.91-1.59,4.28-3.09,2.82-4.2,0,0,1.16-.31,1.29-1.53,.19-1.71-.95-4.6-4.12-5.65"/><path class="cls-15" d="M40.8,2.77c-.42-.33-.54-.7-.95-1.01-.5-.45-1.18-.83-1.78-1.15,2.11-.28,4.06,.86,5.23,2.56,0,0-.36,.15-.36,.15-.25-1.45,.75-2.84,2.17-3.15,0,0,.57-.18,.57-.18l-.35,.49c-.63,.87-.55,2.06-.23,3.1l-.35-.06c1.2-1.4,3.18-1.56,4.85-1.1,0,0,.89,.23,.89,.23l-.91,.16c-.89,.18-2.05,.51-2.46,1.37,0,0-.22-.27-.22-.27,1.81-.29,3.91-.18,5.13,1.4-1.4-.08-2.8-.08-4.19,.23,1.1-.67,2.46-.9,3.73-.64,0,0-.18,.33-.18,.33-1.17-1.26-3.21-1.12-4.78-.86,.41-1.28,1.74-1.72,2.91-1.94,0,0-.02,.39-.02,.39-.39-.1-.79-.18-1.19-.21-1.3-.12-2.71,.37-3.47,1.46-.4-1.22-.63-2.69,.18-3.81,0,0,.22,.31,.22,.31-1.22,.27-2.09,1.45-1.88,2.7,0,0,.1,.77,.1,.77l-.46-.62c-.94-1.33-2.45-2.45-4.13-2.42,0,0,.07-.38,.07-.38,.82,.45,1.82,1.15,1.9,2.16h0Z"/><path class="cls-1" d="M38.48,3.44s.35-1.33,1.8-1.41"/><path class="cls-15" d="M46.68,18.09c-.01-.17,.34-.35,.48-.42,.61-.29,1.31,.14,1.52,.73-.4-.39-.86-.62-1.35-.35-.15,.05-.25,.2-.44,.23l-.21-.19h0Z"/><path class="cls-15" d="M47.4,17.72c.17,.05,.15,.19,.23,.29,.41,.72,.34,1.9-.56,2.18,.71-.52,.5-1.34,.19-2-.02-.11-.14-.17-.1-.31l.24-.16h0Z"/><path class="cls-15" d="M39.76,14.5c-.21,1.63,.9,3.13,2.55,3.38,.53,.12,1.09,.11,1.64,.1-.55,.08-1.11,.16-1.67,.08-1.71-.09-3.24-1.66-2.89-3.43,.03-.07-.02-.16,.1-.21l.28,.07h0Z"/><path class="cls-15" d="M36.16,12.53c-.76,1.47-3.09,1.73-4.3,.64,1.39,.84,3,.27,4.05-.78,0,0,.25,.14,.25,.14h0Z"/><path class="cls-15" d="M38.33,5.07c.68,.2,1.24,.9,1.16,1.62-.17-.62-.67-1.22-1.16-1.62h0Z"/><path class="cls-15" d="M45.54,8.02c.74,.01,1.12,.97,.53,1.45,.06-.24,.21-.57,.07-.85-.09-.29-.41-.45-.61-.6h0Z"/><path class="cls-15" d="M46.24,7.82c.47,.34,.82,.45,1.37,.23-.12,.19-.49,.34-.75,.29-.26-.06-.55-.3-.62-.52h0Z"/><path class="cls-15" d="M46.5,9.65c-.1-.31,.04-.65,.29-.86,.31-.12,.72-.14,.9,.09-.26-.05-.56-.07-.79,.08-.26,.13-.31,.48-.4,.69h0Z"/><path class="cls-15" d="M37.9,6.08c.38-.55,1.19-.93,1.82-.6-.63-.07-1.3,.29-1.82,.6h0Z"/><path class="cls-15" d="M38.71,6.19c.13-.42,.77-.61,1.07-.27-.47-.05-.68,.05-1.07,.27h0Z"/><circle class="cls-15" cx="41.67" cy="14.44" r=".36"/><circle class="cls-15" cx="34.65" cy="11.6" r=".36"/><path class="cls-15" d="M37.25,23.38c.11,.11,0,.18,.01,.27-.15,.54-.73,.88-1.24,.95,.23-.19,.44-.37,.59-.59,.1-.16,.19-.32,.26-.49,.05-.05-.02-.12,.1-.15h.28Z"/><path class="cls-15" d="M35.45,17.24c1.1,.17,2.15,.81,2.87,1.67-.79-.81-1.86-1.19-2.9-1.53,0,0,.03-.14,.03-.14h0Z"/><path class="cls-15" d="M39.16,17.96c1.35,1.26,1.48,3.48,.86,5.13,.53-1.69,.21-3.68-.95-5.02,0,0,.1-.11,.1-.11h0Z"/><path class="cls-15" d="M34.97,17.29c-.83,.23-1.75-.06-2.48-.49,.77,.36,1.62,.39,2.45,.35,0,0,.03,.14,.03,.14h0Z"/><path class="cls-15" d="M35.44,17.3c.18,.73,.82,1.21,1.55,1.37-.74-.05-1.69-.51-1.69-1.36,0,0,.14,0,.14,0h0Z"/><path class="cls-15" d="M31.06,20.37c-.17,1.26-.49,2.56-.13,3.82-.43-1.22-.36-2.62-.01-3.85,0,0,.14,.03,.14,.03h0Z"/><path class="cls-15" d="M32.59,17.69c.09,.09,0,.11,0,.17-.04,.15-.09,.3-.16,.45-.09,.2-.14,.4-.18,.63-.12-.21-.13-.45-.14-.69,0-.18,.03-.35,.09-.51,.04-.05-.01-.13,.12-.14l.27,.11h0Z"/><path class="cls-15" d="M34.59,17.9c.05-.12,.08-.03,.12-.05,.24,.02,.44,.24,.51,.47-.22-.04-.38-.02-.58-.06-.02-.03-.05,.05-.05-.07v-.29h0Z"/><line class="cls-1" x1="38.26" y1="21.15" x2="38.62" y2="21.81"/><path class="cls-2" d="M35.18,15.33c-.26-.4,1.31-2.35,1.97-2.45"/><path class="cls-2" d="M36.07,14.37s1.06-.24,1.23,.45,.31,1.31,.67,.87"/><path class="cls-15" d="M43.15,12.17c1.39,.1,2.63,1.12,2.89,2.5-.38-1.38-1.61-2.08-2.92-2.36,0,0,.03-.14,.03-.14h0Z"/><path class="cls-15" d="M40.26,10.09c-.08-1.38,.94-2.83,2.41-2.77-1.45,.06-2.17,1.48-2.27,2.77,0,0-.14,0-.14,0h0Z"/><path class="cls-15" d="M46.8,6.33c1.91,.99,3.51,2.92,4.02,5.02-.59-2.09-2.29-3.76-4.08-4.89,0,0,.06-.13,.06-.13h0Z"/><path class="cls-15" d="M49.18,5.19c2.02,.96,3.12,3.17,2.95,5.35-.01-1.6-.53-3.21-1.75-4.27-.38-.36-.84-.63-1.27-.96l.07-.12h0Z"/><path class="cls-15" d="M46.24,17.78c-.07-1.4,1.27-2.38,2.41-2.91-1.09,.61-2.14,1.59-2.27,2.89,0,0-.14,.01-.14,.01h0Z"/></g></g><g id="Arm_F"><g id="Arm"><g><path class="cls-11" d="M36.28,28.45c-.04-2.15,4.25-6.05,7.35-2.5,2.75,3.47-.79,7.2-3.05,7.49h-.04c-.58,1.56-1.85,3.17-3.91,3.34-.06,.4-.19,.85-.44,1.01-.49,.32-1.18,.59-1.56,.66-.37,.07-1.51-.23-1.51-.23h-.01c-3.1,1.92-3.69-1.36-7.76-1.06-.03-.81-.33-2.42-.63-3.38,3.55-.29,5.36-2.88,7.23-1.59,.44-2.64,2.76-3.65,4.33-3.74Z"/><path class="cls-20" d="M25.35,37.16c0,.31-.03,.5-.11,.51-.26,.09-.63,.17-1.03,.23-.36,.05-.74,.08-1.08,.06-.34-.01-.63-.06-.82-.16-.06-.23-.11-.45-.16-.66-.29-1.11-.48-1.9-.42-3,0-.09,0-.17,.01-.26,.08-.15,.35-.3,.69-.43,.3-.13,.67-.24,1.01-.32,.36-.09,.69-.14,.88-.14,.11,0,.26,.32,.4,.79,.3,.96,.6,2.57,.63,3.38Zm-1.37-1.58c0-.3-.24-.55-.54-.55s-.54,.25-.54,.55,.24,.54,.54,.54,.54-.25,.54-.54Z"/><path class="cls-9" d="M24.21,37.9v.06c0,.3-.24,.54-.54,.54s-.54-.24-.54-.53h0c.34,0,.72-.02,1.08-.07Z"/><path class="cls-9" d="M23.44,35.03c.3,0,.54,.25,.54,.55s-.24,.54-.54,.54-.54-.25-.54-.54,.24-.55,.54-.55Z"/><path class="cls-9" d="M23.44,33.13c-.34,.08-.71,.19-1.01,.32h0c-.05-.09-.08-.18-.08-.28,0-.3,.25-.55,.55-.55,.28,0,.52,.23,.54,.51Z"/><path class="cls-11" d="M22.15,37.14h-.02c-.33-.1-.8-.03-1.08,.04,.28-2.36-1.31-2.76-1.72-2.83,.05-.02,.1-.03,.15-.04,.56-.07,1.38,.35,2.25-.17-.06,1.1,.13,1.89,.42,3Z"/><path class="cls-8" d="M20.77,37.24c.19,.75-.2,1.39-.72,1.79-.31,.25-.67,.42-.98,.47-.45,1.33-1.03,1.34-1.63,1.54-1.54-1.02-2.18,.01-2.18,.01h-.15c0,.19,.03,.35,.07,.48-1.27-.95-2.24-.07-2.24-.07h-.04c.02-.24,.32-.88,.61-1.44-.38-.43-.79-.31-.79-.31l-.06-.04c.04-.06,.08-.12,.12-.19,.69-1.16,.72-1.94,1.39-2.46,.17-.13,.67-.27,1.28-.49,.18,.19,1.06,1.07,1.59,1.95l2.07-1.37s-.1-1.09-1.37-1.66l-.04-.06c.72-.48,1.23-.92,1.63-1.04,.41,.07,2,.47,1.72,2.83-.16,.03-.26,.06-.26,.06h-.02Z"/><path class="cls-11" d="M15.18,41.53c-.04-.13-.07-.29-.07-.47h.15s.64-1.04,2.18-.02c.48,.11,1.33,.44,1.32,.18-.44-1.42,1.06-1.95,1.32-1.28-.07,.36-.27,.84-.31,1.34-.04,.56,.07,1.13-.15,1.26-.19,.12-.76,0-1.25,.02-.57,.03-1.08,.19-1.25,.28,0,0-1.61-.73-1.87-1.14-.03-.05-.05-.1-.07-.17Z"/><path class="cls-11" d="M19.11,37.11l-2.07,1.37c-.53-.88-1.41-1.76-1.59-1.95,.41-.14,.87-.32,1.3-.56,.35-.19,.67-.38,.95-.58l.04,.06c1.27,.57,1.37,1.66,1.37,1.66Z"/><path class="cls-11" d="M13.21,41.9c-.18-.19-.31-.33-.31-.41v-.03h.04s.97-.88,2.24,.07c.02,.07,.04,.12,.07,.17l-.21,.29c.46,.56,.49,1.29,.49,1.29,1-.26,3.02,.29,2.21,1.47-.23,.12-.87-.33-1.43-.39-.68-.07-1.29,.23-1.42,.28-.13,.04-.31-.9-.79-1.67-.27-.43-.63-.8-.89-1.07Z"/><path class="cls-11" d="M13.51,40.02c-.29,.56-.59,1.2-.61,1.44v.03c0,.08,.13,.22,.31,.41,0,.75-.52,1.6-.52,1.6,.79,2.08-1.13,2.7-1.39,2.29-.23-.22,.23-1.05,.39-1.94,.19-1.09-.12-1.92-.05-2.51,.04-.25,.49-.79,1.02-1.67l.06,.04s.41-.12,.79,.31Z"/></g></g><g id="Layer_87" class="cls-23"><path class="cls-7" d="M25.53,37.23l-.19-1.5s3.49-1.9,6.18-.95c1.85,.47,2.38,1.89,3.62,.94l-.07,.84s1.74-1.04,1.88-2.55l.36,1.17s3.79-3.59,2.41-6.07c.09,.17,.6,.49,.94,1.16,0,0,3.59-.82,3.29-3.66,0,0,2.58,3.89-3.06,6.84,0,0-1.46,3.04-4.3,3.43l-.49,.93-1.58,.7-1.34-.23s-1.07,.94-1.83,.62-2.2-1.13-3.21-1.37-2.6-.29-2.6-.29Z"/><polygon class="cls-7" points="21.06 35.54 21.17 37.05 22.01 37.12 21.73 35.78 21.06 35.54"/><path class="cls-7" d="M20.65,36.22s.35,.92-.97,1.86-2.66,1.47-2.66,1.47l-.74,.93,.69,1.08,1.85,.39,.73-1.52,.07-.84,.74-.77,.56-1.43,1.08-.27-.27-1.34-1.08,.44Z"/><path class="cls-7" d="M15.5,38.99l-1.47,2.12,.97,2.66s2.17-.21,2.69,.71l.24-.51-1.02-.57-1.51-.14-.45-1.5c.24-.42-.37-2.17,.54-2.77Z"/><path class="cls-7" d="M14.49,38.51l-1.54,2.96,.35,.66-.65,1.35s.69,1.33,.11,1.76-1.08,.69-1.08,.69l.56-1.35,.14-1.85,.23-1.43,.4-1.18s.23-1.26,1.48-1.62Z"/><path class="cls-7" d="M15.63,36.64l1.37,1.65,1.99-1.29-.35-.83s.52,.91-.65,1.18-1.61-1.06-1.61-1.06l-1,.35"/><path class="cls-7" d="M21.73,35.78l.71,2.33s2.51-.04,2.92-.64l-.37-2.26s.28,1.5-.98,1.69-2.15-2.98-2.15-2.98l-.14,1.85Z"/></g><g id="Layer_90"><path class="cls-10" d="M30.03,33.14c-.3,.02-.54,.09-.78,.26,.32,.29,.74,.53,1.16,.53,.19,0,.38-.05,.56-.15-.22-.42-.56-.58-.99-.58-.09,0-.19,0-.29,.02"/><path class="cls-10" d="M28.6,32.57c.35,.18,.77,.31,1.17,.31s.77-.12,1.04-.43c-.18-.28-.44-.38-.73-.38-.5,0-1.1,.3-1.49,.5Z"/><path class="cls-10" d="M36.27,30.6c-.29,.21-.52,.42-.66,.75,.42,0,.63-.14,.88-.47"/><path class="cls-10" d="M35.33,29.44c-.09,.09-.14,.16-.21,.28l.13,.15c.11,.03,.21,.04,.31,.04,.19,0,.36-.07,.52-.26-.14-.15-.3-.21-.47-.21-.12,0-.25,.03-.4,.07"/><path class="cls-10" d="M38.11,29.47c-.01-.06-.05-.09-.11-.11-.05-.02-.13-.03-.19-.03,0,0-.01,0-.02,0-.04-.04-.1-.07-.15-.07-.12-.01-.24,0-.36,.03-.11,.03-.23,.07-.33,.15-.08,.06-.15,.12-.23,.18-.04,.04-.08,.08-.1,.12,0,0,0,0,0,0-.04,.04-.07,.1-.1,.15-.01,.03,0,.06,.01,.08,.01,.03,.04,.05,.08,.06,.05,.02,.09,.02,.14,.02,.01,0,.03,0,.04,0,.04,.03,.08,.06,.12,.07,.09,.02,.17,.03,.26,.03,.15,0,.31-.04,.46-.1,.23-.1,.49-.28,.47-.56,0-.01,0-.03,0-.04Z"/><path class="cls-10" d="M34.91,29.55c-.4-.34-1.04-.24-1.46-.02-.19,.1-.34,.25-.44,.42-.12,.09-.23,.19-.28,.33-.04,.13-.04,.28,.03,.4,.07,.12,.23,.11,.34,.1,.18-.02,.36-.08,.52-.18,.41-.28,.81-.55,1.22-.83,.06-.04,.16-.15,.07-.22Z"/><path class="cls-10" d="M38.61,26.8c0-.05-.03-.1-.05-.14-.03-.07-.07-.13-.13-.18-.09-.08-.16-.12-.27-.15-.11-.04-.25-.04-.37-.02-.03,0-.05,.02-.08,.03-.04,0-.08,0-.11,0-.13,.02-.25,.06-.36,.13-.17,.11-.3,.27-.35,.47-.02,.08-.02,.16,0,.23,.01,.08,.05,.15,.09,.22,.04,.07,.11,.12,.18,.17,.07,.05,.16,.08,.24,.09,.13,.02,.26,.03,.38,.01,.07-.01,.14-.02,.2-.04,.12-.04,.19-.07,.3-.13,.1-.06,.19-.15,.26-.24,.04-.06,.07-.14,.09-.21,0-.02,0-.05,0-.07,0-.05,0-.1,0-.15Z"/><path class="cls-10" d="M41.03,25.57c-.12-.08-.26-.12-.4-.13-.23-.02-.48,.04-.7,.12,0,0-.02,0-.03,0-.13,.02-.26,.06-.38,.11-.18,.08-.45,.22-.44,.45,0,.18,.2,.28,.35,.32,.16,.04,.33,.02,.49,0,.22-.04,.44-.11,.63-.23,.22-.13,.37-.35,.5-.56,.02-.03,0-.06-.02-.08Z"/><path class="cls-10" d="M28.35,33.02c-.16-.05-.34-.01-.5,.04-.05-.03-.11-.06-.17-.07-.3-.07-.72,.04-.91,.3-.14,.03-.29,.08-.38,.17-.07,.06-.13,.13-.2,.19,0,0-.02,.02-.03,.03-.17,.06-.33,.12-.5,.18-.11,.04-.27,.13-.29,.25-.03,.12,.09,.18,.19,.2,.36,.07,.72,.11,1.09,.08,.4-.03,.84-.17,1.13-.45,.07-.07,.14-.16,.19-.25,.19-.12,.36-.26,.49-.43,.09-.11,0-.22-.11-.25Z"/><path class="cls-10" d="M34.42,32.88s-.04-.03-.06-.05c-.06-.03-.13-.04-.2-.04-.03,0-.06,0-.08,0-.06,0-.13,0-.19,.02-.07,0-.13,.03-.19,.06-.06,.02-.11,.05-.15,.09-.04,.03-.08,.06-.11,.1-.01,.02-.02,.05-.03,.07-.01,.05,0,.09,.04,.13,.02,.02,.04,.03,.06,.05,.06,.03,.13,.04,.2,.04,.03,0,.06,0,.08,0,.06,0,.13,0,.19-.02,.07,0,.13-.03,.19-.06,.06-.02,.11-.05,.15-.09,.04-.03,.08-.06,.11-.1,.01-.02,.02-.05,.03-.07,.01-.05,0-.09-.04-.13Z"/><path class="cls-10" d="M21.75,34.78c-.18,0-.55,.04-.68,.18-.09,.1-.19,.18,.05,.18,.18,0,.55-.04,.68-.18,.09-.1,.19-.18-.05-.18Z"/><path class="cls-10" d="M17.84,36.35c-.19,0-.55,.03-.68,.18-.09,.11-.18,.2,.05,.2,.19,0,.55-.03,.68-.18,.09-.11,.18-.2-.05-.2Z"/><path class="cls-10" d="M17.22,36.93c-.19,0-.56,.06-.64,.27-.07,.2,.06,.31,.27,.31,.19,0,.56-.06,.64-.27,.07-.2-.06-.31-.27-.31Z"/><path class="cls-10" d="M16.97,36.21s-.04-.02-.06-.03c-.06-.02-.13-.02-.19-.02-.03,0-.06,0-.08,0-.06,0-.12,.01-.19,.03-.07,.01-.13,.03-.19,.05-.06,.02-.11,.05-.16,.08-.04,.02-.08,.05-.11,.09-.01,.02-.02,.04-.04,.06-.01,.04,0,.07,.03,.1,.02,.01,.04,.02,.06,.03,.06,.02,.13,.02,.19,.02,.03,0,.06,0,.08,0,.06,0,.12-.01,.19-.03,.07-.01,.13-.03,.19-.05,.06-.02,.11-.05,.16-.08,.04-.02,.08-.05,.11-.09,.01-.02,.02-.04,.04-.06,.01-.04,0-.07-.03-.1Z"/><path class="cls-10" d="M17.56,42.11c-.19,0-.56,.06-.64,.27-.07,.2,.06,.32,.27,.32,.19,0,.56-.06,.64-.27,.07-.2-.06-.32-.27-.32Z"/><path class="cls-10" d="M28.82,33.69c-.31,0-1.04,.46-.4,.46,.3,0,1.04-.46,.4-.46Z"/><path class="cls-10" d="M41.16,27.51s-.05-.09-.08-.14c-.05-.06-.1-.11-.17-.15-.05-.02-.09-.05-.15-.06-.1-.02-.19-.03-.29-.03-.23,0-.46,.07-.66,.17-.12,.06-.25,.15-.33,.26-.04,.05-.07,.1-.09,.16-.02,.05-.02,.11-.02,.17,0,.01,.02,.02,.03,.03,0,0-.01,.01-.01,.02-.01,.07,.02,.1,.09,.13,.27,.11,.58,.08,.86,.01,.28-.06,.55-.19,.76-.39,.02-.02,.06-.06,.07-.09,.01-.04,0-.06,0-.1Z"/><path class="cls-10" d="M43.26,25.49s-.07-.03-.11-.05c-.06-.12-.13-.21-.25-.29-.12-.08-.27-.13-.41-.16-.04,0-.08,0-.11-.01,0,0-.01-.02-.02-.02-.09-.05-.22-.06-.32-.05-.08,.01-.16,.04-.24,.07-.03,0-.06,0-.09,.01-.09,.03-.19,.08-.26,.15-.04,.04-.08,.09-.09,.15-.02,.08,.04,.16,.1,.19,.01,0,.02,.01,.03,.02,0,.06,0,.11,0,.17,0,.14,.05,.26,.12,.38,.16,.27,.51,.36,.8,.33,.22-.03,.47-.12,.63-.29,.05-.06,.09-.12,.12-.19,0,0,.02,0,.02-.01,.07-.05,.17-.12,.18-.22,0-.08-.03-.16-.1-.19Z"/></g><g id="Arm-2"><path class="cls-1" d="M36.28,28.49c-.1-2.13,4.23-6.11,7.35-2.54,2.74,3.47-.8,7.2-3.05,7.49"/><path class="cls-15" d="M37.67,28.78c-.53-.36-1.24-.18-1.82-.08-1.84,.37-3.36,1.73-3.72,3.6,0,0-.4-.06-.4-.06,.21-2.05,2.04-3.7,4.06-3.87,.63-.05,1.42-.1,1.88,.4h0Z"/><path class="cls-15" d="M40.93,31.8c.18,2.5-1.84,5.23-4.47,5.2,0,0-.02-.4-.02-.4,2.49-.16,4-2.56,4.49-4.8h0Z"/><path class="cls-15" d="M36.69,36.05c0,.63,.09,1.43-.46,1.89-.59,.35-1.11,.71-1.86,.72-.45-.04-.87-.13-1.29-.24l.1-.39c.4,.12,.82,.2,1.22,.23,.56,0,1.07-.51,1.57-.75,.4-.29,.47-.96,.73-1.46h0Z"/><path class="cls-15" d="M24.67,33.58c2.71,.1,6.64-4.18,8.28-.32-.66-.45-1.12-1.02-1.79-1.16-.66-.13-1.37,.17-2.06,.46-1.38,.61-2.83,1.27-4.4,1.42l-.03-.4h0Z"/><path class="cls-15" d="M34.36,37.26c-3.43,4.07-5.23-.27-9.12,.11,0,0-.04-.4-.04-.4,.84-.07,1.72-.05,2.53,.23,1.53,.43,2.85,1.9,4.5,1.24,.75-.26,1.41-.75,2.12-1.18h0Z"/><path class="cls-1" d="M21.73,33.88c-.11,1.46,.18,2.34,.57,3.93,.59,.32,2.18,.13,2.93-.13,.42-.04-.5-4.71-.92-4.68-.59,.01-2.34,.46-2.58,.88Z"/><path class="cls-1" d="M21.74,34.13c-.87,.54-1.7,.11-2.26,.19s-1.36,.93-2.74,1.66c-1.09,.58-2.29,.82-2.58,1.05-.66,.51-.7,1.3-1.38,2.45-.59,1-1.11,1.59-1.14,1.86-.07,.59,.24,1.42,.04,2.51-.16,.89-.61,1.71-.39,1.93,.26,.41,2.17-.21,1.38-2.29,0,0,.54-.88,.53-1.64"/><path class="cls-15" d="M14.46,41.53c.72,.27,1.14,1,1.27,1.75,0,0-.25-.18-.25-.18,.62-.15,1.23-.09,1.81,.13,.28,.12,.59,.28,.78,.63,.2,.37,.04,.92-.22,1.12-.53,.15-.83-.21-1.3-.31-.51-.16-1.07-.02-1.57,.19,.03,0-.14,.04-.22-.01-.2-.13-.24-.42-.33-.62-.29-.96-.87-1.68-1.56-2.38-.09-.09-.2-.29-.16-.42,.24-.91,.74-1.67,1.16-2.48,.34-.42,.76-.9,1.33-.93-1.05,.86-1.6,2.2-2.07,3.45,.32,.44,.92,.92,1.22,1.49,.3,.49,.45,1.02,.67,1.52-.06-.1-.23-.04-.2-.05,.57-.25,1.24-.41,1.87-.22,.3,.09,.73,.28,.94,.34,0,0-.09,.08-.09,.08,.67-1.03-1.29-1.31-1.95-1.14,0,0-.19,.04-.19,.04l-.07-.23c-.18-.66-.36-1.25-.87-1.76h0Z"/><path class="cls-15" d="M19.27,39.53c-.21,.88-.89,1.57-1.76,1.72,0,0-.02-.43-.02-.43,.28,.06,.84,.26,1.12,.26-.02,0-.11,.09-.09,.14,0,0,.01,.07,.01,.07-.16-.49-.13-1.09,.25-1.49,.39-.47,1.32-.61,1.56,.12-.18,.71-.38,1.24-.33,1.94-.02,.23,.07,.43-.15,.8-.2,.2-.37,.17-.49,.18-.72-.03-1.5-.1-2.15,.2-.1,.04-.08,.07-.2,0-.79-.44-2.14-.83-2.12-1.91-.02-.91,.02-2.29,1.12-2.49-.71,.7-.91,2.15-.54,2.99,.48,.43,1.15,.71,1.74,1,0,0-.2,0-.2,0,.77-.39,1.74-.29,2.47-.29,.02,0,.05-.28,.03-.47-.06-.65,.17-1.41,.33-1.98,0,0,.01,.14,.01,.14-.04-.08-.13-.14-.29-.12-.56,.09-.74,.71-.57,1.24,.04,.13-.02,.27-.14,.35-.28,.14-.54,.02-.79-.04-.35-.1-1.05-.31-1.4-.42,.52-.19,1.34-.29,1.7-.66,.24-.25,.4-.6,.53-.97l.38,.13h0Z"/><path class="cls-15" d="M18.54,39.45c.74-.07,1.36-.52,1.82-1.06,.5-.61,.33-1.43-.1-2.05,.32,.24,.6,.58,.72,1.01,.36,1.3-1.26,2.58-2.45,2.1h0Z"/><path class="cls-1" d="M20.79,37.24s.83-.27,1.34-.11"/><path class="cls-3" d="M19.23,34.34s2.18,.13,1.81,2.9"/><path class="cls-2" d="M15.41,36.5s1.02,.99,1.63,1.98l2.07-1.38s-.1-1.09-1.37-1.65"/><line class="cls-1" x1="15.01" y1="42.04" x2="15.25" y2="41.7"/><path class="cls-3" d="M22.43,33.44c-.05-.08-.08-.18-.08-.28,0-.3,.24-.54,.54-.54s.52,.23,.54,.51"/><circle class="cls-3" cx="23.44" cy="35.58" r=".54"/><path class="cls-3" d="M24.21,37.9s0,.04,0,.06c0,.3-.24,.54-.54,.54s-.54-.24-.54-.53"/><path class="cls-3" d="M12.94,41.46s.99-.9,2.26,.09"/><path class="cls-3" d="M12.72,39.71s.44-.13,.82,.36"/><path class="cls-3" d="M15.26,41.05s.63-1.02,2.18-.01"/><path class="cls-15" d="M38.56,28.81c1.19-.21,2.43,.87,2.24,2.11-.18-.44-.36-1.06-.8-1.39-.37-.41-1.02-.53-1.44-.72h0Z"/><path class="cls-15" d="M27.28,34.93c1.47-.68,3.37-.75,4.72,.23-1.4-.86-3.22-.78-4.72-.23h0Z"/><path class="cls-15" d="M38.14,27.2c.9-.92,2.5-1.52,3.64-.69-1.19-.7-2.66-.11-3.64,.69h0Z"/><path class="cls-15" d="M39.33,27.11c.68-.37,1.64-.57,2.33-.1-.73-.34-1.61-.14-2.33,.1h0Z"/><path class="cls-15" d="M40.1,27.54c.49-.32,1.28-.26,1.64,.22-.44-.37-1.11-.4-1.64-.22h0Z"/></g></g></g></g></g></svg>