<svg width="800" height="800" viewBox="0 0 800 800" fill="none" xmlns="http://www.w3.org/2000/svg">
<g clip-path="url(#clip0_19_32692)">
<path d="M696.844 535.192H696.787L696.615 533.334L704.617 529.705C706.389 530.42 708.218 530.934 710.075 531.305V532.048C710.161 533.677 710.104 536.649 709.247 539.593C715.162 538.021 717.877 533.592 718.677 531.906C721.021 531.82 723.335 531.448 725.622 530.848L725.936 531.534C726.708 532.963 727.965 535.678 728.451 538.678C733.08 534.735 733.623 529.534 733.652 527.705C735.709 526.59 737.624 525.247 739.453 523.761L740.053 524.19C741.396 525.161 743.683 527.076 745.454 529.591C747.912 523.961 746.112 519.074 745.311 517.417C745.483 517.188 745.626 516.988 745.797 516.76C746.969 514.988 747.998 513.187 748.826 511.33L749.569 511.473C751.541 511.873 754.228 512.587 756.714 513.988C756.514 507.872 752.799 504.243 751.37 503.071C751.798 500.756 751.97 498.413 751.884 496.069L752.599 495.869C755.314 495.155 757.857 494.869 760.143 495.012C758.771 492.412 756.942 490.697 755.371 489.668C753.942 488.668 752.256 487.925 750.57 487.525C749.941 485.267 749.112 483.095 748.026 480.981L748.569 480.495C749.798 479.409 752.17 477.608 754.999 476.437C754.828 476.351 754.713 476.237 754.542 476.151C751.17 473.836 746.997 473.007 743.111 473.865H743.14C741.596 472.093 739.882 470.493 737.967 469.064L738.253 468.378C738.91 466.863 740.253 464.206 742.311 461.948C736.31 460.805 731.937 463.606 730.48 464.749C728.279 463.806 726.05 463.12 723.764 462.662V461.919C723.707 460.291 723.735 457.318 724.593 454.375C718.706 455.947 715.991 460.376 715.162 462.062C712.847 462.205 710.504 462.52 708.246 463.12L707.875 462.462C707.132 461.005 705.846 458.29 705.36 455.289C702.588 457.661 701.274 460.491 700.702 462.777C700.302 464.291 700.216 465.549 700.216 466.292L698.93 466.978L698.073 460.719H698.102C699.645 456.29 703.074 452.089 708.818 449.66C707.475 452.603 708.504 457.061 710.59 461.062C711.19 460.976 711.79 460.862 712.419 460.776C715.162 455.232 721.335 450.431 730.137 450.889C727.651 452.946 726.65 457.376 726.793 461.891C727.393 462.062 727.965 462.262 728.565 462.434C733.452 458.604 741.111 456.976 748.884 461.205C745.74 461.977 742.882 465.549 741.082 469.664L742.454 470.95C748.541 469.635 756.114 471.464 761.258 478.666C758.086 478.009 753.97 479.98 750.541 482.924C750.798 483.467 751.027 484.067 751.227 484.667C757.257 486.096 763.315 491.04 764.83 499.756C762.286 497.784 757.714 497.784 753.37 498.927C753.342 499.556 753.285 500.156 753.199 500.785C758.028 504.7 761.343 511.787 758.914 520.275C757.485 517.388 753.37 515.416 748.912 514.588C748.626 515.102 748.312 515.645 747.998 516.188C750.655 521.818 750.541 529.619 744.711 536.249C744.626 533.02 741.768 529.448 738.167 526.79C737.653 527.162 737.167 527.476 736.624 527.848C736.567 534.049 733.052 541.05 724.936 544.48C726.279 541.536 725.25 537.107 723.164 533.077C722.535 533.22 721.935 533.306 721.306 533.363C718.563 538.936 712.419 543.708 703.588 543.279C706.075 541.222 707.075 536.735 706.932 532.277C706.332 532.077 705.76 531.906 705.16 531.734C702.845 533.534 699.959 534.792 696.73 535.306L696.844 535.192Z" fill="url(#paint0_linear_19_32692)"/>
<path d="M760.199 495.069C757.913 494.898 755.37 495.212 752.655 495.927L751.94 496.127C751.997 498.441 751.855 500.785 751.426 503.128C752.855 504.3 756.598 507.929 756.77 514.045C754.284 512.644 751.569 511.93 749.625 511.53L748.882 511.387C748.025 513.245 747.025 515.045 745.853 516.817C745.682 517.045 745.539 517.245 745.367 517.474C746.139 519.132 747.939 524.047 745.51 529.648C743.739 527.133 741.452 525.247 740.109 524.247L739.509 523.818C737.68 525.333 735.765 526.647 733.708 527.762C733.679 529.591 733.165 534.792 728.507 538.736C728.021 535.735 726.764 533.02 725.992 531.591L725.678 530.905C723.391 531.506 721.077 531.848 718.733 531.963C717.905 533.62 715.218 538.078 709.303 539.65C710.16 536.707 710.217 533.735 710.16 532.106V531.363C708.274 530.991 706.445 530.477 704.673 529.762L708.874 527.876C721.562 531.248 735.48 526.505 743.31 515.074C753.226 500.556 749.511 480.723 734.994 470.75C726.106 464.663 715.218 463.691 705.845 467.235C703.873 465.492 702.13 463.977 700.815 462.834C701.415 460.548 702.701 457.747 705.473 455.347C705.959 458.347 707.245 461.062 707.988 462.52L708.36 463.177C710.617 462.577 712.961 462.262 715.275 462.12C716.133 460.462 718.848 456.004 724.706 454.432C723.849 457.376 723.82 460.348 723.849 461.977V462.72C726.163 463.177 728.421 463.863 730.622 464.806C732.05 463.663 736.423 460.862 742.453 462.005C740.395 464.263 739.052 466.949 738.395 468.435L738.109 469.121C739.995 470.55 741.738 472.15 743.281 473.893H743.253C747.139 473.065 751.312 473.893 754.684 476.208C754.855 476.294 754.969 476.408 755.141 476.494C752.312 477.666 749.94 479.466 748.711 480.552L748.168 481.038C749.254 483.124 750.083 485.324 750.711 487.582C752.397 488.011 754.084 488.725 755.512 489.725C757.084 490.783 758.913 492.469 760.285 495.069H760.199Z" fill="url(#paint1_linear_19_32692)"/>
<path d="M734.967 470.694C749.484 480.639 753.228 500.472 743.283 515.018C735.453 526.449 721.536 531.193 708.847 527.821L713.277 525.82L713.934 524.534C723.765 525.592 733.853 521.362 739.825 512.646C748.456 500.015 745.226 482.783 732.595 474.152C725.537 469.323 717.049 468.208 709.447 470.351C708.161 469.237 706.933 468.151 705.79 467.151C715.163 463.636 726.08 464.607 734.939 470.666L734.967 470.694Z" fill="url(#paint2_linear_19_32692)"/>
<path d="M715.705 520.992L721.392 509.561H721.421C729.623 505.961 734.767 491.043 724.793 483.699C724.793 483.699 716.706 476.669 709.476 470.382C717.077 468.238 725.565 469.324 732.623 474.183C745.226 482.813 748.455 500.045 739.853 512.676C733.881 521.392 723.793 525.593 713.962 524.565L715.734 520.992H715.705Z" fill="url(#paint3_linear_19_32692)"/>
<path d="M721.42 509.558H721.392C721.077 509.73 720.734 509.844 720.42 509.959C719.334 509.787 718.305 509.758 717.305 509.873L702.359 508.873L695.358 517.503L694.3 504.586L701.216 483.753V483.553L698.987 467.035L700.273 466.349C700.273 465.606 700.359 464.32 700.759 462.834C702.073 463.977 703.817 465.521 705.788 467.235C706.932 468.235 708.16 469.321 709.446 470.436C716.676 476.752 724.764 483.753 724.764 483.753C734.766 491.097 729.593 506.015 721.392 509.616L721.42 509.558ZM725.335 496.27C725.335 493.241 722.878 490.783 719.849 490.783C716.819 490.783 714.39 493.241 714.39 496.27C714.39 499.299 716.848 501.757 719.849 501.757C722.849 501.757 725.335 499.299 725.335 496.27Z" fill="url(#paint4_radial_19_32692)"/>
<path d="M722.592 562.969C722.763 562.997 722.963 562.997 723.135 562.997C712.19 573.371 696.844 572.857 691.957 570.113C687.013 567.37 681.012 557.539 681.012 557.539H680.955C681.726 555.024 684.755 552.738 688.213 551.681C689.328 553.595 698.987 569.142 722.592 562.969Z" fill="url(#paint5_linear_19_32692)"/>
<path d="M722.591 562.969C698.986 569.17 689.327 553.624 688.212 551.71C690.927 550.881 693.928 550.852 696.357 552.081C696.357 552.081 702.787 562.255 722.619 562.998L722.591 562.969Z" fill="url(#paint6_linear_19_32692)"/>
<path d="M715.705 520.989L713.933 524.561L713.276 525.847L708.847 527.848L704.646 529.734C704.217 529.591 703.788 529.448 703.36 529.248C702.388 530.02 699.93 531.677 696.53 532.192L696.101 527.076C701.645 520.046 707.789 510.416 717.306 509.901C718.277 509.815 719.335 509.844 720.42 509.987C720.735 509.901 721.078 509.758 721.392 509.587L715.705 521.018V520.989Z" fill="url(#paint7_linear_19_32692)"/>
<path d="M719.849 490.785C722.879 490.785 725.336 493.243 725.336 496.272C725.336 499.301 722.879 501.759 719.849 501.759V490.785Z" fill="url(#paint8_linear_19_32692)"/>
<path d="M719.849 490.785V501.759C716.849 501.759 714.391 499.301 714.391 496.272C714.391 493.243 716.849 490.785 719.849 490.785Z" fill="url(#paint9_linear_19_32692)"/>
<path d="M702.33 508.844L717.276 509.844C707.76 510.359 701.644 519.989 696.072 527.019L695.328 517.446L702.33 508.815V508.844Z" fill="url(#paint10_radial_19_32692)"/>
<path d="M704.616 529.705L696.615 533.334L696.529 532.162C699.93 531.648 702.387 530.019 703.359 529.219C703.788 529.419 704.216 529.59 704.645 529.705H704.616Z" fill="url(#paint11_linear_19_32692)"/>
<path d="M701.187 483.497V483.697L694.3 504.529L690.642 459.577C690.413 456.748 689.441 454.005 687.812 451.633C681.097 442.002 662.807 416.111 657.492 412.539C655.834 411.424 650.176 409.338 642.689 406.823C642.231 399.479 621.141 394.678 605.567 389.934C605.652 389.763 605.767 389.62 605.881 389.448L614.883 387.476L615.34 387.391L635.916 394.649L658.606 402.651L661.836 403.794L675.324 421.912L679.296 427.256L682.097 431L687.755 438.601L696.843 450.804L698.157 460.663L699.015 466.922L701.215 483.439L701.187 483.497Z" fill="url(#paint12_radial_19_32692)"/>
<path d="M688.099 409.91C695.1 414.025 700.702 422.484 699.301 433.915C696.844 430.514 691.157 428.742 685.327 428.514C685.041 429.285 684.727 430.057 684.441 430.771C685.984 433.058 687.127 435.744 687.785 438.63L682.126 431.029C683.069 428.942 683.87 426.742 684.47 424.484H685.441C687.556 424.627 691.443 424.942 695.186 426.342C693.729 418.512 688.185 414.568 686.099 413.339C686.127 412.968 686.127 412.625 686.127 412.253C686.127 409.51 685.87 406.795 685.413 404.223L686.327 403.794C688.699 402.794 692.186 401.565 695.872 401.222C691.157 394.821 684.47 393.678 682.098 393.449C680.812 390.677 679.297 387.991 677.497 385.533L678.154 384.79C680.497 382.047 683.041 379.846 685.641 378.332C682.241 376.56 679.011 376.074 676.554 376.074C674.268 376.074 671.953 376.503 669.838 377.303C667.523 375.331 664.98 373.617 662.265 372.131L662.522 371.187C663.065 369.13 664.294 365.443 666.437 362.128C666.209 362.1 665.98 362.1 665.723 362.1C660.436 362.1 655.378 364.3 651.777 368.044C648.862 367.301 645.833 366.844 642.718 366.701L642.518 365.729C642.118 363.643 641.604 359.785 642.118 355.841C634.831 359.014 632.23 365.272 631.487 367.558C628.458 368.187 625.514 369.101 622.742 370.273L622.142 369.501C620.913 367.758 618.742 364.529 617.513 360.757C612.312 366.787 612.683 373.559 612.998 375.931C610.568 377.789 608.339 379.875 606.31 382.161L605.425 381.704C603.567 380.732 600.223 378.732 597.451 375.846C595.594 382.761 598.08 388.277 599.538 390.763L595.451 391.649C591.993 385.019 591.364 375.988 597.023 367.215C597.737 371.359 602.11 375.417 607.282 378.16C607.882 377.617 608.454 377.046 609.054 376.531C607.911 368.501 611.026 358.842 620.828 352.784C619.685 356.842 621.885 362.386 625.343 367.072C626.115 366.815 626.886 366.587 627.658 366.358C630.115 358.642 637.117 351.298 648.576 350.097C645.776 353.269 645.347 359.214 646.433 364.958C647.262 365.043 648.033 365.186 648.805 365.329C654.349 359.442 663.865 355.813 674.696 359.757C670.838 361.385 667.866 366.558 666.323 372.188C667.009 372.645 667.666 373.102 668.323 373.559C675.896 370.645 686.013 371.53 694.1 379.761C689.899 379.561 684.984 382.904 681.126 387.334C681.555 388.048 681.983 388.734 682.355 389.448C690.414 390.106 699.13 395.307 702.874 406.195C699.187 404.166 693.272 405.08 687.928 407.395C687.985 408.224 688.07 408.995 688.099 409.824V409.91Z" fill="url(#paint13_linear_19_32692)"/>
<path d="M696.815 535.905L696.844 536.191H696.815V535.905Z" fill="url(#paint14_linear_19_32692)"/>
<path d="M696.844 535.193V535.85L696.787 535.193H696.844Z" fill="url(#paint15_linear_19_32692)"/>
<path d="M696.1 527.019L696.529 532.134L696.615 533.306L696.786 535.163V535.821L696.815 535.878V536.164L692.099 539.679L691.928 539.45L685.812 463.406L685.612 460.805C685.412 458.547 684.641 456.433 683.298 454.632C683.069 454.318 682.812 453.946 682.583 453.575C673.467 440.429 661.664 422.254 655.806 417.996C649.776 415.253 583.591 394.477 583.591 394.477L583.305 394.248C585.591 391.419 587.163 389.762 587.735 389.819C589.821 390.447 592.564 391.248 595.708 392.162C596.822 392.476 597.965 392.848 599.137 393.162C611.997 397.02 630.001 402.507 642.66 406.765C650.148 409.28 655.777 411.366 657.464 412.481C662.779 416.053 681.068 441.944 687.784 451.575C689.413 453.918 690.385 456.661 690.613 459.519L694.271 504.471L695.329 517.388L696.072 526.962L696.1 527.019Z" fill="url(#paint16_radial_19_32692)"/>
<path d="M688.214 551.712C684.756 552.769 681.756 555.056 680.956 557.513C680.67 558.399 680.67 559.342 681.013 560.257C677.212 559.799 670.696 557.742 668.896 557.142L668.953 556.97L692.101 539.709L696.816 536.223L696.33 552.055C693.901 550.855 690.901 550.883 688.186 551.683L688.214 551.712Z" fill="url(#paint17_radial_19_32692)"/>
<path d="M691.958 539.508L692.129 539.736L668.982 556.997C668.982 556.997 690.215 506.844 664.123 469.121L680.47 460.691L680.841 460.491C681.756 462.463 683.642 463.892 685.871 463.435L691.986 539.479L691.958 539.508Z" fill="url(#paint18_linear_19_32692)"/>
<path d="M651.748 368.1C655.348 364.356 660.407 362.156 665.693 362.156C665.951 362.156 666.179 362.156 666.408 362.185C664.265 365.471 663.036 369.186 662.493 371.244L662.236 372.187C664.95 373.644 667.494 375.387 669.809 377.359C671.923 376.53 674.238 376.13 676.524 376.13C678.982 376.13 682.211 376.616 685.612 378.388C683.04 379.931 680.497 382.103 678.125 384.846L677.467 385.589C679.268 388.047 680.811 390.705 682.068 393.505C684.44 393.734 691.156 394.877 695.843 401.278C692.156 401.65 688.698 402.85 686.298 403.85L685.383 404.279C685.841 406.851 686.098 409.566 686.098 412.309C686.098 412.681 686.098 413.024 686.069 413.395C688.155 414.596 693.671 418.568 695.157 426.398C691.442 424.998 687.555 424.655 685.412 424.569H684.44C683.812 426.798 683.04 428.97 682.097 431.056L679.296 427.312C681.097 422.654 682.068 417.625 682.068 412.338C682.068 389.39 663.493 370.815 640.545 370.815C626.057 370.815 613.282 378.274 605.881 389.533L604.738 389.762L599.537 390.905C598.079 388.419 595.593 382.903 597.451 375.987C600.223 378.874 603.566 380.846 605.424 381.846L606.31 382.303C608.339 380.017 610.596 377.931 612.997 376.073C612.682 373.701 612.311 366.928 617.512 360.899C618.741 364.699 620.913 367.929 622.141 369.643L622.742 370.415C625.514 369.243 628.457 368.329 631.486 367.7C632.229 365.414 634.858 359.155 642.117 355.983C641.603 359.927 642.117 363.785 642.517 365.871L642.717 366.843C645.832 366.986 648.861 367.443 651.776 368.186L651.748 368.1Z" fill="url(#paint19_linear_19_32692)"/>
<path d="M685.641 460.833L685.841 463.434C683.612 463.891 681.726 462.462 680.812 460.49C679.726 458.147 679.954 455.061 682.612 453.603C682.841 453.975 683.098 454.318 683.327 454.661C684.67 456.461 685.441 458.576 685.641 460.833Z" fill="url(#paint20_radial_19_32692)"/>
<path d="M680.81 460.521L680.439 460.721L664.093 469.151C658.663 461.321 651.204 454.005 641.059 447.804L655.805 418.055C661.664 422.342 673.466 440.488 682.582 453.634C679.925 455.091 679.696 458.178 680.782 460.521H680.81Z" fill="url(#paint21_linear_19_32692)"/>
<path d="M682.098 412.28C682.098 417.567 681.127 422.597 679.326 427.255L675.354 421.911C676.212 418.853 676.669 415.595 676.669 412.28C676.669 392.362 660.494 376.187 640.575 376.187C630.488 376.187 621.343 380.331 614.799 387.018L614.884 387.475L605.882 389.447C613.284 378.187 626.058 370.729 640.547 370.729C663.495 370.729 682.07 389.304 682.07 412.252L682.098 412.28Z" fill="url(#paint22_linear_19_32692)"/>
<path d="M676.639 412.281C676.639 415.625 676.182 418.854 675.325 421.912L661.836 403.794L658.607 402.651C659.036 391.591 642.575 386.419 636.145 393.963L635.916 394.649L615.341 387.39L614.883 387.476L614.798 387.019C621.342 380.332 630.458 376.188 640.575 376.188C660.493 376.188 676.668 392.363 676.668 412.281H676.639Z" fill="url(#paint23_linear_19_32692)"/>
<path d="M641.09 447.774C651.206 453.975 658.694 461.291 664.123 469.121C690.214 506.843 668.981 556.997 668.981 556.997L663.809 555.196L664.038 554.51C664.552 553.31 665.095 552.081 665.581 550.91H665.752C667.553 550.91 668.981 549.481 668.981 547.68C668.981 546.594 668.467 545.651 667.667 545.108C673.582 527.19 673.554 510.215 669.296 495.384C670.668 495.012 671.725 493.755 671.725 492.24C671.725 490.468 670.267 489.011 668.496 489.011C668.067 489.011 667.667 489.097 667.295 489.24C661.751 474.636 651.949 462.52 639.804 454.146C639.947 453.775 640.004 453.432 640.004 453.032C640.004 451.26 638.575 449.831 636.775 449.831C635.889 449.831 635.031 450.203 634.46 450.803C619.743 442.43 602.196 439.315 584.621 443.43C584.249 442.058 582.992 441.058 581.506 441.058C579.706 441.058 578.277 442.515 578.277 444.287C578.277 444.573 578.305 444.887 578.42 445.173C564.645 449.774 551.014 458.947 538.897 473.751C538.297 473.15 537.525 472.808 536.639 472.808C534.839 472.808 533.41 474.236 533.41 476.037C533.41 477.208 534.039 478.237 534.982 478.809C533.982 480.209 531.867 483.81 530.867 485.296H530.838L528.609 481.381L526.694 477.98L527.295 477.666C545.898 449.231 584.764 418.596 638.889 446.488C639.632 446.916 640.404 447.374 641.118 447.802L641.09 447.774Z" fill="url(#paint24_linear_19_32692)"/>
<path d="M669.295 495.385C673.553 510.217 673.581 527.192 667.666 545.11C667.152 544.681 666.466 544.453 665.751 544.453C663.979 544.453 662.522 545.881 662.522 547.682C662.522 549.482 663.894 550.825 665.58 550.911C665.094 552.083 664.58 553.283 664.037 554.512L663.808 555.198L656.406 552.626C697.987 467.265 586.363 402.709 534.924 492.442L530.837 485.297C531.837 483.783 533.952 480.211 534.952 478.81C535.41 479.096 536.01 479.267 536.61 479.267C538.382 479.267 539.839 477.839 539.839 476.038C539.839 475.124 539.439 474.295 538.867 473.752C550.984 458.949 564.587 449.776 578.39 445.175C578.762 446.546 579.99 447.518 581.505 447.518C583.277 447.518 584.734 446.089 584.734 444.289C584.734 444.003 584.706 443.689 584.591 443.431C602.166 439.316 619.684 442.46 634.43 450.804C633.887 451.347 633.516 452.148 633.516 453.033C633.516 454.834 634.973 456.263 636.745 456.263C638.145 456.263 639.317 455.377 639.774 454.148C651.92 462.55 661.722 474.667 667.266 489.241C666.094 489.727 665.237 490.899 665.237 492.242C665.237 494.042 666.666 495.471 668.466 495.471C668.752 495.471 669.009 495.442 669.295 495.385V495.385Z" fill="url(#paint25_linear_19_32692)"/>
<path d="M671.725 492.244C671.725 493.758 670.667 495.016 669.295 495.387C669.038 495.444 668.781 495.473 668.467 495.473C666.666 495.473 665.237 494.044 665.237 492.244C665.237 490.901 666.095 489.729 667.266 489.272C667.667 489.1 668.038 489.015 668.467 489.015C670.239 489.015 671.696 490.472 671.696 492.244H671.725Z" fill="#3C3F41"/>
<path d="M667.667 545.107C668.438 545.65 668.981 546.622 668.981 547.679C668.981 549.479 667.552 550.908 665.752 550.908H665.58C663.894 550.822 662.523 549.394 662.523 547.679C662.523 545.964 663.98 544.45 665.752 544.45C666.466 544.45 667.152 544.678 667.667 545.107V545.107Z" fill="#3C3F41"/>
<path d="M636.145 393.965C642.575 386.42 659.036 391.593 658.607 402.652L635.917 394.651L636.145 393.965V393.965Z" fill="url(#paint26_radial_19_32692)"/>
<path d="M655.836 418.026L641.09 447.775C640.375 447.347 639.632 446.889 638.861 446.461C584.735 418.569 545.87 449.204 527.266 477.639L526.666 477.953L526.18 477.096C526.18 477.096 568.875 412.054 583.306 394.278L583.592 394.507C583.592 394.507 649.777 415.283 655.807 418.026H655.836ZM647.606 420.77L585.65 400.651L565.96 428.143L574.276 433.344C574.276 433.344 603.825 421.856 638.318 441.545C641.576 436.087 647.606 425.142 647.606 420.77ZM570.475 435.944L563.474 430.6L550.357 448.261C557.244 443.003 564.045 438.459 570.475 435.944V435.944Z" fill="url(#paint27_linear_19_32692)"/>
<path d="M630.687 433.088C632.831 433.859 635.031 434.688 637.232 435.545C639.975 430.087 641.061 428.973 642.718 422.971L636.774 421L629.716 418.685L622.143 416.199L613.027 413.226L604.053 410.283L595.851 407.568L587.307 404.768L571.303 427.715L575.419 429.516C578.476 428.373 581.62 427.515 584.763 426.944C588.193 426.315 591.622 426.001 595.108 426.001C598.366 425.943 601.681 426.172 605.025 426.601C608.397 427.001 611.798 427.658 615.198 428.458C617.942 429.116 620.685 429.859 623.486 430.716C625.858 431.459 628.258 432.259 630.659 433.088H630.687ZM585.649 400.652L647.605 420.771C647.605 425.143 641.604 436.088 638.318 441.547C603.825 421.857 574.276 433.345 574.276 433.345L565.96 428.144L585.649 400.652V400.652Z" fill="url(#paint28_linear_19_32692)"/>
<path d="M636.774 420.995L642.718 422.967C641.06 428.968 639.974 430.083 637.231 435.541C635.03 434.684 632.858 433.884 630.687 433.084C630.829 429.597 632.573 425.739 636.659 421.338L636.745 421.024L636.774 420.995Z" fill="url(#paint29_linear_19_32692)"/>
<path d="M639.975 453.035C639.975 453.435 639.917 453.778 639.775 454.149C639.317 455.378 638.146 456.264 636.745 456.264C634.974 456.264 633.516 454.835 633.516 453.035C633.516 452.149 633.888 451.377 634.431 450.806C635.031 450.177 635.859 449.834 636.745 449.834C638.546 449.834 639.975 451.263 639.975 453.035V453.035Z" fill="#3C3F41"/>
<path d="M636.774 420.998L636.688 421.312C632.602 425.713 630.83 429.571 630.716 433.057C628.286 432.2 625.915 431.428 623.543 430.685V430.6C625.429 426.342 626.686 423.255 629.63 419.111L629.772 418.683L636.831 420.998H636.774Z" fill="url(#paint30_linear_19_32692)"/>
<path d="M605.568 389.934C621.142 394.678 642.233 399.479 642.69 406.824C630.03 402.537 612.026 397.05 599.166 393.221C599.424 392.621 599.681 392.106 599.995 391.535C599.852 391.335 599.738 391.106 599.567 390.849L604.768 389.706C605.025 389.791 605.282 389.877 605.596 389.963L605.568 389.934Z" fill="url(#paint31_linear_19_32692)"/>
<path d="M629.716 418.682L629.573 419.111C626.629 423.255 625.401 426.37 623.543 430.599V430.685C620.714 429.827 617.97 429.084 615.227 428.427L615.37 427.884C616.084 423.855 618.285 420.94 621.943 416.91L622.171 416.196L629.744 418.682H629.716Z" fill="url(#paint32_linear_19_32692)"/>
<path d="M622.142 416.197L621.913 416.911C618.255 420.941 616.055 423.856 615.341 427.885L615.198 428.428C611.768 427.599 608.368 426.971 605.024 426.571C606.767 420.769 609.511 416.397 613.026 413.225L622.142 416.197Z" fill="url(#paint33_linear_19_32692)"/>
<path d="M604.054 410.281L613.027 413.224C609.512 416.397 606.768 420.769 605.025 426.57C601.653 426.141 598.367 425.913 595.109 425.97V425.684C597.366 420.112 598.824 416.254 603.854 410.881L604.054 410.252V410.281Z" fill="url(#paint34_linear_19_32692)"/>
<path d="M605.881 389.448C605.739 389.62 605.653 389.763 605.567 389.934C605.281 389.848 605.024 389.763 604.738 389.677L605.881 389.448Z" fill="url(#paint35_linear_19_32692)"/>
<path d="M595.851 407.57L604.053 410.284L603.853 410.913C598.823 416.257 597.366 420.115 595.108 425.716V426.002C591.622 426.002 588.192 426.316 584.763 426.945V426.774C587.478 420.801 590.85 414.685 595.68 408.17L595.88 407.57H595.851Z" fill="url(#paint36_linear_19_32692)"/>
<path d="M599.538 390.82C599.709 391.078 599.823 391.306 599.966 391.506C599.68 392.106 599.423 392.621 599.137 393.192C597.966 392.878 596.823 392.507 595.708 392.192C595.622 392.021 595.537 391.878 595.451 391.706L599.538 390.82V390.82Z" fill="url(#paint37_linear_19_32692)"/>
<path d="M595.851 407.566L595.65 408.166C590.821 414.71 587.449 420.797 584.705 426.77V426.941C581.59 427.541 578.475 428.37 575.389 429.513L571.274 427.713L587.277 404.765L595.822 407.566H595.851Z" fill="url(#paint38_linear_19_32692)"/>
<path d="M584.59 443.432C584.676 443.689 584.733 443.975 584.733 444.29C584.733 446.09 583.276 447.519 581.504 447.519C579.989 447.519 578.761 446.547 578.389 445.175C578.303 444.89 578.246 444.575 578.246 444.29C578.246 442.518 579.675 441.06 581.476 441.06C582.933 441.06 584.219 442.061 584.59 443.432V443.432Z" fill="#3C3F41"/>
<path d="M563.501 430.602L570.502 435.946C564.072 438.461 557.271 443.004 550.384 448.263L563.501 430.602Z" fill="url(#paint39_linear_19_32692)"/>
<path d="M541.497 554.255L518.521 553.712L520.807 518.276C521.093 513.675 523.293 509.36 526.894 506.416L532.581 501.787C527.837 529.107 541.526 554.255 541.526 554.255H541.497Z" fill="url(#paint40_radial_19_32692)"/>
<path d="M538.868 473.723C539.468 474.266 539.84 475.095 539.84 476.01C539.84 477.81 538.382 479.239 536.61 479.239C535.982 479.239 535.41 479.067 534.953 478.782C534.01 478.181 533.381 477.181 533.381 476.01C533.381 474.209 534.81 472.78 536.61 472.78C537.496 472.78 538.268 473.152 538.868 473.723Z" fill="#3C3F41"/>
<path d="M530.837 485.295L534.924 492.44C533.838 495.583 533.095 498.669 532.552 501.784L526.865 506.414C523.264 509.357 521.092 513.673 520.778 518.274L518.492 553.71L501.002 528.561L503.46 524.361C505.06 523.76 510.576 520.645 510.576 520.645L530.809 485.352C530.809 485.352 530.809 485.324 530.837 485.324V485.295Z" fill="url(#paint41_radial_19_32692)"/>
<path d="M530.808 485.268H530.836L530.808 485.324V485.268Z" fill="url(#paint42_linear_19_32692)"/>
<path d="M530.808 485.268V485.325L510.576 520.618C510.576 520.618 505.06 523.762 503.46 524.333L528.379 481.496L528.608 481.353L530.837 485.239L530.808 485.268Z" fill="url(#paint43_radial_19_32692)"/>
<g style="mix-blend-mode:soft-light">
<path d="M655.778 423.85C664.465 429.879 674.839 441.51 678.754 451.141C678.754 451.141 676.611 454.027 677.325 459.028L670.152 461.915C670.152 461.915 679.497 430.308 649.319 438.224L655.778 423.85V423.85Z" fill="#F2F1E6"/>
</g>
<g style="mix-blend-mode:soft-light">
<path d="M611.968 384.358C611.968 384.358 632.801 361.382 658.663 378.614C634.915 377.042 626.314 381.129 647.89 396.561L611.968 384.358Z" fill="#F2F1E6"/>
</g>
<g style="mix-blend-mode:soft-light">
<path d="M672.296 467.661L682.355 464.06L690.985 535.875L681.641 543.048C681.641 543.048 689.528 520.072 683.784 494.209C678.04 468.347 672.296 467.632 672.296 467.632V467.661Z" fill="#F2F1E6"/>
</g>
<g style="mix-blend-mode:soft-light">
<path d="M703.902 469.832L722.563 486.35L713.961 488.493L703.188 475.576L703.902 469.832Z" fill="#F2F1E6"/>
</g>
<g style="mix-blend-mode:soft-light">
<path d="M576.046 426.742L588.963 408.081L641.402 425.313L637.802 430.342C637.802 430.342 604.766 412.396 592.564 415.254C580.361 418.111 576.046 426.742 576.046 426.742V426.742Z" fill="#F2F1E6"/>
</g>
<path d="M534.922 492.44C586.362 402.706 697.957 467.263 656.376 552.624L668.951 556.996L696.842 536.192L690.641 459.576C690.412 456.718 689.441 453.974 687.783 451.631C681.067 442 662.778 416.109 657.462 412.566C652.147 409.022 603.194 394.39 587.734 389.847C583.618 389.561 526.149 477.122 526.149 477.122L534.894 492.44H534.922Z" stroke="#231F20" stroke-width="1.14056" stroke-miterlimit="10"/>
<path d="M528.351 481.493L501.002 528.532L518.52 553.709L541.497 554.252C541.497 554.252 524.55 523.074 534.924 492.439" stroke="#231F20" stroke-width="1.14056" stroke-miterlimit="10"/>
<path d="M595.109 391.761L615.342 387.389L661.866 403.792L696.873 450.859L701.245 483.695L694.301 504.527" stroke="#231F20" stroke-width="1.14056" stroke-miterlimit="10"/>
<path d="M698.185 460.716C699.728 456.286 703.158 452.085 708.902 449.656C707.559 452.6 708.587 457.058 710.674 461.03C711.274 460.916 711.902 460.83 712.503 460.744C715.246 455.172 721.419 450.399 730.249 450.828C727.763 452.885 726.763 457.344 726.906 461.83C727.506 462.002 728.106 462.173 728.677 462.373C733.564 458.544 741.194 456.915 748.967 461.144C745.824 461.916 742.995 465.488 741.166 469.632C741.623 470.032 742.08 470.461 742.537 470.889C748.596 469.575 756.169 471.404 761.341 478.577C758.169 477.919 754.054 479.891 750.653 482.835C750.882 483.406 751.111 483.978 751.339 484.549C757.369 485.978 763.399 490.922 764.971 499.638C762.399 497.666 757.826 497.666 753.483 498.838C753.454 499.467 753.397 500.067 753.34 500.695C758.169 504.611 761.456 511.669 759.055 520.185C757.598 517.299 753.483 515.327 749.053 514.47C748.767 515.013 748.453 515.556 748.11 516.07C750.739 521.7 750.653 529.502 744.795 536.131C744.738 532.902 741.88 529.33 738.279 526.644C737.765 527.015 737.251 527.358 736.736 527.701C736.679 533.902 733.193 540.875 725.048 544.333C726.391 541.39 725.362 536.932 723.276 532.959C722.676 533.074 722.047 533.159 721.447 533.245C718.704 538.818 712.531 543.59 703.701 543.162C706.187 541.104 707.187 536.646 707.044 532.159C706.444 531.988 705.844 531.816 705.272 531.616C702.958 533.417 700.043 534.731 696.785 535.188" stroke="#231F20" stroke-width="1.14056" stroke-miterlimit="10"/>
<path d="M699.015 466.975C699.415 466.718 699.844 466.489 700.272 466.261C700.272 464.432 700.815 459.23 705.445 455.258C705.959 458.259 707.188 460.974 707.96 462.431L708.302 463.088C710.56 462.517 712.903 462.145 715.247 462.031C716.076 460.374 718.79 455.944 724.677 454.372C723.82 457.287 723.763 460.288 723.82 461.917V462.688C726.135 463.146 728.364 463.831 730.564 464.774C732.022 463.66 736.394 460.831 742.395 461.974C740.366 464.232 739.023 466.918 738.366 468.404L738.052 469.09C739.966 470.519 741.681 472.119 743.196 473.862H743.167C747.082 473.033 751.254 473.862 754.598 476.148C754.741 476.263 754.884 476.348 755.055 476.463C752.255 477.634 749.883 479.435 748.654 480.492L748.082 480.978C749.168 483.064 750.026 485.265 750.654 487.522C752.34 487.922 753.998 488.665 755.455 489.665C756.998 490.723 758.827 492.409 760.199 495.009C757.913 494.867 755.37 495.152 752.683 495.867L751.94 496.067C751.997 498.41 751.826 500.753 751.426 503.068C752.855 504.24 756.57 507.869 756.798 513.956C754.312 512.556 751.597 511.842 749.625 511.441L748.882 511.299C748.054 513.156 747.025 514.956 745.853 516.7C745.71 516.928 745.539 517.157 745.367 517.386C746.139 519.043 747.939 523.958 745.482 529.531C743.71 527.045 741.424 525.13 740.109 524.158L739.509 523.701C737.709 525.216 735.737 526.559 733.708 527.673C733.708 529.502 733.165 534.703 728.535 538.676C728.021 535.675 726.792 532.96 726.02 531.503L725.678 530.817C723.42 531.388 721.077 531.76 718.733 531.874C717.905 533.532 715.19 537.961 709.303 539.533C710.16 536.618 710.217 533.618 710.16 531.989V531.217C707.845 530.76 705.616 530.074 703.416 529.131C702.416 529.902 699.986 531.531 696.586 532.046" stroke="#231F20" stroke-width="0.940959" stroke-miterlimit="10"/>
<path d="M705.789 467.147C715.191 463.632 726.079 464.603 734.966 470.69C749.484 480.635 753.199 500.468 743.282 514.985C735.452 526.416 721.506 531.16 708.818 527.817" stroke="#231F20" stroke-width="0.712848" stroke-miterlimit="10"/>
<path d="M709.446 470.345C717.076 468.202 725.563 469.316 732.594 474.146C745.225 482.776 748.454 500.009 739.795 512.64C733.765 521.47 723.534 525.7 713.618 524.5" stroke="#231F20" stroke-width="0.940959" stroke-miterlimit="10"/>
<path d="M595.738 392.215C592.022 385.556 591.251 376.269 597.024 367.295C597.738 371.439 602.11 375.497 607.311 378.241C607.883 377.669 608.483 377.126 609.083 376.612C607.94 368.61 611.055 358.922 620.857 352.892C619.714 356.95 621.886 362.466 625.372 367.181C626.144 366.924 626.916 366.695 627.687 366.467C630.145 358.751 637.118 351.378 648.606 350.206C645.805 353.35 645.377 359.294 646.462 365.066C647.263 365.152 648.063 365.295 648.863 365.409C654.407 359.522 663.923 355.922 674.754 359.837C670.868 361.466 667.896 366.609 666.381 372.296C667.067 372.725 667.724 373.182 668.381 373.668C675.954 370.782 686.071 371.639 694.13 379.869C689.929 379.641 685.013 383.013 681.184 387.442C681.613 388.128 682.013 388.814 682.384 389.529C690.443 390.214 699.188 395.387 702.903 406.304C699.216 404.275 693.329 405.189 687.957 407.532C688.043 408.333 688.1 409.133 688.128 409.933C695.101 414.048 700.731 422.507 699.331 433.938C696.873 430.509 691.186 428.765 685.328 428.537C685.042 429.308 684.756 430.051 684.442 430.794C685.956 433.081 687.128 435.738 687.785 438.653" stroke="#231F20" stroke-width="1.14056" stroke-miterlimit="10"/>
<path d="M599.167 393.217C599.425 392.646 599.71 392.074 599.996 391.503C598.682 389.502 595.395 383.558 597.481 375.871C600.253 378.729 603.568 380.729 605.454 381.729L606.34 382.187C608.369 379.9 610.598 377.814 613.027 375.957C612.684 373.585 612.342 366.812 617.543 360.782C618.771 364.554 620.915 367.812 622.172 369.498L622.772 370.298C625.544 369.127 628.488 368.184 631.517 367.584C632.26 365.297 634.861 359.039 642.148 355.867C641.633 359.81 642.148 363.668 642.548 365.755L642.719 366.726C645.834 366.869 648.864 367.326 651.778 368.069H651.75C655.322 364.326 660.409 362.154 665.724 362.154C665.953 362.154 666.21 362.154 666.439 362.154C664.267 365.469 663.067 369.155 662.524 371.213L662.266 372.156C664.953 373.613 667.496 375.357 669.839 377.3C671.954 376.5 674.269 376.071 676.584 376.071C679.041 376.071 682.242 376.528 685.643 378.329C683.099 379.843 680.556 382.044 678.184 384.787L677.527 385.53C679.298 387.988 680.87 390.645 682.128 393.446C684.528 393.646 691.215 394.818 695.902 401.219C692.187 401.562 688.729 402.762 686.357 403.791L685.443 404.191C685.9 406.792 686.157 409.478 686.157 412.221C686.157 412.593 686.157 412.936 686.157 413.307C688.215 414.536 693.759 418.48 695.216 426.31C691.501 424.938 687.615 424.567 685.5 424.51H684.5C683.871 426.71 683.071 428.911 682.128 430.997" stroke="#231F20" stroke-width="0.940959" stroke-miterlimit="10"/>
<path d="M605.426 390.16C612.77 378.5 625.773 370.756 640.576 370.756C663.524 370.756 682.099 389.36 682.099 412.279C682.099 417.565 681.099 422.624 679.327 427.253" stroke="#231F20" stroke-width="0.712848" stroke-miterlimit="10"/>
<path d="M614.798 387.014C621.342 380.327 630.487 376.183 640.575 376.183C660.493 376.183 676.668 392.329 676.668 412.276C676.668 415.62 676.211 418.849 675.353 421.935" stroke="#231F20" stroke-width="0.940959" stroke-miterlimit="10"/>
<path d="M698.501 460.689C700.13 462.318 724.764 483.665 724.764 483.665C735.166 491.324 729.136 507.184 720.391 509.928C708.903 508.299 701.987 519.644 695.758 527.446" stroke="#231F20" stroke-width="1.14056" stroke-miterlimit="10"/>
<path d="M721.478 509.385L713.276 525.817L696.33 533.476" stroke="#231F20" stroke-width="1.14056" stroke-miterlimit="10"/>
<path d="M719.849 501.727C722.864 501.727 725.307 499.283 725.307 496.269C725.307 493.254 722.864 490.81 719.849 490.81C716.835 490.81 714.391 493.254 714.391 496.269C714.391 499.283 716.835 501.727 719.849 501.727Z" stroke="#231F20" stroke-width="1.14056" stroke-miterlimit="10"/>
<path d="M527.266 477.664C545.87 449.201 584.706 418.566 638.889 446.486C700.702 482.037 668.981 556.995 668.981 556.995" stroke="#231F20" stroke-width="1.14056" stroke-miterlimit="10"/>
<path d="M536.61 479.234C538.394 479.234 539.839 477.788 539.839 476.005C539.839 474.222 538.394 472.776 536.61 472.776C534.827 472.776 533.381 474.222 533.381 476.005C533.381 477.788 534.827 479.234 536.61 479.234Z" stroke="#231F20" stroke-width="1.14056" stroke-miterlimit="10"/>
<path d="M581.475 447.514C583.259 447.514 584.705 446.068 584.705 444.285C584.705 442.501 583.259 441.056 581.475 441.056C579.692 441.056 578.246 442.501 578.246 444.285C578.246 446.068 579.692 447.514 581.475 447.514Z" stroke="#231F20" stroke-width="1.14056" stroke-miterlimit="10"/>
<path d="M636.745 456.256C638.529 456.256 639.975 454.81 639.975 453.027C639.975 451.243 638.529 449.797 636.745 449.797C634.962 449.797 633.516 451.243 633.516 453.027C633.516 454.81 634.962 456.256 636.745 456.256Z" stroke="#231F20" stroke-width="1.14056" stroke-miterlimit="10"/>
<path d="M668.467 495.493C670.25 495.493 671.696 494.047 671.696 492.264C671.696 490.48 670.25 489.035 668.467 489.035C666.683 489.035 665.237 490.48 665.237 492.264C665.237 494.047 666.683 495.493 668.467 495.493Z" stroke="#231F20" stroke-width="1.14056" stroke-miterlimit="10"/>
<path d="M665.752 550.905C667.535 550.905 668.981 549.459 668.981 547.676C668.981 545.892 667.535 544.447 665.752 544.447C663.968 544.447 662.523 545.892 662.523 547.676C662.523 549.459 663.968 550.905 665.752 550.905Z" stroke="#231F20" stroke-width="1.14056" stroke-miterlimit="10"/>
<path d="M604.396 389.59C620.257 394.505 642.69 399.449 642.69 407.108" stroke="#231F20" stroke-width="1.14056" stroke-miterlimit="10"/>
<path d="M714.933 493.52L700.702 483.118" stroke="#231F20" stroke-width="0.712848" stroke-miterlimit="10"/>
<path d="M668.41 556.993C668.41 556.993 676.611 559.736 680.984 560.279C678.783 554.821 689.728 548.791 696.301 552.077L696.844 535.131" stroke="#231F20" stroke-width="1.14056" stroke-miterlimit="10"/>
<path d="M718.763 509.927L702.331 508.841L695.215 517.585" stroke="#231F20" stroke-width="1.14056" stroke-miterlimit="10"/>
<path d="M583.621 394.503C583.621 394.503 649.835 415.307 655.837 418.022C661.866 422.395 674.126 441.456 683.357 454.687C684.7 456.488 685.5 458.602 685.671 460.831L691.958 539.505" stroke="#231F20" stroke-width="1.14056" stroke-miterlimit="10"/>
<path d="M585.677 400.647L565.988 428.138L574.332 433.339C574.332 433.339 603.881 421.851 638.346 441.541C641.632 436.083 647.633 425.138 647.633 420.737L585.677 400.618V400.647Z" stroke="#231F20" stroke-width="1.14056" stroke-miterlimit="10"/>
<path d="M571.304 427.739L587.307 404.763L642.69 422.967C641.061 428.997 639.947 430.083 637.232 435.541C614.799 426.796 594.566 422.424 575.419 429.511L571.304 427.739V427.739Z" stroke="#231F20" stroke-width="1.14056" stroke-miterlimit="10"/>
<path d="M584.707 426.769C587.479 420.796 590.851 414.68 595.652 408.165" stroke="#231F20" stroke-width="0.712848" stroke-miterlimit="10"/>
<path d="M595.109 425.682C597.366 420.11 598.852 416.28 603.853 410.908" stroke="#231F20" stroke-width="0.712848" stroke-miterlimit="10"/>
<path d="M604.967 426.767C606.739 420.794 609.539 416.307 613.169 413.078" stroke="#231F20" stroke-width="0.712848" stroke-miterlimit="10"/>
<path d="M615.341 427.882C616.085 423.881 618.256 420.966 621.914 416.937" stroke="#231F20" stroke-width="0.712848" stroke-miterlimit="10"/>
<path d="M623.542 430.599C625.4 426.341 626.657 423.226 629.572 419.111" stroke="#231F20" stroke-width="0.712848" stroke-miterlimit="10"/>
<path d="M630.659 433.34C630.716 429.796 632.488 425.824 636.689 421.308" stroke="#231F20" stroke-width="0.712848" stroke-miterlimit="10"/>
<path d="M680.469 460.689L663.494 469.462" stroke="#231F20" stroke-width="0.712848" stroke-miterlimit="10"/>
<path d="M655.836 418.023L641.061 447.858" stroke="#231F20" stroke-width="0.712848" stroke-miterlimit="10"/>
<path d="M719.849 490.781C719.849 492.41 719.849 501.726 719.849 501.726" stroke="#231F20" stroke-width="0.712848" stroke-miterlimit="10"/>
<path d="M636.146 393.962C642.718 386.303 659.665 391.762 658.579 403.25" stroke="#231F20" stroke-width="0.712848" stroke-miterlimit="10"/>
<path d="M696.33 552.076C696.33 552.076 702.903 562.478 723.136 563.021C712.191 573.424 696.873 572.881 691.958 570.137C687.043 567.394 681.013 557.563 681.013 557.563" stroke="#231F20" stroke-width="1.14056" stroke-miterlimit="10"/>
<path d="M688.127 551.507C688.127 551.507 697.415 569.568 722.592 562.996" stroke="#231F20" stroke-width="0.940959" stroke-miterlimit="10"/>
<path d="M682.64 453.601C677.725 456.345 681.011 464.546 685.927 463.46" stroke="#231F20" stroke-width="0.712848" stroke-miterlimit="10"/>
<path d="M563.501 430.596L570.473 435.94C564.044 438.455 557.271 442.999 550.355 448.257L563.472 430.625L563.501 430.596Z" stroke="#231F20" stroke-width="0.712848" stroke-miterlimit="10"/>
<path d="M530.81 485.32C531.81 483.834 533.925 480.205 534.954 478.776" stroke="#231F20" stroke-width="0.712848" stroke-miterlimit="10"/>
<path d="M538.895 473.721C550.983 458.947 564.615 449.745 578.389 445.172" stroke="#231F20" stroke-width="0.712848" stroke-miterlimit="10"/>
<path d="M584.591 443.428C602.166 439.313 619.713 442.456 634.43 450.801" stroke="#231F20" stroke-width="0.712848" stroke-miterlimit="10"/>
<path d="M639.775 454.144C651.949 462.518 661.722 474.663 667.266 489.266" stroke="#231F20" stroke-width="0.712848" stroke-miterlimit="10"/>
<path d="M669.295 495.38C673.553 510.212 673.581 527.187 667.666 545.105" stroke="#231F20" stroke-width="0.712848" stroke-miterlimit="10"/>
<path d="M665.552 550.906C665.066 552.107 664.58 553.307 664.037 554.536" stroke="#231F20" stroke-width="0.712848" stroke-miterlimit="10"/>
<path d="M533.295 501.183L526.894 506.441C523.322 509.385 521.092 513.671 520.807 518.301L518.549 553.737" stroke="#231F20" stroke-width="0.712848" stroke-miterlimit="10"/>
<path d="M503.204 524.444C504.29 524.158 510.577 520.614 510.577 520.614L531.096 484.778" stroke="#231F20" stroke-width="0.712848" stroke-miterlimit="10"/>
<path d="M645.576 445.373L645.603 445.317" stroke="#231F20" stroke-width="1.14056" stroke-linecap="round" stroke-linejoin="round"/>
<path d="M651.292 434.573L654.207 429.086" stroke="#231F20" stroke-width="1.14056" stroke-linecap="round" stroke-linejoin="round"/>
<path d="M657.034 423.71L657.062 423.627" stroke="#231F20" stroke-width="1.14056" stroke-linecap="round" stroke-linejoin="round"/>
<path d="M669.38 469.603L669.436 469.547" stroke="#231F20" stroke-width="1.14056" stroke-linecap="round" stroke-linejoin="round"/>
<path d="M678.753 464.687L678.809 464.659" stroke="#231F20" stroke-width="1.14056" stroke-linecap="round" stroke-linejoin="round"/>
<path d="M675.126 547.14L675.181 547.113" stroke="#231F20" stroke-width="1.14056" stroke-linecap="round" stroke-linejoin="round"/>
<path d="M682.041 542.054L685.585 539.454" stroke="#231F20" stroke-width="1.14056" stroke-linecap="round" stroke-linejoin="round"/>
<path d="M689.014 536.935L689.07 536.88" stroke="#231F20" stroke-width="1.14056" stroke-linecap="round" stroke-linejoin="round"/>
<path d="M704.245 470.403L704.273 470.486" stroke="#231F20" stroke-width="1.14056" stroke-linecap="round" stroke-linejoin="round"/>
<path d="M705.418 482.406L705.904 487.235L700.817 499.666" stroke="#231F20" stroke-width="1.14056" stroke-linecap="round" stroke-linejoin="round"/>
<path d="M698.53 505.21L698.502 505.293" stroke="#231F20" stroke-width="1.14056" stroke-linecap="round" stroke-linejoin="round"/>
<path d="M622.2 386.301C622.2 386.301 622.2 386.273 622.228 386.245" stroke="#231F20" stroke-width="1.14056" stroke-linecap="round" stroke-linejoin="round"/>
<path d="M632.944 380.96C646.375 378.216 667.551 382.36 672.981 409.709" stroke="#231F20" stroke-width="1.14056" stroke-linecap="round" stroke-linejoin="round"/>
<path d="M673.897 415.767V415.822" stroke="#231F20" stroke-width="1.14056" stroke-linecap="round" stroke-linejoin="round"/>
<path d="M712.876 472.465C712.876 472.465 712.904 472.465 712.932 472.465" stroke="#231F20" stroke-width="1.14056" stroke-linecap="round" stroke-linejoin="round"/>
<path d="M724.535 473.494C732.023 475.494 740.224 480.924 741.196 495.441C741.196 511.045 730.194 519.932 721.22 521.247" stroke="#231F20" stroke-width="1.14056" stroke-linecap="round" stroke-linejoin="round"/>
<path d="M715.39 520.904C715.39 520.904 715.362 520.904 715.334 520.904" stroke="#231F20" stroke-width="1.14056" stroke-linecap="round" stroke-linejoin="round"/>
</g>
<defs>
<linearGradient id="paint0_linear_19_32692" x1="696.615" y1="497.013" x2="764.944" y2="497.013" gradientUnits="userSpaceOnUse">
<stop stop-color="#C4C6C8"/>
<stop offset="0.36" stop-color="#939598"/>
<stop offset="0.59" stop-color="#A1A3A6"/>
<stop offset="0.65" stop-color="#A7A9AC"/>
<stop offset="0.87" stop-color="#A9ABAE"/>
<stop offset="1" stop-color="#D1D3D4"/>
</linearGradient>
<linearGradient id="paint1_linear_19_32692" x1="700.758" y1="497.013" x2="760.199" y2="497.013" gradientUnits="userSpaceOnUse">
<stop stop-color="#DED9D6"/>
<stop offset="0.06" stop-color="#CFCAC8"/>
<stop offset="0.18" stop-color="#A8A4A6"/>
<stop offset="0.26" stop-color="#8B878D"/>
<stop offset="0.52" stop-color="#F3F4F4"/>
<stop offset="0.58" stop-color="#E4E5E5"/>
<stop offset="0.7" stop-color="#BFBEC0"/>
<stop offset="0.86" stop-color="#847F84"/>
<stop offset="0.88" stop-color="#807B80"/>
<stop offset="1" stop-color="#A7A9AC"/>
</linearGradient>
<linearGradient id="paint2_linear_19_32692" x1="705.79" y1="497.014" x2="748.856" y2="497.014" gradientUnits="userSpaceOnUse">
<stop stop-color="white"/>
<stop offset="0.13" stop-color="#939393"/>
<stop offset="0.29" stop-color="#939393"/>
<stop offset="0.64" stop-color="#BBBBBB"/>
<stop offset="0.8" stop-color="#D6D6D6"/>
<stop offset="1" stop-color="#939598"/>
</linearGradient>
<linearGradient id="paint3_linear_19_32692" x1="709.447" y1="497.016" x2="744.654" y2="497.016" gradientUnits="userSpaceOnUse">
<stop offset="0.03" stop-color="#9B9B98"/>
<stop offset="0.13" stop-color="#A4A5A6"/>
<stop offset="0.22" stop-color="#AEB0B7"/>
<stop offset="0.35" stop-color="#9FA3A9"/>
<stop offset="0.61" stop-color="#788187"/>
<stop offset="0.72" stop-color="#657076"/>
<stop offset="1" stop-color="#8B949A"/>
</linearGradient>
<radialGradient id="paint4_radial_19_32692" cx="0" cy="0" r="1" gradientUnits="userSpaceOnUse" gradientTransform="translate(712.276 490.097) scale(23.1477 23.1477)">
<stop stop-color="#C4C6C8"/>
<stop offset="0.3" stop-color="#BCBEC0"/>
<stop offset="0.66" stop-color="#A7A9AC"/>
<stop offset="1" stop-color="#9B9DA0"/>
</radialGradient>
<linearGradient id="paint5_linear_19_32692" x1="680.955" y1="561.769" x2="723.135" y2="561.769" gradientUnits="userSpaceOnUse">
<stop stop-color="#DED9D6"/>
<stop offset="0.06" stop-color="#CFCAC8"/>
<stop offset="0.18" stop-color="#A8A4A6"/>
<stop offset="0.26" stop-color="#8B878D"/>
<stop offset="0.52" stop-color="#F3F4F4"/>
<stop offset="0.58" stop-color="#E4E5E5"/>
<stop offset="0.7" stop-color="#BFBEC0"/>
<stop offset="0.86" stop-color="#847F84"/>
<stop offset="0.88" stop-color="#807B80"/>
<stop offset="1" stop-color="#A7A9AC"/>
</linearGradient>
<linearGradient id="paint6_linear_19_32692" x1="688.212" y1="557.797" x2="722.591" y2="557.797" gradientUnits="userSpaceOnUse">
<stop stop-color="#DED9D6"/>
<stop offset="0.06" stop-color="#CFCAC8"/>
<stop offset="0.18" stop-color="#A8A4A6"/>
<stop offset="0.26" stop-color="#8B878D"/>
<stop offset="0.52" stop-color="#F3F4F4"/>
<stop offset="0.58" stop-color="#E4E5E5"/>
<stop offset="0.7" stop-color="#BFBEC0"/>
<stop offset="0.86" stop-color="#847F84"/>
<stop offset="0.88" stop-color="#807B80"/>
<stop offset="1" stop-color="#A7A9AC"/>
</linearGradient>
<linearGradient id="paint7_linear_19_32692" x1="696.101" y1="520.846" x2="721.364" y2="520.846" gradientUnits="userSpaceOnUse">
<stop offset="0.03" stop-color="#9B9B98"/>
<stop offset="0.13" stop-color="#A4A5A6"/>
<stop offset="0.22" stop-color="#AEB0B7"/>
<stop offset="0.35" stop-color="#9FA3A9"/>
<stop offset="0.61" stop-color="#788187"/>
<stop offset="0.72" stop-color="#657076"/>
<stop offset="1" stop-color="#8B949A"/>
</linearGradient>
<linearGradient id="paint8_linear_19_32692" x1="719.849" y1="496.272" x2="725.336" y2="496.272" gradientUnits="userSpaceOnUse">
<stop offset="0.03" stop-color="#9B9B98"/>
<stop offset="0.13" stop-color="#A4A5A6"/>
<stop offset="0.22" stop-color="#AEB0B7"/>
<stop offset="0.35" stop-color="#9FA3A9"/>
<stop offset="0.61" stop-color="#788187"/>
<stop offset="0.72" stop-color="#657076"/>
<stop offset="1" stop-color="#8B949A"/>
</linearGradient>
<linearGradient id="paint9_linear_19_32692" x1="714.391" y1="496.272" x2="719.849" y2="496.272" gradientUnits="userSpaceOnUse">
<stop offset="0.03" stop-color="#9B9B98"/>
<stop offset="0.13" stop-color="#A4A5A6"/>
<stop offset="0.22" stop-color="#AEB0B7"/>
<stop offset="0.35" stop-color="#9FA3A9"/>
<stop offset="0.61" stop-color="#788187"/>
<stop offset="0.72" stop-color="#657076"/>
<stop offset="1" stop-color="#8B949A"/>
</linearGradient>
<radialGradient id="paint10_radial_19_32692" cx="0" cy="0" r="1" gradientUnits="userSpaceOnUse" gradientTransform="translate(706.331 517.932) scale(10.0878 10.0878)">
<stop stop-color="#AEB0B7"/>
<stop offset="0.32" stop-color="#A9A9A8"/>
<stop offset="0.35" stop-color="#A9A9A6"/>
<stop offset="0.5" stop-color="#9A9D9E"/>
<stop offset="0.67" stop-color="#838C92"/>
<stop offset="1" stop-color="#657076"/>
</radialGradient>
<linearGradient id="paint11_linear_19_32692" x1="696.529" y1="531.276" x2="704.616" y2="531.276" gradientUnits="userSpaceOnUse">
<stop offset="0.03" stop-color="#9B9B98"/>
<stop offset="0.13" stop-color="#A4A5A6"/>
<stop offset="0.22" stop-color="#AEB0B7"/>
<stop offset="0.35" stop-color="#9FA3A9"/>
<stop offset="0.61" stop-color="#788187"/>
<stop offset="0.72" stop-color="#657076"/>
<stop offset="1" stop-color="#8B949A"/>
</linearGradient>
<radialGradient id="paint12_radial_19_32692" cx="0" cy="0" r="1" gradientUnits="userSpaceOnUse" gradientTransform="translate(653.405 445.974) scale(53.4684 53.4684)">
<stop stop-color="#C4C6C8"/>
<stop offset="0.3" stop-color="#BCBEC0"/>
<stop offset="0.66" stop-color="#A7A9AC"/>
<stop offset="1" stop-color="#9B9DA0"/>
</radialGradient>
<linearGradient id="paint13_linear_19_32692" x1="592.822" y1="394.392" x2="702.902" y2="394.392" gradientUnits="userSpaceOnUse">
<stop stop-color="#C4C6C8"/>
<stop offset="0.36" stop-color="#939598"/>
<stop offset="0.59" stop-color="#A1A3A6"/>
<stop offset="0.65" stop-color="#A7A9AC"/>
<stop offset="0.87" stop-color="#A9ABAE"/>
<stop offset="1" stop-color="#D1D3D4"/>
</linearGradient>
<linearGradient id="paint14_linear_19_32692" x1="696.815" y1="536.048" x2="696.844" y2="536.048" gradientUnits="userSpaceOnUse">
<stop offset="0.03" stop-color="#9B9B98"/>
<stop offset="0.13" stop-color="#A4A5A6"/>
<stop offset="0.22" stop-color="#AEB0B7"/>
<stop offset="0.35" stop-color="#9FA3A9"/>
<stop offset="0.61" stop-color="#788187"/>
<stop offset="0.72" stop-color="#657076"/>
<stop offset="1" stop-color="#8B949A"/>
</linearGradient>
<linearGradient id="paint15_linear_19_32692" x1="696.787" y1="535.507" x2="696.844" y2="535.507" gradientUnits="userSpaceOnUse">
<stop offset="0.03" stop-color="#9B9B98"/>
<stop offset="0.13" stop-color="#A4A5A6"/>
<stop offset="0.22" stop-color="#AEB0B7"/>
<stop offset="0.35" stop-color="#9FA3A9"/>
<stop offset="0.61" stop-color="#788187"/>
<stop offset="0.72" stop-color="#657076"/>
<stop offset="1" stop-color="#8B949A"/>
</linearGradient>
<radialGradient id="paint16_radial_19_32692" cx="0" cy="0" r="1" gradientUnits="userSpaceOnUse" gradientTransform="translate(640.06 464.777) scale(66.4711 66.4711)">
<stop stop-color="#C4C6C8"/>
<stop offset="0.3" stop-color="#BCBEC0"/>
<stop offset="0.66" stop-color="#A7A9AC"/>
<stop offset="1" stop-color="#9B9DA0"/>
</radialGradient>
<radialGradient id="paint17_radial_19_32692" cx="0" cy="0" r="1" gradientUnits="userSpaceOnUse" gradientTransform="translate(682.87 548.254) scale(13.0313 13.0313)">
<stop stop-color="#AEB0B7"/>
<stop offset="0.32" stop-color="#A9A9A8"/>
<stop offset="0.35" stop-color="#A9A9A6"/>
<stop offset="0.5" stop-color="#9A9D9E"/>
<stop offset="0.67" stop-color="#838C92"/>
<stop offset="1" stop-color="#657076"/>
</radialGradient>
<linearGradient id="paint18_linear_19_32692" x1="664.095" y1="508.758" x2="692.129" y2="508.758" gradientUnits="userSpaceOnUse">
<stop offset="0.03" stop-color="#9B9B98"/>
<stop offset="0.13" stop-color="#A4A5A6"/>
<stop offset="0.22" stop-color="#AEB0B7"/>
<stop offset="0.35" stop-color="#9FA3A9"/>
<stop offset="0.61" stop-color="#788187"/>
<stop offset="0.72" stop-color="#657076"/>
<stop offset="1" stop-color="#8B949A"/>
</linearGradient>
<linearGradient id="paint19_linear_19_32692" x1="596.793" y1="393.448" x2="695.871" y2="393.448" gradientUnits="userSpaceOnUse">
<stop stop-color="#DED9D6"/>
<stop offset="0.06" stop-color="#CFCAC8"/>
<stop offset="0.18" stop-color="#A8A4A6"/>
<stop offset="0.26" stop-color="#8B878D"/>
<stop offset="0.52" stop-color="#F3F4F4"/>
<stop offset="0.58" stop-color="#E4E5E5"/>
<stop offset="0.7" stop-color="#BFBEC0"/>
<stop offset="0.86" stop-color="#847F84"/>
<stop offset="0.88" stop-color="#807B80"/>
<stop offset="1" stop-color="#A7A9AC"/>
</linearGradient>
<radialGradient id="paint20_radial_19_32692" cx="0" cy="0" r="1" gradientUnits="userSpaceOnUse" gradientTransform="translate(683.041 458.576) scale(4.02942 4.02942)">
<stop stop-color="#AEB0B7"/>
<stop offset="0.32" stop-color="#A9A9A8"/>
<stop offset="0.35" stop-color="#A9A9A6"/>
<stop offset="0.5" stop-color="#9A9D9E"/>
<stop offset="0.67" stop-color="#838C92"/>
<stop offset="1" stop-color="#657076"/>
</radialGradient>
<linearGradient id="paint21_linear_19_32692" x1="641.088" y1="443.575" x2="682.611" y2="443.575" gradientUnits="userSpaceOnUse">
<stop offset="0.03" stop-color="#9B9B98"/>
<stop offset="0.13" stop-color="#A4A5A6"/>
<stop offset="0.22" stop-color="#AEB0B7"/>
<stop offset="0.35" stop-color="#9FA3A9"/>
<stop offset="0.61" stop-color="#788187"/>
<stop offset="0.72" stop-color="#657076"/>
<stop offset="1" stop-color="#8B949A"/>
</linearGradient>
<linearGradient id="paint22_linear_19_32692" x1="605.882" y1="399.02" x2="682.098" y2="399.02" gradientUnits="userSpaceOnUse">
<stop stop-color="white"/>
<stop offset="0.13" stop-color="#939393"/>
<stop offset="0.29" stop-color="#939393"/>
<stop offset="0.64" stop-color="#BBBBBB"/>
<stop offset="0.8" stop-color="#D6D6D6"/>
<stop offset="1" stop-color="#939598"/>
</linearGradient>
<linearGradient id="paint23_linear_19_32692" x1="614.798" y1="399.05" x2="676.639" y2="399.05" gradientUnits="userSpaceOnUse">
<stop offset="0.03" stop-color="#9B9B98"/>
<stop offset="0.13" stop-color="#A4A5A6"/>
<stop offset="0.22" stop-color="#AEB0B7"/>
<stop offset="0.35" stop-color="#9FA3A9"/>
<stop offset="0.61" stop-color="#788187"/>
<stop offset="0.72" stop-color="#657076"/>
<stop offset="1" stop-color="#8B949A"/>
</linearGradient>
<linearGradient id="paint24_linear_19_32692" x1="526.666" y1="496.241" x2="677.097" y2="496.241" gradientUnits="userSpaceOnUse">
<stop stop-color="#DED9D6"/>
<stop offset="0.06" stop-color="#CFCAC8"/>
<stop offset="0.18" stop-color="#A8A4A6"/>
<stop offset="0.26" stop-color="#8B878D"/>
<stop offset="0.52" stop-color="#F3F4F4"/>
<stop offset="0.58" stop-color="#E4E5E5"/>
<stop offset="0.7" stop-color="#BFBEC0"/>
<stop offset="0.86" stop-color="#847F84"/>
<stop offset="0.88" stop-color="#807B80"/>
<stop offset="1" stop-color="#A7A9AC"/>
</linearGradient>
<linearGradient id="paint25_linear_19_32692" x1="530.837" y1="498.414" x2="672.324" y2="498.414" gradientUnits="userSpaceOnUse">
<stop stop-color="#DED9D6"/>
<stop offset="0.06" stop-color="#CFCAC8"/>
<stop offset="0.18" stop-color="#A8A4A6"/>
<stop offset="0.26" stop-color="#8B878D"/>
<stop offset="0.52" stop-color="#F3F4F4"/>
<stop offset="0.58" stop-color="#E4E5E5"/>
<stop offset="0.7" stop-color="#BFBEC0"/>
<stop offset="0.86" stop-color="#847F84"/>
<stop offset="0.88" stop-color="#807B80"/>
<stop offset="1" stop-color="#A7A9AC"/>
</linearGradient>
<radialGradient id="paint26_radial_19_32692" cx="0" cy="0" r="1" gradientUnits="userSpaceOnUse" gradientTransform="translate(647.262 396.537) scale(9.1162 9.1162)">
<stop stop-color="#AEB0B7"/>
<stop offset="0.32" stop-color="#A9A9A8"/>
<stop offset="0.35" stop-color="#A9A9A6"/>
<stop offset="0.5" stop-color="#9A9D9E"/>
<stop offset="0.67" stop-color="#838C92"/>
<stop offset="1" stop-color="#657076"/>
</radialGradient>
<linearGradient id="paint27_linear_19_32692" x1="526.18" y1="436.144" x2="655.836" y2="436.144" gradientUnits="userSpaceOnUse">
<stop offset="0.03" stop-color="#9B9B98"/>
<stop offset="0.13" stop-color="#A4A5A6"/>
<stop offset="0.22" stop-color="#AEB0B7"/>
<stop offset="0.35" stop-color="#9FA3A9"/>
<stop offset="0.61" stop-color="#788187"/>
<stop offset="0.72" stop-color="#657076"/>
<stop offset="1" stop-color="#8B949A"/>
</linearGradient>
<linearGradient id="paint28_linear_19_32692" x1="565.988" y1="421.114" x2="647.605" y2="421.114" gradientUnits="userSpaceOnUse">
<stop stop-color="#DED9D6"/>
<stop offset="0.06" stop-color="#CFCAC8"/>
<stop offset="0.18" stop-color="#A8A4A6"/>
<stop offset="0.26" stop-color="#8B878D"/>
<stop offset="0.52" stop-color="#F3F4F4"/>
<stop offset="0.58" stop-color="#E4E5E5"/>
<stop offset="0.7" stop-color="#BFBEC0"/>
<stop offset="0.86" stop-color="#847F84"/>
<stop offset="0.88" stop-color="#807B80"/>
<stop offset="1" stop-color="#A7A9AC"/>
</linearGradient>
<linearGradient id="paint29_linear_19_32692" x1="630.687" y1="428.254" x2="642.718" y2="428.254" gradientUnits="userSpaceOnUse">
<stop stop-color="#6D583F"/>
<stop offset="0.5" stop-color="#483318"/>
<stop offset="1" stop-color="#282913"/>
</linearGradient>
<linearGradient id="paint30_linear_19_32692" x1="623.514" y1="425.884" x2="636.774" y2="425.884" gradientUnits="userSpaceOnUse">
<stop stop-color="#6D583F"/>
<stop offset="0.5" stop-color="#483318"/>
<stop offset="1" stop-color="#282913"/>
</linearGradient>
<linearGradient id="paint31_linear_19_32692" x1="599.166" y1="398.25" x2="642.69" y2="398.25" gradientUnits="userSpaceOnUse">
<stop stop-color="#DED9D6"/>
<stop offset="0.06" stop-color="#CFCAC8"/>
<stop offset="0.18" stop-color="#A8A4A6"/>
<stop offset="0.26" stop-color="#8B878D"/>
<stop offset="0.52" stop-color="#F3F4F4"/>
<stop offset="0.58" stop-color="#E4E5E5"/>
<stop offset="0.7" stop-color="#BFBEC0"/>
<stop offset="0.86" stop-color="#847F84"/>
<stop offset="0.88" stop-color="#807B80"/>
<stop offset="1" stop-color="#A7A9AC"/>
</linearGradient>
<linearGradient id="paint32_linear_19_32692" x1="615.227" y1="423.455" x2="629.716" y2="423.455" gradientUnits="userSpaceOnUse">
<stop stop-color="#6D583F"/>
<stop offset="0.5" stop-color="#483318"/>
<stop offset="1" stop-color="#282913"/>
</linearGradient>
<linearGradient id="paint33_linear_19_32692" x1="605.024" y1="420.826" x2="622.142" y2="420.826" gradientUnits="userSpaceOnUse">
<stop stop-color="#6D583F"/>
<stop offset="0.5" stop-color="#483318"/>
<stop offset="1" stop-color="#282913"/>
</linearGradient>
<linearGradient id="paint34_linear_19_32692" x1="595.109" y1="418.426" x2="613.027" y2="418.426" gradientUnits="userSpaceOnUse">
<stop stop-color="#6D583F"/>
<stop offset="0.5" stop-color="#483318"/>
<stop offset="1" stop-color="#282913"/>
</linearGradient>
<linearGradient id="paint35_linear_19_32692" x1="604.738" y1="389.705" x2="605.881" y2="389.705" gradientUnits="userSpaceOnUse">
<stop offset="0.03" stop-color="#9B9B98"/>
<stop offset="0.13" stop-color="#A4A5A6"/>
<stop offset="0.22" stop-color="#AEB0B7"/>
<stop offset="0.35" stop-color="#9FA3A9"/>
<stop offset="0.61" stop-color="#788187"/>
<stop offset="0.72" stop-color="#657076"/>
<stop offset="1" stop-color="#8B949A"/>
</linearGradient>
<linearGradient id="paint36_linear_19_32692" x1="584.735" y1="417.257" x2="604.053" y2="417.257" gradientUnits="userSpaceOnUse">
<stop stop-color="#6D583F"/>
<stop offset="0.5" stop-color="#483318"/>
<stop offset="1" stop-color="#282913"/>
</linearGradient>
<linearGradient id="paint37_linear_19_32692" x1="595.48" y1="392.021" x2="599.966" y2="392.021" gradientUnits="userSpaceOnUse">
<stop offset="0.03" stop-color="#9B9B98"/>
<stop offset="0.13" stop-color="#A4A5A6"/>
<stop offset="0.22" stop-color="#AEB0B7"/>
<stop offset="0.35" stop-color="#9FA3A9"/>
<stop offset="0.61" stop-color="#788187"/>
<stop offset="0.72" stop-color="#657076"/>
<stop offset="1" stop-color="#8B949A"/>
</linearGradient>
<linearGradient id="paint38_linear_19_32692" x1="571.303" y1="417.139" x2="595.851" y2="417.139" gradientUnits="userSpaceOnUse">
<stop stop-color="#6D583F"/>
<stop offset="0.5" stop-color="#483318"/>
<stop offset="1" stop-color="#282913"/>
</linearGradient>
<linearGradient id="paint39_linear_19_32692" x1="550.384" y1="439.432" x2="570.474" y2="439.432" gradientUnits="userSpaceOnUse">
<stop offset="0.03" stop-color="#9B9B98"/>
<stop offset="0.13" stop-color="#A4A5A6"/>
<stop offset="0.22" stop-color="#AEB0B7"/>
<stop offset="0.35" stop-color="#9FA3A9"/>
<stop offset="0.61" stop-color="#788187"/>
<stop offset="0.72" stop-color="#657076"/>
<stop offset="1" stop-color="#8B949A"/>
</linearGradient>
<radialGradient id="paint40_radial_19_32692" cx="0" cy="0" r="1" gradientUnits="userSpaceOnUse" gradientTransform="translate(530.009 528.021) scale(20.2614 20.2614)">
<stop stop-color="#AEB0B7"/>
<stop offset="0.32" stop-color="#A9A9A8"/>
<stop offset="0.35" stop-color="#A9A9A6"/>
<stop offset="0.5" stop-color="#9A9D9E"/>
<stop offset="0.67" stop-color="#838C92"/>
<stop offset="1" stop-color="#657076"/>
</radialGradient>
<radialGradient id="paint41_radial_19_32692" cx="0" cy="0" r="1" gradientUnits="userSpaceOnUse" gradientTransform="translate(517.977 519.502) scale(27.0057 27.0057)">
<stop stop-color="#C4C6C8"/>
<stop offset="0.3" stop-color="#BCBEC0"/>
<stop offset="0.66" stop-color="#A7A9AC"/>
<stop offset="1" stop-color="#9B9DA0"/>
</radialGradient>
<linearGradient id="paint42_linear_19_32692" x1="530.808" y1="485.296" x2="530.836" y2="485.296" gradientUnits="userSpaceOnUse">
<stop offset="0.03" stop-color="#9B9B98"/>
<stop offset="0.13" stop-color="#A4A5A6"/>
<stop offset="0.22" stop-color="#AEB0B7"/>
<stop offset="0.35" stop-color="#9FA3A9"/>
<stop offset="0.61" stop-color="#788187"/>
<stop offset="0.72" stop-color="#657076"/>
<stop offset="1" stop-color="#8B949A"/>
</linearGradient>
<radialGradient id="paint43_radial_19_32692" cx="0" cy="0" r="1" gradientUnits="userSpaceOnUse" gradientTransform="translate(517.12 502.872) scale(18.0038 18.0038)">
<stop stop-color="#AEB0B7"/>
<stop offset="0.32" stop-color="#A9A9A8"/>
<stop offset="0.35" stop-color="#A9A9A6"/>
<stop offset="0.5" stop-color="#9A9D9E"/>
<stop offset="0.67" stop-color="#838C92"/>
<stop offset="1" stop-color="#657076"/>
</radialGradient>
<clipPath id="clip0_19_32692">
<rect width="263.969" height="221.744" fill="white" transform="translate(501.003 350.098)"/>
</clipPath>
</defs>
</svg>
