<svg width="800" height="800" viewBox="0 0 800 800" fill="none" xmlns="http://www.w3.org/2000/svg">
<g clip-path="url(#clip0_19_32692)">
<path d="M597.34 597.604C641.931 597.604 678.079 561.44 678.079 516.83C678.079 472.219 641.931 436.055 597.34 436.055C552.749 436.055 516.601 472.219 516.601 516.83C516.601 561.44 552.749 597.604 597.34 597.604Z" fill="url(#paint0_radial_19_32692)"/>
<path d="M547.044 518.235C547.044 510.493 548.803 503.143 551.929 496.614C555.446 489.342 560.644 483.047 567.053 478.277C574.087 472.999 582.567 469.559 591.751 468.62C593.432 468.464 595.151 468.346 596.871 468.346C613.206 468.346 627.666 476.244 636.771 488.364C642.047 495.402 645.486 503.886 646.424 513.074C646.58 514.755 646.697 516.475 646.697 518.195C646.697 525.116 645.33 531.645 642.789 537.627C638.999 546.541 632.668 554.165 624.735 559.521C617.583 564.408 609.064 567.419 599.841 567.927C598.864 568.005 597.887 568.044 596.91 568.044C588.312 568.044 580.223 565.894 573.188 562.023C565.411 557.801 558.885 551.584 554.274 544.039C550.717 538.174 548.334 531.528 547.474 524.373C547.2 522.379 547.083 520.307 547.083 518.235H547.044V518.235ZM559.667 518.235C559.667 538.761 576.354 555.455 596.91 555.455C617.466 555.455 634.114 538.761 634.114 518.235C634.114 497.708 617.427 480.975 596.91 480.975C576.393 480.975 559.667 497.669 559.667 518.235Z" fill="url(#paint1_radial_19_32692)"/>
<path d="M647.206 537.197C660.845 535.047 678.9 532.075 680.463 531.293C680.58 529.573 682.143 514.99 681.323 512.84C680.541 512.097 664.284 504.942 662.682 504.356C661.705 504.942 656.234 509.282 650.919 513.622C650.919 513.348 650.919 513.074 650.84 512.801C650.723 511.588 650.645 510.376 650.45 509.164C661.158 500.485 675.304 488.951 676.321 487.466C675.539 485.863 669.638 472.491 667.801 471.006C666.785 470.771 649.121 472.687 647.401 473C646.854 473.977 644.314 480.506 641.852 486.879C641.032 485.667 640.172 484.494 639.234 483.321C644.197 470.38 650.645 453.334 650.801 451.535C649.355 450.558 637.514 441.917 635.209 441.565C634.192 441.878 619.889 452.395 618.522 453.49C618.522 454.624 619.616 461.505 620.671 468.269C619.342 467.643 618.013 467.018 616.607 466.47C614.457 452.786 611.487 434.763 610.706 433.199C608.986 433.081 594.409 431.517 592.26 432.338C591.517 433.081 584.366 449.385 583.78 450.988C584.366 451.965 588.704 457.439 593.042 462.756C592.416 462.756 591.869 462.873 591.244 462.873C590.384 462.991 589.485 463.03 588.625 463.186C579.95 452.474 568.382 438.281 566.936 437.304C565.334 438.047 551.969 443.989 550.484 445.788C550.249 446.844 552.164 464.476 552.477 466.236C553.454 466.783 559.941 469.324 566.35 471.748C565.139 472.609 563.966 473.43 562.755 474.368C549.858 469.442 532.781 462.952 531.022 462.834C530.045 464.281 521.408 476.127 521.057 478.434C521.369 479.451 531.882 493.76 532.976 495.129C534.109 495.129 541.026 494.034 547.787 492.978C547.123 494.308 546.537 495.637 545.989 497.044C532.312 499.195 514.296 502.166 512.733 502.948C512.615 504.668 511.052 519.252 511.873 521.402C512.615 522.145 528.912 529.3 530.514 529.886C531.491 529.3 536.962 524.96 542.277 520.62C542.355 522.106 542.511 523.591 542.707 524.999C531.999 534.343 517.813 545.251 516.836 546.737C517.578 548.301 523.519 561.711 525.316 563.197C526.371 563.431 543.996 561.477 545.716 561.203C546.302 560.225 548.842 553.696 551.265 547.323C552.125 548.535 552.946 549.708 553.884 550.881C548.96 563.822 542.472 580.869 542.355 582.667C543.762 583.645 555.642 592.285 557.909 592.637C558.925 592.324 573.267 581.807 574.596 580.712C574.596 579.579 573.541 572.658 572.446 565.934C573.775 566.559 575.104 567.185 576.511 567.732C578.66 581.416 581.591 599.44 582.373 601.004C584.131 601.121 598.708 602.685 600.857 601.864C601.6 601.121 608.752 584.818 609.338 583.215C608.752 582.237 604.375 576.764 600.076 571.446C601.561 571.329 603.007 571.212 604.453 571.016C613.129 581.729 624.696 595.921 626.181 596.899C627.744 596.156 641.149 590.213 642.634 588.414C642.868 587.359 640.914 569.726 640.641 567.967C639.664 567.419 633.137 564.878 626.728 562.415C627.979 561.594 629.151 560.773 630.324 559.795C643.22 564.761 660.298 571.212 662.095 571.368C663.072 569.922 671.709 558.075 672.061 555.768C671.748 554.752 661.236 540.442 660.141 539.074C659.008 539.074 652.091 540.169 645.369 541.224C645.721 540.56 645.995 539.895 646.307 539.23C646.581 538.566 646.893 537.862 647.167 537.158H647.206V537.197ZM624.735 559.6C617.584 564.487 609.064 567.497 599.841 568.006C598.864 568.084 597.887 568.123 596.91 568.123C588.313 568.123 580.223 565.973 573.189 562.102C565.412 557.88 558.886 551.663 554.274 544.117C550.718 538.253 548.334 531.606 547.474 524.451C547.201 522.458 547.084 520.385 547.084 518.313C547.084 510.572 548.842 503.222 551.969 496.692C555.486 489.42 560.683 483.126 567.093 478.356C574.127 473.078 582.607 469.637 591.791 468.699C593.471 468.542 595.191 468.425 596.91 468.425C613.246 468.425 627.705 476.323 636.811 488.443C642.087 495.48 645.526 503.965 646.464 513.152C646.62 514.834 646.737 516.554 646.737 518.274C646.737 525.194 645.369 531.724 642.829 537.705C639.038 546.62 632.707 554.244 624.774 559.6H624.735V559.6Z" fill="url(#paint2_radial_19_32692)"/>
<path d="M596.91 481.014C617.427 481.014 634.114 497.709 634.114 518.274C634.114 538.839 617.427 555.495 596.91 555.495C576.394 555.495 559.667 538.8 559.667 518.274C559.667 497.748 576.354 481.014 596.91 481.014V481.014ZM630.402 518.274C630.402 499.781 615.395 484.768 596.91 484.768C578.426 484.768 563.419 499.742 563.419 518.274C563.419 536.806 578.387 551.78 596.91 551.78C615.434 551.78 630.402 536.767 630.402 518.274Z" fill="url(#paint3_radial_19_32692)"/>
<path d="M596.91 484.769C615.356 484.769 630.402 499.744 630.402 518.276C630.402 536.808 615.395 551.782 596.91 551.782C578.425 551.782 563.419 536.769 563.419 518.276C563.419 499.783 578.386 484.769 596.91 484.769V484.769ZM628.096 518.276C628.096 501.034 614.144 487.037 596.91 487.037C579.676 487.037 565.725 500.995 565.725 518.276C565.725 535.557 579.637 549.475 596.91 549.475C614.183 549.475 628.096 535.518 628.096 518.276Z" fill="url(#paint4_radial_19_32692)"/>
<path d="M596.91 487.037C614.105 487.037 628.095 500.995 628.095 518.276C628.095 535.557 614.144 549.475 596.91 549.475C579.676 549.475 565.724 535.518 565.724 518.276C565.724 501.034 579.637 487.037 596.91 487.037V487.037ZM617.974 517.963C621.178 516.946 622.976 513.506 621.921 510.261C620.905 507.055 617.466 505.256 614.261 506.312C611.018 507.328 609.259 510.769 610.275 514.014C611.291 517.22 614.73 519.018 617.974 517.963V517.963ZM612.229 539.623C615.004 537.668 615.629 533.836 613.636 531.06C611.643 528.324 607.813 527.659 605.077 529.692C602.303 531.647 601.678 535.478 603.671 538.254C605.664 540.991 609.494 541.656 612.229 539.623ZM611.213 523.046C612.229 519.996 610.588 516.712 607.54 515.695C606.992 515.539 606.445 515.461 605.898 515.422C606.289 515.109 606.719 514.757 607.031 514.288C608.907 511.707 608.399 508.071 605.781 506.156C603.202 504.279 599.567 504.787 597.652 507.407C597.301 507.837 597.066 508.345 596.91 508.853C596.754 508.345 596.519 507.837 596.167 507.407C594.291 504.787 590.657 504.201 588.039 506.077C585.42 507.954 584.873 511.551 586.71 514.17C587.062 514.64 587.452 515.031 587.882 515.343C587.335 515.343 586.749 515.422 586.241 515.578C583.193 516.555 581.512 519.84 582.489 522.889C583.466 525.978 586.749 527.659 589.797 526.682C590.344 526.486 590.813 526.251 591.243 525.939C591.126 526.447 591.009 526.994 591.009 527.581C591.009 530.787 593.588 533.406 596.793 533.406C599.997 533.406 602.615 530.826 602.615 527.62C602.615 527.033 602.498 526.525 602.381 525.978C602.811 526.291 603.28 526.564 603.827 526.76C606.875 527.737 610.158 526.095 611.174 523.046H611.213V523.046ZM603.124 498.101C603.124 494.7 600.427 491.963 597.027 491.963C593.627 491.963 590.892 494.661 590.892 498.062C590.892 501.464 593.588 504.201 596.988 504.24C600.388 504.24 603.124 501.542 603.124 498.101V498.101ZM589.915 538.137C591.908 535.439 591.321 531.569 588.586 529.575C585.85 527.581 582.02 528.167 579.988 530.904C577.995 533.602 578.62 537.472 581.317 539.466C584.053 541.46 587.882 540.874 589.915 538.137ZM583.584 513.858C584.639 510.652 582.919 507.211 579.676 506.116C576.471 505.061 572.993 506.781 571.899 510.026C570.844 513.232 572.602 516.712 575.807 517.767C579.011 518.862 582.45 517.103 583.545 513.858H583.584V513.858Z" fill="url(#paint5_radial_19_32692)"/>
<path d="M607.501 515.693C610.549 516.71 612.191 519.994 611.175 523.044C610.159 526.093 606.876 527.735 603.828 526.758C603.281 526.562 602.812 526.289 602.382 525.976C602.499 526.523 602.616 527.032 602.616 527.618C602.616 530.824 599.998 533.444 596.793 533.404C593.589 533.404 590.97 530.785 591.01 527.579C591.01 526.992 591.127 526.445 591.244 525.937C590.814 526.25 590.345 526.484 589.798 526.68C586.75 527.657 583.467 525.976 582.49 522.887C581.513 519.838 583.194 516.554 586.242 515.576C586.789 515.42 587.375 515.341 587.883 515.341C587.453 514.99 587.023 514.638 586.711 514.169C584.835 511.549 585.421 507.952 588.039 506.075C590.658 504.199 594.292 504.785 596.168 507.405C596.52 507.835 596.754 508.343 596.911 508.851C597.067 508.343 597.301 507.835 597.653 507.405C599.529 504.785 603.202 504.277 605.782 506.154C608.4 508.03 608.908 511.705 607.032 514.286C606.681 514.755 606.29 515.146 605.899 515.42C606.446 515.42 606.993 515.537 607.54 515.693H607.501ZM609.182 522.34C609.69 520.737 608.83 519.017 607.267 518.508C605.664 517.961 603.945 518.86 603.437 520.424C602.929 521.988 603.789 523.708 605.352 524.256C606.954 524.764 608.635 523.904 609.182 522.34ZM605.196 512.018C606.172 510.689 605.86 508.812 604.531 507.796C603.202 506.818 601.327 507.131 600.311 508.46C599.334 509.79 599.646 511.666 600.975 512.683C602.343 513.66 604.179 513.348 605.196 512.018V512.018ZM602.108 518.274C602.108 515.381 599.763 512.996 596.871 512.996C593.98 512.996 591.596 515.381 591.596 518.274C591.596 521.167 593.98 523.513 596.871 523.513C599.763 523.513 602.108 521.167 602.108 518.274ZM599.842 528.204C599.842 526.562 598.474 525.155 596.832 525.155C595.191 525.155 593.784 526.523 593.784 528.165C593.784 529.807 595.152 531.215 596.793 531.215C598.435 531.215 599.842 529.847 599.842 528.204ZM592.807 512.644C594.175 511.666 594.449 509.751 593.472 508.421C592.534 507.053 590.619 506.779 589.29 507.718C587.922 508.695 587.61 510.611 588.587 511.94C589.564 513.269 591.479 513.582 592.807 512.644ZM588.313 524.138C589.915 523.63 590.775 521.949 590.267 520.346C589.759 518.743 588.039 517.883 586.437 518.391C584.835 518.899 583.975 520.62 584.483 522.223C584.991 523.826 586.711 524.686 588.313 524.138Z" fill="url(#paint6_radial_19_32692)"/>
<path d="M607.266 518.469C608.868 518.977 609.689 520.697 609.181 522.3C608.634 523.903 606.954 524.724 605.351 524.216C603.749 523.669 602.928 521.987 603.436 520.384C603.944 518.782 605.664 517.921 607.266 518.469Z" fill="url(#paint7_radial_19_32692)"/>
<path d="M604.531 507.757C605.899 508.773 606.172 510.65 605.195 511.979C604.179 513.348 602.303 513.621 600.975 512.644C599.607 511.627 599.333 509.751 600.31 508.421C601.326 507.053 603.202 506.779 604.531 507.757V507.757Z" fill="url(#paint8_radial_19_32692)"/>
<path d="M596.91 512.957C599.802 512.957 602.147 515.342 602.147 518.235C602.147 521.128 599.802 523.474 596.91 523.474C594.018 523.474 591.635 521.128 591.635 518.235C591.635 515.342 594.018 512.957 596.91 512.957ZM599.919 518.235C599.919 516.554 598.552 515.186 596.91 515.186C595.269 515.186 593.901 516.554 593.901 518.235C593.901 519.916 595.23 521.246 596.91 521.246C598.591 521.246 599.919 519.877 599.919 518.235Z" fill="url(#paint9_radial_19_32692)"/>
<path d="M596.91 515.226C598.552 515.226 599.919 516.594 599.919 518.275C599.919 519.957 598.552 521.286 596.91 521.286C595.269 521.286 593.901 519.917 593.901 518.275C593.901 516.633 595.23 515.226 596.91 515.226Z" fill="url(#paint10_radial_19_32692)"/>
<path d="M596.871 525.157C598.513 525.157 599.88 526.526 599.88 528.207C599.88 529.888 598.513 531.217 596.832 531.217C595.152 531.217 593.823 529.849 593.823 528.168C593.823 526.487 595.191 525.157 596.871 525.157Z" fill="url(#paint11_radial_19_32692)"/>
<path d="M593.51 508.422C594.487 509.79 594.175 511.667 592.846 512.644C591.478 513.582 589.602 513.27 588.625 511.94C587.648 510.611 588 508.695 589.329 507.718C590.697 506.779 592.572 507.092 593.51 508.422Z" fill="url(#paint12_radial_19_32692)"/>
<path d="M590.306 520.349C590.814 521.952 589.916 523.633 588.352 524.141C586.75 524.689 585.031 523.79 584.523 522.226C584.015 520.662 584.913 518.902 586.477 518.394C588.04 517.886 589.798 518.785 590.306 520.349Z" fill="url(#paint13_radial_19_32692)"/>
<path d="M612.384 440.356C618.246 441.529 623.873 443.328 629.227 445.712" stroke="#231F20" stroke-width="2.23801" stroke-miterlimit="10"/>
<path d="M648.767 458.142C653.34 462.13 657.482 466.587 661.078 471.513" stroke="#231F20" stroke-width="1.119" stroke-miterlimit="10"/>
<path d="M671.746 491.727C673.818 497.592 675.225 503.769 675.889 510.142" stroke="#231F20" stroke-width="1.119" stroke-miterlimit="10"/>
<path d="M674.99 532.584C673.817 539.113 671.824 545.369 669.128 551.273" stroke="#231F20" stroke-width="1.119" stroke-miterlimit="10"/>
<path d="M657.209 569.843C652.832 574.926 647.868 579.461 642.358 583.332" stroke="#231F20" stroke-width="1.119" stroke-miterlimit="10"/>
<path d="M622.896 593.301C616.604 595.491 609.961 596.898 603.083 597.406" stroke="#231F20" stroke-width="1.119" stroke-miterlimit="10"/>
<path d="M581.277 596.12C574.595 594.79 568.264 592.64 562.284 589.747" stroke="#231F20" stroke-width="1.119" stroke-miterlimit="10"/>
<path d="M543.994 577.467C539.149 573.127 534.85 568.201 531.176 562.805" stroke="#231F20" stroke-width="1.119" stroke-miterlimit="10"/>
<path d="M521.328 542.632C519.452 536.768 518.201 530.59 517.732 524.178" stroke="#231F20" stroke-width="1.119" stroke-miterlimit="10"/>
<path d="M519.297 501.462C520.587 495.481 522.54 489.733 525.12 484.338" stroke="#231F20" stroke-width="1.119" stroke-miterlimit="10"/>
<path d="M537.976 465.024C541.923 460.645 546.339 456.735 551.146 453.334" stroke="#231F20" stroke-width="2.23801" stroke-miterlimit="10"/>
<path d="M571.976 442.817C577.447 441.019 583.153 439.807 589.054 439.22" stroke="#231F20" stroke-width="2.23801" stroke-miterlimit="10"/>
<path d="M596.87 551.745C615.366 551.745 630.361 536.744 630.361 518.239C630.361 499.734 615.366 484.733 596.87 484.733C578.373 484.733 563.378 499.734 563.378 518.239C563.378 536.744 578.373 551.745 596.87 551.745Z" stroke="#231F20" stroke-width="1.119" stroke-miterlimit="10"/>
<path d="M596.868 555.459C617.415 555.459 634.072 538.795 634.072 518.239C634.072 497.682 617.415 481.018 596.868 481.018C576.321 481.018 559.664 497.682 559.664 518.239C559.664 538.795 576.321 555.459 596.868 555.459Z" stroke="#231F20" stroke-width="0.699377" stroke-miterlimit="10"/>
<path d="M596.869 568.088C624.387 568.088 646.696 545.769 646.696 518.239C646.696 490.708 624.387 468.39 596.869 468.39C569.35 468.39 547.042 490.708 547.042 518.239C547.042 545.769 569.35 568.088 596.869 568.088Z" stroke="#231F20" stroke-width="0.699377" stroke-miterlimit="10"/>
<path d="M596.869 549.44C614.092 549.44 628.054 535.471 628.054 518.24C628.054 501.009 614.092 487.041 596.869 487.041C579.645 487.041 565.683 501.009 565.683 518.24C565.683 535.471 579.645 549.44 596.869 549.44Z" stroke="#231F20" stroke-width="0.699377" stroke-miterlimit="10"/>
<path d="M596.868 523.517C599.782 523.517 602.144 521.154 602.144 518.239C602.144 515.324 599.782 512.961 596.868 512.961C593.955 512.961 591.593 515.324 591.593 518.239C591.593 521.154 593.955 523.517 596.868 523.517Z" stroke="#231F20" stroke-width="1.119" stroke-miterlimit="10"/>
<path d="M596.869 521.249C598.531 521.249 599.878 519.902 599.878 518.239C599.878 516.576 598.531 515.228 596.869 515.228C595.207 515.228 593.86 516.576 593.86 518.239C593.86 519.902 595.207 521.249 596.869 521.249Z" stroke="#231F20" stroke-width="0.699377" stroke-miterlimit="10"/>
<path d="M608.631 540.759C612.02 540.759 614.767 538.011 614.767 534.621C614.767 531.231 612.02 528.483 608.631 528.483C605.243 528.483 602.496 531.231 602.496 534.621C602.496 538.011 605.243 540.759 608.631 540.759Z" stroke="#231F20" stroke-width="1.119" stroke-miterlimit="10"/>
<path d="M584.949 540.643C588.338 540.643 591.085 537.894 591.085 534.504C591.085 531.114 588.338 528.366 584.949 528.366C581.561 528.366 578.814 531.114 578.814 534.504C578.814 537.894 581.561 540.643 584.949 540.643Z" stroke="#231F20" stroke-width="1.119" stroke-miterlimit="10"/>
<path d="M577.759 518.045C581.147 518.045 583.894 515.296 583.894 511.906C583.894 508.516 581.147 505.768 577.759 505.768C574.37 505.768 571.623 508.516 571.623 511.906C571.623 515.296 574.37 518.045 577.759 518.045Z" stroke="#231F20" stroke-width="1.119" stroke-miterlimit="10"/>
<path d="M596.986 504.204C600.374 504.204 603.121 501.456 603.121 498.066C603.121 494.676 600.374 491.928 596.986 491.928C593.597 491.928 590.85 494.676 590.85 498.066C590.85 501.456 593.597 504.204 596.986 504.204Z" stroke="#231F20" stroke-width="1.119" stroke-miterlimit="10"/>
<path d="M616.096 518.24C619.485 518.24 622.232 515.492 622.232 512.102C622.232 508.712 619.485 505.964 616.096 505.964C612.708 505.964 609.961 508.712 609.961 512.102C609.961 515.492 612.708 518.24 616.096 518.24Z" stroke="#231F20" stroke-width="1.119" stroke-miterlimit="10"/>
<path d="M596.832 531.219C598.494 531.219 599.841 529.871 599.841 528.208C599.841 526.545 598.494 525.198 596.832 525.198C595.17 525.198 593.823 526.545 593.823 528.208C593.823 529.871 595.17 531.219 596.832 531.219Z" stroke="#231F20" stroke-width="0.699377" stroke-miterlimit="10"/>
<path d="M587.412 524.298C589.074 524.298 590.422 522.95 590.422 521.287C590.422 519.625 589.074 518.277 587.412 518.277C585.75 518.277 584.403 519.625 584.403 521.287C584.403 522.95 585.75 524.298 587.412 524.298Z" stroke="#231F20" stroke-width="0.699377" stroke-miterlimit="10"/>
<path d="M591.085 513.194C592.747 513.194 594.094 511.846 594.094 510.183C594.094 508.521 592.747 507.173 591.085 507.173C589.423 507.173 588.076 508.521 588.076 510.183C588.076 511.846 589.423 513.194 591.085 513.194Z" stroke="#231F20" stroke-width="0.699377" stroke-miterlimit="10"/>
<path d="M602.772 513.232C604.434 513.232 605.781 511.884 605.781 510.221C605.781 508.559 604.434 507.211 602.772 507.211C601.11 507.211 599.762 508.559 599.762 510.221C599.762 511.884 601.11 513.232 602.772 513.232Z" stroke="#231F20" stroke-width="0.699377" stroke-miterlimit="10"/>
<path d="M606.328 524.375C607.99 524.375 609.337 523.028 609.337 521.365C609.337 519.702 607.99 518.354 606.328 518.354C604.666 518.354 603.319 519.702 603.319 521.365C603.319 523.028 604.666 524.375 606.328 524.375Z" stroke="#231F20" stroke-width="0.699377" stroke-miterlimit="10"/>
<path d="M607.497 515.698C606.95 515.502 606.403 515.463 605.856 515.424C606.286 515.111 606.677 514.72 607.028 514.251C608.943 511.671 608.357 508.035 605.778 506.119C603.199 504.203 599.564 504.79 597.649 507.37C597.298 507.839 597.063 508.309 596.907 508.817C596.711 508.309 596.516 507.8 596.164 507.331C594.288 504.712 590.654 504.125 588.036 506.002C585.417 507.878 584.831 511.514 586.707 514.134C587.059 514.603 587.449 514.955 587.879 515.307C587.332 515.307 586.785 515.385 586.238 515.542C583.19 516.519 581.509 519.803 582.486 522.853C583.463 525.902 586.746 527.583 589.794 526.606C590.341 526.45 590.81 526.176 591.279 525.863C591.123 526.371 591.006 526.919 591.006 527.505C591.006 530.711 593.585 533.331 596.79 533.331C599.994 533.331 602.612 530.75 602.612 527.544C602.612 526.958 602.495 526.45 602.378 525.902C602.808 526.215 603.316 526.489 603.824 526.645C606.872 527.662 610.155 525.98 611.171 522.931C612.187 519.881 610.507 516.597 607.458 515.581V515.698H607.497Z" stroke="#231F20" stroke-width="0.699377" stroke-miterlimit="10"/>
<path d="M639.309 483.321C644.273 470.419 650.721 453.334 650.877 451.535C649.431 450.558 637.59 441.917 635.284 441.565C634.268 441.878 619.926 452.395 618.597 453.49C618.597 454.624 619.652 461.544 620.747 468.269C619.418 467.604 618.089 467.018 616.721 466.47C614.572 452.825 611.641 434.802 610.859 433.199C609.101 433.081 594.524 431.517 592.375 432.338C591.632 433.12 584.481 449.385 583.894 450.988C584.442 451.965 588.858 457.439 593.156 462.756C591.671 462.834 590.186 462.991 588.74 463.225C580.065 452.474 568.497 438.32 567.012 437.343C565.449 438.086 552.044 444.029 550.598 445.827C550.364 446.844 552.279 464.515 552.591 466.236C553.568 466.783 560.095 469.324 566.465 471.788C565.253 472.609 564.042 473.469 562.869 474.407C549.973 469.442 532.895 462.991 531.098 462.834C530.121 464.281 521.484 476.127 521.132 478.434C521.445 479.451 531.957 493.799 533.052 495.129C534.185 495.129 541.102 494.073 547.824 492.978C547.159 494.308 546.573 495.637 546.026 497.005C532.387 499.156 514.371 502.088 512.769 502.87C512.652 504.629 511.089 519.212 511.909 521.363C512.691 522.106 528.948 529.26 530.55 529.847C531.527 529.3 536.999 524.882 542.314 520.581C542.392 522.067 542.548 523.552 542.782 524.999C532.036 534.304 517.889 545.251 516.912 546.737C517.654 548.301 523.594 561.711 525.392 563.158C526.408 563.392 544.072 561.477 545.792 561.164C546.339 560.186 548.879 553.657 551.341 547.284C552.162 548.496 553.021 549.708 553.959 550.842C548.996 563.744 542.548 580.83 542.392 582.628C543.838 583.606 555.679 592.246 557.984 592.598C559.001 592.285 573.343 581.768 574.672 580.673C574.672 579.539 573.616 572.619 572.522 565.895C573.851 566.559 575.18 567.146 576.586 567.693C578.736 581.338 581.667 599.362 582.448 600.965C584.207 601.082 598.784 602.646 600.933 601.825C601.676 601.043 608.827 584.778 609.413 583.175C608.866 582.198 604.45 576.724 600.152 571.407C601.637 571.329 603.122 571.173 604.568 570.938C613.243 581.69 624.811 595.843 626.296 596.82C627.859 596.078 641.264 590.135 642.709 588.336C642.944 587.32 641.029 569.648 640.716 567.928C639.739 567.38 633.213 564.839 626.843 562.376C628.055 561.555 629.266 560.695 630.438 559.756C643.335 564.722 660.413 571.173 662.21 571.329C663.187 569.882 671.824 558.036 672.176 555.729C671.863 554.713 661.35 540.364 660.256 539.035C659.123 539.035 652.206 540.09 645.484 541.185C646.148 539.856 646.735 538.526 647.282 537.158C660.921 535.008 678.936 532.075 680.539 531.293C680.656 529.534 682.219 514.951 681.398 512.801C680.617 512.058 664.36 504.903 662.757 504.316C661.78 504.864 656.309 509.282 650.994 513.582C650.916 512.097 650.76 510.611 650.525 509.164C661.272 500.485 675.419 488.912 676.396 487.426C675.654 485.863 669.714 472.452 667.916 471.006C666.9 470.771 649.236 472.687 647.516 473C646.969 473.977 644.429 480.506 641.967 486.879C641.146 485.667 640.287 484.455 639.349 483.321H639.309Z" stroke="#231F20" stroke-width="1.119" stroke-miterlimit="10"/>
<path d="M198.171 597.604C242.772 597.604 278.927 561.44 278.927 516.83C278.927 472.219 242.772 436.055 198.171 436.055C153.571 436.055 117.415 472.219 117.415 516.83C117.415 561.44 153.571 597.604 198.171 597.604Z" fill="url(#paint14_radial_19_32692)"/>
<path d="M147.904 518.235C147.904 510.493 149.663 503.143 152.79 496.614C156.308 489.342 161.507 483.047 167.917 478.277C174.953 472.999 183.435 469.559 192.621 468.62C194.302 468.464 196.021 468.346 197.741 468.346C214.08 468.346 228.543 476.244 237.65 488.364C242.927 495.402 246.367 503.886 247.305 513.074C247.461 514.755 247.579 516.475 247.579 518.195C247.579 525.116 246.211 531.645 243.67 537.627C239.878 546.541 233.546 554.165 225.611 559.521C218.458 564.408 209.937 567.419 200.712 567.927C199.735 568.005 198.758 568.044 197.78 568.044C189.181 568.044 181.09 565.894 174.054 562.023C166.275 557.801 159.748 551.584 155.135 544.039C151.578 538.174 149.194 531.528 148.334 524.373C148.06 522.379 147.943 520.307 147.943 518.235H147.904V518.235ZM160.529 518.235C160.529 538.761 177.22 555.455 197.78 555.455C218.341 555.455 234.992 538.761 234.992 518.235C234.992 497.708 218.302 480.975 197.78 480.975C177.259 480.975 160.529 497.669 160.529 518.235Z" fill="url(#paint15_radial_19_32692)"/>
<path d="M248.086 537.197C261.728 535.047 279.787 532.075 281.35 531.293C281.468 529.573 283.031 514.99 282.21 512.84C281.429 512.097 265.168 504.942 263.565 504.356C262.588 504.942 257.116 509.282 251.8 513.622C251.8 513.348 251.8 513.074 251.722 512.801C251.604 511.588 251.526 510.376 251.331 509.164C262.041 500.485 276.191 488.951 277.207 487.466C276.425 485.863 270.523 472.491 268.686 471.006C267.67 470.771 250.002 472.687 248.282 473C247.735 473.977 245.194 480.506 242.731 486.879C241.91 485.667 241.05 484.494 240.112 483.321C245.077 470.38 251.526 453.334 251.682 451.535C250.236 450.558 238.393 441.917 236.086 441.565C235.07 441.878 220.764 452.395 219.396 453.49C219.396 454.624 220.49 461.505 221.545 468.269C220.216 467.643 218.887 467.018 217.48 466.47C215.33 452.786 212.36 434.763 211.578 433.199C209.858 433.081 195.278 431.517 193.128 432.338C192.386 433.081 185.233 449.385 184.646 450.988C185.233 451.965 189.571 457.439 193.91 462.756C193.285 462.756 192.737 462.873 192.112 462.873C191.252 462.991 190.353 463.03 189.493 463.186C180.816 452.474 169.245 438.281 167.799 437.304C166.197 438.047 152.828 443.989 151.343 445.788C151.109 446.844 153.024 464.476 153.337 466.236C154.314 466.783 160.802 469.324 167.213 471.748C166.001 472.609 164.828 473.43 163.617 474.368C150.718 469.442 133.636 462.952 131.877 462.834C130.9 464.281 122.261 476.127 121.91 478.434C122.222 479.451 132.737 493.76 133.832 495.129C134.965 495.129 141.884 494.034 148.646 492.978C147.981 494.308 147.395 495.637 146.848 497.044C133.167 499.195 115.147 502.166 113.584 502.948C113.467 504.668 111.903 519.252 112.724 521.402C113.467 522.145 129.766 529.3 131.369 529.886C132.346 529.3 137.819 524.96 143.135 520.62C143.213 522.106 143.369 523.591 143.565 524.999C132.854 534.343 118.665 545.251 117.688 546.737C118.431 548.301 124.372 561.711 126.17 563.197C127.226 563.431 144.854 561.477 146.574 561.203C147.161 560.225 149.701 553.696 152.125 547.323C152.985 548.535 153.806 549.708 154.744 550.881C149.819 563.822 143.33 580.869 143.213 582.667C144.62 583.645 156.503 592.285 158.77 592.637C159.786 592.324 174.131 581.807 175.46 580.712C175.46 579.579 174.405 572.658 173.311 565.934C174.64 566.559 175.969 567.185 177.376 567.732C179.526 581.416 182.457 599.44 183.239 601.004C184.998 601.121 199.578 602.685 201.728 601.864C202.47 601.121 209.624 584.818 210.21 583.215C209.624 582.237 205.246 576.764 200.946 571.446C202.431 571.329 203.878 571.212 205.324 571.016C214.001 581.729 225.572 595.921 227.057 596.899C228.62 596.156 242.028 590.213 243.513 588.414C243.748 587.359 241.793 569.726 241.52 567.967C240.542 567.419 234.015 564.878 227.604 562.415C228.855 561.594 230.028 560.773 231.2 559.795C244.099 564.761 261.181 571.212 262.979 571.368C263.956 569.922 272.595 558.075 272.946 555.768C272.634 554.752 262.119 540.442 261.025 539.074C259.891 539.074 252.972 540.169 246.249 541.224C246.601 540.56 246.875 539.895 247.187 539.23C247.461 538.566 247.774 537.862 248.047 537.158L248.086 537.197ZM225.611 559.6C218.458 564.487 209.936 567.497 200.711 568.006C199.734 568.084 198.757 568.123 197.78 568.123C189.18 568.123 181.089 565.973 174.053 562.102C166.275 557.88 159.747 551.663 155.135 544.117C151.578 538.253 149.193 531.606 148.333 524.451C148.06 522.458 147.942 520.385 147.942 518.313C147.942 510.572 149.701 503.222 152.828 496.692C156.346 489.42 161.545 483.126 167.956 478.356C174.991 473.078 183.474 469.637 192.659 468.699C194.34 468.542 196.06 468.425 197.78 468.425C214.119 468.425 228.581 476.323 237.689 488.443C242.966 495.48 246.406 503.965 247.344 513.152C247.5 514.834 247.617 516.554 247.617 518.274C247.617 525.194 246.249 531.724 243.709 537.705C239.917 546.62 233.585 554.244 225.65 559.6H225.611V559.6Z" fill="url(#paint16_radial_19_32692)"/>
<path d="M197.741 481.014C218.262 481.014 234.953 497.709 234.953 518.274C234.953 538.839 218.262 555.495 197.741 555.495C177.22 555.495 160.49 538.8 160.49 518.274C160.49 497.748 177.181 481.014 197.741 481.014V481.014ZM231.24 518.274C231.24 499.781 216.23 484.768 197.741 484.768C179.252 484.768 164.242 499.742 164.242 518.274C164.242 536.806 179.213 551.78 197.741 551.78C216.269 551.78 231.24 536.767 231.24 518.274Z" fill="url(#paint17_radial_19_32692)"/>
<path d="M197.741 484.769C216.191 484.769 231.239 499.744 231.239 518.276C231.239 536.808 216.23 551.782 197.741 551.782C179.252 551.782 164.242 536.769 164.242 518.276C164.242 499.783 179.213 484.769 197.741 484.769V484.769ZM228.933 518.276C228.933 501.034 214.979 487.037 197.741 487.037C180.503 487.037 166.549 500.995 166.549 518.276C166.549 535.557 180.464 549.475 197.741 549.475C215.018 549.475 228.933 535.518 228.933 518.276Z" fill="url(#paint18_radial_19_32692)"/>
<path d="M197.741 487.037C214.94 487.037 228.933 500.995 228.933 518.276C228.933 535.557 214.979 549.475 197.741 549.475C180.503 549.475 166.549 535.518 166.549 518.276C166.549 501.034 180.464 487.037 197.741 487.037V487.037ZM218.81 517.963C222.015 516.946 223.813 513.506 222.758 510.261C221.741 507.055 218.302 505.256 215.096 506.312C211.852 507.328 210.093 510.769 211.109 514.014C212.126 517.22 215.565 519.019 218.81 517.963ZM213.064 539.623C215.839 537.668 216.464 533.836 214.471 531.06C212.477 528.324 208.647 527.659 205.911 529.692C203.135 531.647 202.51 535.478 204.503 538.254C206.497 540.991 210.328 541.656 213.064 539.623ZM212.047 523.046C213.064 519.996 211.422 516.712 208.373 515.695C207.826 515.539 207.279 515.461 206.731 515.422C207.122 515.109 207.552 514.757 207.865 514.288C209.741 511.707 209.233 508.071 206.614 506.156C204.034 504.279 200.399 504.787 198.484 507.407C198.132 507.837 197.897 508.345 197.741 508.853C197.585 508.345 197.35 507.837 196.998 507.407C195.122 504.787 191.487 504.201 188.868 506.077C186.249 507.954 185.702 511.551 187.539 514.17C187.891 514.64 188.282 515.031 188.712 515.343C188.164 515.343 187.578 515.422 187.07 515.578C184.021 516.555 182.34 519.84 183.318 522.889C184.295 525.978 187.578 527.659 190.627 526.682C191.174 526.486 191.643 526.251 192.073 525.939C191.956 526.447 191.839 526.994 191.839 527.581C191.839 530.787 194.419 533.406 197.624 533.406C200.829 533.406 203.448 530.826 203.448 527.62C203.448 527.033 203.331 526.525 203.213 525.978C203.643 526.291 204.112 526.564 204.66 526.76C207.709 527.737 210.992 526.095 212.008 523.046H212.047ZM203.956 498.101C203.956 494.7 201.259 491.963 197.858 491.963C194.458 491.963 191.722 494.661 191.722 498.062C191.722 501.464 194.419 504.201 197.819 504.24C201.22 504.24 203.956 501.542 203.956 498.101V498.101ZM190.744 538.137C192.738 535.439 192.151 531.569 189.415 529.575C186.679 527.581 182.848 528.167 180.816 530.904C178.822 533.602 179.448 537.472 182.145 539.466C184.881 541.46 188.712 540.874 190.744 538.137ZM184.412 513.858C185.467 510.652 183.748 507.211 180.503 506.116C177.298 505.061 173.819 506.781 172.725 510.026C171.669 513.232 173.428 516.712 176.633 517.767C179.839 518.862 183.278 517.103 184.373 513.858H184.412Z" fill="url(#paint19_radial_19_32692)"/>
<path d="M208.373 515.696C211.422 516.712 213.064 519.997 212.047 523.046C211.031 526.096 207.748 527.738 204.699 526.76C204.151 526.565 203.682 526.291 203.252 525.978C203.37 526.526 203.487 527.034 203.487 527.621C203.487 530.826 200.868 533.446 197.663 533.407C194.458 533.407 191.839 530.787 191.878 527.581C191.878 526.995 191.995 526.448 192.112 525.939C191.682 526.252 191.213 526.487 190.666 526.682C187.617 527.66 184.334 525.978 183.357 522.89C182.379 519.84 184.06 516.556 187.109 515.579C187.656 515.422 188.243 515.344 188.751 515.344C188.321 514.992 187.891 514.64 187.578 514.171C185.702 511.552 186.288 507.955 188.907 506.078C191.526 504.201 195.161 504.788 197.037 507.407C197.389 507.837 197.624 508.346 197.78 508.854C197.936 508.346 198.171 507.837 198.523 507.407C200.399 504.788 204.073 504.279 206.653 506.156C209.272 508.033 209.78 511.708 207.904 514.288C207.552 514.758 207.161 515.149 206.77 515.422C207.318 515.422 207.865 515.539 208.412 515.696H208.373ZM210.054 522.342C210.562 520.739 209.702 519.019 208.138 518.511C206.536 517.964 204.816 518.863 204.308 520.427C203.8 521.991 204.66 523.711 206.223 524.258C207.826 524.766 209.507 523.906 210.054 522.342ZM206.067 512.021C207.044 510.691 206.731 508.815 205.402 507.798C204.073 506.821 202.197 507.134 201.181 508.463C200.204 509.792 200.516 511.669 201.845 512.685C203.213 513.663 205.05 513.35 206.067 512.021V512.021ZM202.979 518.276C202.979 515.383 200.634 512.998 197.741 512.998C194.848 512.998 192.464 515.383 192.464 518.276C192.464 521.169 194.848 523.515 197.741 523.515C200.634 523.515 202.979 521.169 202.979 518.276ZM200.712 528.207C200.712 526.565 199.344 525.157 197.702 525.157C196.06 525.157 194.653 526.526 194.653 528.168C194.653 529.81 196.021 531.217 197.663 531.217C199.305 531.217 200.712 529.849 200.712 528.207ZM193.676 512.646C195.044 511.669 195.318 509.753 194.34 508.424C193.402 507.055 191.487 506.782 190.158 507.72C188.79 508.697 188.477 510.613 189.454 511.943C190.432 513.272 192.347 513.585 193.676 512.646V512.646ZM189.181 524.141C190.783 523.633 191.643 521.951 191.135 520.348C190.627 518.745 188.907 517.885 187.304 518.394C185.702 518.902 184.842 520.622 185.35 522.225C185.858 523.828 187.578 524.688 189.181 524.141Z" fill="url(#paint20_radial_19_32692)"/>
<path d="M208.139 518.469C209.741 518.977 210.562 520.697 210.054 522.3C209.507 523.903 207.826 524.724 206.223 524.216C204.621 523.669 203.8 521.987 204.308 520.384C204.816 518.782 206.536 517.921 208.139 518.469Z" fill="url(#paint21_radial_19_32692)"/>
<path d="M205.402 507.759C206.77 508.776 207.044 510.653 206.066 511.982C205.05 513.35 203.174 513.624 201.845 512.646C200.477 511.63 200.203 509.753 201.18 508.424C202.197 507.056 204.073 506.782 205.402 507.759V507.759Z" fill="url(#paint22_radial_19_32692)"/>
<path d="M197.741 512.957C200.634 512.957 202.979 515.342 202.979 518.235C202.979 521.128 200.634 523.474 197.741 523.474C194.848 523.474 192.464 521.128 192.464 518.235C192.464 515.342 194.848 512.957 197.741 512.957ZM200.751 518.235C200.751 516.554 199.383 515.186 197.741 515.186C196.099 515.186 194.731 516.554 194.731 518.235C194.731 519.916 196.06 521.246 197.741 521.246C199.422 521.246 200.751 519.877 200.751 518.235Z" fill="url(#paint23_radial_19_32692)"/>
<path d="M197.742 515.226C199.383 515.226 200.751 516.594 200.751 518.275C200.751 519.957 199.383 521.286 197.742 521.286C196.1 521.286 194.732 519.917 194.732 518.275C194.732 516.633 196.061 515.226 197.742 515.226Z" fill="url(#paint24_radial_19_32692)"/>
<path d="M197.702 525.157C199.344 525.157 200.712 526.526 200.712 528.207C200.712 529.888 199.344 531.217 197.663 531.217C195.982 531.217 194.653 529.849 194.653 528.168C194.653 526.487 196.021 525.157 197.702 525.157Z" fill="url(#paint25_radial_19_32692)"/>
<path d="M194.34 508.422C195.317 509.79 195.004 511.667 193.675 512.644C192.307 513.582 190.431 513.27 189.454 511.94C188.476 510.611 188.828 508.695 190.157 507.718C191.525 506.779 193.402 507.092 194.34 508.422Z" fill="url(#paint26_radial_19_32692)"/>
<path d="M191.134 520.349C191.643 521.952 190.744 523.633 189.18 524.141C187.577 524.689 185.858 523.79 185.349 522.226C184.841 520.662 185.74 518.902 187.304 518.394C188.867 517.886 190.626 518.785 191.134 520.349Z" fill="url(#paint27_radial_19_32692)"/>
<path d="M213.221 440.356C219.084 441.529 224.713 443.328 230.068 445.712" stroke="#231F20" stroke-width="2.23801" stroke-miterlimit="10"/>
<path d="M249.61 458.145C254.184 462.133 258.327 466.59 261.923 471.516" stroke="#231F20" stroke-width="1.119" stroke-miterlimit="10"/>
<path d="M272.594 491.727C274.666 497.592 276.073 503.769 276.738 510.142" stroke="#231F20" stroke-width="1.119" stroke-miterlimit="10"/>
<path d="M275.839 532.584C274.666 539.113 272.673 545.369 269.976 551.273" stroke="#231F20" stroke-width="1.119" stroke-miterlimit="10"/>
<path d="M258.054 569.846C253.676 574.928 248.712 579.464 243.2 583.334" stroke="#231F20" stroke-width="1.119" stroke-miterlimit="10"/>
<path d="M223.734 593.301C217.441 595.491 210.796 596.898 203.916 597.406" stroke="#231F20" stroke-width="1.119" stroke-miterlimit="10"/>
<path d="M182.106 596.12C175.422 594.79 169.089 592.64 163.109 589.747" stroke="#231F20" stroke-width="1.119" stroke-miterlimit="10"/>
<path d="M144.815 577.467C139.969 573.127 135.669 568.201 131.995 562.805" stroke="#231F20" stroke-width="1.119" stroke-miterlimit="10"/>
<path d="M122.145 542.633C120.268 536.769 119.018 530.591 118.548 524.18" stroke="#231F20" stroke-width="1.119" stroke-miterlimit="10"/>
<path d="M120.112 501.466C121.402 495.484 123.356 489.737 125.936 484.342" stroke="#231F20" stroke-width="1.119" stroke-miterlimit="10"/>
<path d="M138.796 465.024C142.744 460.645 147.161 456.735 151.969 453.334" stroke="#231F20" stroke-width="2.23801" stroke-miterlimit="10"/>
<path d="M172.802 442.817C178.275 441.019 183.982 439.807 189.884 439.22" stroke="#231F20" stroke-width="2.23801" stroke-miterlimit="10"/>
<path d="M197.742 551.745C216.243 551.745 231.241 536.744 231.241 518.239C231.241 499.734 216.243 484.733 197.742 484.733C179.242 484.733 164.244 499.734 164.244 518.239C164.244 536.744 179.242 551.745 197.742 551.745Z" stroke="#231F20" stroke-width="1.119" stroke-miterlimit="10"/>
<path d="M197.741 555.459C218.293 555.459 234.953 538.795 234.953 518.239C234.953 497.682 218.293 481.018 197.741 481.018C177.189 481.018 160.529 497.682 160.529 518.239C160.529 538.795 177.189 555.459 197.741 555.459Z" stroke="#231F20" stroke-width="0.699377" stroke-miterlimit="10"/>
<path d="M197.742 568.088C225.266 568.088 247.579 545.769 247.579 518.239C247.579 490.708 225.266 468.39 197.742 468.39C170.217 468.39 147.904 490.708 147.904 518.239C147.904 545.769 170.217 568.088 197.742 568.088Z" stroke="#231F20" stroke-width="0.699377" stroke-miterlimit="10"/>
<path d="M197.741 549.44C214.969 549.44 228.934 535.471 228.934 518.24C228.934 501.009 214.969 487.041 197.741 487.041C180.514 487.041 166.549 501.009 166.549 518.24C166.549 535.471 180.514 549.44 197.741 549.44Z" stroke="#231F20" stroke-width="0.699377" stroke-miterlimit="10"/>
<path d="M197.741 523.517C200.656 523.517 203.018 521.154 203.018 518.239C203.018 515.324 200.656 512.961 197.741 512.961C194.827 512.961 192.464 515.324 192.464 518.239C192.464 521.154 194.827 523.517 197.741 523.517Z" stroke="#231F20" stroke-width="1.119" stroke-miterlimit="10"/>
<path d="M197.742 521.249C199.404 521.249 200.752 519.902 200.752 518.239C200.752 516.576 199.404 515.228 197.742 515.228C196.08 515.228 194.732 516.576 194.732 518.239C194.732 519.902 196.08 521.249 197.742 521.249Z" stroke="#231F20" stroke-width="0.699377" stroke-miterlimit="10"/>
<path d="M209.507 540.759C212.896 540.759 215.644 538.011 215.644 534.621C215.644 531.231 212.896 528.483 209.507 528.483C206.118 528.483 203.37 531.231 203.37 534.621C203.37 538.011 206.118 540.759 209.507 540.759Z" stroke="#231F20" stroke-width="1.119" stroke-miterlimit="10"/>
<path d="M185.781 540.643C189.17 540.643 191.918 537.894 191.918 534.504C191.918 531.114 189.17 528.366 185.781 528.366C182.391 528.366 179.644 531.114 179.644 534.504C179.644 537.894 182.391 540.643 185.781 540.643Z" stroke="#231F20" stroke-width="1.119" stroke-miterlimit="10"/>
<path d="M178.588 518.045C181.978 518.045 184.725 515.296 184.725 511.906C184.725 508.516 181.978 505.768 178.588 505.768C175.199 505.768 172.451 508.516 172.451 511.906C172.451 515.296 175.199 518.045 178.588 518.045Z" stroke="#231F20" stroke-width="1.119" stroke-miterlimit="10"/>
<path d="M197.859 504.204C201.248 504.204 203.996 501.456 203.996 498.066C203.996 494.676 201.248 491.928 197.859 491.928C194.469 491.928 191.722 494.676 191.722 498.066C191.722 501.456 194.469 504.204 197.859 504.204Z" stroke="#231F20" stroke-width="1.119" stroke-miterlimit="10"/>
<path d="M216.934 518.24C220.323 518.24 223.071 515.492 223.071 512.102C223.071 508.712 220.323 505.964 216.934 505.964C213.545 505.964 210.797 508.712 210.797 512.102C210.797 515.492 213.545 518.24 216.934 518.24Z" stroke="#231F20" stroke-width="1.119" stroke-miterlimit="10"/>
<path d="M197.702 531.219C199.364 531.219 200.711 529.871 200.711 528.208C200.711 526.545 199.364 525.198 197.702 525.198C196.039 525.198 194.692 526.545 194.692 528.208C194.692 529.871 196.039 531.219 197.702 531.219Z" stroke="#231F20" stroke-width="0.699377" stroke-miterlimit="10"/>
<path d="M188.243 524.298C189.905 524.298 191.253 522.95 191.253 521.287C191.253 519.625 189.905 518.277 188.243 518.277C186.581 518.277 185.233 519.625 185.233 521.287C185.233 522.95 186.581 524.298 188.243 524.298Z" stroke="#231F20" stroke-width="0.699377" stroke-miterlimit="10"/>
<path d="M191.917 513.194C193.579 513.194 194.926 511.846 194.926 510.183C194.926 508.521 193.579 507.173 191.917 507.173C190.254 507.173 188.907 508.521 188.907 510.183C188.907 511.846 190.254 513.194 191.917 513.194Z" stroke="#231F20" stroke-width="0.699377" stroke-miterlimit="10"/>
<path d="M203.605 513.232C205.267 513.232 206.615 511.884 206.615 510.221C206.615 508.559 205.267 507.211 203.605 507.211C201.943 507.211 200.595 508.559 200.595 510.221C200.595 511.884 201.943 513.232 203.605 513.232Z" stroke="#231F20" stroke-width="0.699377" stroke-miterlimit="10"/>
<path d="M207.163 524.375C208.825 524.375 210.173 523.028 210.173 521.365C210.173 519.702 208.825 518.354 207.163 518.354C205.501 518.354 204.153 519.702 204.153 521.365C204.153 523.028 205.501 524.375 207.163 524.375Z" stroke="#231F20" stroke-width="0.699377" stroke-miterlimit="10"/>
<path d="M208.335 515.698C207.787 515.502 207.24 515.463 206.693 515.424C207.123 515.111 207.514 514.72 207.865 514.251C209.781 511.671 209.194 508.035 206.615 506.119C204.035 504.203 200.4 504.79 198.484 507.37C198.133 507.839 197.898 508.309 197.742 508.817C197.546 508.309 197.351 507.8 196.999 507.331C195.123 504.712 191.488 504.125 188.869 506.002C186.25 507.878 185.663 511.514 187.54 514.134C187.891 514.603 188.282 514.955 188.712 515.307C188.165 515.307 187.618 515.385 187.071 515.542C184.022 516.519 182.341 519.803 183.318 522.853C184.295 525.902 187.579 527.583 190.628 526.606C191.175 526.45 191.644 526.176 192.113 525.863C191.957 526.371 191.839 526.919 191.839 527.505C191.839 530.711 194.419 533.331 197.624 533.331C200.83 533.331 203.449 530.75 203.449 527.544C203.449 526.958 203.331 526.45 203.214 525.902C203.644 526.215 204.152 526.489 204.66 526.645C207.709 527.662 210.993 525.98 212.009 522.931C213.025 519.881 211.344 516.597 208.295 515.581V515.698H208.335Z" stroke="#231F20" stroke-width="0.699377" stroke-miterlimit="10"/>
<path d="M240.151 483.321C245.116 470.419 251.565 453.334 251.722 451.535C250.275 450.558 238.432 441.917 236.125 441.565C235.109 441.878 220.764 452.395 219.435 453.49C219.435 454.624 220.49 461.544 221.585 468.269C220.256 467.604 218.927 467.018 217.558 466.47C215.409 452.825 212.477 434.802 211.695 433.199C209.936 433.081 195.356 431.517 193.207 432.338C192.464 433.12 185.311 449.385 184.724 450.988C185.272 451.965 189.689 457.439 193.988 462.756C192.503 462.834 191.018 462.991 189.571 463.225C180.894 452.474 169.324 438.32 167.838 437.343C166.275 438.086 152.868 444.029 151.421 445.827C151.187 446.844 153.102 464.515 153.415 466.236C154.392 466.783 160.92 469.324 167.291 471.788C166.079 472.609 164.868 473.469 163.695 474.407C150.796 469.442 133.714 462.991 131.916 462.834C130.939 464.281 122.301 476.127 121.949 478.434C122.261 479.451 132.776 493.799 133.871 495.129C135.004 495.129 141.923 494.073 148.646 492.978C147.981 494.308 147.395 495.637 146.848 497.005C133.206 499.156 115.186 502.088 113.584 502.87C113.467 504.629 111.903 519.212 112.724 521.363C113.506 522.106 129.766 529.26 131.369 529.847C132.346 529.3 137.819 524.882 143.135 520.581C143.213 522.067 143.369 523.552 143.604 524.999C132.854 534.304 118.704 545.251 117.727 546.737C118.47 548.301 124.411 561.711 126.209 563.158C127.226 563.392 144.894 561.477 146.613 561.164C147.161 560.186 149.701 553.657 152.164 547.284C152.985 548.496 153.845 549.708 154.783 550.842C149.819 563.744 143.369 580.83 143.213 582.628C144.659 583.606 156.503 592.246 158.809 592.598C159.825 592.285 174.171 581.768 175.5 580.673C175.5 579.539 174.444 572.619 173.35 565.895C174.679 566.559 176.008 567.146 177.415 567.693C179.565 581.338 182.496 599.362 183.278 600.965C185.037 601.082 199.617 602.646 201.767 601.825C202.51 601.043 209.663 584.778 210.249 583.175C209.702 582.198 205.285 576.724 200.985 571.407C202.47 571.329 203.956 571.173 205.402 570.938C214.08 581.69 225.65 595.843 227.135 596.82C228.699 596.078 242.106 590.135 243.552 588.336C243.787 587.32 241.871 569.648 241.559 567.928C240.581 567.38 234.054 564.839 227.682 562.376C228.894 561.555 230.106 560.695 231.278 559.756C244.178 564.722 261.259 571.173 263.057 571.329C264.034 569.882 272.673 558.036 273.025 555.729C272.712 554.713 262.197 540.364 261.103 539.035C259.969 539.035 253.051 540.09 246.327 541.185C246.992 539.856 247.578 538.526 248.125 537.158C261.767 535.008 279.787 532.075 281.39 531.293C281.507 529.534 283.07 514.951 282.249 512.801C281.468 512.058 265.207 504.903 263.604 504.316C262.627 504.864 257.155 509.282 251.839 513.582C251.761 512.097 251.604 510.611 251.37 509.164C262.119 500.485 276.269 488.912 277.246 487.426C276.503 485.863 270.562 472.452 268.764 471.006C267.748 470.771 250.08 472.687 248.36 473C247.813 473.977 245.272 480.506 242.809 486.879C241.989 485.667 241.129 484.455 240.191 483.321H240.151V483.321Z" stroke="#231F20" stroke-width="1.119" stroke-miterlimit="10"/>
</g>
<defs>
<radialGradient id="paint0_radial_19_32692" cx="0" cy="0" r="1" gradientUnits="userSpaceOnUse" gradientTransform="translate(597.34 516.83) scale(80.7388 80.7748)">
<stop offset="0.62" stop-color="#171717"/>
<stop offset="0.76" stop-color="#2C2C2C"/>
<stop offset="0.87" stop-color="#171717"/>
<stop offset="0.91" stop-color="#1A1A1A"/>
<stop offset="0.95" stop-color="#242424"/>
<stop offset="0.99" stop-color="#343434"/>
<stop offset="1" stop-color="#3F3F3F"/>
</radialGradient>
<radialGradient id="paint1_radial_19_32692" cx="0" cy="0" r="1" gradientUnits="userSpaceOnUse" gradientTransform="translate(596.871 518.195) scale(49.8267 49.8489)">
<stop offset="0.26" stop-color="#212121"/>
<stop offset="0.36" stop-color="#2A2A2A"/>
<stop offset="0.49" stop-color="#3F3F3F"/>
<stop offset="0.69" stop-color="#333333"/>
<stop offset="0.93" stop-color="#202020"/>
</radialGradient>
<radialGradient id="paint2_radial_19_32692" cx="0" cy="0" r="1" gradientUnits="userSpaceOnUse" gradientTransform="translate(596.598 517.101) scale(84.9594 84.9973)">
<stop offset="0.57" stop-color="#212121"/>
<stop offset="0.64" stop-color="#2A2A2A"/>
<stop offset="0.74" stop-color="#3F3F3F"/>
<stop offset="0.82" stop-color="#333333"/>
<stop offset="0.93" stop-color="#202020"/>
</radialGradient>
<radialGradient id="paint3_radial_19_32692" cx="0" cy="0" r="1" gradientUnits="userSpaceOnUse" gradientTransform="translate(596.91 518.235) scale(37.243 37.2596)">
<stop stop-color="#AEB0B7"/>
<stop offset="0.32" stop-color="#A9A9A8"/>
<stop offset="0.35" stop-color="#A9A9A6"/>
<stop offset="0.5" stop-color="#9A9D9E"/>
<stop offset="0.67" stop-color="#838C92"/>
<stop offset="1" stop-color="#657076"/>
</radialGradient>
<radialGradient id="paint4_radial_19_32692" cx="0" cy="0" r="1" gradientUnits="userSpaceOnUse" gradientTransform="translate(596.91 518.276) scale(33.4914 33.5063)">
<stop stop-color="white"/>
<stop offset="0.13" stop-color="#F0F0F0"/>
<stop offset="0.37" stop-color="#C9CACB"/>
<stop offset="0.52" stop-color="#ADAEB0"/>
<stop offset="0.6" stop-color="#A3A5A7"/>
<stop offset="0.74" stop-color="#898D8F"/>
<stop offset="0.91" stop-color="#5E6669"/>
<stop offset="1" stop-color="#465053"/>
</radialGradient>
<radialGradient id="paint5_radial_19_32692" cx="0" cy="0" r="1" gradientUnits="userSpaceOnUse" gradientTransform="translate(596.91 518.237) scale(31.1857 31.1996)">
<stop stop-color="#AEB0B7"/>
<stop offset="0.32" stop-color="#A9A9A8"/>
<stop offset="0.35" stop-color="#A9A9A6"/>
<stop offset="0.5" stop-color="#9A9D9E"/>
<stop offset="0.67" stop-color="#838C92"/>
<stop offset="1" stop-color="#657076"/>
</radialGradient>
<radialGradient id="paint6_radial_19_32692" cx="0" cy="0" r="1" gradientUnits="userSpaceOnUse" gradientTransform="translate(596.832 519.173) scale(14.4595 14.466)">
<stop offset="0.26" stop-color="#212121"/>
<stop offset="0.36" stop-color="#2A2A2A"/>
<stop offset="0.49" stop-color="#3F3F3F"/>
<stop offset="0.69" stop-color="#333333"/>
<stop offset="0.93" stop-color="#202020"/>
</radialGradient>
<radialGradient id="paint7_radial_19_32692" cx="0" cy="0" r="1" gradientUnits="userSpaceOnUse" gradientTransform="translate(606.328 521.362) scale(3.00915 3.01048)">
<stop stop-color="#AEB0B7"/>
<stop offset="0.32" stop-color="#A9A9A8"/>
<stop offset="0.35" stop-color="#A9A9A6"/>
<stop offset="0.5" stop-color="#9A9D9E"/>
<stop offset="0.67" stop-color="#838C92"/>
<stop offset="1" stop-color="#657076"/>
</radialGradient>
<radialGradient id="paint8_radial_19_32692" cx="0" cy="0" r="1" gradientUnits="userSpaceOnUse" gradientTransform="translate(602.772 510.22) scale(3.00915 3.01048)">
<stop stop-color="#AEB0B7"/>
<stop offset="0.32" stop-color="#A9A9A8"/>
<stop offset="0.35" stop-color="#A9A9A6"/>
<stop offset="0.5" stop-color="#9A9D9E"/>
<stop offset="0.67" stop-color="#838C92"/>
<stop offset="1" stop-color="#657076"/>
</radialGradient>
<radialGradient id="paint9_radial_19_32692" cx="0" cy="0" r="1" gradientUnits="userSpaceOnUse" gradientTransform="translate(596.871 518.235) scale(5.27578 5.27812)">
<stop stop-color="#AEB0B7"/>
<stop offset="0.32" stop-color="#A9A9A8"/>
<stop offset="0.35" stop-color="#A9A9A6"/>
<stop offset="0.5" stop-color="#9A9D9E"/>
<stop offset="0.67" stop-color="#838C92"/>
<stop offset="1" stop-color="#657076"/>
</radialGradient>
<radialGradient id="paint10_radial_19_32692" cx="0" cy="0" r="1" gradientUnits="userSpaceOnUse" gradientTransform="translate(596.91 518.236) scale(3.00913 3.01049)">
<stop stop-color="#AEB0B7"/>
<stop offset="0.32" stop-color="#A9A9A8"/>
<stop offset="0.35" stop-color="#A9A9A6"/>
<stop offset="0.5" stop-color="#9A9D9E"/>
<stop offset="0.67" stop-color="#838C92"/>
<stop offset="1" stop-color="#657076"/>
</radialGradient>
<radialGradient id="paint11_radial_19_32692" cx="0" cy="0" r="1" gradientUnits="userSpaceOnUse" gradientTransform="translate(596.832 528.168) scale(3.00915 3.01048)">
<stop stop-color="#AEB0B7"/>
<stop offset="0.32" stop-color="#A9A9A8"/>
<stop offset="0.35" stop-color="#A9A9A6"/>
<stop offset="0.5" stop-color="#9A9D9E"/>
<stop offset="0.67" stop-color="#838C92"/>
<stop offset="1" stop-color="#657076"/>
</radialGradient>
<radialGradient id="paint12_radial_19_32692" cx="0" cy="0" r="1" gradientUnits="userSpaceOnUse" gradientTransform="translate(591.087 510.181) scale(3.00914 3.01048)">
<stop stop-color="#AEB0B7"/>
<stop offset="0.32" stop-color="#A9A9A8"/>
<stop offset="0.35" stop-color="#A9A9A6"/>
<stop offset="0.5" stop-color="#9A9D9E"/>
<stop offset="0.67" stop-color="#838C92"/>
<stop offset="1" stop-color="#657076"/>
</radialGradient>
<radialGradient id="paint13_radial_19_32692" cx="0" cy="0" r="1" gradientUnits="userSpaceOnUse" gradientTransform="translate(587.414 521.287) scale(3.04821 3.04958)">
<stop stop-color="#AEB0B7"/>
<stop offset="0.32" stop-color="#A9A9A8"/>
<stop offset="0.35" stop-color="#A9A9A6"/>
<stop offset="0.5" stop-color="#9A9D9E"/>
<stop offset="0.67" stop-color="#838C92"/>
<stop offset="1" stop-color="#657076"/>
</radialGradient>
<radialGradient id="paint14_radial_19_32692" cx="0" cy="0" r="1" gradientUnits="userSpaceOnUse" gradientTransform="translate(198.171 516.83) scale(80.7562 80.7748)">
<stop offset="0.62" stop-color="#171717"/>
<stop offset="0.76" stop-color="#2C2C2C"/>
<stop offset="0.87" stop-color="#171717"/>
<stop offset="0.91" stop-color="#1A1A1A"/>
<stop offset="0.95" stop-color="#242424"/>
<stop offset="0.99" stop-color="#343434"/>
<stop offset="1" stop-color="#3F3F3F"/>
</radialGradient>
<radialGradient id="paint15_radial_19_32692" cx="0" cy="0" r="1" gradientUnits="userSpaceOnUse" gradientTransform="translate(197.741 518.195) scale(49.8375 49.8489)">
<stop offset="0.26" stop-color="#212121"/>
<stop offset="0.36" stop-color="#2A2A2A"/>
<stop offset="0.49" stop-color="#3F3F3F"/>
<stop offset="0.69" stop-color="#333333"/>
<stop offset="0.93" stop-color="#202020"/>
</radialGradient>
<radialGradient id="paint16_radial_19_32692" cx="0" cy="0" r="1" gradientUnits="userSpaceOnUse" gradientTransform="translate(197.467 517.101) scale(84.9778 84.9973)">
<stop offset="0.57" stop-color="#212121"/>
<stop offset="0.64" stop-color="#2A2A2A"/>
<stop offset="0.74" stop-color="#3F3F3F"/>
<stop offset="0.82" stop-color="#333333"/>
<stop offset="0.93" stop-color="#202020"/>
</radialGradient>
<radialGradient id="paint17_radial_19_32692" cx="0" cy="0" r="1" gradientUnits="userSpaceOnUse" gradientTransform="translate(197.741 518.235) scale(37.2511 37.2596)">
<stop stop-color="#AEB0B7"/>
<stop offset="0.32" stop-color="#A9A9A8"/>
<stop offset="0.35" stop-color="#A9A9A6"/>
<stop offset="0.5" stop-color="#9A9D9E"/>
<stop offset="0.67" stop-color="#838C92"/>
<stop offset="1" stop-color="#657076"/>
</radialGradient>
<radialGradient id="paint18_radial_19_32692" cx="0" cy="0" r="1" gradientUnits="userSpaceOnUse" gradientTransform="translate(197.741 518.276) scale(33.4986 33.5063)">
<stop stop-color="white"/>
<stop offset="0.13" stop-color="#F0F0F0"/>
<stop offset="0.37" stop-color="#C9CACB"/>
<stop offset="0.52" stop-color="#ADAEB0"/>
<stop offset="0.6" stop-color="#A3A5A7"/>
<stop offset="0.74" stop-color="#898D8F"/>
<stop offset="0.91" stop-color="#5E6669"/>
<stop offset="1" stop-color="#465053"/>
</radialGradient>
<radialGradient id="paint19_radial_19_32692" cx="0" cy="0" r="1" gradientUnits="userSpaceOnUse" gradientTransform="translate(197.741 518.237) scale(31.1924 31.1996)">
<stop stop-color="#AEB0B7"/>
<stop offset="0.32" stop-color="#A9A9A8"/>
<stop offset="0.35" stop-color="#A9A9A6"/>
<stop offset="0.5" stop-color="#9A9D9E"/>
<stop offset="0.67" stop-color="#838C92"/>
<stop offset="1" stop-color="#657076"/>
</radialGradient>
<radialGradient id="paint20_radial_19_32692" cx="0" cy="0" r="1" gradientUnits="userSpaceOnUse" gradientTransform="translate(197.702 519.176) scale(14.4235 14.4269)">
<stop offset="0.26" stop-color="#212121"/>
<stop offset="0.36" stop-color="#2A2A2A"/>
<stop offset="0.49" stop-color="#3F3F3F"/>
<stop offset="0.69" stop-color="#333333"/>
<stop offset="0.93" stop-color="#202020"/>
</radialGradient>
<radialGradient id="paint21_radial_19_32692" cx="0" cy="0" r="1" gradientUnits="userSpaceOnUse" gradientTransform="translate(207.161 521.362) scale(3.00979 3.01048)">
<stop stop-color="#AEB0B7"/>
<stop offset="0.32" stop-color="#A9A9A8"/>
<stop offset="0.35" stop-color="#A9A9A6"/>
<stop offset="0.5" stop-color="#9A9D9E"/>
<stop offset="0.67" stop-color="#838C92"/>
<stop offset="1" stop-color="#657076"/>
</radialGradient>
<radialGradient id="paint22_radial_19_32692" cx="0" cy="0" r="1" gradientUnits="userSpaceOnUse" gradientTransform="translate(203.604 510.222) scale(3.00979 3.01048)">
<stop stop-color="#AEB0B7"/>
<stop offset="0.32" stop-color="#A9A9A8"/>
<stop offset="0.35" stop-color="#A9A9A6"/>
<stop offset="0.5" stop-color="#9A9D9E"/>
<stop offset="0.67" stop-color="#838C92"/>
<stop offset="1" stop-color="#657076"/>
</radialGradient>
<radialGradient id="paint23_radial_19_32692" cx="0" cy="0" r="1" gradientUnits="userSpaceOnUse" gradientTransform="translate(197.741 518.235) scale(5.27691 5.27812)">
<stop stop-color="#AEB0B7"/>
<stop offset="0.32" stop-color="#A9A9A8"/>
<stop offset="0.35" stop-color="#A9A9A6"/>
<stop offset="0.5" stop-color="#9A9D9E"/>
<stop offset="0.67" stop-color="#838C92"/>
<stop offset="1" stop-color="#657076"/>
</radialGradient>
<radialGradient id="paint24_radial_19_32692" cx="0" cy="0" r="1" gradientUnits="userSpaceOnUse" gradientTransform="translate(197.742 518.236) scale(3.00979 3.01049)">
<stop stop-color="#AEB0B7"/>
<stop offset="0.32" stop-color="#A9A9A8"/>
<stop offset="0.35" stop-color="#A9A9A6"/>
<stop offset="0.5" stop-color="#9A9D9E"/>
<stop offset="0.67" stop-color="#838C92"/>
<stop offset="1" stop-color="#657076"/>
</radialGradient>
<radialGradient id="paint25_radial_19_32692" cx="0" cy="0" r="1" gradientUnits="userSpaceOnUse" gradientTransform="translate(197.702 528.168) scale(3.00979 3.01048)">
<stop stop-color="#AEB0B7"/>
<stop offset="0.32" stop-color="#A9A9A8"/>
<stop offset="0.35" stop-color="#A9A9A6"/>
<stop offset="0.5" stop-color="#9A9D9E"/>
<stop offset="0.67" stop-color="#838C92"/>
<stop offset="1" stop-color="#657076"/>
</radialGradient>
<radialGradient id="paint26_radial_19_32692" cx="0" cy="0" r="1" gradientUnits="userSpaceOnUse" gradientTransform="translate(191.916 510.181) scale(3.00979 3.01048)">
<stop stop-color="#AEB0B7"/>
<stop offset="0.32" stop-color="#A9A9A8"/>
<stop offset="0.35" stop-color="#A9A9A6"/>
<stop offset="0.5" stop-color="#9A9D9E"/>
<stop offset="0.67" stop-color="#838C92"/>
<stop offset="1" stop-color="#657076"/>
</radialGradient>
<radialGradient id="paint27_radial_19_32692" cx="0" cy="0" r="1" gradientUnits="userSpaceOnUse" gradientTransform="translate(188.242 521.287) scale(3.04888 3.04958)">
<stop stop-color="#AEB0B7"/>
<stop offset="0.32" stop-color="#A9A9A8"/>
<stop offset="0.35" stop-color="#A9A9A6"/>
<stop offset="0.5" stop-color="#9A9D9E"/>
<stop offset="0.67" stop-color="#838C92"/>
<stop offset="1" stop-color="#657076"/>
</radialGradient>
<clipPath id="clip0_19_32692">
<rect width="574.766" height="173.832" fill="white" transform="translate(111.7 432.317)"/>
</clipPath>
</defs>
</svg>
