<svg width="800" height="800" viewBox="0 0 800 800" fill="none" xmlns="http://www.w3.org/2000/svg">
<g clip-path="url(#clip0_19_32692)">
<path d="M256.641 527.822C255.826 532.475 254.419 536.959 252.563 541.16C253.575 541.414 254.532 541.639 255.404 541.837C253.266 546.687 250.538 551.227 247.247 555.288L244.125 554.526C241.171 558.107 237.711 561.294 233.942 564.001C234.702 564.734 235.405 565.383 236.08 566.031C231.889 569.133 227.276 571.699 222.326 573.645L219.991 571.445C215.687 572.968 211.159 574.04 206.433 574.519C206.743 575.478 207.024 576.465 207.277 577.339C205.083 577.593 202.861 577.705 200.611 577.705C197.517 577.705 194.479 577.48 191.526 577.029L190.626 573.955C185.985 573.137 181.54 571.727 177.349 569.866C177.096 570.881 176.871 571.84 176.674 572.714C171.808 570.571 167.308 567.836 163.201 564.537L163.961 561.407C160.388 558.389 157.21 554.977 154.51 551.199C153.778 551.96 153.131 552.665 152.484 553.342C149.39 549.14 146.831 544.516 144.89 539.553L147.112 537.212C145.537 532.898 144.496 528.358 144.018 523.621C143.062 523.931 142.077 524.213 141.205 524.467C140.952 522.267 140.84 520.039 140.84 517.784C140.84 514.682 141.093 511.636 141.515 508.675L144.581 507.773C145.424 503.12 146.803 498.665 148.659 494.463C147.646 494.21 146.69 493.984 145.818 493.787C147.956 488.908 150.684 484.396 153.975 480.279L157.097 481.041C160.107 477.46 163.511 474.273 167.28 471.566C166.52 470.833 165.817 470.184 165.142 469.536C169.333 466.434 173.946 463.868 178.924 461.922L181.259 464.15C185.563 462.571 190.063 461.527 194.789 461.048H194.817C194.507 460.089 194.226 459.102 193.973 458.228C196.167 457.974 198.389 457.862 200.639 457.862C203.705 457.862 206.743 458.115 209.696 458.538L210.596 461.612C215.237 462.458 219.71 463.84 223.901 465.701C224.126 464.686 224.379 463.727 224.576 462.853C229.414 464.996 233.942 467.731 237.993 471.03L237.261 474.16C240.777 477.178 243.984 480.59 246.684 484.368C247.415 483.607 248.062 482.902 248.709 482.225C251.803 486.427 254.363 491.051 256.304 496.042L254.11 498.355C255.629 502.669 256.698 507.209 257.204 511.946C258.16 511.664 259.117 511.382 259.989 511.129C260.242 513.328 260.354 515.556 260.354 517.812C260.354 520.885 260.129 523.931 259.679 526.892L256.613 527.794H256.641V527.822ZM237.121 517.868C237.121 497.65 220.75 481.266 200.611 481.266C180.472 481.266 164.101 497.65 164.101 517.868C164.101 538.086 180.443 554.47 200.611 554.47C220.779 554.47 237.121 538.058 237.121 517.868V517.868Z" fill="url(#paint0_radial_19_32692)"/>
<path d="M200.611 481.239C220.75 481.239 237.121 497.623 237.121 517.841C237.121 538.059 220.75 554.443 200.611 554.443C180.471 554.443 164.101 538.031 164.101 517.841C164.101 497.651 180.443 481.239 200.611 481.239V481.239ZM233.323 517.841C233.323 499.709 218.669 485.018 200.611 485.018C182.553 485.018 167.87 499.709 167.87 517.841C167.87 535.973 182.525 550.636 200.611 550.636C218.697 550.636 233.323 535.944 233.323 517.841Z" fill="url(#paint1_radial_19_32692)"/>
<path d="M224.464 508.674C226.18 511.522 225.308 515.216 222.495 516.937C219.682 518.685 215.997 517.811 214.254 514.991C212.538 512.143 213.41 508.449 216.223 506.729C219.035 504.98 222.72 505.854 224.464 508.674Z" fill="url(#paint2_radial_19_32692)"/>
<path d="M200.611 485.017C218.669 485.017 233.323 499.708 233.323 517.84C233.323 535.972 218.669 550.635 200.611 550.635C182.553 550.635 167.87 535.943 167.87 517.84C167.87 499.736 182.524 485.017 200.611 485.017ZM231.073 517.84C231.073 500.977 217.431 487.273 200.611 487.273C183.79 487.273 170.12 500.949 170.12 517.84C170.12 534.731 183.762 548.379 200.611 548.379C217.459 548.379 231.073 534.703 231.073 517.84Z" fill="url(#paint3_radial_19_32692)"/>
<path d="M200.611 487.272C217.403 487.272 231.073 500.948 231.073 517.839C231.073 534.73 217.431 548.378 200.611 548.378C183.791 548.378 170.121 534.702 170.121 517.839C170.121 500.976 183.762 487.272 200.611 487.272V487.272ZM222.494 516.909C225.307 515.188 226.179 511.494 224.463 508.646C222.719 505.827 219.035 504.952 216.222 506.701C213.409 508.421 212.537 512.115 214.253 514.963C215.997 517.783 219.682 518.657 222.494 516.909ZM216.644 537.719C218.781 535.181 218.5 531.403 215.969 529.26C213.437 527.088 209.668 527.398 207.53 529.936C205.365 532.446 205.674 536.225 208.205 538.396C210.709 540.567 214.478 540.257 216.644 537.719ZM212.621 521.787C213.128 520.208 212.284 518.572 210.737 518.036C209.162 517.529 207.53 518.375 206.996 519.926C206.49 521.505 207.333 523.169 208.881 523.676C210.456 524.184 212.115 523.338 212.621 521.787ZM208.712 511.692C209.668 510.366 209.387 508.505 208.093 507.547C206.743 506.588 204.914 506.87 203.93 508.167C202.946 509.464 203.283 511.325 204.577 512.312C205.871 513.299 207.727 512.989 208.712 511.692ZM202.102 503.853C205.308 503.063 207.277 499.848 206.546 496.634C205.758 493.419 202.524 491.445 199.289 492.207C196.054 492.968 194.113 496.211 194.873 499.425C195.632 502.64 198.867 504.614 202.074 503.853H202.102ZM205.73 517.783C205.73 514.935 203.452 512.622 200.611 512.622C197.77 512.622 195.464 514.935 195.464 517.783C195.464 520.631 197.77 522.915 200.611 522.915C203.452 522.915 205.73 520.631 205.73 517.783V517.783ZM200.555 530.472C202.186 530.5 203.508 529.147 203.508 527.539C203.508 525.932 202.186 524.579 200.583 524.579C198.98 524.579 197.629 525.904 197.629 527.511C197.629 529.119 198.951 530.472 200.555 530.472ZM196.645 512.284C197.995 511.325 198.276 509.464 197.32 508.139C196.364 506.785 194.507 506.503 193.185 507.462C191.835 508.421 191.554 510.282 192.51 511.607C193.467 512.961 195.323 513.243 196.645 512.284ZM194.479 535.999C195.717 532.925 194.254 529.429 191.188 528.132C188.122 526.891 184.634 528.357 183.369 531.431C182.103 534.504 183.566 538.001 186.603 539.27C189.669 540.567 193.157 539.073 194.451 536.027L194.479 535.999ZM192.229 523.563C193.804 523.056 194.62 521.364 194.17 519.841C193.663 518.262 191.976 517.388 190.457 517.895C188.882 518.403 188.01 520.095 188.516 521.618C189.022 523.197 190.71 524.015 192.229 523.563ZM187.869 512.002C188.122 508.675 185.647 505.798 182.328 505.545C179.037 505.291 176.168 507.772 175.915 511.1C175.662 514.399 178.137 517.303 181.4 517.557C184.719 517.811 187.588 515.329 187.841 512.002H187.869Z" fill="url(#paint4_radial_19_32692)"/>
<path d="M215.969 529.287C218.5 531.43 218.782 535.209 216.644 537.747C214.478 540.285 210.709 540.595 208.205 538.424C205.674 536.252 205.365 532.474 207.53 529.964C209.668 527.426 213.437 527.116 215.969 529.287Z" fill="url(#paint5_radial_19_32692)"/>
<path d="M210.765 518.064C212.284 518.6 213.128 520.264 212.649 521.815C212.143 523.337 210.455 524.183 208.908 523.704C207.39 523.196 206.546 521.504 207.024 519.954C207.558 518.431 209.218 517.585 210.765 518.064Z" fill="url(#paint6_radial_19_32692)"/>
<path d="M208.093 507.605C209.415 508.536 209.696 510.425 208.712 511.75C207.727 513.076 205.899 513.358 204.577 512.371C203.255 511.384 202.945 509.551 203.93 508.226C204.914 506.9 206.743 506.618 208.093 507.605Z" fill="url(#paint7_radial_19_32692)"/>
<path d="M206.547 496.662C207.306 499.877 205.337 503.12 202.102 503.881C198.868 504.643 195.661 502.697 194.902 499.454C194.142 496.211 196.083 492.997 199.318 492.235C202.552 491.474 205.787 493.42 206.575 496.662H206.547V496.662Z" fill="url(#paint8_radial_19_32692)"/>
<path d="M200.611 512.68C203.452 512.68 205.731 514.992 205.731 517.84C205.731 520.688 203.452 522.972 200.611 522.972C197.771 522.972 195.464 520.688 195.464 517.84C195.464 514.992 197.771 512.68 200.611 512.68V512.68Z" fill="url(#paint9_radial_19_32692)"/>
<path d="M203.509 527.57C203.509 529.206 202.159 530.531 200.556 530.503C198.924 530.503 197.63 529.177 197.63 527.542C197.63 525.906 198.98 524.609 200.584 524.609C202.187 524.609 203.509 525.963 203.509 527.57Z" fill="url(#paint10_radial_19_32692)"/>
<path d="M197.32 508.197C198.248 509.522 197.967 511.355 196.645 512.342C195.323 513.272 193.495 512.99 192.51 511.665C191.582 510.34 191.863 508.507 193.185 507.52C194.507 506.589 196.336 506.871 197.32 508.197Z" fill="url(#paint11_radial_19_32692)"/>
<path d="M191.217 528.161C194.282 529.458 195.745 532.954 194.508 536.028C193.214 539.102 189.726 540.568 186.66 539.271C183.594 538.03 182.159 534.505 183.425 531.432C184.691 528.358 188.179 526.892 191.245 528.132H191.217V528.161Z" fill="url(#paint12_radial_19_32692)"/>
<path d="M194.171 519.897C194.649 521.42 193.805 523.112 192.23 523.619C190.711 524.099 189.023 523.253 188.517 521.674C188.011 520.151 188.883 518.459 190.458 517.951C191.977 517.444 193.665 518.318 194.171 519.897Z" fill="url(#paint13_radial_19_32692)"/>
<path d="M182.329 505.629C185.648 505.883 188.095 508.759 187.87 512.087C187.645 515.414 184.748 517.867 181.428 517.642C178.138 517.388 175.69 514.483 175.944 511.184C176.197 507.857 179.066 505.404 182.357 505.629H182.329Z" fill="url(#paint14_radial_19_32692)"/>
<path d="M643.989 484.397C644.721 483.635 645.368 482.93 646.015 482.254C649.109 486.455 651.668 491.08 653.609 496.071L651.415 498.383C652.934 502.697 654.003 507.237 654.509 511.975C655.466 511.693 656.422 511.411 657.294 511.157C657.547 513.357 657.659 515.584 657.659 517.84C657.659 520.914 657.434 523.959 656.984 526.92L653.918 527.822C653.103 532.475 651.696 536.959 649.84 541.16C650.853 541.414 651.809 541.64 652.681 541.837C650.543 546.687 647.815 551.227 644.524 555.288L641.402 554.526C638.448 558.108 634.989 561.294 631.219 564.001C631.979 564.734 632.682 565.383 633.357 566.031C629.166 569.133 624.553 571.699 619.603 573.645L617.268 571.446C612.965 572.968 608.436 574.04 603.711 574.519C604.02 575.478 604.301 576.465 604.554 577.339C602.36 577.593 600.138 577.706 597.888 577.706C594.794 577.706 591.756 577.48 588.803 577.029L587.903 573.955C583.262 573.137 578.817 571.728 574.626 569.866C574.373 570.882 574.148 571.84 573.951 572.714C569.085 570.571 564.585 567.836 560.478 564.537L561.238 561.407C557.665 558.39 554.487 554.978 551.787 551.199C551.055 551.96 550.408 552.665 549.762 553.342C546.667 549.14 544.108 544.516 542.167 539.553L544.389 537.212C542.814 532.898 541.773 528.358 541.295 523.621C540.339 523.931 539.354 524.213 538.482 524.467C538.229 522.267 538.117 520.04 538.117 517.784C538.117 514.682 538.37 511.636 538.792 508.676L541.858 507.773C542.701 503.12 544.08 498.665 545.936 494.463C544.924 494.21 543.967 493.984 543.095 493.787C545.233 488.908 547.961 484.397 551.252 480.28L554.374 481.041C557.384 477.46 560.788 474.273 564.557 471.566C563.797 470.833 563.094 470.185 562.419 469.536C566.61 466.434 571.223 463.868 576.202 461.922L578.536 464.15C582.84 462.571 587.34 461.528 592.066 461.048C591.756 460.089 591.475 459.102 591.222 458.228C593.416 457.975 595.638 457.862 597.888 457.862C600.954 457.862 603.992 458.116 606.945 458.539L607.845 461.612C612.486 462.458 616.959 463.84 621.15 465.701C621.375 464.686 621.628 463.727 621.825 462.853C626.663 464.996 631.191 467.731 635.242 471.03L634.51 474.161C638.026 477.178 641.233 480.59 643.933 484.368L643.989 484.397ZM634.398 517.868C634.398 497.65 618.028 481.267 597.888 481.267C577.749 481.267 561.378 497.65 561.378 517.868C561.378 538.087 577.72 554.47 597.888 554.47C618.056 554.47 634.398 538.058 634.398 517.868V517.868Z" fill="url(#paint15_radial_19_32692)"/>
<path d="M597.916 481.239C618.055 481.239 634.426 497.623 634.426 517.841C634.426 538.059 618.055 554.443 597.916 554.443C577.776 554.443 561.406 538.031 561.406 517.841C561.406 497.651 577.748 481.239 597.916 481.239V481.239ZM630.628 517.841C630.628 499.709 615.974 485.018 597.916 485.018C579.858 485.018 565.175 499.709 565.175 517.841C565.175 535.973 579.83 550.636 597.916 550.636C616.002 550.636 630.628 535.945 630.628 517.841V517.841Z" fill="url(#paint16_radial_19_32692)"/>
<path d="M621.768 508.674C623.484 511.523 622.612 515.217 619.799 516.937C616.986 518.685 613.302 517.811 611.558 514.991C609.842 512.143 610.714 508.449 613.527 506.729C616.34 504.98 620.024 505.855 621.768 508.674Z" fill="url(#paint17_radial_19_32692)"/>
<path d="M597.916 485.017C615.974 485.017 630.629 499.708 630.629 517.84C630.629 535.972 615.974 550.635 597.916 550.635C579.858 550.635 565.175 535.943 565.175 517.84C565.175 499.737 579.83 485.017 597.916 485.017V485.017ZM628.378 517.84C628.378 500.977 614.736 487.273 597.916 487.273C581.096 487.273 567.426 500.949 567.426 517.84C567.426 534.731 581.068 548.379 597.916 548.379C614.765 548.379 628.378 534.703 628.378 517.84Z" fill="url(#paint18_radial_19_32692)"/>
<path d="M597.915 487.272C614.707 487.272 628.377 500.948 628.377 517.839C628.377 534.73 614.735 548.378 597.915 548.378C581.094 548.378 567.424 534.702 567.424 517.839C567.424 500.976 581.066 487.272 597.915 487.272V487.272ZM619.798 516.909C622.611 515.188 623.483 511.494 621.767 508.646C620.023 505.827 616.338 504.952 613.525 506.701C610.713 508.421 609.841 512.115 611.557 514.963C613.3 517.783 616.985 518.657 619.798 516.909ZM613.947 537.719C616.085 535.181 615.804 531.403 613.272 529.26C610.741 527.088 606.972 527.398 604.834 529.936C602.668 532.446 602.978 536.225 605.509 538.396C608.012 540.567 611.782 540.257 613.947 537.719ZM609.925 521.787C610.431 520.208 609.588 518.572 608.041 518.037C606.465 517.529 604.834 518.375 604.3 519.926C603.793 521.505 604.637 523.169 606.184 523.676C607.759 524.184 609.419 523.338 609.925 521.787ZM606.015 511.692C606.972 510.367 606.69 508.505 605.397 507.547C604.046 506.588 602.218 506.87 601.234 508.167C600.249 509.464 600.587 511.325 601.881 512.312C603.174 513.299 605.031 512.989 606.015 511.692ZM599.405 503.853C602.612 503.063 604.581 499.848 603.85 496.634C603.062 493.419 599.827 491.445 596.593 492.207C593.358 492.968 591.417 496.211 592.177 499.425C592.936 502.64 596.171 504.614 599.377 503.853H599.405ZM603.034 517.783C603.034 514.935 600.756 512.622 597.915 512.622C595.074 512.622 592.767 514.935 592.767 517.783C592.767 520.631 595.074 522.915 597.915 522.915C600.756 522.915 603.034 520.631 603.034 517.783V517.783ZM597.858 530.472C599.49 530.5 600.812 529.147 600.812 527.539C600.812 525.932 599.49 524.579 597.886 524.579C596.283 524.579 594.933 525.904 594.933 527.511C594.933 529.119 596.255 530.472 597.858 530.472ZM593.949 512.284C595.299 511.325 595.58 509.464 594.624 508.139C593.667 506.785 591.811 506.503 590.489 507.462C589.139 508.421 588.857 510.282 589.814 511.607C590.77 512.961 592.627 513.243 593.949 512.284ZM591.783 535.999C593.02 532.925 591.558 529.429 588.492 528.132C585.426 526.891 581.938 528.357 580.672 531.431C579.407 534.504 580.869 538.001 583.907 539.27C586.973 540.567 590.461 539.073 591.755 536.027H591.783V535.999ZM589.533 523.563C591.108 523.056 591.923 521.364 591.473 519.841C590.967 518.262 589.279 517.388 587.761 517.896C586.185 518.403 585.313 520.095 585.82 521.618C586.326 523.197 588.014 524.015 589.533 523.563ZM585.173 512.002C585.426 508.675 582.951 505.798 579.632 505.545C576.341 505.291 573.472 507.772 573.218 511.1C572.965 514.399 575.441 517.303 578.703 517.557C582.022 517.811 584.891 515.329 585.145 512.002H585.173V512.002Z" fill="url(#paint19_radial_19_32692)"/>
<path d="M613.274 529.287C615.806 531.43 616.087 535.209 613.949 537.747C611.784 540.285 608.014 540.595 605.511 538.424C602.98 536.252 602.67 532.474 604.836 529.964C606.974 527.426 610.743 527.116 613.274 529.287Z" fill="url(#paint20_radial_19_32692)"/>
<path d="M608.041 518.064C609.56 518.6 610.404 520.264 609.926 521.815C609.419 523.337 607.732 524.183 606.185 523.704C604.666 523.196 603.822 521.505 604.3 519.954C604.834 518.431 606.494 517.585 608.041 518.064Z" fill="url(#paint21_radial_19_32692)"/>
<path d="M605.398 507.605C606.72 508.536 607.001 510.425 606.017 511.75C605.032 513.076 603.204 513.358 601.882 512.371C600.56 511.384 600.25 509.551 601.235 508.226C602.219 506.9 604.048 506.618 605.398 507.605Z" fill="url(#paint22_radial_19_32692)"/>
<path d="M603.85 496.662C604.61 499.877 602.641 503.12 599.406 503.881C596.171 504.643 592.965 502.697 592.205 499.454C591.446 496.211 593.387 492.997 596.621 492.235C599.856 491.474 603.091 493.42 603.878 496.662H603.85V496.662Z" fill="url(#paint23_radial_19_32692)"/>
<path d="M597.915 512.68C600.756 512.68 603.034 514.992 603.034 517.84C603.034 520.688 600.756 522.973 597.915 522.973C595.074 522.973 592.768 520.688 592.768 517.84C592.768 514.992 595.074 512.68 597.915 512.68V512.68Z" fill="url(#paint24_radial_19_32692)"/>
<path d="M600.813 527.57C600.813 529.206 599.463 530.531 597.859 530.503C596.228 530.503 594.934 529.177 594.934 527.542C594.934 525.906 596.284 524.609 597.887 524.609C599.491 524.609 600.813 525.963 600.813 527.57Z" fill="url(#paint25_radial_19_32692)"/>
<path d="M594.625 508.197C595.553 509.522 595.272 511.355 593.95 512.342C592.628 513.273 590.8 512.991 589.815 511.665C588.887 510.34 589.168 508.507 590.49 507.52C591.812 506.59 593.64 506.871 594.625 508.197Z" fill="url(#paint26_radial_19_32692)"/>
<path d="M588.493 528.161C591.559 529.458 593.022 532.954 591.784 536.028C590.49 539.102 587.003 540.568 583.937 539.271C580.871 538.03 579.436 534.505 580.702 531.432C581.968 528.358 585.456 526.892 588.521 528.132H588.493V528.161Z" fill="url(#paint27_radial_19_32692)"/>
<path d="M591.474 519.897C591.952 521.42 591.108 523.112 589.533 523.619C588.014 524.099 586.326 523.253 585.82 521.674C585.314 520.151 586.186 518.459 587.761 517.951C589.28 517.444 590.967 518.318 591.474 519.897Z" fill="url(#paint28_radial_19_32692)"/>
<path d="M579.632 505.629C582.951 505.883 585.398 508.759 585.173 512.087C584.948 515.414 582.051 517.867 578.732 517.642C575.441 517.388 572.994 514.484 573.247 511.184C573.5 507.857 576.369 505.404 579.66 505.629H579.632V505.629Z" fill="url(#paint29_radial_19_32692)"/>
<path d="M200.611 550.637C218.677 550.637 233.323 535.954 233.323 517.842C233.323 499.73 218.677 485.047 200.611 485.047C182.544 485.047 167.898 499.73 167.898 517.842C167.898 535.954 182.544 550.637 200.611 550.637Z" stroke="#231F20" stroke-width="1.119" stroke-miterlimit="10"/>
<path d="M200.612 554.443C220.776 554.443 237.122 538.056 237.122 517.841C237.122 497.627 220.776 481.24 200.612 481.24C180.448 481.24 164.102 497.627 164.102 517.841C164.102 538.056 180.448 554.443 200.612 554.443Z" stroke="#231F20" stroke-width="0.699377" stroke-miterlimit="10"/>
<path d="M200.611 548.381C217.435 548.381 231.074 534.708 231.074 517.842C231.074 500.976 217.435 487.303 200.611 487.303C183.787 487.303 170.149 500.976 170.149 517.842C170.149 534.708 183.787 548.381 200.611 548.381Z" stroke="#231F20" stroke-width="0.699377" stroke-miterlimit="10"/>
<path d="M200.611 523.002C203.454 523.002 205.759 520.692 205.759 517.842C205.759 514.992 203.454 512.682 200.611 512.682C197.768 512.682 195.464 514.992 195.464 517.842C195.464 520.692 197.768 523.002 200.611 523.002Z" stroke="#231F20" stroke-width="0.699377" stroke-miterlimit="10"/>
<path d="M212.088 539.865C215.397 539.865 218.079 537.176 218.079 533.859C218.079 530.542 215.397 527.853 212.088 527.853C208.779 527.853 206.097 530.542 206.097 533.859C206.097 537.176 208.779 539.865 212.088 539.865Z" stroke="#231F20" stroke-width="1.39875" stroke-miterlimit="10"/>
<path d="M188.939 539.751C192.248 539.751 194.93 537.062 194.93 533.745C194.93 530.427 192.248 527.738 188.939 527.738C185.63 527.738 182.948 530.427 182.948 533.745C182.948 537.062 185.63 539.751 188.939 539.751Z" stroke="#231F20" stroke-width="1.39875" stroke-miterlimit="10"/>
<path d="M181.908 517.643C185.217 517.643 187.899 514.954 187.899 511.637C187.899 508.319 185.217 505.63 181.908 505.63C178.599 505.63 175.917 508.319 175.917 511.637C175.917 514.954 178.599 517.643 181.908 517.643Z" stroke="#231F20" stroke-width="1.39875" stroke-miterlimit="10"/>
<path d="M200.697 504.08C204.006 504.08 206.688 501.391 206.688 498.073C206.688 494.756 204.006 492.067 200.697 492.067C197.388 492.067 194.706 494.756 194.706 498.073C194.706 501.391 197.388 504.08 200.697 504.08Z" stroke="#231F20" stroke-width="1.39875" stroke-miterlimit="10"/>
<path d="M219.374 517.843C222.683 517.843 225.365 515.154 225.365 511.837C225.365 508.52 222.683 505.831 219.374 505.831C216.065 505.831 213.383 508.52 213.383 511.837C213.383 515.154 216.065 517.843 219.374 517.843Z" stroke="#231F20" stroke-width="1.39875" stroke-miterlimit="10"/>
<path d="M200.556 530.527C202.187 530.527 203.509 529.202 203.509 527.567C203.509 525.931 202.187 524.606 200.556 524.606C198.925 524.606 197.602 525.931 197.602 527.567C197.602 529.202 198.925 530.527 200.556 530.527Z" stroke="#231F20" stroke-width="0.699377" stroke-miterlimit="10"/>
<path d="M191.358 523.762C192.989 523.762 194.311 522.437 194.311 520.802C194.311 519.166 192.989 517.841 191.358 517.841C189.726 517.841 188.404 519.166 188.404 520.802C188.404 522.437 189.726 523.762 191.358 523.762Z" stroke="#231F20" stroke-width="0.699377" stroke-miterlimit="10"/>
<path d="M194.93 512.877C196.561 512.877 197.883 511.552 197.883 509.916C197.883 508.281 196.561 506.956 194.93 506.956C193.299 506.956 191.977 508.281 191.977 509.916C191.977 511.552 193.299 512.877 194.93 512.877Z" stroke="#231F20" stroke-width="0.699377" stroke-miterlimit="10"/>
<path d="M206.351 512.935C207.982 512.935 209.304 511.609 209.304 509.974C209.304 508.339 207.982 507.013 206.351 507.013C204.72 507.013 203.397 508.339 203.397 509.974C203.397 511.609 204.72 512.935 206.351 512.935Z" stroke="#231F20" stroke-width="0.699377" stroke-miterlimit="10"/>
<path d="M209.838 523.848C211.469 523.848 212.791 522.523 212.791 520.888C212.791 519.252 211.469 517.927 209.838 517.927C208.207 517.927 206.885 519.252 206.885 520.888C206.885 522.523 208.207 523.848 209.838 523.848Z" stroke="#231F20" stroke-width="0.699377" stroke-miterlimit="10"/>
<path d="M203.169 563.44C203.872 566.739 205.954 572.858 207.248 577.398C205.054 577.652 202.831 577.765 200.609 577.765C197.515 577.765 194.506 577.539 191.552 577.088L187.277 562.735" stroke="#231F20" stroke-width="1.119" stroke-linecap="round" stroke-linejoin="round"/>
<path d="M180.077 558.617C179.036 561.832 177.798 568.176 176.645 572.773C171.779 570.63 167.279 567.894 163.2 564.595L166.66 550.017" stroke="#231F20" stroke-width="1.119" stroke-linecap="round" stroke-linejoin="round"/>
<path d="M162.497 542.883C159.994 545.139 155.746 550.017 152.484 553.401C149.39 549.2 146.83 544.547 144.889 539.612L155.156 528.699" stroke="#231F20" stroke-width="1.119" stroke-linecap="round" stroke-linejoin="round"/>
<path d="M155.1 520.406C151.809 521.111 145.705 523.198 141.177 524.495C140.923 522.296 140.811 520.068 140.811 517.812C140.811 514.71 141.036 511.693 141.486 508.732L155.803 504.446" stroke="#231F20" stroke-width="1.119" stroke-linecap="round" stroke-linejoin="round"/>
<path d="M159.91 497.255C156.703 496.211 150.374 494.971 145.79 493.814C147.927 488.936 150.656 484.424 153.947 480.336L168.489 483.804" stroke="#231F20" stroke-width="1.119" stroke-linecap="round" stroke-linejoin="round"/>
<path d="M175.634 479.633C173.384 477.124 168.518 472.866 165.143 469.595C169.334 466.493 173.975 463.927 178.897 461.981L189.782 472.274" stroke="#231F20" stroke-width="1.119" stroke-linecap="round" stroke-linejoin="round"/>
<path d="M198.023 472.216C197.32 468.917 195.238 462.798 193.945 458.258C196.139 458.004 198.361 457.891 200.583 457.891C203.677 457.891 206.686 458.117 209.64 458.568L213.915 472.921" stroke="#231F20" stroke-width="1.119" stroke-linecap="round" stroke-linejoin="round"/>
<path d="M221.117 477.039C222.157 473.825 223.395 467.48 224.548 462.884C229.414 465.027 233.915 467.762 237.993 471.061L234.533 485.64" stroke="#231F20" stroke-width="1.119" stroke-linecap="round" stroke-linejoin="round"/>
<path d="M238.724 492.802C241.227 490.546 245.474 485.667 248.737 482.284C251.831 486.485 254.391 491.138 256.332 496.073L246.065 506.986" stroke="#231F20" stroke-width="1.119" stroke-linecap="round" stroke-linejoin="round"/>
<path d="M246.094 515.247C249.385 514.542 255.488 512.456 260.017 511.158C260.27 513.358 260.383 515.586 260.383 517.842C260.383 520.943 260.158 523.961 259.707 526.921L245.39 531.208" stroke="#231F20" stroke-width="1.119" stroke-linecap="round" stroke-linejoin="round"/>
<path d="M241.283 538.397C244.489 539.441 250.818 540.681 255.403 541.838C253.265 546.716 250.537 551.228 247.246 555.317L232.704 551.848" stroke="#231F20" stroke-width="1.119" stroke-linecap="round" stroke-linejoin="round"/>
<path d="M225.589 556.05C227.839 558.56 232.706 562.818 236.081 566.089C231.89 569.191 227.249 571.757 222.326 573.702L211.441 563.41" stroke="#231F20" stroke-width="1.119" stroke-linecap="round" stroke-linejoin="round"/>
<path d="M157.069 481.068C160.05 477.515 163.482 474.329 167.251 471.593" stroke="#231F20" stroke-width="1.119" stroke-linecap="round" stroke-linejoin="round"/>
<path d="M181.231 464.177C185.535 462.626 190.064 461.554 194.789 461.075" stroke="#231F20" stroke-width="1.119" stroke-linecap="round" stroke-linejoin="round"/>
<path d="M210.597 461.641C215.238 462.459 219.711 463.868 223.873 465.73" stroke="#231F20" stroke-width="1.119" stroke-linecap="round" stroke-linejoin="round"/>
<path d="M237.261 474.191C240.805 477.18 243.983 480.62 246.712 484.399" stroke="#231F20" stroke-width="1.119" stroke-linecap="round" stroke-linejoin="round"/>
<path d="M254.138 498.412C255.685 502.727 256.754 507.267 257.232 512.004" stroke="#231F20" stroke-width="1.119" stroke-linecap="round" stroke-linejoin="round"/>
<path d="M256.642 527.851C255.826 532.504 254.42 536.987 252.563 541.161" stroke="#231F20" stroke-width="1.119" stroke-linecap="round" stroke-linejoin="round"/>
<path d="M244.126 554.584C241.144 558.137 237.713 561.323 233.944 564.059" stroke="#231F20" stroke-width="1.119" stroke-linecap="round" stroke-linejoin="round"/>
<path d="M219.963 571.502C215.66 573.053 211.131 574.124 206.406 574.604" stroke="#231F20" stroke-width="1.119" stroke-linecap="round" stroke-linejoin="round"/>
<path d="M190.626 574.013C185.985 573.195 181.513 571.785 177.35 569.924" stroke="#231F20" stroke-width="1.119" stroke-linecap="round" stroke-linejoin="round"/>
<path d="M163.933 561.463C160.389 558.474 157.21 555.034 154.482 551.255" stroke="#231F20" stroke-width="1.119" stroke-linecap="round" stroke-linejoin="round"/>
<path d="M147.084 537.27C145.537 532.956 144.468 528.416 143.99 523.678" stroke="#231F20" stroke-width="1.119" stroke-linecap="round" stroke-linejoin="round"/>
<path d="M144.552 507.829C145.368 503.176 146.774 498.693 148.631 494.519" stroke="#231F20" stroke-width="1.119" stroke-linecap="round" stroke-linejoin="round"/>
<path d="M597.884 550.637C615.951 550.637 630.597 535.954 630.597 517.842C630.597 499.73 615.951 485.047 597.884 485.047C579.818 485.047 565.172 499.73 565.172 517.842C565.172 535.954 579.818 550.637 597.884 550.637Z" stroke="#231F20" stroke-width="1.119" stroke-miterlimit="10"/>
<path d="M597.885 554.443C618.049 554.443 634.395 538.056 634.395 517.842C634.395 497.627 618.049 481.24 597.885 481.24C577.721 481.24 561.375 497.627 561.375 517.842C561.375 538.056 577.721 554.443 597.885 554.443Z" stroke="#231F20" stroke-width="0.699377" stroke-miterlimit="10"/>
<path d="M597.885 548.382C614.709 548.382 628.347 534.709 628.347 517.843C628.347 500.976 614.709 487.303 597.885 487.303C581.061 487.303 567.422 500.976 567.422 517.843C567.422 534.709 581.061 548.382 597.885 548.382Z" stroke="#231F20" stroke-width="0.699377" stroke-miterlimit="10"/>
<path d="M597.885 523.003C600.727 523.003 603.032 520.692 603.032 517.842C603.032 514.992 600.727 512.682 597.885 512.682C595.042 512.682 592.737 514.992 592.737 517.842C592.737 520.692 595.042 523.003 597.885 523.003Z" stroke="#231F20" stroke-width="0.699377" stroke-miterlimit="10"/>
<path d="M609.391 539.866C612.699 539.866 615.382 537.177 615.382 533.859C615.382 530.542 612.699 527.853 609.391 527.853C606.082 527.853 603.399 530.542 603.399 533.859C603.399 537.177 606.082 539.866 609.391 539.866Z" stroke="#231F20" stroke-width="1.39875" stroke-miterlimit="10"/>
<path d="M586.242 539.751C589.55 539.751 592.233 537.062 592.233 533.745C592.233 530.428 589.55 527.739 586.242 527.739C582.933 527.739 580.25 530.428 580.25 533.745C580.25 537.062 582.933 539.751 586.242 539.751Z" stroke="#231F20" stroke-width="1.39875" stroke-miterlimit="10"/>
<path d="M579.181 517.644C582.49 517.644 585.172 514.955 585.172 511.638C585.172 508.32 582.49 505.631 579.181 505.631C575.872 505.631 573.19 508.32 573.19 511.638C573.19 514.955 575.872 517.644 579.181 517.644Z" stroke="#231F20" stroke-width="1.39875" stroke-miterlimit="10"/>
<path d="M597.998 504.08C601.307 504.08 603.989 501.391 603.989 498.074C603.989 494.756 601.307 492.067 597.998 492.067C594.689 492.067 592.007 494.756 592.007 498.074C592.007 501.391 594.689 504.08 597.998 504.08Z" stroke="#231F20" stroke-width="1.39875" stroke-miterlimit="10"/>
<path d="M616.647 517.844C619.956 517.844 622.639 515.154 622.639 511.837C622.639 508.52 619.956 505.831 616.647 505.831C613.339 505.831 610.656 508.52 610.656 511.837C610.656 515.154 613.339 517.844 616.647 517.844Z" stroke="#231F20" stroke-width="1.39875" stroke-miterlimit="10"/>
<path d="M597.856 530.528C599.487 530.528 600.81 529.202 600.81 527.567C600.81 525.932 599.487 524.606 597.856 524.606C596.225 524.606 594.903 525.932 594.903 527.567C594.903 529.202 596.225 530.528 597.856 530.528Z" stroke="#231F20" stroke-width="0.699377" stroke-miterlimit="10"/>
<path d="M588.63 523.763C590.262 523.763 591.584 522.437 591.584 520.802C591.584 519.167 590.262 517.841 588.63 517.841C586.999 517.841 585.677 519.167 585.677 520.802C585.677 522.437 586.999 523.763 588.63 523.763Z" stroke="#231F20" stroke-width="0.699377" stroke-miterlimit="10"/>
<path d="M592.203 512.878C593.834 512.878 595.156 511.552 595.156 509.917C595.156 508.281 593.834 506.956 592.203 506.956C590.572 506.956 589.249 508.281 589.249 509.917C589.249 511.552 590.572 512.878 592.203 512.878Z" stroke="#231F20" stroke-width="0.699377" stroke-miterlimit="10"/>
<path d="M603.65 512.935C605.281 512.935 606.603 511.61 606.603 509.974C606.603 508.339 605.281 507.014 603.65 507.014C602.019 507.014 600.696 508.339 600.696 509.974C600.696 511.61 602.019 512.935 603.65 512.935Z" stroke="#231F20" stroke-width="0.699377" stroke-miterlimit="10"/>
<path d="M607.111 523.849C608.742 523.849 610.064 522.523 610.064 520.888C610.064 519.253 608.742 517.927 607.111 517.927C605.48 517.927 604.157 519.253 604.157 520.888C604.157 522.523 605.48 523.849 607.111 523.849Z" stroke="#231F20" stroke-width="0.699377" stroke-miterlimit="10"/>
<path d="M600.472 563.44C601.176 566.739 603.257 572.858 604.551 577.398C602.357 577.652 600.135 577.765 597.913 577.765C594.819 577.765 591.809 577.539 588.856 577.088L584.58 562.735" stroke="#231F20" stroke-width="1.119" stroke-linecap="round" stroke-linejoin="round"/>
<path d="M577.379 558.617C576.339 561.832 575.101 568.177 573.948 572.773C569.082 570.63 564.581 567.895 560.503 564.595L563.962 550.017" stroke="#231F20" stroke-width="1.119" stroke-linecap="round" stroke-linejoin="round"/>
<path d="M559.773 542.882C557.27 545.138 553.023 550.017 549.76 553.4C546.666 549.199 544.106 544.546 542.165 539.611L552.432 528.699" stroke="#231F20" stroke-width="1.119" stroke-linecap="round" stroke-linejoin="round"/>
<path d="M552.403 520.407C549.112 521.112 543.008 523.198 538.479 524.495C538.226 522.296 538.114 520.068 538.114 517.812C538.114 514.711 538.339 511.693 538.789 508.732L553.106 504.446" stroke="#231F20" stroke-width="1.119" stroke-linecap="round" stroke-linejoin="round"/>
<path d="M557.213 497.255C554.006 496.212 547.677 494.971 543.093 493.815C545.23 488.936 547.959 484.425 551.25 480.336L565.792 483.804" stroke="#231F20" stroke-width="1.119" stroke-linecap="round" stroke-linejoin="round"/>
<path d="M572.907 479.634C570.657 477.124 565.791 472.866 562.416 469.595C566.607 466.493 571.248 463.927 576.17 461.981L587.056 472.274" stroke="#231F20" stroke-width="1.119" stroke-linecap="round" stroke-linejoin="round"/>
<path d="M595.326 472.216C594.623 468.917 592.541 462.798 591.247 458.258C593.441 458.004 595.663 457.892 597.885 457.892C600.979 457.892 603.989 458.117 606.943 458.568L611.218 472.921" stroke="#231F20" stroke-width="1.119" stroke-linecap="round" stroke-linejoin="round"/>
<path d="M618.419 477.04C619.46 473.825 620.698 467.48 621.851 462.884C626.717 465.027 631.217 467.762 635.296 471.062L631.836 485.64" stroke="#231F20" stroke-width="1.119" stroke-linecap="round" stroke-linejoin="round"/>
<path d="M635.998 492.802C638.502 490.546 642.749 485.668 646.012 482.284C649.106 486.485 651.665 491.138 653.606 496.073L643.34 506.986" stroke="#231F20" stroke-width="1.119" stroke-linecap="round" stroke-linejoin="round"/>
<path d="M643.396 515.247C646.687 514.543 652.791 512.456 657.319 511.159C657.572 513.358 657.685 515.586 657.685 517.842C657.685 520.944 657.46 523.961 657.01 526.922L642.693 531.208" stroke="#231F20" stroke-width="1.119" stroke-linecap="round" stroke-linejoin="round"/>
<path d="M638.585 538.398C641.792 539.441 648.121 540.682 652.705 541.838C650.568 546.716 647.839 551.228 644.548 555.317L630.006 551.848" stroke="#231F20" stroke-width="1.119" stroke-linecap="round" stroke-linejoin="round"/>
<path d="M622.863 556.05C625.113 558.56 629.979 562.818 633.354 566.089C629.163 569.191 624.522 571.757 619.6 573.703L608.714 563.41" stroke="#231F20" stroke-width="1.119" stroke-linecap="round" stroke-linejoin="round"/>
<path d="M554.372 481.068C557.353 477.515 560.785 474.329 564.554 471.594" stroke="#231F20" stroke-width="1.119" stroke-linecap="round" stroke-linejoin="round"/>
<path d="M578.505 464.177C582.809 462.626 587.338 461.555 592.063 461.075" stroke="#231F20" stroke-width="1.119" stroke-linecap="round" stroke-linejoin="round"/>
<path d="M607.871 461.641C612.512 462.459 616.985 463.869 621.147 465.73" stroke="#231F20" stroke-width="1.119" stroke-linecap="round" stroke-linejoin="round"/>
<path d="M634.564 474.191C638.108 477.18 641.286 480.62 644.015 484.399" stroke="#231F20" stroke-width="1.119" stroke-linecap="round" stroke-linejoin="round"/>
<path d="M651.413 498.413C652.96 502.727 654.029 507.267 654.507 512.004" stroke="#231F20" stroke-width="1.119" stroke-linecap="round" stroke-linejoin="round"/>
<path d="M653.944 527.851C653.128 532.504 651.722 536.987 649.865 541.161" stroke="#231F20" stroke-width="1.119" stroke-linecap="round" stroke-linejoin="round"/>
<path d="M641.428 554.584C638.446 558.137 635.015 561.324 631.246 564.059" stroke="#231F20" stroke-width="1.119" stroke-linecap="round" stroke-linejoin="round"/>
<path d="M617.266 571.502C612.962 573.053 608.434 574.124 603.708 574.604" stroke="#231F20" stroke-width="1.119" stroke-linecap="round" stroke-linejoin="round"/>
<path d="M587.9 574.013C583.259 573.195 578.786 571.785 574.623 569.924" stroke="#231F20" stroke-width="1.119" stroke-linecap="round" stroke-linejoin="round"/>
<path d="M561.235 561.463C557.691 558.474 554.513 555.034 551.784 551.256" stroke="#231F20" stroke-width="1.119" stroke-linecap="round" stroke-linejoin="round"/>
<path d="M544.358 537.27C542.811 532.956 541.743 528.416 541.264 523.678" stroke="#231F20" stroke-width="1.119" stroke-linecap="round" stroke-linejoin="round"/>
<path d="M541.855 507.829C542.671 503.177 544.077 498.693 545.933 494.52" stroke="#231F20" stroke-width="1.119" stroke-linecap="round" stroke-linejoin="round"/>
</g>
<defs>
<radialGradient id="paint0_radial_19_32692" cx="0" cy="0" r="1" gradientUnits="userSpaceOnUse" gradientTransform="translate(200.583 517.784) scale(59.7714 59.9219)">
<stop offset="0.62" stop-color="#212121"/>
<stop offset="0.7" stop-color="#2A2A2A"/>
<stop offset="0.75" stop-color="#333333"/>
<stop offset="0.85" stop-color="#272727"/>
<stop offset="0.9" stop-color="#202020"/>
<stop offset="1" stop-color="#353535"/>
</radialGradient>
<radialGradient id="paint1_radial_19_32692" cx="0" cy="0" r="1" gradientUnits="userSpaceOnUse" gradientTransform="translate(200.611 517.841) scale(36.5098 36.6017)">
<stop offset="0.26" stop-color="#212121"/>
<stop offset="0.36" stop-color="#2A2A2A"/>
<stop offset="0.49" stop-color="#3F3F3F"/>
<stop offset="0.69" stop-color="#333333"/>
<stop offset="0.93" stop-color="#202020"/>
</radialGradient>
<radialGradient id="paint2_radial_19_32692" cx="0" cy="0" r="1" gradientUnits="userSpaceOnUse" gradientTransform="translate(219.373 511.833) scale(5.9912 6.00629)">
<stop offset="0.69" stop-color="#171717"/>
<stop offset="0.8" stop-color="#1A1A1A"/>
<stop offset="0.89" stop-color="#242424"/>
<stop offset="0.97" stop-color="#343434"/>
<stop offset="1" stop-color="#3F3F3F"/>
</radialGradient>
<radialGradient id="paint3_radial_19_32692" cx="0" cy="0" r="1" gradientUnits="userSpaceOnUse" gradientTransform="translate(200.582 517.812) scale(32.7407 32.8231)">
<stop stop-color="white"/>
<stop offset="0.13" stop-color="#F0F0F0"/>
<stop offset="0.37" stop-color="#C9CACB"/>
<stop offset="0.52" stop-color="#ADAEB0"/>
<stop offset="0.6" stop-color="#A3A5A7"/>
<stop offset="0.74" stop-color="#898D8F"/>
<stop offset="0.91" stop-color="#5E6669"/>
<stop offset="1" stop-color="#465053"/>
</radialGradient>
<radialGradient id="paint4_radial_19_32692" cx="0" cy="0" r="1" gradientUnits="userSpaceOnUse" gradientTransform="translate(200.583 517.839) scale(30.4904 30.5672)">
<stop stop-color="white"/>
<stop offset="0.13" stop-color="#F0F0F0"/>
<stop offset="0.37" stop-color="#C9CACB"/>
<stop offset="0.52" stop-color="#ADAEB0"/>
<stop offset="0.6" stop-color="#A3A5A7"/>
<stop offset="0.74" stop-color="#898D8F"/>
<stop offset="0.91" stop-color="#5E6669"/>
<stop offset="1" stop-color="#465053"/>
</radialGradient>
<radialGradient id="paint5_radial_19_32692" cx="0" cy="0" r="1" gradientUnits="userSpaceOnUse" gradientTransform="translate(212.087 533.884) scale(5.9912 6.00629)">
<stop offset="0.69" stop-color="#171717"/>
<stop offset="0.8" stop-color="#1A1A1A"/>
<stop offset="0.89" stop-color="#242424"/>
<stop offset="0.97" stop-color="#343434"/>
<stop offset="1" stop-color="#3F3F3F"/>
</radialGradient>
<radialGradient id="paint6_radial_19_32692" cx="0" cy="0" r="1" gradientUnits="userSpaceOnUse" gradientTransform="translate(209.837 520.884) scale(2.95341 2.96085)">
<stop stop-color="white"/>
<stop offset="0.13" stop-color="#F0F0F0"/>
<stop offset="0.37" stop-color="#C9CACB"/>
<stop offset="0.52" stop-color="#ADAEB0"/>
<stop offset="0.6" stop-color="#A3A5A7"/>
<stop offset="0.74" stop-color="#898D8F"/>
<stop offset="0.91" stop-color="#5E6669"/>
<stop offset="1" stop-color="#465053"/>
</radialGradient>
<radialGradient id="paint7_radial_19_32692" cx="0" cy="0" r="1" gradientUnits="userSpaceOnUse" gradientTransform="translate(206.349 509.974) scale(2.95341 2.96085)">
<stop stop-color="white"/>
<stop offset="0.13" stop-color="#F0F0F0"/>
<stop offset="0.37" stop-color="#C9CACB"/>
<stop offset="0.52" stop-color="#ADAEB0"/>
<stop offset="0.6" stop-color="#A3A5A7"/>
<stop offset="0.74" stop-color="#898D8F"/>
<stop offset="0.91" stop-color="#5E6669"/>
<stop offset="1" stop-color="#465053"/>
</radialGradient>
<radialGradient id="paint8_radial_19_32692" cx="0" cy="0" r="1" gradientUnits="userSpaceOnUse" gradientTransform="translate(200.724 498.072) scale(5.9912 6.00629)">
<stop offset="0.69" stop-color="#171717"/>
<stop offset="0.8" stop-color="#1A1A1A"/>
<stop offset="0.89" stop-color="#242424"/>
<stop offset="0.97" stop-color="#343434"/>
<stop offset="1" stop-color="#3F3F3F"/>
</radialGradient>
<radialGradient id="paint9_radial_19_32692" cx="0" cy="0" r="1" gradientUnits="userSpaceOnUse" gradientTransform="translate(200.583 517.812) scale(5.14737 5.16034)">
<stop stop-color="#AEB0B7"/>
<stop offset="0.32" stop-color="#A9A9A8"/>
<stop offset="0.35" stop-color="#A9A9A6"/>
<stop offset="0.5" stop-color="#9A9D9E"/>
<stop offset="0.67" stop-color="#838C92"/>
<stop offset="1" stop-color="#657076"/>
</radialGradient>
<radialGradient id="paint10_radial_19_32692" cx="0" cy="0" r="1" gradientUnits="userSpaceOnUse" gradientTransform="translate(200.556 527.57) scale(2.95341 2.96085)">
<stop stop-color="white"/>
<stop offset="0.13" stop-color="#F0F0F0"/>
<stop offset="0.37" stop-color="#C9CACB"/>
<stop offset="0.52" stop-color="#ADAEB0"/>
<stop offset="0.6" stop-color="#A3A5A7"/>
<stop offset="0.74" stop-color="#898D8F"/>
<stop offset="0.91" stop-color="#5E6669"/>
<stop offset="1" stop-color="#465053"/>
</radialGradient>
<radialGradient id="paint11_radial_19_32692" cx="0" cy="0" r="1" gradientUnits="userSpaceOnUse" gradientTransform="translate(194.929 509.917) scale(2.95341 2.96085)">
<stop stop-color="white"/>
<stop offset="0.13" stop-color="#F0F0F0"/>
<stop offset="0.37" stop-color="#C9CACB"/>
<stop offset="0.52" stop-color="#ADAEB0"/>
<stop offset="0.6" stop-color="#A3A5A7"/>
<stop offset="0.74" stop-color="#898D8F"/>
<stop offset="0.91" stop-color="#5E6669"/>
<stop offset="1" stop-color="#465053"/>
</radialGradient>
<radialGradient id="paint12_radial_19_32692" cx="0" cy="0" r="1" gradientUnits="userSpaceOnUse" gradientTransform="translate(188.938 533.744) scale(5.9912 6.00629)">
<stop offset="0.69" stop-color="#171717"/>
<stop offset="0.8" stop-color="#1A1A1A"/>
<stop offset="0.89" stop-color="#242424"/>
<stop offset="0.97" stop-color="#343434"/>
<stop offset="1" stop-color="#3F3F3F"/>
</radialGradient>
<radialGradient id="paint13_radial_19_32692" cx="0" cy="0" r="1" gradientUnits="userSpaceOnUse" gradientTransform="translate(191.358 520.799) scale(2.95341 2.96085)">
<stop stop-color="white"/>
<stop offset="0.13" stop-color="#F0F0F0"/>
<stop offset="0.37" stop-color="#C9CACB"/>
<stop offset="0.52" stop-color="#ADAEB0"/>
<stop offset="0.6" stop-color="#A3A5A7"/>
<stop offset="0.74" stop-color="#898D8F"/>
<stop offset="0.91" stop-color="#5E6669"/>
<stop offset="1" stop-color="#465053"/>
</radialGradient>
<radialGradient id="paint14_radial_19_32692" cx="0" cy="0" r="1" gradientUnits="userSpaceOnUse" gradientTransform="translate(181.907 511.635) scale(5.9912 6.00629)">
<stop offset="0.69" stop-color="#171717"/>
<stop offset="0.8" stop-color="#1A1A1A"/>
<stop offset="0.89" stop-color="#242424"/>
<stop offset="0.97" stop-color="#343434"/>
<stop offset="1" stop-color="#3F3F3F"/>
</radialGradient>
<radialGradient id="paint15_radial_19_32692" cx="0" cy="0" r="1" gradientUnits="userSpaceOnUse" gradientTransform="translate(597.888 517.784) scale(59.7714 59.9219)">
<stop offset="0.62" stop-color="#212121"/>
<stop offset="0.7" stop-color="#2A2A2A"/>
<stop offset="0.75" stop-color="#333333"/>
<stop offset="0.85" stop-color="#272727"/>
<stop offset="0.9" stop-color="#202020"/>
<stop offset="1" stop-color="#353535"/>
</radialGradient>
<radialGradient id="paint16_radial_19_32692" cx="0" cy="0" r="1" gradientUnits="userSpaceOnUse" gradientTransform="translate(597.916 517.841) scale(36.5098 36.6017)">
<stop offset="0.26" stop-color="#212121"/>
<stop offset="0.36" stop-color="#2A2A2A"/>
<stop offset="0.49" stop-color="#3F3F3F"/>
<stop offset="0.69" stop-color="#333333"/>
<stop offset="0.93" stop-color="#202020"/>
</radialGradient>
<radialGradient id="paint17_radial_19_32692" cx="0" cy="0" r="1" gradientUnits="userSpaceOnUse" gradientTransform="translate(616.649 511.833) scale(5.99121 6.00629)">
<stop offset="0.69" stop-color="#171717"/>
<stop offset="0.8" stop-color="#1A1A1A"/>
<stop offset="0.89" stop-color="#242424"/>
<stop offset="0.97" stop-color="#343434"/>
<stop offset="1" stop-color="#3F3F3F"/>
</radialGradient>
<radialGradient id="paint18_radial_19_32692" cx="0" cy="0" r="1" gradientUnits="userSpaceOnUse" gradientTransform="translate(597.888 517.812) scale(32.7406 32.8231)">
<stop stop-color="white"/>
<stop offset="0.13" stop-color="#F0F0F0"/>
<stop offset="0.37" stop-color="#C9CACB"/>
<stop offset="0.52" stop-color="#ADAEB0"/>
<stop offset="0.6" stop-color="#A3A5A7"/>
<stop offset="0.74" stop-color="#898D8F"/>
<stop offset="0.91" stop-color="#5E6669"/>
<stop offset="1" stop-color="#465053"/>
</radialGradient>
<radialGradient id="paint19_radial_19_32692" cx="0" cy="0" r="1" gradientUnits="userSpaceOnUse" gradientTransform="translate(597.886 517.839) scale(30.4623 30.539)">
<stop stop-color="white"/>
<stop offset="0.13" stop-color="#F0F0F0"/>
<stop offset="0.37" stop-color="#C9CACB"/>
<stop offset="0.52" stop-color="#ADAEB0"/>
<stop offset="0.6" stop-color="#A3A5A7"/>
<stop offset="0.74" stop-color="#898D8F"/>
<stop offset="0.91" stop-color="#5E6669"/>
<stop offset="1" stop-color="#465053"/>
</radialGradient>
<radialGradient id="paint20_radial_19_32692" cx="0" cy="0" r="1" gradientUnits="userSpaceOnUse" gradientTransform="translate(609.393 533.884) scale(5.9912 6.00629)">
<stop offset="0.69" stop-color="#171717"/>
<stop offset="0.8" stop-color="#1A1A1A"/>
<stop offset="0.89" stop-color="#242424"/>
<stop offset="0.97" stop-color="#343434"/>
<stop offset="1" stop-color="#3F3F3F"/>
</radialGradient>
<radialGradient id="paint21_radial_19_32692" cx="0" cy="0" r="1" gradientUnits="userSpaceOnUse" gradientTransform="translate(607.113 520.884) scale(2.95341 2.96085)">
<stop stop-color="white"/>
<stop offset="0.13" stop-color="#F0F0F0"/>
<stop offset="0.37" stop-color="#C9CACB"/>
<stop offset="0.52" stop-color="#ADAEB0"/>
<stop offset="0.6" stop-color="#A3A5A7"/>
<stop offset="0.74" stop-color="#898D8F"/>
<stop offset="0.91" stop-color="#5E6669"/>
<stop offset="1" stop-color="#465053"/>
</radialGradient>
<radialGradient id="paint22_radial_19_32692" cx="0" cy="0" r="1" gradientUnits="userSpaceOnUse" gradientTransform="translate(603.654 509.974) scale(2.95341 2.96085)">
<stop stop-color="white"/>
<stop offset="0.13" stop-color="#F0F0F0"/>
<stop offset="0.37" stop-color="#C9CACB"/>
<stop offset="0.52" stop-color="#ADAEB0"/>
<stop offset="0.6" stop-color="#A3A5A7"/>
<stop offset="0.74" stop-color="#898D8F"/>
<stop offset="0.91" stop-color="#5E6669"/>
<stop offset="1" stop-color="#465053"/>
</radialGradient>
<radialGradient id="paint23_radial_19_32692" cx="0" cy="0" r="1" gradientUnits="userSpaceOnUse" gradientTransform="translate(598 498.072) scale(5.99122 6.00629)">
<stop offset="0.69" stop-color="#171717"/>
<stop offset="0.8" stop-color="#1A1A1A"/>
<stop offset="0.89" stop-color="#242424"/>
<stop offset="0.97" stop-color="#343434"/>
<stop offset="1" stop-color="#3F3F3F"/>
</radialGradient>
<radialGradient id="paint24_radial_19_32692" cx="0" cy="0" r="1" gradientUnits="userSpaceOnUse" gradientTransform="translate(597.887 517.812) scale(5.14736 5.16034)">
<stop stop-color="#AEB0B7"/>
<stop offset="0.32" stop-color="#A9A9A8"/>
<stop offset="0.35" stop-color="#A9A9A6"/>
<stop offset="0.5" stop-color="#9A9D9E"/>
<stop offset="0.67" stop-color="#838C92"/>
<stop offset="1" stop-color="#657076"/>
</radialGradient>
<radialGradient id="paint25_radial_19_32692" cx="0" cy="0" r="1" gradientUnits="userSpaceOnUse" gradientTransform="translate(597.859 527.57) scale(2.95343 2.96085)">
<stop stop-color="white"/>
<stop offset="0.13" stop-color="#F0F0F0"/>
<stop offset="0.37" stop-color="#C9CACB"/>
<stop offset="0.52" stop-color="#ADAEB0"/>
<stop offset="0.6" stop-color="#A3A5A7"/>
<stop offset="0.74" stop-color="#898D8F"/>
<stop offset="0.91" stop-color="#5E6669"/>
<stop offset="1" stop-color="#465053"/>
</radialGradient>
<radialGradient id="paint26_radial_19_32692" cx="0" cy="0" r="1" gradientUnits="userSpaceOnUse" gradientTransform="translate(592.234 509.917) scale(2.9534 2.96085)">
<stop stop-color="white"/>
<stop offset="0.13" stop-color="#F0F0F0"/>
<stop offset="0.37" stop-color="#C9CACB"/>
<stop offset="0.52" stop-color="#ADAEB0"/>
<stop offset="0.6" stop-color="#A3A5A7"/>
<stop offset="0.74" stop-color="#898D8F"/>
<stop offset="0.91" stop-color="#5E6669"/>
<stop offset="1" stop-color="#465053"/>
</radialGradient>
<radialGradient id="paint27_radial_19_32692" cx="0" cy="0" r="1" gradientUnits="userSpaceOnUse" gradientTransform="translate(586.243 533.744) scale(5.99121 6.00629)">
<stop offset="0.69" stop-color="#171717"/>
<stop offset="0.8" stop-color="#1A1A1A"/>
<stop offset="0.89" stop-color="#242424"/>
<stop offset="0.97" stop-color="#343434"/>
<stop offset="1" stop-color="#3F3F3F"/>
</radialGradient>
<radialGradient id="paint28_radial_19_32692" cx="0" cy="0" r="1" gradientUnits="userSpaceOnUse" gradientTransform="translate(588.633 520.799) scale(2.9534 2.96085)">
<stop stop-color="white"/>
<stop offset="0.13" stop-color="#F0F0F0"/>
<stop offset="0.37" stop-color="#C9CACB"/>
<stop offset="0.52" stop-color="#ADAEB0"/>
<stop offset="0.6" stop-color="#A3A5A7"/>
<stop offset="0.74" stop-color="#898D8F"/>
<stop offset="0.91" stop-color="#5E6669"/>
<stop offset="1" stop-color="#465053"/>
</radialGradient>
<radialGradient id="paint29_radial_19_32692" cx="0" cy="0" r="1" gradientUnits="userSpaceOnUse" gradientTransform="translate(579.21 511.635) scale(5.99119 6.00629)">
<stop offset="0.69" stop-color="#171717"/>
<stop offset="0.8" stop-color="#1A1A1A"/>
<stop offset="0.89" stop-color="#242424"/>
<stop offset="0.97" stop-color="#343434"/>
<stop offset="1" stop-color="#3F3F3F"/>
</radialGradient>
<clipPath id="clip0_19_32692">
<rect width="518" height="121" fill="white" transform="translate(140.251 457.326)"/>
</clipPath>
</defs>
</svg>
