<svg width="800" height="800" viewBox="0 0 800 800" fill="none" xmlns="http://www.w3.org/2000/svg">
<g clip-path="url(#clip0_19_32692)">
<path d="M167.115 543.133C164.14 539.549 161.774 535.463 160.218 530.975C159.813 529.87 159.508 528.798 159.238 527.66C158.494 524.679 158.088 521.531 158.088 518.316C158.088 516.775 158.19 515.235 158.359 513.728C158.46 512.589 158.663 511.484 158.9 510.345C159.88 505.69 161.706 501.336 164.208 497.451H164.242C164.816 496.48 165.492 495.508 166.236 494.604C169.076 490.853 172.626 487.705 176.649 485.227C177.596 484.59 178.644 484.021 179.658 483.519C183.783 481.442 188.347 480.069 193.182 479.567C194.331 479.433 195.481 479.366 196.664 479.332H197.374C202.006 479.332 206.401 480.103 210.526 481.576C211.641 481.978 212.689 482.38 213.771 482.882C218.099 484.858 221.987 487.571 225.3 490.887C226.112 491.691 226.889 492.528 227.599 493.466C230.608 497.016 232.975 501.135 234.53 505.623C234.936 506.728 235.24 507.8 235.477 508.938C236.254 511.919 236.66 515.067 236.66 518.316C236.66 519.856 236.558 521.397 236.389 522.871C236.288 524.043 236.085 525.148 235.848 526.287C234.868 530.942 233.042 535.296 230.507 539.181C229.898 540.152 229.256 541.09 228.512 541.994C225.672 545.745 222.122 548.893 218.099 551.371C217.152 552.008 216.104 552.577 215.09 553.079C210.965 555.156 206.401 556.529 201.566 557.031C200.417 557.165 199.267 557.232 198.084 557.266H197.374C192.742 557.266 188.313 556.462 184.189 555.022C183.073 554.62 182.025 554.218 180.977 553.716C176.649 551.74 172.761 549.027 169.448 545.711C168.637 544.908 167.859 544.003 167.115 543.133V543.133ZM232.603 518.316C232.603 499.025 216.848 483.418 197.374 483.418C177.9 483.418 162.145 499.025 162.145 518.316C162.145 537.607 177.9 553.213 197.374 553.213C216.848 553.213 232.603 537.573 232.603 518.316Z" fill="url(#paint0_radial_19_32692)"/>
<path d="M223.745 509.978C224.827 513.36 222.933 516.944 219.552 518.015C216.172 519.121 212.554 517.245 211.438 513.863C210.356 510.513 212.216 506.93 215.631 505.858C219.011 504.753 222.629 506.628 223.745 509.978Z" fill="url(#paint1_radial_19_32692)"/>
<path d="M197.409 483.417C216.883 483.417 232.637 499.023 232.637 518.314C232.637 537.605 216.883 553.212 197.409 553.212C177.935 553.212 162.18 537.572 162.18 518.314C162.18 499.057 177.935 483.417 197.409 483.417V483.417ZM230.203 518.314C230.203 500.33 215.496 485.795 197.409 485.795C179.321 485.795 164.614 500.363 164.614 518.314C164.614 536.265 179.321 550.801 197.409 550.801C215.496 550.801 230.203 536.232 230.203 518.314Z" fill="url(#paint2_radial_19_32692)"/>
<path d="M197.409 485.796C215.53 485.796 230.203 500.364 230.203 518.316C230.203 536.267 215.497 550.802 197.409 550.802C179.321 550.802 164.615 536.233 164.615 518.316C164.615 500.398 179.321 485.796 197.409 485.796ZM219.587 518.014C222.968 516.942 224.862 513.359 223.78 509.976C222.664 506.627 219.047 504.752 215.666 505.857C212.251 506.929 210.392 510.512 211.473 513.861C212.589 517.244 216.207 519.119 219.587 518.014ZM213.536 540.554C216.443 538.511 217.086 534.492 215.023 531.645C212.961 528.798 208.904 528.128 206.03 530.205C203.156 532.248 202.48 536.233 204.543 539.113C206.639 541.96 210.662 542.63 213.536 540.554ZM210.358 522.535C210.899 520.894 209.986 519.086 208.329 518.55C206.673 517.981 204.881 518.918 204.306 520.559C203.765 522.201 204.678 523.976 206.334 524.545C207.991 525.081 209.817 524.176 210.358 522.535ZM206.165 511.785C207.213 510.412 206.875 508.436 205.489 507.364C204.069 506.326 202.075 506.661 201.026 508.067C199.945 509.44 200.283 511.416 201.703 512.488C203.123 513.526 205.117 513.191 206.165 511.785ZM203.968 497.317C204.002 493.8 201.128 490.953 197.578 490.886C194.028 490.819 191.087 493.7 191.087 497.216C191.053 500.733 193.927 503.647 197.477 503.68C201.027 503.68 203.968 500.833 203.968 497.317V497.317ZM202.92 518.316C202.92 515.301 200.452 512.823 197.409 512.823C194.366 512.823 191.864 515.301 191.864 518.316C191.864 521.33 194.366 523.775 197.409 523.775C200.452 523.775 202.92 521.296 202.92 518.316ZM200.519 528.664C200.519 526.923 199.099 525.483 197.341 525.483C195.583 525.483 194.13 526.889 194.13 528.631C194.13 530.372 195.549 531.812 197.308 531.812C199.066 531.812 200.519 530.406 200.519 528.664ZM193.115 512.421C194.535 511.45 194.873 509.474 193.859 508.067C192.811 506.661 190.85 506.292 189.396 507.331C187.943 508.369 187.638 510.311 188.653 511.751C189.701 513.158 191.661 513.493 193.115 512.455V512.421ZM190.005 538.946C192.101 536.133 191.492 532.114 188.619 530.037C185.745 527.961 181.722 528.564 179.626 531.411C177.496 534.224 178.138 538.243 180.978 540.319C183.852 542.396 187.909 541.793 190.005 538.946V538.946ZM188.382 524.377C190.039 523.842 190.985 522.1 190.444 520.425C189.903 518.751 188.145 517.847 186.455 518.383C184.765 518.918 183.852 520.66 184.393 522.368C184.934 524.009 186.692 524.913 188.382 524.377V524.377ZM183.378 513.627C184.494 510.278 182.668 506.694 179.287 505.556C175.907 504.45 172.255 506.259 171.14 509.608C169.99 512.957 171.85 516.574 175.23 517.679C178.611 518.818 182.229 516.976 183.378 513.627Z" fill="url(#paint3_radial_19_32692)"/>
<path d="M215.023 531.645C217.085 534.491 216.443 538.51 213.535 540.553C210.661 542.63 206.638 541.96 204.542 539.113C202.48 536.233 203.156 532.247 206.03 530.204C208.903 528.128 212.96 528.798 215.023 531.645Z" fill="url(#paint4_radial_19_32692)"/>
<path d="M208.328 518.551C209.985 519.087 210.898 520.862 210.357 522.536C209.816 524.211 208.024 525.081 206.334 524.546C204.677 523.976 203.764 522.235 204.305 520.56C204.88 518.919 206.638 517.981 208.328 518.551Z" fill="url(#paint5_radial_19_32692)"/>
<path d="M205.488 507.399C206.874 508.471 207.212 510.414 206.164 511.82C205.116 513.227 203.155 513.562 201.701 512.523C200.281 511.452 199.943 509.509 201.025 508.103C202.073 506.696 204.034 506.361 205.488 507.399Z" fill="url(#paint6_radial_19_32692)"/>
<path d="M197.543 490.888C201.093 490.922 203.967 493.768 203.933 497.318C203.933 500.835 201.026 503.682 197.442 503.682C193.892 503.648 191.018 500.768 191.052 497.218C191.052 493.701 193.959 490.855 197.543 490.888Z" fill="url(#paint7_radial_19_32692)"/>
<path d="M197.408 512.825C200.451 512.825 202.919 515.303 202.919 518.317C202.919 521.331 200.451 523.776 197.408 523.776C194.365 523.776 191.864 521.298 191.864 518.317C191.864 515.337 194.365 512.825 197.408 512.825ZM201.026 518.317C201.026 516.308 199.403 514.7 197.408 514.7C195.413 514.7 193.791 516.308 193.791 518.317C193.791 520.327 195.38 521.901 197.408 521.901C199.437 521.901 201.026 520.293 201.026 518.317Z" fill="#262626"/>
<path d="M197.408 514.698C199.403 514.698 201.026 516.305 201.026 518.315C201.026 520.324 199.403 521.898 197.408 521.898C195.414 521.898 193.791 520.291 193.791 518.315C193.791 516.339 195.38 514.698 197.408 514.698V514.698Z" fill="url(#paint8_radial_19_32692)"/>
<path d="M197.374 525.516C199.132 525.516 200.552 526.956 200.552 528.697C200.552 530.439 199.132 531.846 197.34 531.846C195.548 531.846 194.162 530.439 194.162 528.664C194.162 526.889 195.616 525.516 197.374 525.516Z" fill="url(#paint9_radial_19_32692)"/>
<path d="M193.891 508.068C194.872 509.475 194.568 511.451 193.148 512.422C191.728 513.46 189.733 513.125 188.685 511.718C187.704 510.312 188.009 508.336 189.429 507.298C190.849 506.259 192.843 506.628 193.891 508.034V508.068Z" fill="url(#paint10_radial_19_32692)"/>
<path d="M188.652 530.104C191.526 532.181 192.134 536.2 190.038 539.013C187.942 541.859 183.885 542.462 181.011 540.386C178.171 538.309 177.529 534.291 179.659 531.477C181.755 528.631 185.778 528.028 188.652 530.104Z" fill="url(#paint11_radial_19_32692)"/>
<path d="M190.444 520.491C190.985 522.132 190.039 523.907 188.382 524.443C186.725 524.979 184.934 524.075 184.393 522.434C183.852 520.726 184.798 518.984 186.455 518.448C188.112 517.912 189.903 518.85 190.444 520.491V520.491Z" fill="url(#paint12_radial_19_32692)"/>
<path d="M179.286 505.623C182.667 506.761 184.493 510.345 183.377 513.694C182.227 517.043 178.61 518.885 175.229 517.746C171.848 516.641 169.989 513.024 171.138 509.675C172.254 506.326 175.905 504.517 179.286 505.623Z" fill="url(#paint13_radial_19_32692)"/>
<path d="M266.817 514.665C260.123 519.019 243.861 523.239 236.795 522.904H236.423C236.321 524.043 236.118 525.148 235.882 526.287C245.247 529.234 258.534 531.009 265.836 530.305C266.546 526.387 266.918 522.402 266.918 518.316C266.918 517.077 266.918 515.837 266.817 514.665Z" fill="url(#paint14_radial_19_32692)"/>
<path d="M234.564 505.622C234.97 506.727 235.274 507.799 235.51 508.938C245.247 507.598 258.095 503.445 264.316 499.661C262.862 494.503 260.833 489.68 258.298 485.126C254.207 491.924 241.359 502.708 234.868 505.488L234.564 505.589V505.622Z" fill="url(#paint15_radial_19_32692)"/>
<path d="M230.877 539.383L230.573 539.182C229.965 540.154 229.322 541.091 228.578 541.996C235.678 548.694 246.937 556.062 253.833 558.54C256.876 554.32 259.513 549.732 261.542 544.876C253.597 545.948 237.098 542.732 230.877 539.417V539.383Z" fill="url(#paint16_radial_19_32692)"/>
<path d="M249.541 472.736C246.025 468.817 242.103 465.301 237.809 462.219C237.099 470.123 230.27 485.362 225.604 490.653L225.367 490.854C226.179 491.658 226.956 492.495 227.666 493.433C235.882 488.041 245.619 478.764 249.574 472.702L249.541 472.736Z" fill="url(#paint17_radial_19_32692)"/>
<path d="M218.3 551.673L218.131 551.405C217.185 552.042 216.137 552.611 215.122 553.114C218.605 562.257 225.468 573.643 230.641 578.835C235.306 576.323 239.634 573.309 243.556 569.859C235.915 567.347 222.493 557.367 218.334 551.707H218.3V551.673Z" fill="url(#paint18_radial_19_32692)"/>
<path d="M210.66 481.276L210.559 481.577C211.675 481.979 212.723 482.381 213.805 482.883C218.808 474.511 223.541 462.018 224.454 454.818C219.653 452.808 214.548 451.301 209.274 450.397C212.08 457.832 212.587 474.511 210.694 481.242L210.66 481.276Z" fill="url(#paint19_radial_19_32692)"/>
<path d="M201.6 557.032C200.45 557.166 199.301 557.233 198.117 557.267C197.272 566.946 198.523 580.208 200.822 587.074C206.231 586.839 211.472 585.935 216.442 584.528C210.626 579.002 202.918 564.233 201.633 557.367V556.999L201.6 557.032Z" fill="url(#paint20_radial_19_32692)"/>
<path d="M178.372 452.071C184.12 457.597 191.896 472.367 193.181 479.232V479.601C194.364 479.467 195.513 479.4 196.697 479.366C197.508 469.654 196.257 456.425 193.958 449.559C188.583 449.794 183.376 450.698 178.372 452.105V452.071Z" fill="url(#paint21_radial_19_32692)"/>
<path d="M184.086 555.324L184.188 555.022C183.072 554.621 182.024 554.219 180.976 553.716C175.938 562.156 171.239 574.615 170.292 581.782H170.326C175.127 583.791 180.232 585.298 185.506 586.203C182.7 578.734 182.159 562.089 184.053 555.357H184.086V555.324Z" fill="url(#paint22_radial_19_32692)"/>
<path d="M176.481 484.96L176.65 485.228C177.596 484.592 178.644 484.022 179.659 483.52C176.176 474.377 169.246 462.99 164.14 457.799C159.475 460.311 155.147 463.325 151.192 466.774C158.832 469.286 172.254 479.266 176.447 484.926H176.481V484.96Z" fill="url(#paint23_radial_19_32692)"/>
<path d="M145.241 563.865C148.724 567.783 152.679 571.3 156.973 574.381C157.683 566.477 164.512 551.272 169.178 545.981L169.448 545.746C168.637 544.942 167.859 544.038 167.116 543.167C158.934 548.559 149.231 557.803 145.241 563.898V563.865Z" fill="url(#paint24_radial_19_32692)"/>
<path d="M163.902 497.252L164.173 497.453H164.207C164.781 496.482 165.458 495.51 166.201 494.606C159.102 487.908 147.843 480.54 140.946 478.062C137.836 482.281 135.266 486.87 133.204 491.726C141.183 490.654 157.648 493.903 163.902 497.218V497.252Z" fill="url(#paint25_radial_19_32692)"/>
<path d="M160.218 530.977C159.812 529.872 159.508 528.8 159.237 527.662C149.5 529.001 136.687 533.154 130.466 536.939C131.92 542.096 133.914 546.919 136.45 551.474C140.609 544.642 153.422 533.891 159.947 531.111L160.251 531.011L160.218 530.977Z" fill="url(#paint26_radial_19_32692)"/>
<path d="M158.021 513.695H158.393C158.494 512.59 158.697 511.484 158.934 510.346C149.535 507.365 136.248 505.59 128.945 506.327C128.269 510.245 127.897 514.197 127.897 518.317C127.897 519.522 127.897 520.761 127.965 521.934C134.659 517.58 150.955 513.36 158.021 513.695V513.695Z" fill="url(#paint27_radial_19_32692)"/>
<path d="M267.932 500.533C267.425 499.227 265.87 498.725 264.653 499.462C264.551 499.529 264.45 499.596 264.349 499.629C258.128 503.447 245.28 507.6 235.544 508.94C236.321 511.92 236.727 515.069 236.727 518.317C236.727 519.858 236.625 521.398 236.456 522.872H236.828C243.894 523.24 260.156 519.02 266.85 514.667C268.237 513.796 269.251 512.858 269.623 511.987C270.333 507.901 269.623 504.72 268 500.533H267.932V500.533Z" fill="url(#paint28_radial_19_32692)"/>
<path d="M266.275 530.271C266.275 530.271 266.004 530.304 265.835 530.304C258.533 531.007 245.246 529.232 235.881 526.285C234.9 530.94 233.075 535.294 230.539 539.179L230.843 539.38C237.064 542.696 253.563 545.911 261.508 544.839C263.164 544.638 264.415 544.236 265.159 543.6C267.593 540.217 268.337 537.036 268.709 532.581C268.811 531.208 267.593 530.07 266.207 530.271H266.275V530.271Z" fill="url(#paint29_radial_19_32692)"/>
<path d="M234.563 505.624L234.868 505.523C241.393 502.744 254.206 491.96 258.297 485.161C259.142 483.754 259.65 482.515 259.616 481.577C258.466 477.592 256.404 475.013 253.124 471.999C252.076 471.028 250.454 471.262 249.71 472.468C249.642 472.568 249.575 472.669 249.507 472.769C245.551 478.831 235.814 488.108 227.599 493.5C230.608 497.05 232.974 501.17 234.53 505.657L234.563 505.624Z" fill="url(#paint30_radial_19_32692)"/>
<path d="M254.205 558.672C254.205 558.672 253.968 558.571 253.799 558.538C246.902 556.059 235.644 548.691 228.544 541.993C225.704 545.744 222.154 548.892 218.131 551.371L218.3 551.639C222.459 557.299 235.881 567.279 243.521 569.791C245.077 570.293 246.429 570.494 247.409 570.26C251.027 568.25 253.123 565.705 255.422 561.887C256.132 560.648 255.524 559.141 254.205 558.672Z" fill="url(#paint31_radial_19_32692)"/>
<path d="M225.569 490.685C230.235 485.393 237.064 470.155 237.774 462.251C237.943 460.643 237.774 459.304 237.369 458.433C234.63 455.318 231.655 453.911 227.327 452.538C225.975 452.136 224.589 453.041 224.454 454.447C224.454 454.581 224.42 454.682 224.42 454.849C223.541 462.05 218.808 474.508 213.77 482.915C218.098 484.891 221.986 487.603 225.299 490.919L225.535 490.718H225.569V490.685Z" fill="url(#paint32_radial_19_32692)"/>
<path d="M230.64 578.799C225.468 573.608 218.605 562.188 215.122 553.078C210.998 555.155 206.433 556.528 201.599 557.03V557.399C202.917 564.264 210.626 579.034 216.441 584.56C217.658 585.699 218.74 586.469 219.72 586.636C223.879 586.435 226.888 585.029 230.607 582.517C231.79 581.713 231.925 580.072 230.911 579.101C230.809 579 230.742 578.933 230.64 578.833V578.799Z" fill="url(#paint33_radial_19_32692)"/>
<path d="M193.959 449.524C196.258 456.39 197.508 469.619 196.697 479.331H197.407C202.039 479.331 206.434 480.102 210.559 481.575L210.66 481.274C212.553 474.542 212.046 457.864 209.24 450.429C208.665 448.888 207.989 447.749 207.212 447.146C203.357 445.572 200.044 445.572 195.581 446.209C194.195 446.41 193.35 447.783 193.823 449.122C193.857 449.223 193.891 449.357 193.925 449.524H193.959Z" fill="url(#paint34_radial_19_32692)"/>
<path d="M200.822 587.073C198.523 580.207 197.272 566.945 198.117 557.266H197.408C192.776 557.266 188.347 556.462 184.222 555.022L184.121 555.323C182.227 562.055 182.768 578.7 185.574 586.169C186.149 587.709 186.825 588.848 187.603 589.451C191.457 591.025 194.77 591.025 199.199 590.388C200.619 590.221 201.431 588.814 200.991 587.475C200.957 587.374 200.924 587.24 200.856 587.073H200.822V587.073Z" fill="url(#paint35_radial_19_32692)"/>
<path d="M164.173 457.798C169.244 462.989 176.209 474.41 179.691 483.519C183.816 481.443 188.38 480.07 193.215 479.567V479.199C191.896 472.333 184.154 457.564 178.373 452.038H178.339C177.122 450.866 176.074 450.129 175.093 449.961C170.935 450.162 167.926 451.569 164.207 454.081C163.024 454.885 162.888 456.526 163.903 457.497C164.004 457.564 164.072 457.664 164.173 457.765V457.798Z" fill="url(#paint36_radial_19_32692)"/>
<path d="M140.575 477.925C140.575 477.925 140.811 477.992 140.98 478.059C147.877 480.537 159.136 487.905 166.236 494.603C169.075 490.852 172.625 487.704 176.649 485.226L176.48 484.958C172.287 479.298 158.865 469.317 151.224 466.806C149.669 466.303 148.351 466.102 147.37 466.337C143.719 468.346 141.657 470.891 139.358 474.776C138.648 475.982 139.222 477.489 140.575 477.958V477.925Z" fill="url(#paint37_radial_19_32692)"/>
<path d="M169.176 545.947C164.511 551.239 157.681 566.444 156.971 574.348C156.836 575.955 156.938 577.295 157.377 578.166C160.149 581.28 163.124 582.72 167.452 584.06C168.804 584.495 170.157 583.558 170.292 582.151C170.292 582.017 170.326 581.916 170.326 581.749C171.239 574.582 175.938 562.123 181.009 553.684C176.682 551.708 172.794 548.995 169.481 545.679L169.21 545.914H169.176V545.947Z" fill="url(#paint38_radial_19_32692)"/>
<path d="M128.504 506.358C128.504 506.358 128.741 506.325 128.91 506.325C136.213 505.588 149.499 507.363 158.898 510.344C159.879 505.688 161.704 501.334 164.206 497.449L163.936 497.249C157.681 493.933 141.216 490.684 133.237 491.756C131.615 491.957 130.33 492.359 129.586 492.995C127.152 496.378 126.408 499.559 126.07 504.014C125.968 505.387 127.186 506.526 128.572 506.392H128.504V506.358Z" fill="url(#paint39_radial_19_32692)"/>
<path d="M160.217 530.975L159.912 531.076C153.387 533.855 140.608 544.606 136.415 551.438C135.57 552.845 135.063 554.084 135.097 555.022C136.28 559.007 138.309 561.586 141.622 564.633C142.67 565.571 144.293 565.337 145.037 564.165C145.104 564.064 145.172 563.964 145.239 563.796C149.229 557.701 158.932 548.457 167.114 543.065C164.139 539.482 161.772 535.396 160.217 530.908V530.975Z" fill="url(#paint40_radial_19_32692)"/>
<path d="M158.087 518.313C158.087 516.773 158.188 515.232 158.357 513.725H157.986C150.92 513.356 134.624 517.576 127.93 521.93C126.543 522.834 125.529 523.772 125.157 524.643C124.481 528.695 125.157 531.91 126.814 536.063C127.321 537.369 128.876 537.872 130.093 537.135C130.195 537.068 130.296 537.001 130.398 536.968C136.618 533.15 149.432 528.997 159.169 527.657C158.425 524.676 158.019 521.528 158.019 518.313H158.087V518.313Z" fill="url(#paint41_radial_19_32692)"/>
<path d="M197.408 553.213C216.865 553.213 232.637 537.589 232.637 518.316C232.637 499.042 216.865 483.418 197.408 483.418C177.952 483.418 162.18 499.042 162.18 518.316C162.18 537.589 177.952 553.213 197.408 553.213Z" stroke="#231F20" stroke-width="1.119" stroke-miterlimit="10"/>
<path d="M197.408 557.266C219.123 557.266 236.727 539.828 236.727 518.316C236.727 496.805 219.123 479.366 197.408 479.366C175.692 479.366 158.088 496.805 158.088 518.316C158.088 539.828 175.692 557.266 197.408 557.266Z" stroke="#231F20" stroke-width="1.119" stroke-miterlimit="10"/>
<path d="M197.409 550.802C215.521 550.802 230.203 536.258 230.203 518.316C230.203 500.374 215.521 485.83 197.409 485.83C179.297 485.83 164.614 500.374 164.614 518.316C164.614 536.258 179.297 550.802 197.409 550.802Z" stroke="#231F20" stroke-width="0.699377" stroke-miterlimit="10"/>
<path d="M197.408 523.808C200.471 523.808 202.953 521.349 202.953 518.315C202.953 515.282 200.471 512.823 197.408 512.823C194.346 512.823 191.864 515.282 191.864 518.315C191.864 521.349 194.346 523.808 197.408 523.808Z" stroke="#231F20" stroke-width="0.699377" stroke-miterlimit="10"/>
<path d="M197.408 521.933C199.425 521.933 201.06 520.314 201.06 518.316C201.06 516.319 199.425 514.699 197.408 514.699C195.392 514.699 193.757 516.319 193.757 518.316C193.757 520.314 195.392 521.933 197.408 521.933Z" stroke="#231F20" stroke-width="0.699377" stroke-miterlimit="10"/>
<path d="M209.749 541.758C213.315 541.758 216.206 538.894 216.206 535.361C216.206 531.829 213.315 528.965 209.749 528.965C206.182 528.965 203.291 531.829 203.291 535.361C203.291 538.894 206.182 541.758 209.749 541.758Z" stroke="#231F20" stroke-width="1.39875" stroke-miterlimit="10"/>
<path d="M184.83 541.626C188.397 541.626 191.288 538.762 191.288 535.229C191.288 531.696 188.397 528.832 184.83 528.832C181.264 528.832 178.373 531.696 178.373 535.229C178.373 538.762 181.264 541.626 184.83 541.626Z" stroke="#231F20" stroke-width="1.39875" stroke-miterlimit="10"/>
<path d="M177.257 518.083C180.824 518.083 183.715 515.219 183.715 511.686C183.715 508.153 180.824 505.289 177.257 505.289C173.691 505.289 170.8 508.153 170.8 511.686C170.8 515.219 173.691 518.083 177.257 518.083Z" stroke="#231F20" stroke-width="1.39875" stroke-miterlimit="10"/>
<path d="M197.509 503.679C201.075 503.679 203.966 500.815 203.966 497.282C203.966 493.75 201.075 490.886 197.509 490.886C193.942 490.886 191.051 493.75 191.051 497.282C191.051 500.815 193.942 503.679 197.509 503.679Z" stroke="#231F20" stroke-width="1.39875" stroke-miterlimit="10"/>
<path d="M217.592 518.318C221.158 518.318 224.049 515.454 224.049 511.921C224.049 508.388 221.158 505.524 217.592 505.524C214.025 505.524 211.134 508.388 211.134 511.921C211.134 515.454 214.025 518.318 217.592 518.318Z" stroke="#231F20" stroke-width="1.39875" stroke-miterlimit="10"/>
<path d="M197.34 531.814C199.095 531.814 200.518 530.405 200.518 528.666C200.518 526.927 199.095 525.518 197.34 525.518C195.584 525.518 194.162 526.927 194.162 528.666C194.162 530.405 195.584 531.814 197.34 531.814Z" stroke="#231F20" stroke-width="0.699377" stroke-miterlimit="10"/>
<path d="M187.435 524.612C189.19 524.612 190.613 523.203 190.613 521.464C190.613 519.726 189.19 518.316 187.435 518.316C185.68 518.316 184.257 519.726 184.257 521.464C184.257 523.203 185.68 524.612 187.435 524.612Z" stroke="#231F20" stroke-width="0.699377" stroke-miterlimit="10"/>
<path d="M191.288 513.025C193.043 513.025 194.466 511.615 194.466 509.876C194.466 508.138 193.043 506.728 191.288 506.728C189.533 506.728 188.11 508.138 188.11 509.876C188.11 511.615 189.533 513.025 191.288 513.025Z" stroke="#231F20" stroke-width="0.699377" stroke-miterlimit="10"/>
<path d="M203.595 513.091C205.35 513.091 206.773 511.682 206.773 509.943C206.773 508.205 205.35 506.795 203.595 506.795C201.84 506.795 200.417 508.205 200.417 509.943C200.417 511.682 201.84 513.091 203.595 513.091Z" stroke="#231F20" stroke-width="0.699377" stroke-miterlimit="10"/>
<path d="M207.314 524.714C209.069 524.714 210.492 523.305 210.492 521.566C210.492 519.827 209.069 518.418 207.314 518.418C205.559 518.418 204.136 519.827 204.136 521.566C204.136 523.305 205.559 524.714 207.314 524.714Z" stroke="#231F20" stroke-width="0.699377" stroke-miterlimit="10"/>
<path d="M184.086 555.324C181.821 563.496 183.038 586.035 187.568 589.452C191.422 591.026 194.702 591.059 199.198 590.423C200.618 590.222 201.43 588.815 200.957 587.509C198.522 580.677 197.238 566.845 198.15 556.932" stroke="#231F20" stroke-width="1.119" stroke-miterlimit="10"/>
<path d="M169.21 545.948C163.597 552.345 154.807 573.176 157.377 578.2C160.149 581.281 163.124 582.721 167.418 584.061C168.77 584.496 170.123 583.592 170.292 582.185C171.069 574.985 175.971 561.957 181.144 553.417" stroke="#231F20" stroke-width="1.119" stroke-miterlimit="10"/>
<path d="M159.879 531.078C152.002 534.428 134.962 549.432 135.097 555.058C136.247 559.043 138.309 561.589 141.589 564.67C142.637 565.641 144.259 565.407 145.003 564.201C148.891 558.039 159 548.427 167.385 542.968" stroke="#231F20" stroke-width="1.119" stroke-miterlimit="10"/>
<path d="M158.019 513.694C149.465 513.326 127.557 519.522 125.191 524.646C124.481 528.732 125.191 531.913 126.847 536.1C127.354 537.406 128.91 537.908 130.127 537.138C136.314 533.253 149.634 528.933 159.608 527.627" stroke="#231F20" stroke-width="1.119" stroke-miterlimit="10"/>
<path d="M163.936 497.218C156.397 493.199 133.914 489.381 129.586 492.964C127.152 496.313 126.408 499.528 126.07 503.983C125.969 505.389 127.152 506.495 128.572 506.327C135.841 505.49 149.736 507.332 159.304 510.413" stroke="#231F20" stroke-width="1.119" stroke-miterlimit="10"/>
<path d="M176.479 484.926C171.441 478.061 152.881 464.966 147.37 466.339C143.718 468.315 141.656 470.893 139.357 474.745C138.647 475.951 139.222 477.491 140.574 477.927C147.505 480.304 159.203 487.907 166.472 494.806" stroke="#231F20" stroke-width="1.119" stroke-miterlimit="10"/>
<path d="M193.147 479.233C191.625 470.894 180.637 451.101 175.059 449.962C170.9 450.197 167.925 451.603 164.172 454.082C162.989 454.852 162.854 456.493 163.868 457.464C169.075 462.588 176.276 474.478 179.792 483.822" stroke="#231F20" stroke-width="1.119" stroke-miterlimit="10"/>
<path d="M210.694 481.311C212.959 473.139 211.742 450.6 207.211 447.184C203.357 445.61 200.078 445.576 195.581 446.212C194.161 446.413 193.35 447.82 193.823 449.126C196.257 455.958 197.542 469.79 196.629 479.703" stroke="#231F20" stroke-width="1.119" stroke-miterlimit="10"/>
<path d="M225.569 490.688C231.182 484.291 239.972 463.46 237.402 458.436C234.63 455.355 231.655 453.915 227.361 452.575C226.009 452.14 224.656 453.044 224.487 454.451C223.71 461.651 218.808 474.679 213.635 483.219" stroke="#231F20" stroke-width="1.119" stroke-miterlimit="10"/>
<path d="M234.9 505.524C242.778 502.174 259.817 487.171 259.682 481.544C258.532 477.559 256.47 475.013 253.191 471.932C252.143 470.961 250.52 471.195 249.776 472.401C245.888 478.563 235.779 488.175 227.395 493.634" stroke="#231F20" stroke-width="1.119" stroke-miterlimit="10"/>
<path d="M236.759 522.904C245.313 523.273 267.221 517.077 269.588 511.953C270.298 507.867 269.588 504.685 267.931 500.499C267.424 499.193 265.869 498.691 264.652 499.461C258.465 503.346 245.144 507.666 235.17 508.972" stroke="#231F20" stroke-width="1.119" stroke-miterlimit="10"/>
<path d="M230.843 539.385C238.382 543.404 260.865 547.221 265.193 543.638C267.627 540.289 268.371 537.074 268.709 532.619C268.81 531.213 267.627 530.108 266.207 530.275C258.938 531.112 245.043 529.27 235.475 526.189" stroke="#231F20" stroke-width="1.119" stroke-miterlimit="10"/>
<path d="M218.3 551.672C223.337 558.538 241.898 571.633 247.409 570.26C251.06 568.284 253.123 565.705 255.422 561.854C256.132 560.648 255.557 559.107 254.205 558.672C247.274 556.294 235.576 548.692 228.307 541.792" stroke="#231F20" stroke-width="1.119" stroke-miterlimit="10"/>
<path d="M201.633 557.365C203.154 565.704 214.142 585.497 219.72 586.636C223.879 586.401 226.854 584.995 230.607 582.516C231.79 581.746 231.925 580.105 230.911 579.134C225.705 574.01 218.503 562.12 214.987 552.776" stroke="#231F20" stroke-width="1.119" stroke-miterlimit="10"/>
<path d="M133.237 491.756C135.3 486.9 137.903 482.312 140.98 478.058" stroke="#231F20" stroke-width="1.119" stroke-miterlimit="10"/>
<path d="M151.224 466.808C155.146 463.359 159.507 460.311 164.173 457.799" stroke="#231F20" stroke-width="1.119" stroke-miterlimit="10"/>
<path d="M178.339 452.037C183.343 450.63 188.583 449.76 193.959 449.492" stroke="#231F20" stroke-width="1.119" stroke-miterlimit="10"/>
<path d="M209.239 450.431C214.513 451.336 219.618 452.809 224.419 454.852" stroke="#231F20" stroke-width="1.119" stroke-miterlimit="10"/>
<path d="M237.808 462.252C242.101 465.3 246.057 468.817 249.539 472.768" stroke="#231F20" stroke-width="1.119" stroke-miterlimit="10"/>
<path d="M258.363 485.161C260.899 489.716 262.894 494.572 264.348 499.663" stroke="#231F20" stroke-width="1.119" stroke-miterlimit="10"/>
<path d="M266.816 514.666C266.883 515.872 266.917 517.077 266.917 518.316C266.917 522.402 266.545 526.421 265.869 530.306" stroke="#231F20" stroke-width="1.119" stroke-miterlimit="10"/>
<path d="M261.542 544.842C259.479 549.698 256.876 554.287 253.799 558.507" stroke="#231F20" stroke-width="1.119" stroke-miterlimit="10"/>
<path d="M243.556 569.79C239.634 573.239 235.272 576.287 230.607 578.799" stroke="#231F20" stroke-width="1.119" stroke-miterlimit="10"/>
<path d="M216.44 584.562C211.437 585.969 206.196 586.84 200.821 587.108" stroke="#231F20" stroke-width="1.119" stroke-miterlimit="10"/>
<path d="M185.54 586.168C180.265 585.264 175.16 583.791 170.359 581.748" stroke="#231F20" stroke-width="1.119" stroke-miterlimit="10"/>
<path d="M156.971 574.347C152.677 571.299 148.721 567.782 145.239 563.83" stroke="#231F20" stroke-width="1.119" stroke-miterlimit="10"/>
<path d="M136.416 551.44C133.88 546.885 131.885 542.029 130.432 536.938" stroke="#231F20" stroke-width="1.119" stroke-miterlimit="10"/>
<path d="M127.963 521.966C127.895 520.761 127.861 519.555 127.861 518.316C127.861 514.23 128.233 510.211 128.909 506.326" stroke="#231F20" stroke-width="1.119" stroke-miterlimit="10"/>
<path d="M566.469 542.649C563.494 539.066 561.128 534.98 559.572 530.492C559.167 529.387 558.862 528.315 558.592 527.176C557.848 524.196 557.442 521.047 557.442 517.832C557.442 516.292 557.544 514.751 557.713 513.244C557.814 512.105 558.017 511 558.254 509.861C559.234 505.206 561.06 500.852 563.562 496.967C564.137 495.996 564.813 495.025 565.557 494.121C568.397 490.37 571.946 487.221 575.97 484.743C576.916 484.107 577.964 483.537 578.979 483.035C583.103 480.959 587.668 479.585 592.502 479.083C593.652 478.949 594.801 478.882 595.984 478.849H596.694C601.326 478.849 605.721 479.619 609.846 481.093C610.962 481.494 612.01 481.896 613.092 482.399C617.419 484.375 621.307 487.087 624.62 490.403C625.432 491.207 626.209 492.044 626.919 492.982C629.928 496.532 632.295 500.651 633.85 505.139C634.256 506.244 634.56 507.316 634.797 508.455C635.574 511.435 635.98 514.584 635.98 517.832C635.98 519.373 635.879 520.913 635.71 522.387C635.608 523.559 635.405 524.664 635.169 525.803C634.188 530.458 632.363 534.812 629.827 538.697C629.218 539.668 628.576 540.606 627.832 541.51C624.992 545.261 621.442 548.41 617.419 550.888C616.473 551.524 615.424 552.094 614.41 552.596C610.286 554.672 605.721 556.046 600.887 556.548C599.737 556.682 598.588 556.749 597.404 556.782H596.694C592.063 556.782 587.634 555.979 583.509 554.538C582.393 554.137 581.345 553.735 580.297 553.232C575.97 551.256 572.082 548.544 568.768 545.228C567.957 544.424 567.179 543.52 566.436 542.649H566.469ZM631.957 517.832C631.957 498.541 616.202 482.935 596.728 482.935C577.254 482.935 561.5 498.541 561.5 517.832C561.5 537.123 577.254 552.73 596.728 552.73C616.202 552.73 631.957 537.09 631.957 517.832Z" fill="url(#paint42_radial_19_32692)"/>
<path d="M623.133 509.494C624.215 512.877 622.322 516.46 618.941 517.532C615.56 518.637 611.943 516.762 610.827 513.379C609.745 510.03 611.605 506.446 615.019 505.375C618.4 504.269 622.018 506.145 623.133 509.494Z" fill="url(#paint43_radial_19_32692)"/>
<path d="M596.763 482.933C616.237 482.933 631.992 498.54 631.992 517.831C631.992 537.122 616.237 552.728 596.763 552.728C577.289 552.728 561.534 537.088 561.534 517.831C561.534 498.573 577.289 482.933 596.763 482.933V482.933ZM629.557 517.831C629.557 499.846 614.851 485.311 596.763 485.311C578.675 485.311 563.969 499.879 563.969 517.831C563.969 535.782 578.675 550.317 596.763 550.317C614.851 550.317 629.557 535.748 629.557 517.831Z" fill="url(#paint44_radial_19_32692)"/>
<path d="M596.763 485.312C614.884 485.312 629.557 499.881 629.557 517.832C629.557 535.783 614.851 550.318 596.763 550.318C578.675 550.318 563.969 535.75 563.969 517.832C563.969 499.914 578.675 485.312 596.763 485.312ZM618.942 517.531C622.322 516.459 624.216 512.875 623.134 509.493C622.018 506.144 618.401 504.268 615.02 505.373C611.605 506.445 609.746 510.029 610.827 513.378C611.943 516.76 615.561 518.636 618.942 517.531ZM612.89 540.07C615.797 538.027 616.44 534.008 614.377 531.161C612.315 528.315 608.258 527.645 605.384 529.721C602.511 531.764 601.834 535.75 603.897 538.63C605.993 541.477 610.016 542.146 612.89 540.07ZM609.712 522.052C610.253 520.411 609.34 518.602 607.683 518.066C606.027 517.497 604.235 518.435 603.66 520.076C603.119 521.717 604.032 523.492 605.689 524.061C607.345 524.597 609.171 523.693 609.712 522.052ZM605.519 511.301C606.568 509.928 606.229 507.952 604.843 506.88C603.423 505.842 601.429 506.177 600.381 507.584C599.299 508.957 599.637 510.933 601.057 512.005C602.477 513.043 604.471 512.708 605.519 511.301ZM603.322 496.833C603.322 493.316 600.482 490.47 596.932 490.403C593.382 490.336 590.441 493.216 590.441 496.733C590.441 500.249 593.281 503.163 596.831 503.196C600.381 503.196 603.322 500.35 603.322 496.833V496.833ZM602.274 517.832C602.274 514.818 599.806 512.339 596.763 512.339C593.72 512.339 591.218 514.818 591.218 517.832C591.218 520.846 593.72 523.291 596.763 523.291C599.806 523.291 602.274 520.813 602.274 517.832ZM599.873 528.181C599.873 526.439 598.453 524.999 596.695 524.999C594.937 524.999 593.484 526.406 593.484 528.147C593.484 529.889 594.904 531.329 596.662 531.329C598.42 531.329 599.873 529.922 599.873 528.181ZM592.469 511.938C593.889 510.966 594.227 508.99 593.213 507.584C592.165 506.177 590.204 505.809 588.75 506.847C587.297 507.885 586.992 509.828 588.007 511.268C589.055 512.674 591.016 513.009 592.469 511.971V511.938ZM589.359 538.462C591.455 535.649 590.846 531.63 587.973 529.554C585.099 527.477 581.076 528.08 578.98 530.927C576.85 533.74 577.492 537.759 580.332 539.836C583.206 541.912 587.263 541.309 589.359 538.462ZM587.736 523.894C589.393 523.358 590.339 521.616 589.798 519.942C589.257 518.267 587.499 517.363 585.809 517.899C584.119 518.435 583.206 520.176 583.747 521.884C584.288 523.525 586.046 524.43 587.736 523.894V523.894ZM582.732 513.143C583.848 509.794 582.022 506.211 578.642 505.072C575.261 503.967 571.609 505.775 570.494 509.124C569.344 512.473 571.204 516.09 574.585 517.196C577.965 518.334 581.583 516.492 582.732 513.143Z" fill="url(#paint45_radial_19_32692)"/>
<path d="M614.377 531.161C616.439 534.008 615.797 538.027 612.889 540.07C610.015 542.146 605.992 541.476 603.896 538.63C601.834 535.749 602.51 531.764 605.384 529.721C608.257 527.645 612.315 528.314 614.377 531.161Z" fill="url(#paint46_radial_19_32692)"/>
<path d="M607.683 518.067C609.339 518.603 610.252 520.378 609.711 522.053C609.17 523.727 607.378 524.598 605.688 524.062C604.031 523.493 603.118 521.751 603.659 520.077C604.234 518.435 605.992 517.498 607.683 518.067Z" fill="url(#paint47_radial_19_32692)"/>
<path d="M604.842 506.916C606.229 507.987 606.567 509.93 605.519 511.337C604.471 512.743 602.51 513.078 601.056 512.04C599.636 510.968 599.298 509.026 600.38 507.619C601.428 506.212 603.389 505.877 604.842 506.916Z" fill="url(#paint48_radial_19_32692)"/>
<path d="M596.897 490.405C600.447 490.438 603.321 493.285 603.287 496.835C603.287 500.351 600.38 503.198 596.796 503.198C593.246 503.165 590.372 500.284 590.406 496.734C590.406 493.218 593.314 490.371 596.897 490.405Z" fill="url(#paint49_radial_19_32692)"/>
<path d="M596.762 512.341C599.805 512.341 602.273 514.82 602.273 517.834C602.273 520.848 599.805 523.293 596.762 523.293C593.719 523.293 591.218 520.815 591.218 517.834C591.218 514.853 593.719 512.341 596.762 512.341ZM600.38 517.834C600.38 515.824 598.757 514.217 596.762 514.217C594.768 514.217 593.145 515.824 593.145 517.834C593.145 519.843 594.734 521.417 596.762 521.417C598.791 521.417 600.38 519.81 600.38 517.834Z" fill="#262626"/>
<path d="M596.763 514.214C598.757 514.214 600.38 515.821 600.38 517.831C600.38 519.84 598.757 521.414 596.763 521.414C594.768 521.414 593.145 519.807 593.145 517.831C593.145 515.855 594.734 514.214 596.763 514.214V514.214Z" fill="url(#paint50_radial_19_32692)"/>
<path d="M596.728 525.032C598.486 525.032 599.906 526.472 599.906 528.214C599.906 529.956 598.486 531.362 596.694 531.362C594.902 531.362 593.516 529.956 593.516 528.181C593.516 526.405 594.97 525.032 596.728 525.032Z" fill="url(#paint51_radial_19_32692)"/>
<path d="M593.246 507.584C594.226 508.991 593.922 510.967 592.502 511.938C591.082 512.976 589.087 512.642 588.039 511.235C587.059 509.828 587.363 507.852 588.783 506.814C590.203 505.776 592.197 506.144 593.246 507.551V507.584Z" fill="url(#paint52_radial_19_32692)"/>
<path d="M588.006 529.621C590.88 531.697 591.489 535.716 589.392 538.529C587.296 541.376 583.239 541.979 580.365 539.902C577.526 537.826 576.883 533.807 579.013 530.994C581.109 528.147 585.133 527.544 588.006 529.621Z" fill="url(#paint53_radial_19_32692)"/>
<path d="M589.832 520.008C590.373 521.649 589.427 523.424 587.77 523.96C586.113 524.495 584.321 523.591 583.781 521.95C583.24 520.242 584.186 518.501 585.843 517.965C587.499 517.429 589.291 518.367 589.832 520.008V520.008Z" fill="url(#paint54_radial_19_32692)"/>
<path d="M578.64 505.139C582.021 506.278 583.847 509.861 582.731 513.21C581.582 516.559 577.964 518.402 574.583 517.263C571.202 516.158 569.343 512.541 570.492 509.191C571.608 505.842 575.259 504.034 578.64 505.139Z" fill="url(#paint55_radial_19_32692)"/>
<path d="M666.17 514.182C659.476 518.535 643.214 522.755 636.148 522.42H635.776C635.674 523.559 635.472 524.664 635.235 525.803C644.6 528.75 657.887 530.525 665.189 529.822C665.899 525.903 666.271 521.918 666.271 517.832C666.271 516.593 666.271 515.354 666.17 514.182Z" fill="url(#paint56_radial_19_32692)"/>
<path d="M633.917 505.138C634.323 506.244 634.627 507.315 634.864 508.454C644.601 507.114 657.448 502.961 663.669 499.177C662.215 494.019 660.186 489.197 657.651 484.642C653.56 491.441 640.713 502.225 634.221 505.004L633.917 505.105V505.138Z" fill="url(#paint57_radial_19_32692)"/>
<path d="M630.23 538.9L629.926 538.699C629.318 539.67 628.675 540.608 627.932 541.512C635.031 548.21 646.29 555.578 653.187 558.057C656.229 553.837 658.867 549.248 660.895 544.392C652.95 545.464 636.451 542.249 630.23 538.933V538.9Z" fill="url(#paint58_radial_19_32692)"/>
<path d="M648.894 472.252C645.378 468.333 641.456 464.817 637.162 461.736C636.452 469.639 629.623 484.878 624.957 490.17L624.721 490.37C625.532 491.174 626.31 492.012 627.019 492.949C635.235 487.557 644.972 478.28 648.928 472.218L648.894 472.252Z" fill="url(#paint59_radial_19_32692)"/>
<path d="M617.689 551.19L617.52 550.922C616.574 551.558 615.525 552.128 614.511 552.63C617.994 561.773 624.857 573.16 630.029 578.351C634.695 575.839 639.023 572.825 642.944 569.375C635.304 566.864 621.882 556.883 617.723 551.223L617.689 551.19Z" fill="url(#paint60_radial_19_32692)"/>
<path d="M610.013 480.792L609.912 481.093C611.028 481.495 612.076 481.897 613.158 482.4C618.161 474.027 622.895 461.535 623.807 454.334C619.007 452.325 613.901 450.817 608.627 449.913C611.433 457.348 611.941 474.027 610.047 480.758L610.013 480.792Z" fill="url(#paint61_radial_19_32692)"/>
<path d="M600.952 556.549C599.802 556.683 598.653 556.75 597.47 556.783C596.624 566.462 597.875 579.725 600.174 586.59C605.584 586.356 610.824 585.452 615.794 584.045C609.979 578.519 602.271 563.749 600.986 556.884V556.515L600.952 556.549Z" fill="url(#paint62_radial_19_32692)"/>
<path d="M577.725 451.587C583.473 457.113 591.249 471.883 592.534 478.749V479.117C593.717 478.983 594.867 478.916 596.05 478.883C596.861 469.17 595.61 455.941 593.311 449.076C587.936 449.31 582.729 450.214 577.725 451.621V451.587Z" fill="url(#paint63_radial_19_32692)"/>
<path d="M583.44 554.84L583.541 554.539C582.426 554.137 581.378 553.735 580.33 553.233C575.292 561.673 570.593 574.131 569.646 581.298C574.447 583.308 579.552 584.815 584.826 585.719C582.02 578.251 581.479 561.606 583.372 554.874L583.44 554.84Z" fill="url(#paint64_radial_19_32692)"/>
<path d="M575.834 484.476L576.003 484.744C576.949 484.108 577.997 483.538 579.012 483.036C575.529 473.893 568.599 462.506 563.494 457.315C558.828 459.827 554.5 462.841 550.545 466.29C558.186 468.802 571.608 478.783 575.8 484.443L575.834 484.476Z" fill="url(#paint65_radial_19_32692)"/>
<path d="M544.594 563.381C548.077 567.3 552.032 570.816 556.326 573.897C557.036 565.993 563.865 550.789 568.531 545.497L568.801 545.263C567.99 544.459 567.212 543.554 566.469 542.684C558.287 548.076 548.584 557.319 544.594 563.415V563.381Z" fill="url(#paint66_radial_19_32692)"/>
<path d="M563.29 496.768L563.56 496.969C564.135 495.998 564.811 495.027 565.555 494.122C558.455 487.424 547.197 480.056 540.3 477.578C537.19 481.798 534.62 486.386 532.558 491.242C540.537 490.17 557.002 493.419 563.256 496.735L563.29 496.768Z" fill="url(#paint67_radial_19_32692)"/>
<path d="M559.571 530.494C559.165 529.389 558.861 528.317 558.59 527.178C548.853 528.518 536.04 532.671 529.819 536.455C531.273 541.613 533.268 546.435 535.803 550.99C539.962 544.158 552.775 533.407 559.3 530.628L559.605 530.527H559.571V530.494Z" fill="url(#paint68_radial_19_32692)"/>
<path d="M557.373 513.211H557.745C557.847 512.106 558.049 511.001 558.286 509.862C548.887 506.881 535.6 505.106 528.298 505.843C527.621 509.762 527.25 513.713 527.25 517.833C527.25 519.039 527.25 520.278 527.317 521.45C534.011 517.096 550.307 512.876 557.373 513.211Z" fill="url(#paint69_radial_19_32692)"/>
<path d="M667.286 500.05C666.779 498.744 665.224 498.241 664.007 498.978C663.905 499.045 663.804 499.112 663.703 499.146C657.482 502.964 644.634 507.116 634.898 508.456C635.675 511.437 636.081 514.585 636.081 517.834C636.081 519.374 635.979 520.915 635.81 522.388H636.182C643.248 522.757 659.51 518.537 666.204 514.183C667.591 513.312 668.605 512.375 668.977 511.504C669.687 507.418 668.977 504.236 667.354 500.05H667.286V500.05Z" fill="url(#paint70_radial_19_32692)"/>
<path d="M665.629 529.787C665.629 529.787 665.358 529.821 665.189 529.821C657.887 530.524 644.6 528.749 635.235 525.802C634.254 530.457 632.429 534.811 629.893 538.696L630.197 538.897C636.418 542.212 652.917 545.427 660.862 544.356C662.519 544.155 663.769 543.753 664.513 543.117C666.947 539.734 667.691 536.552 668.063 532.098C668.165 530.725 666.947 529.586 665.561 529.787H665.629Z" fill="url(#paint71_radial_19_32692)"/>
<path d="M633.917 505.14L634.222 505.04C640.747 502.26 653.56 491.476 657.651 484.677C658.496 483.271 659.003 482.031 658.97 481.094C657.82 477.108 655.758 474.529 652.478 471.515C651.43 470.544 649.807 470.778 649.064 471.984C648.996 472.085 648.928 472.185 648.861 472.285C644.905 478.347 635.168 487.624 626.953 493.016C629.962 496.567 632.328 500.686 633.883 505.174L633.917 505.14Z" fill="url(#paint72_radial_19_32692)"/>
<path d="M653.559 558.188C653.559 558.188 653.322 558.088 653.153 558.054C646.256 555.576 634.998 548.208 627.898 541.51C625.058 545.261 621.508 548.409 617.485 550.887L617.654 551.155C621.813 556.815 635.235 566.796 642.875 569.307C644.431 569.81 645.783 570.011 646.763 569.776C650.381 567.767 652.477 565.221 654.776 561.403C655.486 560.164 654.877 558.657 653.559 558.188Z" fill="url(#paint73_radial_19_32692)"/>
<path d="M624.923 490.201C629.589 484.909 636.418 469.671 637.128 461.767C637.297 460.159 637.128 458.82 636.722 457.949C633.984 454.834 631.009 453.428 626.681 452.055C625.329 451.653 623.943 452.557 623.807 453.964C623.807 454.098 623.807 454.198 623.807 454.366C622.928 461.566 618.195 474.025 613.158 482.431C617.485 484.407 621.373 487.12 624.686 490.435L624.923 490.234V490.201Z" fill="url(#paint74_radial_19_32692)"/>
<path d="M629.994 578.316C624.822 573.125 617.958 561.704 614.476 552.595C610.351 554.671 605.787 556.044 600.953 556.547V556.915C602.271 563.781 609.98 578.55 615.795 584.076C617.012 585.215 618.094 585.985 619.074 586.153C623.233 585.952 626.242 584.545 629.961 582.033C631.144 581.23 631.279 579.589 630.265 578.617C630.163 578.517 630.096 578.45 629.994 578.349V578.316Z" fill="url(#paint75_radial_19_32692)"/>
<path d="M593.312 449.041C595.611 455.906 596.862 469.135 596.051 478.848H596.761C601.393 478.848 605.788 479.618 609.913 481.091L610.014 480.79C611.907 474.058 611.4 457.38 608.594 449.945C608.019 448.404 607.343 447.266 606.566 446.663C602.711 445.089 599.398 445.089 594.935 445.725C593.549 445.926 592.704 447.299 593.177 448.639C593.177 448.739 593.245 448.873 593.279 449.041H593.312Z" fill="url(#paint76_radial_19_32692)"/>
<path d="M600.176 586.589C597.877 579.724 596.626 566.461 597.471 556.782H596.761C592.13 556.782 587.701 555.978 583.576 554.538L583.475 554.84C581.581 561.571 582.122 578.217 584.928 585.685C585.503 587.226 586.179 588.364 586.957 588.967C590.811 590.541 594.124 590.541 598.553 589.905C599.973 589.737 600.785 588.331 600.345 586.991C600.345 586.891 600.278 586.757 600.21 586.589H600.176Z" fill="url(#paint77_radial_19_32692)"/>
<path d="M563.528 457.315C568.599 462.506 575.564 473.926 579.046 483.036C583.171 480.959 587.735 479.586 592.569 479.084V478.715C591.251 471.85 583.509 457.08 577.727 451.554C576.51 450.382 575.462 449.645 574.482 449.478C570.323 449.679 567.314 451.085 563.595 453.597C562.412 454.401 562.277 456.042 563.291 457.013C563.392 457.08 563.46 457.181 563.562 457.281L563.528 457.315Z" fill="url(#paint78_radial_19_32692)"/>
<path d="M539.929 477.441C539.929 477.441 540.165 477.508 540.334 477.575C547.231 480.053 558.49 487.421 565.59 494.119C568.429 490.368 571.979 487.22 576.003 484.742L575.834 484.474C571.641 478.814 558.219 468.834 550.578 466.322C549.023 465.819 547.705 465.619 546.724 465.853C543.073 467.862 541.011 470.408 538.712 474.293C538.002 475.498 538.576 477.005 539.929 477.474V477.441Z" fill="url(#paint79_radial_19_32692)"/>
<path d="M568.53 545.464C563.865 550.755 557.035 565.96 556.325 573.864C556.19 575.472 556.326 576.811 556.731 577.682C559.504 580.797 562.479 582.237 566.806 583.577C568.159 584.012 569.511 583.074 569.646 581.668C569.646 581.534 569.646 581.433 569.646 581.266C570.559 574.099 575.258 561.64 580.33 553.2C576.002 551.224 572.114 548.511 568.801 545.196L568.53 545.43V545.464Z" fill="url(#paint80_radial_19_32692)"/>
<path d="M527.892 505.875C527.892 505.875 528.129 505.841 528.298 505.841C535.6 505.104 548.887 506.879 558.286 509.86C559.266 505.205 561.092 500.851 563.594 496.966L563.323 496.765C557.069 493.449 540.604 490.201 532.625 491.272C531.002 491.473 529.718 491.875 528.974 492.512C526.539 495.894 525.796 499.076 525.458 503.53C525.356 504.903 526.573 506.042 527.959 505.908H527.892V505.875Z" fill="url(#paint81_radial_19_32692)"/>
<path d="M559.571 530.49L559.266 530.591C552.741 533.371 539.961 544.121 535.769 550.953C534.924 552.36 534.417 553.599 534.451 554.537C535.634 558.522 537.662 561.101 540.976 564.149C542.024 565.087 543.647 564.852 544.39 563.68C544.458 563.579 544.526 563.479 544.593 563.312C548.583 557.216 558.286 547.973 566.467 542.581C563.492 538.997 561.126 534.911 559.571 530.423V530.49V530.49Z" fill="url(#paint82_radial_19_32692)"/>
<path d="M557.441 517.83C557.441 516.289 557.542 514.748 557.711 513.241H557.339C550.273 512.873 533.978 517.093 527.283 521.447C525.897 522.351 524.883 523.289 524.511 524.159C523.835 528.212 524.511 531.427 526.168 535.58C526.675 536.886 528.23 537.388 529.447 536.652C529.549 536.585 529.65 536.518 529.752 536.484C535.972 532.666 548.786 528.513 558.523 527.174C557.779 524.193 557.373 521.045 557.373 517.83H557.441V517.83Z" fill="url(#paint83_radial_19_32692)"/>
<path d="M596.759 552.73C616.216 552.73 631.988 537.106 631.988 517.832C631.988 498.559 616.216 482.935 596.759 482.935C577.303 482.935 561.531 498.559 561.531 517.832C561.531 537.106 577.303 552.73 596.759 552.73Z" stroke="#231F20" stroke-width="1.119" stroke-miterlimit="10"/>
<path d="M596.759 556.783C618.474 556.783 636.078 539.344 636.078 517.833C636.078 496.321 618.474 478.883 596.759 478.883C575.043 478.883 557.439 496.321 557.439 517.833C557.439 539.344 575.043 556.783 596.759 556.783Z" stroke="#231F20" stroke-width="1.119" stroke-miterlimit="10"/>
<path d="M596.759 550.319C614.87 550.319 629.553 535.774 629.553 517.832C629.553 499.891 614.87 485.346 596.759 485.346C578.647 485.346 563.964 499.891 563.964 517.832C563.964 535.774 578.647 550.319 596.759 550.319Z" stroke="#231F20" stroke-width="0.699377" stroke-miterlimit="10"/>
<path d="M596.759 523.324C599.821 523.324 602.303 520.865 602.303 517.832C602.303 514.798 599.821 512.339 596.759 512.339C593.696 512.339 591.214 514.798 591.214 517.832C591.214 520.865 593.696 523.324 596.759 523.324Z" stroke="#231F20" stroke-width="0.699377" stroke-miterlimit="10"/>
<path d="M596.759 521.45C598.776 521.45 600.41 519.83 600.41 517.833C600.41 515.835 598.776 514.216 596.759 514.216C594.742 514.216 593.108 515.835 593.108 517.833C593.108 519.83 594.742 521.45 596.759 521.45Z" stroke="#231F20" stroke-width="0.699377" stroke-miterlimit="10"/>
<path d="M609.133 541.275C612.699 541.275 615.59 538.411 615.59 534.879C615.59 531.346 612.699 528.482 609.133 528.482C605.566 528.482 602.675 531.346 602.675 534.879C602.675 538.411 605.566 541.275 609.133 541.275Z" stroke="#231F20" stroke-width="1.39875" stroke-miterlimit="10"/>
<path d="M584.18 541.143C587.747 541.143 590.638 538.279 590.638 534.746C590.638 531.213 587.747 528.349 584.18 528.349C580.614 528.349 577.723 531.213 577.723 534.746C577.723 538.279 580.614 541.143 584.18 541.143Z" stroke="#231F20" stroke-width="1.39875" stroke-miterlimit="10"/>
<path d="M576.608 517.635C580.175 517.635 583.066 514.771 583.066 511.238C583.066 507.705 580.175 504.841 576.608 504.841C573.042 504.841 570.151 507.705 570.151 511.238C570.151 514.771 573.042 517.635 576.608 517.635Z" stroke="#231F20" stroke-width="1.39875" stroke-miterlimit="10"/>
<path d="M596.859 503.196C600.425 503.196 603.317 500.332 603.317 496.8C603.317 493.267 600.425 490.403 596.859 490.403C593.293 490.403 590.402 493.267 590.402 496.8C590.402 500.332 593.293 503.196 596.859 503.196Z" stroke="#231F20" stroke-width="1.39875" stroke-miterlimit="10"/>
<path d="M616.943 517.835C620.51 517.835 623.401 514.971 623.401 511.438C623.401 507.905 620.51 505.041 616.943 505.041C613.377 505.041 610.486 507.905 610.486 511.438C610.486 514.971 613.377 517.835 616.943 517.835Z" stroke="#231F20" stroke-width="1.39875" stroke-miterlimit="10"/>
<path d="M596.69 531.33C598.445 531.33 599.868 529.92 599.868 528.182C599.868 526.443 598.445 525.034 596.69 525.034C594.935 525.034 593.512 526.443 593.512 528.182C593.512 529.92 594.935 531.33 596.69 531.33Z" stroke="#231F20" stroke-width="0.699377" stroke-miterlimit="10"/>
<path d="M586.785 524.131C588.54 524.131 589.963 522.721 589.963 520.982C589.963 519.244 588.54 517.834 586.785 517.834C585.03 517.834 583.607 519.244 583.607 520.982C583.607 522.721 585.03 524.131 586.785 524.131Z" stroke="#231F20" stroke-width="0.699377" stroke-miterlimit="10"/>
<path d="M590.638 512.576C592.394 512.576 593.816 511.167 593.816 509.428C593.816 507.689 592.394 506.28 590.638 506.28C588.883 506.28 587.46 507.689 587.46 509.428C587.46 511.167 588.883 512.576 590.638 512.576Z" stroke="#231F20" stroke-width="0.699377" stroke-miterlimit="10"/>
<path d="M602.946 512.608C604.701 512.608 606.124 511.199 606.124 509.46C606.124 507.721 604.701 506.312 602.946 506.312C601.191 506.312 599.768 507.721 599.768 509.46C599.768 511.199 601.191 512.608 602.946 512.608Z" stroke="#231F20" stroke-width="0.699377" stroke-miterlimit="10"/>
<path d="M606.665 524.231C608.42 524.231 609.843 522.822 609.843 521.083C609.843 519.344 608.42 517.935 606.665 517.935C604.909 517.935 603.487 519.344 603.487 521.083C603.487 522.822 604.909 524.231 606.665 524.231Z" stroke="#231F20" stroke-width="0.699377" stroke-miterlimit="10"/>
<path d="M583.438 554.84C581.173 563.012 582.39 585.552 586.92 588.968C590.775 590.542 594.054 590.575 598.551 589.939C599.971 589.738 600.782 588.331 600.309 587.025C597.875 580.193 596.59 566.361 597.503 556.448" stroke="#231F20" stroke-width="1.119" stroke-miterlimit="10"/>
<path d="M568.562 545.465C562.95 551.862 554.159 572.693 556.729 577.717C559.501 580.798 562.476 582.238 566.77 583.578C568.122 584.013 569.475 583.109 569.644 581.702C570.421 574.502 575.324 561.474 580.496 552.933" stroke="#231F20" stroke-width="1.119" stroke-miterlimit="10"/>
<path d="M559.23 530.595C551.353 533.945 534.313 548.949 534.448 554.575C535.598 558.56 537.66 561.106 540.94 564.187C541.988 565.158 543.61 564.924 544.354 563.718C548.242 557.556 558.351 547.944 566.736 542.485" stroke="#231F20" stroke-width="1.119" stroke-miterlimit="10"/>
<path d="M557.371 513.21C548.817 512.842 526.909 519.038 524.543 524.162C523.833 528.248 524.543 531.43 526.199 535.616C526.706 536.922 528.262 537.424 529.479 536.654C535.666 532.769 548.986 528.449 558.96 527.143" stroke="#231F20" stroke-width="1.119" stroke-miterlimit="10"/>
<path d="M563.287 496.734C555.748 492.715 533.265 488.897 528.938 492.481C526.503 495.83 525.76 499.045 525.422 503.499C525.32 504.906 526.503 506.011 527.923 505.844C535.192 505.007 549.088 506.849 558.656 509.93" stroke="#231F20" stroke-width="1.119" stroke-miterlimit="10"/>
<path d="M575.831 484.443C570.794 477.577 552.233 464.482 546.722 465.855C543.071 467.831 541.008 470.41 538.709 474.261C537.999 475.467 538.574 477.008 539.926 477.443C546.857 479.821 558.555 487.423 565.824 494.322" stroke="#231F20" stroke-width="1.119" stroke-miterlimit="10"/>
<path d="M592.499 478.75C590.978 470.411 579.99 450.618 574.411 449.479C570.253 449.713 567.278 451.12 563.525 453.598C562.342 454.369 562.206 456.01 563.221 456.981C568.427 462.105 575.628 473.994 579.144 483.338" stroke="#231F20" stroke-width="1.119" stroke-miterlimit="10"/>
<path d="M610.046 480.828C612.312 472.656 611.094 450.116 606.564 446.7C602.71 445.126 599.43 445.093 594.934 445.729C593.514 445.93 592.702 447.337 593.176 448.643C595.61 455.475 596.895 469.307 595.982 479.22" stroke="#231F20" stroke-width="1.119" stroke-miterlimit="10"/>
<path d="M624.922 490.204C630.534 483.807 639.324 462.975 636.755 457.952C633.982 454.871 631.007 453.431 626.713 452.091C625.361 451.655 624.009 452.56 623.84 453.966C623.062 461.167 618.16 474.195 612.987 482.735" stroke="#231F20" stroke-width="1.119" stroke-miterlimit="10"/>
<path d="M634.252 505.04C642.13 501.691 659.169 486.687 659.034 481.061C657.885 477.075 655.822 474.53 652.543 471.449C651.495 470.478 649.872 470.712 649.128 471.918C645.24 478.08 635.131 487.692 626.747 493.151" stroke="#231F20" stroke-width="1.119" stroke-miterlimit="10"/>
<path d="M636.112 522.421C644.665 522.789 666.573 516.594 668.94 511.469C669.65 507.384 668.94 504.202 667.283 500.016C666.776 498.709 665.221 498.207 664.004 498.977C657.817 502.862 644.496 507.183 634.523 508.489" stroke="#231F20" stroke-width="1.119" stroke-miterlimit="10"/>
<path d="M630.23 538.902C637.769 542.921 660.252 546.739 664.579 543.155C667.013 539.806 667.757 536.591 668.095 532.136C668.197 530.73 667.013 529.625 665.594 529.792C658.325 530.629 644.429 528.787 634.861 525.706" stroke="#231F20" stroke-width="1.119" stroke-miterlimit="10"/>
<path d="M617.652 551.189C622.689 558.055 641.25 571.15 646.761 569.777C650.413 567.801 652.475 565.222 654.774 561.371C655.484 560.165 654.909 558.624 653.557 558.189C646.626 555.811 634.928 548.209 627.659 541.309" stroke="#231F20" stroke-width="1.119" stroke-miterlimit="10"/>
<path d="M600.985 556.881C602.506 565.22 613.494 585.013 619.072 586.152C623.231 585.917 626.206 584.511 629.959 582.032C631.142 581.262 631.277 579.621 630.263 578.65C625.056 573.526 617.855 561.636 614.339 552.292" stroke="#231F20" stroke-width="1.119" stroke-miterlimit="10"/>
<path d="M532.59 491.272C534.652 486.416 537.255 481.828 540.332 477.574" stroke="#231F20" stroke-width="1.119" stroke-miterlimit="10"/>
<path d="M550.576 466.324C554.498 462.875 558.859 459.827 563.525 457.315" stroke="#231F20" stroke-width="1.119" stroke-miterlimit="10"/>
<path d="M577.69 451.553C582.694 450.146 587.935 449.275 593.31 449.008" stroke="#231F20" stroke-width="1.119" stroke-miterlimit="10"/>
<path d="M608.592 449.947C613.866 450.851 618.971 452.325 623.772 454.368" stroke="#231F20" stroke-width="1.119" stroke-miterlimit="10"/>
<path d="M637.16 461.768C641.454 464.816 645.409 468.333 648.892 472.285" stroke="#231F20" stroke-width="1.119" stroke-miterlimit="10"/>
<path d="M657.715 484.677C660.251 489.232 662.246 494.088 663.699 499.179" stroke="#231F20" stroke-width="1.119" stroke-miterlimit="10"/>
<path d="M666.168 514.182C666.236 515.388 666.27 516.593 666.27 517.833C666.27 521.918 665.898 525.937 665.222 529.822" stroke="#231F20" stroke-width="1.119" stroke-miterlimit="10"/>
<path d="M660.926 544.358C658.864 549.215 656.261 553.803 653.184 558.023" stroke="#231F20" stroke-width="1.119" stroke-miterlimit="10"/>
<path d="M642.907 569.306C638.985 572.756 634.624 575.803 629.958 578.315" stroke="#231F20" stroke-width="1.119" stroke-miterlimit="10"/>
<path d="M615.793 584.078C610.789 585.485 605.549 586.356 600.173 586.624" stroke="#231F20" stroke-width="1.119" stroke-miterlimit="10"/>
<path d="M584.893 585.685C579.618 584.78 574.513 583.307 569.712 581.264" stroke="#231F20" stroke-width="1.119" stroke-miterlimit="10"/>
<path d="M556.323 573.863C552.029 570.815 548.074 567.299 544.591 563.347" stroke="#231F20" stroke-width="1.119" stroke-miterlimit="10"/>
<path d="M535.802 550.956C533.266 546.401 531.272 541.545 529.818 536.454" stroke="#231F20" stroke-width="1.119" stroke-miterlimit="10"/>
<path d="M527.315 521.482C527.248 520.277 527.214 519.071 527.214 517.832C527.214 513.746 527.586 509.727 528.262 505.842" stroke="#231F20" stroke-width="1.119" stroke-miterlimit="10"/>
</g>
<defs>
<radialGradient id="paint0_radial_19_32692" cx="0" cy="0" r="1" gradientUnits="userSpaceOnUse" gradientTransform="translate(197.374 518.282) scale(39.3195 38.95)">
<stop stop-color="white"/>
<stop offset="0.13" stop-color="#F0F0F0"/>
<stop offset="0.37" stop-color="#C9CACB"/>
<stop offset="0.52" stop-color="#ADAEB0"/>
<stop offset="0.6" stop-color="#A3A5A7"/>
<stop offset="0.74" stop-color="#898D8F"/>
<stop offset="0.91" stop-color="#5E6669"/>
<stop offset="1" stop-color="#465053"/>
</radialGradient>
<radialGradient id="paint1_radial_19_32692" cx="0" cy="0" r="1" gradientUnits="userSpaceOnUse" gradientTransform="translate(217.591 511.887) scale(6.45747 6.39678)">
<stop offset="0.69" stop-color="#171717"/>
<stop offset="0.8" stop-color="#1A1A1A"/>
<stop offset="0.89" stop-color="#242424"/>
<stop offset="0.97" stop-color="#343434"/>
<stop offset="1" stop-color="#3F3F3F"/>
</radialGradient>
<radialGradient id="paint2_radial_19_32692" cx="0" cy="0" r="1" gradientUnits="userSpaceOnUse" gradientTransform="translate(197.409 518.281) scale(35.2287 34.8976)">
<stop stop-color="white"/>
<stop offset="0.13" stop-color="#F0F0F0"/>
<stop offset="0.37" stop-color="#C9CACB"/>
<stop offset="0.52" stop-color="#ADAEB0"/>
<stop offset="0.6" stop-color="#A3A5A7"/>
<stop offset="0.74" stop-color="#898D8F"/>
<stop offset="0.91" stop-color="#5E6669"/>
<stop offset="1" stop-color="#465053"/>
</radialGradient>
<radialGradient id="paint3_radial_19_32692" cx="0" cy="0" r="1" gradientUnits="userSpaceOnUse" gradientTransform="translate(197.409 518.282) scale(32.7945 32.4862)">
<stop stop-color="white"/>
<stop offset="0.13" stop-color="#F0F0F0"/>
<stop offset="0.37" stop-color="#C9CACB"/>
<stop offset="0.52" stop-color="#ADAEB0"/>
<stop offset="0.6" stop-color="#A3A5A7"/>
<stop offset="0.74" stop-color="#898D8F"/>
<stop offset="0.91" stop-color="#5E6669"/>
<stop offset="1" stop-color="#465053"/>
</radialGradient>
<radialGradient id="paint4_radial_19_32692" cx="0" cy="0" r="1" gradientUnits="userSpaceOnUse" gradientTransform="translate(209.782 535.329) scale(6.45747 6.39678)">
<stop offset="0.69" stop-color="#171717"/>
<stop offset="0.8" stop-color="#1A1A1A"/>
<stop offset="0.89" stop-color="#242424"/>
<stop offset="0.97" stop-color="#343434"/>
<stop offset="1" stop-color="#3F3F3F"/>
</radialGradient>
<radialGradient id="paint5_radial_19_32692" cx="0" cy="0" r="1" gradientUnits="userSpaceOnUse" gradientTransform="translate(207.314 521.531) scale(3.17802 3.14815)">
<stop stop-color="white"/>
<stop offset="0.13" stop-color="#F0F0F0"/>
<stop offset="0.37" stop-color="#C9CACB"/>
<stop offset="0.52" stop-color="#ADAEB0"/>
<stop offset="0.6" stop-color="#A3A5A7"/>
<stop offset="0.74" stop-color="#898D8F"/>
<stop offset="0.91" stop-color="#5E6669"/>
<stop offset="1" stop-color="#465053"/>
</radialGradient>
<radialGradient id="paint6_radial_19_32692" cx="0" cy="0" r="1" gradientUnits="userSpaceOnUse" gradientTransform="translate(203.561 509.911) scale(3.17802 3.14815)">
<stop stop-color="white"/>
<stop offset="0.13" stop-color="#F0F0F0"/>
<stop offset="0.37" stop-color="#C9CACB"/>
<stop offset="0.52" stop-color="#ADAEB0"/>
<stop offset="0.6" stop-color="#A3A5A7"/>
<stop offset="0.74" stop-color="#898D8F"/>
<stop offset="0.91" stop-color="#5E6669"/>
<stop offset="1" stop-color="#465053"/>
</radialGradient>
<radialGradient id="paint7_radial_19_32692" cx="0" cy="0" r="1" gradientUnits="userSpaceOnUse" gradientTransform="translate(197.509 497.252) scale(6.45746 6.39677)">
<stop offset="0.69" stop-color="#171717"/>
<stop offset="0.8" stop-color="#1A1A1A"/>
<stop offset="0.89" stop-color="#242424"/>
<stop offset="0.97" stop-color="#343434"/>
<stop offset="1" stop-color="#3F3F3F"/>
</radialGradient>
<radialGradient id="paint8_radial_19_32692" cx="0" cy="0" r="1" gradientUnits="userSpaceOnUse" gradientTransform="translate(197.408 518.281) scale(3.65134 3.61702)">
<stop stop-color="white"/>
<stop offset="0.13" stop-color="#F0F0F0"/>
<stop offset="0.37" stop-color="#C9CACB"/>
<stop offset="0.52" stop-color="#ADAEB0"/>
<stop offset="0.6" stop-color="#A3A5A7"/>
<stop offset="0.74" stop-color="#898D8F"/>
<stop offset="0.91" stop-color="#5E6669"/>
<stop offset="1" stop-color="#465053"/>
</radialGradient>
<radialGradient id="paint9_radial_19_32692" cx="0" cy="0" r="1" gradientUnits="userSpaceOnUse" gradientTransform="translate(197.34 528.63) scale(3.17802 3.14815)">
<stop stop-color="white"/>
<stop offset="0.13" stop-color="#F0F0F0"/>
<stop offset="0.37" stop-color="#C9CACB"/>
<stop offset="0.52" stop-color="#ADAEB0"/>
<stop offset="0.6" stop-color="#A3A5A7"/>
<stop offset="0.74" stop-color="#898D8F"/>
<stop offset="0.91" stop-color="#5E6669"/>
<stop offset="1" stop-color="#465053"/>
</radialGradient>
<radialGradient id="paint10_radial_19_32692" cx="0" cy="0" r="1" gradientUnits="userSpaceOnUse" gradientTransform="translate(191.288 509.843) scale(3.17802 3.14815)">
<stop stop-color="white"/>
<stop offset="0.13" stop-color="#F0F0F0"/>
<stop offset="0.37" stop-color="#C9CACB"/>
<stop offset="0.52" stop-color="#ADAEB0"/>
<stop offset="0.6" stop-color="#A3A5A7"/>
<stop offset="0.74" stop-color="#898D8F"/>
<stop offset="0.91" stop-color="#5E6669"/>
<stop offset="1" stop-color="#465053"/>
</radialGradient>
<radialGradient id="paint11_radial_19_32692" cx="0" cy="0" r="1" gradientUnits="userSpaceOnUse" gradientTransform="translate(184.832 535.195) scale(6.45747 6.39678)">
<stop offset="0.69" stop-color="#171717"/>
<stop offset="0.8" stop-color="#1A1A1A"/>
<stop offset="0.89" stop-color="#242424"/>
<stop offset="0.97" stop-color="#343434"/>
<stop offset="1" stop-color="#3F3F3F"/>
</radialGradient>
<radialGradient id="paint12_radial_19_32692" cx="0" cy="0" r="1" gradientUnits="userSpaceOnUse" gradientTransform="translate(187.435 521.429) scale(3.17802 3.14815)">
<stop stop-color="white"/>
<stop offset="0.13" stop-color="#F0F0F0"/>
<stop offset="0.37" stop-color="#C9CACB"/>
<stop offset="0.52" stop-color="#ADAEB0"/>
<stop offset="0.6" stop-color="#A3A5A7"/>
<stop offset="0.74" stop-color="#898D8F"/>
<stop offset="0.91" stop-color="#5E6669"/>
<stop offset="1" stop-color="#465053"/>
</radialGradient>
<radialGradient id="paint13_radial_19_32692" cx="0" cy="0" r="1" gradientUnits="userSpaceOnUse" gradientTransform="translate(177.258 511.685) scale(6.45747 6.39678)">
<stop offset="0.69" stop-color="#171717"/>
<stop offset="0.8" stop-color="#1A1A1A"/>
<stop offset="0.89" stop-color="#242424"/>
<stop offset="0.97" stop-color="#343434"/>
<stop offset="1" stop-color="#3F3F3F"/>
</radialGradient>
<radialGradient id="paint14_radial_19_32692" cx="0" cy="0" r="1" gradientUnits="userSpaceOnUse" gradientTransform="translate(198.456 520.024) scale(59.8753 59.3125)">
<stop offset="0.26" stop-color="#212121"/>
<stop offset="0.74" stop-color="#202020"/>
<stop offset="0.88" stop-color="#3F3F3F"/>
<stop offset="0.94" stop-color="#333333"/>
<stop offset="1" stop-color="#212121"/>
</radialGradient>
<radialGradient id="paint15_radial_19_32692" cx="0" cy="0" r="1" gradientUnits="userSpaceOnUse" gradientTransform="translate(198.456 520.023) scale(59.8752 59.3125)">
<stop offset="0.26" stop-color="#212121"/>
<stop offset="0.74" stop-color="#202020"/>
<stop offset="0.88" stop-color="#3F3F3F"/>
<stop offset="0.94" stop-color="#333333"/>
<stop offset="1" stop-color="#212121"/>
</radialGradient>
<radialGradient id="paint16_radial_19_32692" cx="0" cy="0" r="1" gradientUnits="userSpaceOnUse" gradientTransform="translate(198.455 520.026) scale(59.8753 59.3125)">
<stop offset="0.26" stop-color="#212121"/>
<stop offset="0.74" stop-color="#202020"/>
<stop offset="0.88" stop-color="#3F3F3F"/>
<stop offset="0.94" stop-color="#333333"/>
<stop offset="1" stop-color="#212121"/>
</radialGradient>
<radialGradient id="paint17_radial_19_32692" cx="0" cy="0" r="1" gradientUnits="userSpaceOnUse" gradientTransform="translate(198.456 520.025) scale(59.8753 59.3125)">
<stop offset="0.26" stop-color="#212121"/>
<stop offset="0.74" stop-color="#202020"/>
<stop offset="0.88" stop-color="#3F3F3F"/>
<stop offset="0.94" stop-color="#333333"/>
<stop offset="1" stop-color="#212121"/>
</radialGradient>
<radialGradient id="paint18_radial_19_32692" cx="0" cy="0" r="1" gradientUnits="userSpaceOnUse" gradientTransform="translate(198.455 520.024) scale(59.8753 59.3125)">
<stop offset="0.26" stop-color="#212121"/>
<stop offset="0.74" stop-color="#202020"/>
<stop offset="0.88" stop-color="#3F3F3F"/>
<stop offset="0.94" stop-color="#333333"/>
<stop offset="1" stop-color="#212121"/>
</radialGradient>
<radialGradient id="paint19_radial_19_32692" cx="0" cy="0" r="1" gradientUnits="userSpaceOnUse" gradientTransform="translate(198.455 520.025) scale(59.8753 59.3125)">
<stop offset="0.26" stop-color="#212121"/>
<stop offset="0.74" stop-color="#202020"/>
<stop offset="0.88" stop-color="#3F3F3F"/>
<stop offset="0.94" stop-color="#333333"/>
<stop offset="1" stop-color="#212121"/>
</radialGradient>
<radialGradient id="paint20_radial_19_32692" cx="0" cy="0" r="1" gradientUnits="userSpaceOnUse" gradientTransform="translate(198.455 520.025) scale(59.8753 59.3125)">
<stop offset="0.26" stop-color="#212121"/>
<stop offset="0.74" stop-color="#202020"/>
<stop offset="0.88" stop-color="#3F3F3F"/>
<stop offset="0.94" stop-color="#333333"/>
<stop offset="1" stop-color="#212121"/>
</radialGradient>
<radialGradient id="paint21_radial_19_32692" cx="0" cy="0" r="1" gradientUnits="userSpaceOnUse" gradientTransform="translate(198.455 520.024) scale(59.8752 59.3125)">
<stop offset="0.26" stop-color="#212121"/>
<stop offset="0.74" stop-color="#202020"/>
<stop offset="0.88" stop-color="#3F3F3F"/>
<stop offset="0.94" stop-color="#333333"/>
<stop offset="1" stop-color="#212121"/>
</radialGradient>
<radialGradient id="paint22_radial_19_32692" cx="0" cy="0" r="1" gradientUnits="userSpaceOnUse" gradientTransform="translate(198.455 520.024) scale(59.8753 59.3125)">
<stop offset="0.26" stop-color="#212121"/>
<stop offset="0.74" stop-color="#202020"/>
<stop offset="0.88" stop-color="#3F3F3F"/>
<stop offset="0.94" stop-color="#333333"/>
<stop offset="1" stop-color="#212121"/>
</radialGradient>
<radialGradient id="paint23_radial_19_32692" cx="0" cy="0" r="1" gradientUnits="userSpaceOnUse" gradientTransform="translate(198.456 520.025) scale(59.8752 59.3125)">
<stop offset="0.26" stop-color="#212121"/>
<stop offset="0.74" stop-color="#202020"/>
<stop offset="0.88" stop-color="#3F3F3F"/>
<stop offset="0.94" stop-color="#333333"/>
<stop offset="1" stop-color="#212121"/>
</radialGradient>
<radialGradient id="paint24_radial_19_32692" cx="0" cy="0" r="1" gradientUnits="userSpaceOnUse" gradientTransform="translate(198.456 520.025) scale(59.8753 59.3125)">
<stop offset="0.26" stop-color="#212121"/>
<stop offset="0.74" stop-color="#202020"/>
<stop offset="0.88" stop-color="#3F3F3F"/>
<stop offset="0.94" stop-color="#333333"/>
<stop offset="1" stop-color="#212121"/>
</radialGradient>
<radialGradient id="paint25_radial_19_32692" cx="0" cy="0" r="1" gradientUnits="userSpaceOnUse" gradientTransform="translate(198.455 520.026) scale(59.8752 59.3125)">
<stop offset="0.26" stop-color="#212121"/>
<stop offset="0.74" stop-color="#202020"/>
<stop offset="0.88" stop-color="#3F3F3F"/>
<stop offset="0.94" stop-color="#333333"/>
<stop offset="1" stop-color="#212121"/>
</radialGradient>
<radialGradient id="paint26_radial_19_32692" cx="0" cy="0" r="1" gradientUnits="userSpaceOnUse" gradientTransform="translate(198.455 520.026) scale(59.8753 59.3125)">
<stop offset="0.26" stop-color="#212121"/>
<stop offset="0.74" stop-color="#202020"/>
<stop offset="0.88" stop-color="#3F3F3F"/>
<stop offset="0.94" stop-color="#333333"/>
<stop offset="1" stop-color="#212121"/>
</radialGradient>
<radialGradient id="paint27_radial_19_32692" cx="0" cy="0" r="1" gradientUnits="userSpaceOnUse" gradientTransform="translate(198.456 520.025) scale(59.8753 59.3125)">
<stop offset="0.26" stop-color="#212121"/>
<stop offset="0.74" stop-color="#202020"/>
<stop offset="0.88" stop-color="#3F3F3F"/>
<stop offset="0.94" stop-color="#333333"/>
<stop offset="1" stop-color="#212121"/>
</radialGradient>
<radialGradient id="paint28_radial_19_32692" cx="0" cy="0" r="1" gradientUnits="userSpaceOnUse" gradientTransform="translate(197.948 517.982) scale(65.3185 64.7045)">
<stop offset="0.62" stop-color="#212121"/>
<stop offset="0.7" stop-color="#2A2A2A"/>
<stop offset="0.75" stop-color="#333333"/>
<stop offset="0.85" stop-color="#272727"/>
<stop offset="0.9" stop-color="#202020"/>
<stop offset="1" stop-color="#353535"/>
</radialGradient>
<radialGradient id="paint29_radial_19_32692" cx="0" cy="0" r="1" gradientUnits="userSpaceOnUse" gradientTransform="translate(198.455 519.453) scale(65.3185 64.7046)">
<stop offset="0.62" stop-color="#212121"/>
<stop offset="0.7" stop-color="#2A2A2A"/>
<stop offset="0.75" stop-color="#333333"/>
<stop offset="0.85" stop-color="#272727"/>
<stop offset="0.9" stop-color="#202020"/>
<stop offset="1" stop-color="#353535"/>
</radialGradient>
<radialGradient id="paint30_radial_19_32692" cx="0" cy="0" r="1" gradientUnits="userSpaceOnUse" gradientTransform="translate(198.456 519.456) scale(65.3185 64.7046)">
<stop offset="0.62" stop-color="#212121"/>
<stop offset="0.7" stop-color="#2A2A2A"/>
<stop offset="0.75" stop-color="#333333"/>
<stop offset="0.85" stop-color="#272727"/>
<stop offset="0.9" stop-color="#202020"/>
<stop offset="1" stop-color="#353535"/>
</radialGradient>
<radialGradient id="paint31_radial_19_32692" cx="0" cy="0" r="1" gradientUnits="userSpaceOnUse" gradientTransform="translate(198.454 519.454) scale(65.3184 64.7046)">
<stop offset="0.62" stop-color="#212121"/>
<stop offset="0.7" stop-color="#2A2A2A"/>
<stop offset="0.75" stop-color="#333333"/>
<stop offset="0.85" stop-color="#272727"/>
<stop offset="0.9" stop-color="#202020"/>
<stop offset="1" stop-color="#353535"/>
</radialGradient>
<radialGradient id="paint32_radial_19_32692" cx="0" cy="0" r="1" gradientUnits="userSpaceOnUse" gradientTransform="translate(198.455 519.453) scale(65.3185 64.7046)">
<stop offset="0.62" stop-color="#212121"/>
<stop offset="0.7" stop-color="#2A2A2A"/>
<stop offset="0.75" stop-color="#333333"/>
<stop offset="0.85" stop-color="#272727"/>
<stop offset="0.9" stop-color="#202020"/>
<stop offset="1" stop-color="#353535"/>
</radialGradient>
<radialGradient id="paint33_radial_19_32692" cx="0" cy="0" r="1" gradientUnits="userSpaceOnUse" gradientTransform="translate(198.455 519.453) scale(65.3185 64.7046)">
<stop offset="0.62" stop-color="#212121"/>
<stop offset="0.7" stop-color="#2A2A2A"/>
<stop offset="0.75" stop-color="#333333"/>
<stop offset="0.85" stop-color="#272727"/>
<stop offset="0.9" stop-color="#202020"/>
<stop offset="1" stop-color="#353535"/>
</radialGradient>
<radialGradient id="paint34_radial_19_32692" cx="0" cy="0" r="1" gradientUnits="userSpaceOnUse" gradientTransform="translate(198.455 519.453) scale(65.3184 64.7045)">
<stop offset="0.62" stop-color="#212121"/>
<stop offset="0.7" stop-color="#2A2A2A"/>
<stop offset="0.75" stop-color="#333333"/>
<stop offset="0.85" stop-color="#272727"/>
<stop offset="0.9" stop-color="#202020"/>
<stop offset="1" stop-color="#353535"/>
</radialGradient>
<radialGradient id="paint35_radial_19_32692" cx="0" cy="0" r="1" gradientUnits="userSpaceOnUse" gradientTransform="translate(198.456 519.455) scale(65.3185 64.7045)">
<stop offset="0.62" stop-color="#212121"/>
<stop offset="0.7" stop-color="#2A2A2A"/>
<stop offset="0.75" stop-color="#333333"/>
<stop offset="0.85" stop-color="#272727"/>
<stop offset="0.9" stop-color="#202020"/>
<stop offset="1" stop-color="#353535"/>
</radialGradient>
<radialGradient id="paint36_radial_19_32692" cx="0" cy="0" r="1" gradientUnits="userSpaceOnUse" gradientTransform="translate(198.455 519.455) scale(65.3185 64.7046)">
<stop offset="0.62" stop-color="#212121"/>
<stop offset="0.7" stop-color="#2A2A2A"/>
<stop offset="0.75" stop-color="#333333"/>
<stop offset="0.85" stop-color="#272727"/>
<stop offset="0.9" stop-color="#202020"/>
<stop offset="1" stop-color="#353535"/>
</radialGradient>
<radialGradient id="paint37_radial_19_32692" cx="0" cy="0" r="1" gradientUnits="userSpaceOnUse" gradientTransform="translate(198.455 519.453) scale(65.3185 64.7046)">
<stop offset="0.62" stop-color="#212121"/>
<stop offset="0.7" stop-color="#2A2A2A"/>
<stop offset="0.75" stop-color="#333333"/>
<stop offset="0.85" stop-color="#272727"/>
<stop offset="0.9" stop-color="#202020"/>
<stop offset="1" stop-color="#353535"/>
</radialGradient>
<radialGradient id="paint38_radial_19_32692" cx="0" cy="0" r="1" gradientUnits="userSpaceOnUse" gradientTransform="translate(198.455 519.456) scale(65.3185 64.7045)">
<stop offset="0.62" stop-color="#212121"/>
<stop offset="0.7" stop-color="#2A2A2A"/>
<stop offset="0.75" stop-color="#333333"/>
<stop offset="0.85" stop-color="#272727"/>
<stop offset="0.9" stop-color="#202020"/>
<stop offset="1" stop-color="#353535"/>
</radialGradient>
<radialGradient id="paint39_radial_19_32692" cx="0" cy="0" r="1" gradientUnits="userSpaceOnUse" gradientTransform="translate(198.454 519.453) scale(65.3185 64.7045)">
<stop offset="0.62" stop-color="#212121"/>
<stop offset="0.7" stop-color="#2A2A2A"/>
<stop offset="0.75" stop-color="#333333"/>
<stop offset="0.85" stop-color="#272727"/>
<stop offset="0.9" stop-color="#202020"/>
<stop offset="1" stop-color="#353535"/>
</radialGradient>
<radialGradient id="paint40_radial_19_32692" cx="0" cy="0" r="1" gradientUnits="userSpaceOnUse" gradientTransform="translate(198.454 519.454) scale(65.3185 64.7046)">
<stop offset="0.62" stop-color="#212121"/>
<stop offset="0.7" stop-color="#2A2A2A"/>
<stop offset="0.75" stop-color="#333333"/>
<stop offset="0.85" stop-color="#272727"/>
<stop offset="0.9" stop-color="#202020"/>
<stop offset="1" stop-color="#353535"/>
</radialGradient>
<radialGradient id="paint41_radial_19_32692" cx="0" cy="0" r="1" gradientUnits="userSpaceOnUse" gradientTransform="translate(198.455 519.452) scale(65.3185 64.7045)">
<stop offset="0.62" stop-color="#212121"/>
<stop offset="0.7" stop-color="#2A2A2A"/>
<stop offset="0.75" stop-color="#333333"/>
<stop offset="0.85" stop-color="#272727"/>
<stop offset="0.9" stop-color="#202020"/>
<stop offset="1" stop-color="#353535"/>
</radialGradient>
<radialGradient id="paint42_radial_19_32692" cx="0" cy="0" r="1" gradientUnits="userSpaceOnUse" gradientTransform="translate(596.728 517.799) scale(39.3196 38.9501)">
<stop stop-color="white"/>
<stop offset="0.13" stop-color="#F0F0F0"/>
<stop offset="0.37" stop-color="#C9CACB"/>
<stop offset="0.52" stop-color="#ADAEB0"/>
<stop offset="0.6" stop-color="#A3A5A7"/>
<stop offset="0.74" stop-color="#898D8F"/>
<stop offset="0.91" stop-color="#5E6669"/>
<stop offset="1" stop-color="#465053"/>
</radialGradient>
<radialGradient id="paint43_radial_19_32692" cx="0" cy="0" r="1" gradientUnits="userSpaceOnUse" gradientTransform="translate(616.946 511.403) scale(6.45747 6.39679)">
<stop offset="0.69" stop-color="#171717"/>
<stop offset="0.8" stop-color="#1A1A1A"/>
<stop offset="0.89" stop-color="#242424"/>
<stop offset="0.97" stop-color="#343434"/>
<stop offset="1" stop-color="#3F3F3F"/>
</radialGradient>
<radialGradient id="paint44_radial_19_32692" cx="0" cy="0" r="1" gradientUnits="userSpaceOnUse" gradientTransform="translate(596.763 517.797) scale(35.2287 34.8977)">
<stop stop-color="white"/>
<stop offset="0.13" stop-color="#F0F0F0"/>
<stop offset="0.37" stop-color="#C9CACB"/>
<stop offset="0.52" stop-color="#ADAEB0"/>
<stop offset="0.6" stop-color="#A3A5A7"/>
<stop offset="0.74" stop-color="#898D8F"/>
<stop offset="0.91" stop-color="#5E6669"/>
<stop offset="1" stop-color="#465053"/>
</radialGradient>
<radialGradient id="paint45_radial_19_32692" cx="0" cy="0" r="1" gradientUnits="userSpaceOnUse" gradientTransform="translate(596.763 517.798) scale(32.7944 32.4863)">
<stop stop-color="white"/>
<stop offset="0.13" stop-color="#F0F0F0"/>
<stop offset="0.37" stop-color="#C9CACB"/>
<stop offset="0.52" stop-color="#ADAEB0"/>
<stop offset="0.6" stop-color="#A3A5A7"/>
<stop offset="0.74" stop-color="#898D8F"/>
<stop offset="0.91" stop-color="#5E6669"/>
<stop offset="1" stop-color="#465053"/>
</radialGradient>
<radialGradient id="paint46_radial_19_32692" cx="0" cy="0" r="1" gradientUnits="userSpaceOnUse" gradientTransform="translate(609.136 534.845) scale(6.45747 6.39679)">
<stop offset="0.69" stop-color="#171717"/>
<stop offset="0.8" stop-color="#1A1A1A"/>
<stop offset="0.89" stop-color="#242424"/>
<stop offset="0.97" stop-color="#343434"/>
<stop offset="1" stop-color="#3F3F3F"/>
</radialGradient>
<radialGradient id="paint47_radial_19_32692" cx="0" cy="0" r="1" gradientUnits="userSpaceOnUse" gradientTransform="translate(606.668 521.048) scale(3.17803 3.14816)">
<stop stop-color="white"/>
<stop offset="0.13" stop-color="#F0F0F0"/>
<stop offset="0.37" stop-color="#C9CACB"/>
<stop offset="0.52" stop-color="#ADAEB0"/>
<stop offset="0.6" stop-color="#A3A5A7"/>
<stop offset="0.74" stop-color="#898D8F"/>
<stop offset="0.91" stop-color="#5E6669"/>
<stop offset="1" stop-color="#465053"/>
</radialGradient>
<radialGradient id="paint48_radial_19_32692" cx="0" cy="0" r="1" gradientUnits="userSpaceOnUse" gradientTransform="translate(602.915 509.428) scale(3.17801 3.14816)">
<stop stop-color="white"/>
<stop offset="0.13" stop-color="#F0F0F0"/>
<stop offset="0.37" stop-color="#C9CACB"/>
<stop offset="0.52" stop-color="#ADAEB0"/>
<stop offset="0.6" stop-color="#A3A5A7"/>
<stop offset="0.74" stop-color="#898D8F"/>
<stop offset="0.91" stop-color="#5E6669"/>
<stop offset="1" stop-color="#465053"/>
</radialGradient>
<radialGradient id="paint49_radial_19_32692" cx="0" cy="0" r="1" gradientUnits="userSpaceOnUse" gradientTransform="translate(596.864 496.768) scale(6.45749 6.39679)">
<stop offset="0.69" stop-color="#171717"/>
<stop offset="0.8" stop-color="#1A1A1A"/>
<stop offset="0.89" stop-color="#242424"/>
<stop offset="0.97" stop-color="#343434"/>
<stop offset="1" stop-color="#3F3F3F"/>
</radialGradient>
<radialGradient id="paint50_radial_19_32692" cx="0" cy="0" r="1" gradientUnits="userSpaceOnUse" gradientTransform="translate(596.763 517.797) scale(3.65134 3.61703)">
<stop stop-color="white"/>
<stop offset="0.13" stop-color="#F0F0F0"/>
<stop offset="0.37" stop-color="#C9CACB"/>
<stop offset="0.52" stop-color="#ADAEB0"/>
<stop offset="0.6" stop-color="#A3A5A7"/>
<stop offset="0.74" stop-color="#898D8F"/>
<stop offset="0.91" stop-color="#5E6669"/>
<stop offset="1" stop-color="#465053"/>
</radialGradient>
<radialGradient id="paint51_radial_19_32692" cx="0" cy="0" r="1" gradientUnits="userSpaceOnUse" gradientTransform="translate(596.694 528.147) scale(3.17804 3.14816)">
<stop stop-color="white"/>
<stop offset="0.13" stop-color="#F0F0F0"/>
<stop offset="0.37" stop-color="#C9CACB"/>
<stop offset="0.52" stop-color="#ADAEB0"/>
<stop offset="0.6" stop-color="#A3A5A7"/>
<stop offset="0.74" stop-color="#898D8F"/>
<stop offset="0.91" stop-color="#5E6669"/>
<stop offset="1" stop-color="#465053"/>
</radialGradient>
<radialGradient id="paint52_radial_19_32692" cx="0" cy="0" r="1" gradientUnits="userSpaceOnUse" gradientTransform="translate(590.642 509.359) scale(3.17803 3.14816)">
<stop stop-color="white"/>
<stop offset="0.13" stop-color="#F0F0F0"/>
<stop offset="0.37" stop-color="#C9CACB"/>
<stop offset="0.52" stop-color="#ADAEB0"/>
<stop offset="0.6" stop-color="#A3A5A7"/>
<stop offset="0.74" stop-color="#898D8F"/>
<stop offset="0.91" stop-color="#5E6669"/>
<stop offset="1" stop-color="#465053"/>
</radialGradient>
<radialGradient id="paint53_radial_19_32692" cx="0" cy="0" r="1" gradientUnits="userSpaceOnUse" gradientTransform="translate(584.186 534.711) scale(6.45748 6.39679)">
<stop offset="0.69" stop-color="#171717"/>
<stop offset="0.8" stop-color="#1A1A1A"/>
<stop offset="0.89" stop-color="#242424"/>
<stop offset="0.97" stop-color="#343434"/>
<stop offset="1" stop-color="#3F3F3F"/>
</radialGradient>
<radialGradient id="paint54_radial_19_32692" cx="0" cy="0" r="1" gradientUnits="userSpaceOnUse" gradientTransform="translate(586.789 520.945) scale(3.17801 3.14816)">
<stop stop-color="white"/>
<stop offset="0.13" stop-color="#F0F0F0"/>
<stop offset="0.37" stop-color="#C9CACB"/>
<stop offset="0.52" stop-color="#ADAEB0"/>
<stop offset="0.6" stop-color="#A3A5A7"/>
<stop offset="0.74" stop-color="#898D8F"/>
<stop offset="0.91" stop-color="#5E6669"/>
<stop offset="1" stop-color="#465053"/>
</radialGradient>
<radialGradient id="paint55_radial_19_32692" cx="0" cy="0" r="1" gradientUnits="userSpaceOnUse" gradientTransform="translate(576.612 511.201) scale(6.45748 6.39679)">
<stop offset="0.69" stop-color="#171717"/>
<stop offset="0.8" stop-color="#1A1A1A"/>
<stop offset="0.89" stop-color="#242424"/>
<stop offset="0.97" stop-color="#343434"/>
<stop offset="1" stop-color="#3F3F3F"/>
</radialGradient>
<radialGradient id="paint56_radial_19_32692" cx="0" cy="0" r="1" gradientUnits="userSpaceOnUse" gradientTransform="translate(597.809 519.54) scale(59.8752 59.3127)">
<stop offset="0.26" stop-color="#212121"/>
<stop offset="0.74" stop-color="#202020"/>
<stop offset="0.88" stop-color="#3F3F3F"/>
<stop offset="0.94" stop-color="#333333"/>
<stop offset="1" stop-color="#212121"/>
</radialGradient>
<radialGradient id="paint57_radial_19_32692" cx="0" cy="0" r="1" gradientUnits="userSpaceOnUse" gradientTransform="translate(597.809 519.54) scale(59.8752 59.3127)">
<stop offset="0.26" stop-color="#212121"/>
<stop offset="0.74" stop-color="#202020"/>
<stop offset="0.88" stop-color="#3F3F3F"/>
<stop offset="0.94" stop-color="#333333"/>
<stop offset="1" stop-color="#212121"/>
</radialGradient>
<radialGradient id="paint58_radial_19_32692" cx="0" cy="0" r="1" gradientUnits="userSpaceOnUse" gradientTransform="translate(597.808 519.542) scale(59.8753 59.3127)">
<stop offset="0.26" stop-color="#212121"/>
<stop offset="0.74" stop-color="#202020"/>
<stop offset="0.88" stop-color="#3F3F3F"/>
<stop offset="0.94" stop-color="#333333"/>
<stop offset="1" stop-color="#212121"/>
</radialGradient>
<radialGradient id="paint59_radial_19_32692" cx="0" cy="0" r="1" gradientUnits="userSpaceOnUse" gradientTransform="translate(597.809 519.541) scale(59.8753 59.3127)">
<stop offset="0.26" stop-color="#212121"/>
<stop offset="0.74" stop-color="#202020"/>
<stop offset="0.88" stop-color="#3F3F3F"/>
<stop offset="0.94" stop-color="#333333"/>
<stop offset="1" stop-color="#212121"/>
</radialGradient>
<radialGradient id="paint60_radial_19_32692" cx="0" cy="0" r="1" gradientUnits="userSpaceOnUse" gradientTransform="translate(597.81 519.541) scale(59.8753 59.3127)">
<stop offset="0.26" stop-color="#212121"/>
<stop offset="0.74" stop-color="#202020"/>
<stop offset="0.88" stop-color="#3F3F3F"/>
<stop offset="0.94" stop-color="#333333"/>
<stop offset="1" stop-color="#212121"/>
</radialGradient>
<radialGradient id="paint61_radial_19_32692" cx="0" cy="0" r="1" gradientUnits="userSpaceOnUse" gradientTransform="translate(597.808 519.541) scale(59.8753 59.3127)">
<stop offset="0.26" stop-color="#212121"/>
<stop offset="0.74" stop-color="#202020"/>
<stop offset="0.88" stop-color="#3F3F3F"/>
<stop offset="0.94" stop-color="#333333"/>
<stop offset="1" stop-color="#212121"/>
</radialGradient>
<radialGradient id="paint62_radial_19_32692" cx="0" cy="0" r="1" gradientUnits="userSpaceOnUse" gradientTransform="translate(597.808 519.541) scale(59.8752 59.3127)">
<stop offset="0.26" stop-color="#212121"/>
<stop offset="0.74" stop-color="#202020"/>
<stop offset="0.88" stop-color="#3F3F3F"/>
<stop offset="0.94" stop-color="#333333"/>
<stop offset="1" stop-color="#212121"/>
</radialGradient>
<radialGradient id="paint63_radial_19_32692" cx="0" cy="0" r="1" gradientUnits="userSpaceOnUse" gradientTransform="translate(597.808 519.541) scale(59.8752 59.3127)">
<stop offset="0.26" stop-color="#212121"/>
<stop offset="0.74" stop-color="#202020"/>
<stop offset="0.88" stop-color="#3F3F3F"/>
<stop offset="0.94" stop-color="#333333"/>
<stop offset="1" stop-color="#212121"/>
</radialGradient>
<radialGradient id="paint64_radial_19_32692" cx="0" cy="0" r="1" gradientUnits="userSpaceOnUse" gradientTransform="translate(597.809 519.541) scale(59.8753 59.3127)">
<stop offset="0.26" stop-color="#212121"/>
<stop offset="0.74" stop-color="#202020"/>
<stop offset="0.88" stop-color="#3F3F3F"/>
<stop offset="0.94" stop-color="#333333"/>
<stop offset="1" stop-color="#212121"/>
</radialGradient>
<radialGradient id="paint65_radial_19_32692" cx="0" cy="0" r="1" gradientUnits="userSpaceOnUse" gradientTransform="translate(597.809 519.541) scale(59.8752 59.3127)">
<stop offset="0.26" stop-color="#212121"/>
<stop offset="0.74" stop-color="#202020"/>
<stop offset="0.88" stop-color="#3F3F3F"/>
<stop offset="0.94" stop-color="#333333"/>
<stop offset="1" stop-color="#212121"/>
</radialGradient>
<radialGradient id="paint66_radial_19_32692" cx="0" cy="0" r="1" gradientUnits="userSpaceOnUse" gradientTransform="translate(597.809 519.541) scale(59.8752 59.3127)">
<stop offset="0.26" stop-color="#212121"/>
<stop offset="0.74" stop-color="#202020"/>
<stop offset="0.88" stop-color="#3F3F3F"/>
<stop offset="0.94" stop-color="#333333"/>
<stop offset="1" stop-color="#212121"/>
</radialGradient>
<radialGradient id="paint67_radial_19_32692" cx="0" cy="0" r="1" gradientUnits="userSpaceOnUse" gradientTransform="translate(597.809 519.542) scale(59.8753 59.3127)">
<stop offset="0.26" stop-color="#212121"/>
<stop offset="0.74" stop-color="#202020"/>
<stop offset="0.88" stop-color="#3F3F3F"/>
<stop offset="0.94" stop-color="#333333"/>
<stop offset="1" stop-color="#212121"/>
</radialGradient>
<radialGradient id="paint68_radial_19_32692" cx="0" cy="0" r="1" gradientUnits="userSpaceOnUse" gradientTransform="translate(597.808 519.542) scale(59.8752 59.3127)">
<stop offset="0.26" stop-color="#212121"/>
<stop offset="0.74" stop-color="#202020"/>
<stop offset="0.88" stop-color="#3F3F3F"/>
<stop offset="0.94" stop-color="#333333"/>
<stop offset="1" stop-color="#212121"/>
</radialGradient>
<radialGradient id="paint69_radial_19_32692" cx="0" cy="0" r="1" gradientUnits="userSpaceOnUse" gradientTransform="translate(597.808 519.541) scale(59.8752 59.3127)">
<stop offset="0.26" stop-color="#212121"/>
<stop offset="0.74" stop-color="#202020"/>
<stop offset="0.88" stop-color="#3F3F3F"/>
<stop offset="0.94" stop-color="#333333"/>
<stop offset="1" stop-color="#212121"/>
</radialGradient>
<radialGradient id="paint70_radial_19_32692" cx="0" cy="0" r="1" gradientUnits="userSpaceOnUse" gradientTransform="translate(597.302 517.499) scale(65.3185 64.7047)">
<stop offset="0.62" stop-color="#212121"/>
<stop offset="0.7" stop-color="#2A2A2A"/>
<stop offset="0.75" stop-color="#333333"/>
<stop offset="0.85" stop-color="#272727"/>
<stop offset="0.9" stop-color="#202020"/>
<stop offset="1" stop-color="#353535"/>
</radialGradient>
<radialGradient id="paint71_radial_19_32692" cx="0" cy="0" r="1" gradientUnits="userSpaceOnUse" gradientTransform="translate(597.809 518.969) scale(65.3184 64.7047)">
<stop offset="0.62" stop-color="#212121"/>
<stop offset="0.7" stop-color="#2A2A2A"/>
<stop offset="0.75" stop-color="#333333"/>
<stop offset="0.85" stop-color="#272727"/>
<stop offset="0.9" stop-color="#202020"/>
<stop offset="1" stop-color="#353535"/>
</radialGradient>
<radialGradient id="paint72_radial_19_32692" cx="0" cy="0" r="1" gradientUnits="userSpaceOnUse" gradientTransform="translate(597.81 518.972) scale(65.3184 64.7047)">
<stop offset="0.62" stop-color="#212121"/>
<stop offset="0.7" stop-color="#2A2A2A"/>
<stop offset="0.75" stop-color="#333333"/>
<stop offset="0.85" stop-color="#272727"/>
<stop offset="0.9" stop-color="#202020"/>
<stop offset="1" stop-color="#353535"/>
</radialGradient>
<radialGradient id="paint73_radial_19_32692" cx="0" cy="0" r="1" gradientUnits="userSpaceOnUse" gradientTransform="translate(597.808 518.97) scale(65.3184 64.7047)">
<stop offset="0.62" stop-color="#212121"/>
<stop offset="0.7" stop-color="#2A2A2A"/>
<stop offset="0.75" stop-color="#333333"/>
<stop offset="0.85" stop-color="#272727"/>
<stop offset="0.9" stop-color="#202020"/>
<stop offset="1" stop-color="#353535"/>
</radialGradient>
<radialGradient id="paint74_radial_19_32692" cx="0" cy="0" r="1" gradientUnits="userSpaceOnUse" gradientTransform="translate(597.809 518.97) scale(65.3184 64.7047)">
<stop offset="0.62" stop-color="#212121"/>
<stop offset="0.7" stop-color="#2A2A2A"/>
<stop offset="0.75" stop-color="#333333"/>
<stop offset="0.85" stop-color="#272727"/>
<stop offset="0.9" stop-color="#202020"/>
<stop offset="1" stop-color="#353535"/>
</radialGradient>
<radialGradient id="paint75_radial_19_32692" cx="0" cy="0" r="1" gradientUnits="userSpaceOnUse" gradientTransform="translate(597.808 518.97) scale(65.3185 64.7047)">
<stop offset="0.62" stop-color="#212121"/>
<stop offset="0.7" stop-color="#2A2A2A"/>
<stop offset="0.75" stop-color="#333333"/>
<stop offset="0.85" stop-color="#272727"/>
<stop offset="0.9" stop-color="#202020"/>
<stop offset="1" stop-color="#353535"/>
</radialGradient>
<radialGradient id="paint76_radial_19_32692" cx="0" cy="0" r="1" gradientUnits="userSpaceOnUse" gradientTransform="translate(597.809 518.97) scale(65.3184 64.7047)">
<stop offset="0.62" stop-color="#212121"/>
<stop offset="0.7" stop-color="#2A2A2A"/>
<stop offset="0.75" stop-color="#333333"/>
<stop offset="0.85" stop-color="#272727"/>
<stop offset="0.9" stop-color="#202020"/>
<stop offset="1" stop-color="#353535"/>
</radialGradient>
<radialGradient id="paint77_radial_19_32692" cx="0" cy="0" r="1" gradientUnits="userSpaceOnUse" gradientTransform="translate(597.809 518.971) scale(65.3184 64.7047)">
<stop offset="0.62" stop-color="#212121"/>
<stop offset="0.7" stop-color="#2A2A2A"/>
<stop offset="0.75" stop-color="#333333"/>
<stop offset="0.85" stop-color="#272727"/>
<stop offset="0.9" stop-color="#202020"/>
<stop offset="1" stop-color="#353535"/>
</radialGradient>
<radialGradient id="paint78_radial_19_32692" cx="0" cy="0" r="1" gradientUnits="userSpaceOnUse" gradientTransform="translate(597.81 518.972) scale(65.3184 64.7047)">
<stop offset="0.62" stop-color="#212121"/>
<stop offset="0.7" stop-color="#2A2A2A"/>
<stop offset="0.75" stop-color="#333333"/>
<stop offset="0.85" stop-color="#272727"/>
<stop offset="0.9" stop-color="#202020"/>
<stop offset="1" stop-color="#353535"/>
</radialGradient>
<radialGradient id="paint79_radial_19_32692" cx="0" cy="0" r="1" gradientUnits="userSpaceOnUse" gradientTransform="translate(597.809 518.97) scale(65.3185 64.7047)">
<stop offset="0.62" stop-color="#212121"/>
<stop offset="0.7" stop-color="#2A2A2A"/>
<stop offset="0.75" stop-color="#333333"/>
<stop offset="0.85" stop-color="#272727"/>
<stop offset="0.9" stop-color="#202020"/>
<stop offset="1" stop-color="#353535"/>
</radialGradient>
<radialGradient id="paint80_radial_19_32692" cx="0" cy="0" r="1" gradientUnits="userSpaceOnUse" gradientTransform="translate(597.809 518.972) scale(65.3185 64.7047)">
<stop offset="0.62" stop-color="#212121"/>
<stop offset="0.7" stop-color="#2A2A2A"/>
<stop offset="0.75" stop-color="#333333"/>
<stop offset="0.85" stop-color="#272727"/>
<stop offset="0.9" stop-color="#202020"/>
<stop offset="1" stop-color="#353535"/>
</radialGradient>
<radialGradient id="paint81_radial_19_32692" cx="0" cy="0" r="1" gradientUnits="userSpaceOnUse" gradientTransform="translate(597.808 518.97) scale(65.3185 64.7047)">
<stop offset="0.62" stop-color="#212121"/>
<stop offset="0.7" stop-color="#2A2A2A"/>
<stop offset="0.75" stop-color="#333333"/>
<stop offset="0.85" stop-color="#272727"/>
<stop offset="0.9" stop-color="#202020"/>
<stop offset="1" stop-color="#353535"/>
</radialGradient>
<radialGradient id="paint82_radial_19_32692" cx="0" cy="0" r="1" gradientUnits="userSpaceOnUse" gradientTransform="translate(597.808 518.969) scale(65.3184 64.7047)">
<stop offset="0.62" stop-color="#212121"/>
<stop offset="0.7" stop-color="#2A2A2A"/>
<stop offset="0.75" stop-color="#333333"/>
<stop offset="0.85" stop-color="#272727"/>
<stop offset="0.9" stop-color="#202020"/>
<stop offset="1" stop-color="#353535"/>
</radialGradient>
<radialGradient id="paint83_radial_19_32692" cx="0" cy="0" r="1" gradientUnits="userSpaceOnUse" gradientTransform="translate(597.808 518.968) scale(65.3184 64.7047)">
<stop offset="0.62" stop-color="#212121"/>
<stop offset="0.7" stop-color="#2A2A2A"/>
<stop offset="0.75" stop-color="#333333"/>
<stop offset="0.85" stop-color="#272727"/>
<stop offset="0.9" stop-color="#202020"/>
<stop offset="1" stop-color="#353535"/>
</radialGradient>
<clipPath id="clip0_19_32692">
<rect width="546" height="148" fill="white" transform="translate(124 444)"/>
</clipPath>
</defs>
</svg>
