<svg width="800" height="800" viewBox="0 0 800 800" fill="none" xmlns="http://www.w3.org/2000/svg">
<g clip-path="url(#clip0_19_32692)">
<path d="M281.761 241.834C288.604 241.834 288.887 295.988 281.761 295.988C278.254 295.988 278.254 241.834 281.761 241.834Z" fill="url(#paint0_radial_19_32692)"/>
<path d="M273.843 296.101C272.853 296.101 271.779 296.101 270.647 296.186C269.347 296.186 267.989 296.27 266.519 296.327C264.228 288.55 263.747 241.834 266.038 241.834H281.761C278.254 241.834 278.254 295.988 281.761 295.988C281.761 295.988 278.848 295.988 273.843 296.101V296.101Z" fill="url(#paint1_linear_19_32692)"/>
<path d="M220.34 300.993C222.037 300.71 223.705 300.427 225.402 300.173V300.314C225.402 300.314 227.296 302.463 230.181 303.877C245.564 298.674 250.541 298.9 264.285 302.463C267.367 301.05 268.809 299.607 270.676 296.299V296.186C271.807 296.129 272.881 296.101 273.871 296.101C271.383 301.191 267.933 305.489 263.917 306.592L249.354 301.954L248.59 302.265L243.443 304.415L239.739 305.913L233.744 308.402L214.571 313.379L213.468 314.369L209 318.299C203.288 311.937 203.854 305.546 203.995 304.33C207.445 303.51 210.951 302.746 214.458 302.096C216.437 301.728 218.417 301.361 220.396 301.05L220.34 300.993Z" fill="url(#paint2_linear_19_32692)"/>
<path d="M266.519 296.327C267.989 296.242 269.347 296.186 270.647 296.186V296.299C268.753 299.607 267.339 301.05 264.256 302.463C250.513 298.9 245.536 298.674 230.153 303.877C227.296 302.463 225.402 300.314 225.402 300.314V300.173C237.25 298.391 248.647 297.373 258.035 296.779C261.089 296.582 263.945 296.44 266.519 296.355V296.327Z" fill="url(#paint3_linear_19_32692)"/>
<path d="M258.177 234.849L266.038 241.834C263.776 241.834 264.228 288.55 266.519 296.327C263.945 296.44 261.118 296.553 258.035 296.751C255.829 293.952 255.858 234.849 258.177 234.849V234.849Z" fill="url(#paint4_linear_19_32692)"/>
<path d="M192.033 282.414L187.395 282.018H187.113L187.395 271.527L173.426 261.064L163.811 261.205V261.064L164.688 254.051C164.688 254.051 170.202 246.698 190.817 241.099C196.558 239.515 203.486 238.073 211.828 236.97C214.232 236.659 216.72 236.348 219.35 236.122C221.697 235.867 224.129 235.67 226.674 235.5C235.356 234.878 245.225 234.623 256.395 234.821C256.989 234.821 257.583 234.821 258.177 234.821C255.886 234.821 255.829 293.923 258.035 296.723C248.647 297.317 237.25 298.335 225.373 300.116C223.705 300.371 222.037 300.654 220.312 300.936L218.021 297.006L215.9 293.386L214.458 290.897C214.232 290.643 214.006 290.388 213.751 290.162C212.733 289.059 211.574 288.098 210.414 287.306C208.746 286.062 207.021 285.129 205.381 284.45C203.288 283.573 201.393 283.121 200.008 283.064L198.792 282.951L191.948 282.357L192.033 282.414ZM252.04 249.696H237.194C234.875 249.696 234.875 283.771 237.194 283.771H252.04C250.824 283.771 250.768 249.696 252.04 249.696Z" fill="url(#paint5_linear_19_32692)"/>
<path d="M256.423 233.973V234.821C245.225 234.623 235.356 234.878 226.674 235.5C226.392 230.495 224.78 226.903 220.594 226.111V225.998C228.173 225.065 236.741 224.613 245.762 224.471C251.87 224.358 256.395 233.945 256.395 233.945L256.423 233.973Z" fill="url(#paint6_linear_19_32692)"/>
<path d="M244.348 326.868L252.917 341.516L249.834 344.598L235.723 321.382C237.448 321.24 238.919 320.222 239.654 318.752L244.405 326.868H244.348Z" fill="url(#paint7_linear_19_32692)"/>
<path d="M241.577 249.696H252.04C250.768 249.696 250.824 283.771 252.04 283.771H241.577V282.895C239.4 271.103 239.089 259.933 241.577 249.696V249.696Z" fill="url(#paint8_linear_19_32692)"/>
<path d="M243.415 304.386L248.562 302.237L241.125 310.551L241.011 310.438L237.703 310.664L236.487 311.993C236.119 311.88 235.752 311.852 235.328 311.852C234.847 311.852 234.394 311.937 233.97 312.078L239.654 305.829L243.359 304.33L243.415 304.386Z" fill="url(#paint9_linear_19_32692)"/>
<path d="M241.577 282.895V283.771H237.194C234.875 283.771 234.875 249.696 237.194 249.696H241.577C239.089 259.933 239.4 271.103 241.577 282.895Z" fill="url(#paint10_linear_19_32692)"/>
<path d="M241.153 310.579L238.721 313.294C238.127 312.7 237.392 312.276 236.544 312.05L237.76 310.721L241.068 310.495L241.181 310.608L241.153 310.579Z" fill="url(#paint11_linear_19_32692)"/>
<path d="M234.14 318.752C234.536 318.978 234.988 319.148 235.469 319.148C236.855 319.148 237.957 318.045 237.957 316.659C237.957 315.783 237.505 314.991 236.77 314.538C236.402 314.312 235.95 314.171 235.469 314.171C234.112 314.171 232.98 315.274 232.98 316.659C232.98 317.564 233.433 318.328 234.112 318.78L234.14 318.752ZM240.107 316.631C240.107 317.394 239.937 318.13 239.598 318.752C238.862 320.222 237.42 321.24 235.667 321.353C235.554 321.353 235.469 321.353 235.356 321.353C234.253 321.353 233.207 320.958 232.415 320.307C231.312 319.487 230.605 318.13 230.605 316.631C230.605 316.292 230.605 315.981 230.718 315.669C231.086 313.944 232.33 312.587 233.998 312.106C234.423 311.965 234.875 311.88 235.356 311.88C235.78 311.88 236.148 311.937 236.515 312.022C237.364 312.219 238.127 312.672 238.693 313.266C239.541 314.142 240.078 315.33 240.078 316.603L240.107 316.631Z" fill="url(#paint12_linear_19_32692)"/>
<path d="M230.718 315.67C230.633 315.981 230.605 316.292 230.605 316.631C230.605 318.158 231.312 319.487 232.415 320.307L226.618 326.811C220.679 322.315 216.89 321.834 216.89 321.834L213.808 314.736L213.412 314.312L214.515 313.322L233.687 308.345L239.682 305.857L233.998 312.078C232.358 312.559 231.086 313.945 230.718 315.641V315.67Z" fill="url(#paint13_linear_19_32692)"/>
<path d="M236.798 314.51C237.533 314.934 237.986 315.754 237.986 316.631C237.986 318.017 236.883 319.12 235.497 319.12C235.016 319.12 234.536 318.978 234.168 318.724L236.826 314.51H236.798Z" fill="url(#paint14_linear_19_32692)"/>
<path d="M236.798 314.51L234.14 318.724C233.461 318.299 233.009 317.508 233.009 316.603C233.009 315.245 234.112 314.114 235.497 314.114C235.978 314.114 236.459 314.256 236.798 314.482V314.51Z" fill="url(#paint15_linear_19_32692)"/>
<path d="M220.594 226.111C224.808 226.903 226.391 230.495 226.674 235.5C224.129 235.641 221.697 235.868 219.35 236.122L213.61 227.865L213.468 227.073C215.702 226.649 218.078 226.309 220.594 226.027V226.14V226.111Z" fill="url(#paint16_linear_19_32692)"/>
<path d="M218.049 297.034L220.34 300.965C218.389 301.304 216.409 301.672 214.401 302.011L213.242 299.579C215.08 300.371 217.512 298.844 218.049 297.006V297.034Z" fill="url(#paint17_linear_19_32692)"/>
<path d="M213.61 227.865L219.35 236.122C216.72 236.348 214.232 236.659 211.828 236.97C211.517 232.672 211.574 232.22 209.622 229.363L209.311 227.893C210.64 227.582 212.054 227.299 213.496 227.073L213.638 227.865H213.61Z" fill="url(#paint18_linear_19_32692)"/>
<path d="M215.928 293.443L218.049 297.062C217.54 298.9 215.08 300.427 213.242 299.636L211.941 296.864L212.139 296.751C213.327 296.751 216.664 295.563 215.928 293.443V293.443Z" fill="url(#paint19_linear_19_32692)"/>
<path d="M215.929 293.443C216.664 295.563 213.327 296.751 212.139 296.751L211.941 296.864L211.517 295.988C211.036 295.224 210.499 294.461 209.905 293.81L210.018 293.697C211.885 293.443 213.977 291.859 213.808 290.247C214.034 290.473 214.26 290.728 214.515 290.982L215.957 293.471L215.929 293.443Z" fill="url(#paint20_linear_19_32692)"/>
<path d="M203.938 304.301C201.535 304.867 199.131 305.489 196.812 306.168C193.645 307.016 190.534 307.978 187.509 309.024V308.713L185.67 303.877L185.444 303.029H186.519L186.943 287.278H187.367L191.807 287.476L197.378 287.73C197.632 287.73 197.887 287.73 198.141 287.787C199.951 287.928 201.676 288.381 203.288 289.088C204.674 289.653 206.003 290.388 207.19 291.293C208.18 292.029 209.085 292.877 209.877 293.782C210.471 294.461 211.008 295.196 211.489 295.959L211.913 296.836L213.214 299.607L214.373 302.039C210.867 302.718 207.36 303.453 203.91 304.273L203.938 304.301Z" fill="url(#paint21_linear_19_32692)"/>
<path d="M213.808 290.219C213.977 291.831 211.885 293.414 210.018 293.669L209.905 293.782C209.113 292.849 208.208 292.029 207.219 291.293L207.388 291.095C208.859 290.473 210.301 289.144 210.442 287.391C211.602 288.183 212.733 289.144 213.779 290.247L213.808 290.219Z" fill="url(#paint22_linear_19_32692)"/>
<path d="M209.622 229.363C211.574 232.22 211.517 232.672 211.828 236.97C203.514 238.073 196.558 239.515 190.817 241.099C190.393 234.68 197.661 230.466 209.311 227.893L209.622 229.363V229.363Z" fill="url(#paint23_linear_19_32692)"/>
<path d="M208.944 318.271L208.124 319.006L197.943 318.384C195.992 313.181 196.671 307.016 196.812 306.14C199.159 305.461 201.563 304.839 203.938 304.273C203.797 305.489 203.203 311.88 208.944 318.243V318.271Z" fill="url(#paint24_linear_19_32692)"/>
<path d="M210.471 287.363C210.329 289.116 208.859 290.445 207.417 291.067L207.247 291.265C206.059 290.36 204.758 289.625 203.345 289.059L203.401 288.918C204.9 288.041 206.003 285.638 205.465 284.478C207.077 285.157 208.802 286.09 210.499 287.334L210.471 287.363Z" fill="url(#paint25_linear_19_32692)"/>
<path d="M205.437 284.507C205.974 285.666 204.872 288.07 203.373 288.946L203.316 289.088C201.704 288.381 199.979 287.956 198.17 287.787C199.357 286.797 199.81 284.45 198.877 283.008L200.092 283.121C201.45 283.177 203.373 283.63 205.465 284.507H205.437Z" fill="url(#paint26_linear_19_32692)"/>
<path d="M198.877 283.008C199.838 284.422 199.357 286.797 198.17 287.759C197.915 287.759 197.661 287.759 197.406 287.759L191.835 287.504C192.599 286.571 192.74 283.517 192.033 282.442L198.877 283.036V283.008Z" fill="url(#paint27_linear_19_32692)"/>
<path d="M197.943 318.384L196.756 318.299L193.306 321.721C187.622 317.253 187.452 310.494 187.48 308.996C190.506 307.949 193.617 306.988 196.784 306.14C196.643 307.016 195.964 313.181 197.915 318.384H197.943Z" fill="url(#paint28_linear_19_32692)"/>
<path d="M193.306 321.749L186.095 328.96L171.305 341.148L168.562 343.411L167.374 344.372C167.572 339.339 166.95 334.051 164.886 330.092C168.025 326.868 169.297 322.965 169.976 316.546L170.032 316.065L170.824 316.122C175.914 313.407 181.542 311.06 187.509 309.024C187.509 310.523 187.65 317.31 193.334 321.749H193.306Z" fill="url(#paint29_linear_19_32692)"/>
<path d="M192.033 282.414C192.74 283.46 192.599 286.543 191.835 287.476L187.395 287.278H186.971L187.113 282.046H187.395L192.033 282.442V282.414Z" fill="url(#paint30_linear_19_32692)"/>
<path d="M185.67 303.849L187.509 308.685V308.996C181.542 311.032 175.914 313.379 170.824 316.094L170.032 316.037L159.485 315.217V303.877L185.473 303.001L185.699 303.849H185.67Z" fill="url(#paint31_linear_19_32692)"/>
<path d="M187.395 271.527L187.113 282.018L186.971 287.25L186.547 302.972H185.473L177.837 275.033L169.099 273.28C169.099 273.28 154.677 264.429 151.906 261.431L159.485 261.29L163.839 261.205L173.454 261.064L187.424 271.527H187.395Z" fill="url(#paint32_linear_19_32692)"/>
<path d="M120.771 271.527L121.026 261.912L151.878 261.431C154.649 264.457 169.071 273.28 169.071 273.28L177.809 275.033L185.444 303.001L159.456 303.877L133.242 304.726L120.149 293.358L120.771 271.527V271.527ZM178.657 291.633L174.896 285.977C172.917 282.951 169.439 282.668 165.819 282.753C165.48 282.753 165.112 282.753 164.773 282.753V282.357L156.685 276.136C155.95 275.542 155.045 275.146 154.083 275.005L135.278 271.668C132.874 271.272 131.347 272.092 131.036 274.524L130.64 281.961L130.584 282.584C129.736 282.527 129.255 282.442 129.255 282.357L128.915 291.576H178.686L178.657 291.633Z" fill="url(#paint33_linear_19_32692)"/>
<path d="M174.896 285.977L178.657 291.633H128.887L129.227 282.414C129.227 282.414 129.707 282.584 130.556 282.64C135.674 283.036 154.423 282.951 164.773 282.782C165.14 282.782 165.508 282.782 165.819 282.782C169.439 282.697 172.917 282.98 174.896 286.005V285.977Z" fill="url(#paint34_linear_19_32692)"/>
<path d="M171.984 350.735L176.791 353.223L176.508 353.506L177.555 356.334L175.038 358.879L174.953 358.794L168.223 355.627C168.223 355.118 168.053 354.637 167.798 354.241C167.572 353.761 167.176 353.336 166.752 353.025L166.243 347.935L166.328 347.794L172.04 350.763L171.984 350.735Z" fill="url(#paint35_linear_19_32692)"/>
<path d="M172.719 343.891C174.642 347.822 177.102 352.912 177.102 352.912L176.791 353.223L171.984 350.735L168.562 343.411L171.305 341.148L171.418 341.29C171.786 342.025 172.238 342.93 172.719 343.891V343.891Z" fill="url(#paint36_linear_19_32692)"/>
<path d="M175.038 358.879L171.164 362.725L168.336 361.311L165.706 363.319L163.104 361.99V359.02C163.585 359.275 164.151 359.445 164.744 359.445C166.667 359.445 168.223 357.861 168.223 355.966C168.223 355.853 168.223 355.768 168.223 355.655L174.953 358.822L175.038 358.907V358.879Z" fill="url(#paint37_linear_19_32692)"/>
<path d="M167.374 344.372L168.562 343.411L171.984 350.735L166.271 347.766L164.405 346.804L167.374 344.372Z" fill="url(#paint38_linear_19_32692)"/>
<path d="M148.315 323.163C147.579 323.163 146.844 323.107 146.052 323.05C145.741 323.05 145.402 323.05 145.091 323.05L142.715 319.996H102.419L101.005 317.168V316.97C128.293 317.14 159.428 316.574 159.428 315.274L169.976 316.094L169.919 316.574C169.241 322.994 167.996 326.896 164.829 330.12C162.963 326.557 159.994 324.068 155.469 323.757C154.338 323.587 151.821 323.389 148.286 323.192L148.315 323.163Z" fill="url(#paint39_linear_19_32692)"/>
<path d="M168.194 355.627C168.194 355.627 168.194 355.825 168.194 355.938C168.194 357.833 166.639 359.416 164.716 359.416C164.122 359.416 163.557 359.275 163.076 358.992C162.51 358.681 162.058 358.229 161.747 357.691L161.888 357.607L167.572 354.298L167.714 354.213C167.968 354.637 168.138 355.09 168.138 355.599L168.194 355.627Z" fill="url(#paint40_linear_19_32692)"/>
<path d="M166.696 353.025C167.12 353.336 167.516 353.761 167.742 354.241L167.601 354.326L161.917 357.635L161.775 357.72C161.464 357.211 161.294 356.617 161.294 355.966C161.294 355.853 161.294 355.768 161.294 355.655C161.436 353.845 162.906 352.46 164.744 352.46C165.48 352.46 166.13 352.686 166.696 353.054V353.025Z" fill="url(#paint41_linear_19_32692)"/>
<path d="M162.284 336.171C162.906 336.426 163.528 336.398 164.037 336.058C165.678 334.644 160.022 324.69 157.646 325.878C157.137 326.133 156.883 326.613 156.826 327.292C156.6 329.978 159.654 335.21 162.284 336.171ZM164.405 346.804L160.672 349.858C150.916 345.277 147.042 338.066 148.315 323.135C151.849 323.333 154.366 323.531 155.497 323.701C160.022 324.012 162.991 326.5 164.857 330.063C166.922 334.022 167.572 339.31 167.346 344.344L164.377 346.804H164.405Z" fill="url(#paint42_linear_19_32692)"/>
<path d="M160.672 349.886L164.405 346.832L166.271 347.794L166.187 347.935L166.696 353.025C166.13 352.658 165.451 352.432 164.744 352.432C162.906 352.432 161.436 353.817 161.294 355.627L156.826 353.082L158.891 351.385L160.701 349.886H160.672Z" fill="url(#paint43_linear_19_32692)"/>
<path d="M164.773 282.414V282.81C154.451 282.951 135.702 283.036 130.556 282.668L130.612 282.046L131.008 274.609C131.347 272.177 132.875 271.357 135.25 271.753L154.055 275.09C155.017 275.231 155.922 275.627 156.657 276.221L164.744 282.442L164.773 282.414Z" fill="url(#paint44_linear_19_32692)"/>
<path d="M157.646 325.878C160.022 324.69 165.678 334.644 164.037 336.058C163.528 336.398 162.906 336.426 162.284 336.171C163.896 334.446 158.862 325.906 156.911 327.292H156.798C156.855 326.613 157.109 326.133 157.618 325.878H157.646Z" fill="url(#paint45_linear_19_32692)"/>
<path d="M163.104 359.02V361.99L152.641 356.532L156.826 353.11L161.294 355.655C161.294 355.655 161.294 355.853 161.294 355.966C161.294 356.617 161.464 357.211 161.775 357.72C162.086 358.257 162.539 358.738 163.104 359.02V359.02Z" fill="url(#paint46_linear_19_32692)"/>
<path d="M156.939 327.32C158.862 325.935 163.896 334.446 162.312 336.2C159.682 335.238 156.628 330.007 156.855 327.32H156.968H156.939Z" fill="url(#paint47_linear_19_32692)"/>
<path d="M160.672 349.887L158.862 351.385C141.556 344.655 146.052 323.305 146.052 323.305V323.078C146.844 323.135 147.608 323.163 148.315 323.192C147.014 338.151 150.916 345.334 160.672 349.915V349.887Z" fill="url(#paint48_linear_19_32692)"/>
<path d="M98.2899 271.527C98.2899 267.653 95.1792 264.542 91.3051 264.542C87.4309 264.542 84.3203 267.653 84.3203 271.527C84.3203 275.401 87.4592 278.512 91.3051 278.512C95.1509 278.512 98.2899 275.401 98.2899 271.527ZM79.9088 251.562C84.7727 251.251 90.287 250.997 96.0559 250.827C108.414 250.459 122.016 250.431 133.468 250.77C135.702 250.855 137.88 250.912 139.944 251.025C151.425 251.562 159.428 252.58 159.456 254.079V261.318L151.878 261.46L121.026 261.94L120.771 271.555L120.149 293.386L133.242 304.754L159.456 303.906V315.245C159.456 316.546 128.322 317.14 101.033 316.942C99.5058 316.942 98.0071 316.942 96.5366 316.942C88.76 316.857 81.4641 316.744 75.4974 316.518C72.2453 295.988 72.2171 274.383 74.649 251.986C76.2892 251.845 78.0424 251.732 79.9088 251.59V251.562ZM82.7932 310.636L112.91 309.335C112.91 309.335 112.259 293.612 111.609 285.1H82.1711C81.4924 292.962 81.1814 300.54 82.8215 310.636H82.7932Z" fill="url(#paint49_linear_19_32692)"/>
<path d="M99.6754 322.258C116.077 322.145 133.921 322.541 145.091 323.022C145.402 323.022 145.741 323.022 146.052 323.022V323.248C146.052 323.248 141.556 344.627 158.862 351.329L156.798 353.025L152.613 356.447L145.6 362.216L130.612 342.223H98.2898C98.2898 338.377 95.1792 335.238 91.305 335.238C87.7136 335.238 84.7444 338.01 84.3485 341.488H84.2071L73.2068 341.233C73.4613 335.21 73.942 329.074 74.6207 322.909C81.5206 322.485 90.3718 322.258 99.6754 322.202V322.258Z" fill="url(#paint50_linear_19_32692)"/>
<path d="M144.667 433.365C144.808 433.11 144.865 432.799 144.865 432.488C144.865 431.3 143.903 430.339 142.715 430.339C141.839 430.339 141.104 430.848 140.792 431.611C140.651 431.866 140.595 432.177 140.595 432.488C140.595 433.676 141.556 434.637 142.744 434.637C143.62 434.637 144.356 434.128 144.667 433.365ZM148.428 433.676L140.821 440.067C140.821 440.067 139.152 435.514 136.805 429.151L137.993 426.097L131.065 407.009L131.376 406.896L134.175 408.282L138.926 420.894L142.489 423.495H142.546L144.384 428.472L146.194 427.37C147.523 431.216 148.428 433.676 148.428 433.676Z" fill="url(#paint51_linear_19_32692)"/>
<path d="M146.194 427.37L144.384 428.472L142.546 423.467L140.962 419.027L141.075 418.999V409.045L135.391 393.153L135.476 393.068L137.767 394.821L146.985 420.413L146.279 427.285L146.194 427.37Z" fill="url(#paint52_linear_19_32692)"/>
<path d="M131.263 385.461L129.594 390.805C129.594 390.805 128.435 390.749 126.399 390.664C126.257 390.664 126.116 390.664 125.975 390.664L126.088 387.327C126.738 368.324 110.337 358.483 86.7522 359.812C85.4514 375.535 87.4309 387.327 87.4309 387.327L87.3461 388.487C83.1891 388.26 79.2019 387.978 75.6105 387.723C73.2068 372.764 72.5281 357.295 73.2351 341.318L84.2354 341.544H84.3768C84.3768 341.827 84.3768 342.053 84.3768 342.308C84.3768 346.182 87.5158 349.321 91.3616 349.321C95.2075 349.321 98.3464 346.182 98.3464 342.308H130.669L145.656 362.301L139.181 367.645L138.502 377.458L131.941 383.368L131.263 385.489V385.461Z" fill="url(#paint53_linear_19_32692)"/>
<path d="M142.744 319.968L145.119 323.022C133.949 322.541 116.105 322.145 99.7038 322.258L96.5649 316.885C98.0353 316.885 99.5341 316.885 101.061 316.885V317.083L102.475 319.911H142.772L142.744 319.968Z" fill="url(#paint54_linear_19_32692)"/>
<path d="M144.865 432.488C144.865 432.799 144.78 433.11 144.667 433.365L140.792 431.611C141.104 430.876 141.839 430.339 142.715 430.339C143.903 430.339 144.865 431.3 144.865 432.488Z" fill="url(#paint55_linear_19_32692)"/>
<path d="M140.792 431.611L144.667 433.365C144.356 434.1 143.62 434.637 142.744 434.637C141.556 434.637 140.595 433.676 140.595 432.488C140.595 432.177 140.679 431.866 140.792 431.611Z" fill="url(#paint56_linear_19_32692)"/>
<path d="M140.962 419.027L142.574 423.467H142.517L138.954 420.894L134.204 408.31C133.949 407.659 129.481 397.875 129.481 397.168C130.188 396.857 130.669 396.15 130.669 395.273C130.669 394.086 129.707 393.124 128.52 393.124C128.18 393.124 127.869 393.209 127.586 393.351L126.399 390.749V390.608C128.435 390.721 129.594 390.749 129.594 390.749L131.263 385.404C131.743 386.79 132.535 388.911 133.44 391.484L131.376 392.644L140.962 418.999V419.027Z" fill="url(#paint57_linear_19_32692)"/>
<path d="M141.075 409.045V418.999L140.962 419.027L131.376 392.7L133.44 391.541L133.468 391.512L135.476 393.068L135.391 393.153L141.075 409.045Z" fill="url(#paint58_linear_19_32692)"/>
<path d="M133.242 240.958L139.944 250.996C137.88 250.883 135.731 250.827 133.468 250.742L115.568 240.505C112.938 236.603 110.704 231.541 108.696 225.744L133.27 240.958H133.242Z" fill="url(#paint59_linear_19_32692)"/>
<path d="M134.175 408.282L131.376 406.896L131.065 407.009L129.453 402.654L126.625 401.947C124.561 396.574 122.892 392.248 122.1 390.551V390.41C123.571 390.466 124.872 390.551 125.946 390.579C126.088 390.579 126.257 390.579 126.37 390.579V390.721L127.558 393.322C126.851 393.662 126.37 394.369 126.37 395.217C126.37 396.405 127.332 397.366 128.491 397.366C128.831 397.366 129.17 397.281 129.453 397.112C129.453 397.819 133.921 407.603 134.175 408.225V408.282Z" fill="url(#paint60_linear_19_32692)"/>
<path d="M115.568 240.533L133.468 250.77C122.015 250.431 108.414 250.459 96.0558 250.827C89.9759 242.852 91.6727 231.286 96.5366 218.278L108.64 225.772C110.648 231.569 112.882 236.659 115.511 240.533H115.568Z" fill="url(#paint61_linear_19_32692)"/>
<path d="M130.64 395.302C130.64 396.15 130.16 396.885 129.453 397.196C129.17 397.366 128.831 397.451 128.491 397.451V393.181C129.679 393.181 130.64 394.142 130.64 395.33V395.302Z" fill="url(#paint62_linear_19_32692)"/>
<path d="M128.491 393.153V397.423C127.332 397.423 126.37 396.461 126.37 395.274C126.37 394.425 126.851 393.69 127.558 393.379C127.841 393.237 128.152 393.153 128.491 393.153Z" fill="url(#paint63_linear_19_32692)"/>
<path d="M86.7239 359.756C110.308 358.455 126.71 368.296 126.059 387.271L125.946 390.608C124.872 390.551 123.571 390.466 122.1 390.438C113.786 390.014 99.8169 389.25 87.3178 388.458L87.4026 387.299C87.4026 387.299 85.4514 375.507 86.7239 359.784V359.756Z" fill="url(#paint64_linear_19_32692)"/>
<path d="M112.938 309.307L82.8215 310.608C81.2097 300.512 81.5207 292.934 82.1711 285.072H111.637C112.316 293.584 112.938 309.307 112.938 309.307V309.307Z" fill="url(#paint65_linear_19_32692)"/>
<path d="M91.3051 264.542C95.1792 264.542 98.2899 267.653 98.2899 271.527C98.2899 275.401 95.1792 278.511 91.3051 278.511C87.4309 278.511 84.3203 275.401 84.3203 271.527C84.3203 267.653 87.4592 264.542 91.3051 264.542ZM94.5854 271.329C94.5854 269.151 92.8321 267.398 90.6547 267.398C88.4772 267.398 86.724 269.18 86.724 271.329C86.724 273.478 88.5055 275.259 90.6547 275.259C92.8039 275.259 94.5854 273.506 94.5854 271.329Z" fill="url(#paint66_linear_19_32692)"/>
<path d="M89.8063 345.673C90.2588 345.871 90.7678 345.984 91.3051 345.984C93.4825 345.984 95.2358 344.231 95.2358 342.053C95.2358 339.876 93.4825 338.123 91.3051 338.123C89.1276 338.123 87.3744 339.904 87.3744 342.053C87.3744 343.665 88.3641 345.079 89.778 345.673H89.8063ZM91.3051 335.295C95.1792 335.295 98.2899 338.434 98.2899 342.28C98.2899 346.125 95.1792 349.293 91.3051 349.293C87.4309 349.293 84.3203 346.154 84.3203 342.28C84.3203 342.025 84.3203 341.799 84.3203 341.544C84.7162 338.066 87.6854 335.295 91.2768 335.295H91.3051Z" fill="url(#paint67_linear_19_32692)"/>
<path d="M87.8269 220.88L96.5649 218.25C91.701 231.258 90.0043 242.852 96.0842 250.799C90.3154 250.968 84.801 251.223 79.9371 251.534C79.2019 241.156 81.6904 230.919 87.8551 220.852L87.8269 220.88Z" fill="url(#paint68_linear_19_32692)"/>
<path d="M89.778 345.673C88.3641 345.079 87.3744 343.694 87.3744 342.053C87.3744 339.876 89.1276 338.123 91.3051 338.123C93.4825 338.123 95.2358 339.904 95.2358 342.053C95.2358 344.203 93.4825 345.984 91.3051 345.984C90.7678 345.984 90.287 345.871 89.8063 345.673H89.778Z" fill="url(#paint69_radial_19_32692)"/>
<path d="M90.6547 267.37C92.8321 267.37 94.5854 269.151 94.5854 271.3C94.5854 273.45 92.8321 275.231 90.6547 275.231C88.4773 275.231 86.724 273.478 86.724 271.3C86.724 269.123 88.5055 267.37 90.6547 267.37Z" fill="url(#paint70_radial_19_32692)"/>
<path d="M73.2068 341.29C72.4716 357.239 73.2068 372.736 75.5822 387.695C66.929 387.044 60.736 386.422 60.736 385.998C60.0008 383.085 59.4352 380.173 58.9545 377.26C58.3323 373.697 57.9082 370.134 57.6254 366.627C57.3143 362.584 57.2012 358.568 57.2578 354.552C57.3143 350.48 57.5688 346.437 58.0213 342.393C58.3889 338.886 58.8696 335.408 59.4918 331.958C59.8877 329.865 60.2836 327.773 60.736 325.708C60.736 324.379 66.2503 323.531 74.6208 322.965C73.9421 329.13 73.4613 335.266 73.2068 341.29V341.29Z" fill="url(#paint71_linear_19_32692)"/>
<path d="M58.9545 306.479C58.3323 302.916 57.9082 299.353 57.6254 295.846C57.3143 291.802 57.2012 287.787 57.2578 283.771C57.3143 279.699 57.5688 275.655 58.0213 271.612C58.3889 268.105 58.8696 264.627 59.4918 261.177C59.8877 259.084 60.2836 256.992 60.736 254.927C60.736 253.683 66.2503 252.693 74.649 251.93C72.2171 274.326 72.2454 295.931 75.4974 316.461C66.6179 316.178 60.736 315.754 60.736 315.189C60.0008 312.276 59.4352 309.363 58.9545 306.451V306.479Z" fill="url(#paint72_linear_19_32692)"/>
<path d="M58.9828 261.064L59.4918 261.177C58.8697 264.627 58.3889 268.105 58.0213 271.612L57.2578 271.527L38.905 276.787H38.3677C38.4809 274.128 38.6505 271.923 38.905 270.65L58.9828 261.064Z" fill="url(#paint73_linear_19_32692)"/>
<path d="M58.9828 331.817L59.4918 331.93C58.8697 335.38 58.3889 338.858 58.0213 342.364L57.2578 342.28L38.905 347.539H38.3677C38.4809 344.881 38.6505 342.675 38.905 341.403C44.9001 337.387 51.5172 334.079 58.9828 331.817V331.817Z" fill="url(#paint74_linear_19_32692)"/>
<path d="M57.2577 271.527L58.0213 271.612C57.5688 275.655 57.286 279.699 57.2577 283.771H38.2546C38.2546 281.339 38.3111 278.936 38.396 276.758H38.9333L57.286 271.527H57.2577Z" fill="url(#paint75_linear_19_32692)"/>
<path d="M57.2577 342.28L58.0213 342.364C57.5688 346.408 57.286 350.452 57.2577 354.524H38.2546C38.2546 352.092 38.3111 349.689 38.396 347.511H38.9333L57.286 342.28H57.2577Z" fill="url(#paint76_linear_19_32692)"/>
<path d="M57.6253 295.846C57.9081 299.381 58.3606 302.944 58.9544 306.479C52.7049 304.895 46.0311 301.389 38.9049 295.988C38.6787 294.602 38.4808 292.396 38.3959 289.908H38.9049L57.6253 295.846V295.846Z" fill="url(#paint77_linear_19_32692)"/>
<path d="M57.6253 366.599C57.9081 370.134 58.3606 373.697 58.9544 377.232C52.5917 375.337 45.8897 371.717 38.9049 366.74C38.6787 365.327 38.4808 363.149 38.3959 360.661H38.9049L57.6253 366.599Z" fill="url(#paint78_linear_19_32692)"/>
<path d="M57.6254 295.846L38.905 289.88H38.396C38.2829 287.985 38.2546 285.892 38.2546 283.771H57.2577C57.1729 287.759 57.3143 291.774 57.6254 295.846V295.846Z" fill="url(#paint79_linear_19_32692)"/>
<path d="M57.6254 366.599L38.905 360.632H38.396C38.2829 358.738 38.2546 356.645 38.2546 354.524H57.2577C57.1729 358.511 57.3143 362.527 57.6254 366.599V366.599Z" fill="url(#paint80_linear_19_32692)"/>
<path d="M167.374 344.372C167.374 344.711 167.374 345.023 167.318 345.362" stroke="black" stroke-width="1.41393" stroke-linecap="round" stroke-linejoin="round"/>
<path d="M108.612 225.546C108.612 225.546 108.668 225.687 108.696 225.743" stroke="black" stroke-width="1.41393" stroke-linecap="round" stroke-linejoin="round"/>
<g style="mix-blend-mode:soft-light">
<path d="M168.788 255.04C168.788 255.04 186.547 234.68 253.85 237.508L251.955 246.5C232.415 241.382 225.232 253.966 230.633 281.339C230.633 281.339 223.988 258.603 214.515 256.709C194.606 255.747 188.923 266.182 188.923 266.182L168.788 255.04V255.04Z" fill="#F2F1E6"/>
</g>
<g style="mix-blend-mode:soft-light">
<path d="M66.6745 257.642C69.5306 253.853 126.37 255.747 126.37 255.747C126.37 255.747 114.041 261.431 115.002 267.115C105.586 255.182 66.1937 267.341 61.9237 294.602C61.9237 294.602 63.8183 261.431 66.6745 257.642Z" fill="#F2F1E6"/>
</g>
<g style="mix-blend-mode:soft-light">
<path d="M79.0039 324.945L144.384 327.801C144.384 327.801 159.541 324.012 161.436 342.025C161.436 342.025 151.962 329.696 130.16 333.485C108.357 337.274 101.74 340.13 101.74 340.13C101.74 327.49 79.9371 327.49 79.9371 340.13L62.8851 338.236C62.8851 338.236 57.2011 324.012 79.0039 324.973V324.945Z" fill="#F2F1E6"/>
</g>
<path d="M281.761 241.834C278.254 241.834 278.254 295.988 281.761 295.988" stroke="#231F20" stroke-width="0.706963"/>
<path d="M159.456 261.29V254.079C159.4 248.819 60.7077 249.696 60.736 254.955C57.4274 263.354 55.7872 303.142 60.736 315.217C60.736 317.536 159.456 317.536 159.456 315.217C162.623 313.577 164.066 307.412 163.585 304.104" stroke="#231F20" stroke-width="1.13114"/>
<path d="M121.026 261.94L120.149 293.386L133.242 304.754C133.242 304.754 185.614 304.358 186.773 303.17C187.933 301.983 187.763 273.846 187.395 271.555C187.028 269.264 173.426 261.064 173.426 261.064L121.026 261.94V261.94Z" stroke="#231F20" stroke-width="1.13114"/>
<path d="M59.011 261.064C52.3656 263.581 45.5787 266.691 38.9333 270.678C38.0566 275.033 38.0566 290.756 38.9333 296.016C45.5504 301.163 52.2524 304.528 59.011 306.507" stroke="#231F20" stroke-width="1.13114"/>
<path d="M163.33 261.205L164.688 254.051C164.688 254.051 180.411 233.096 258.148 234.821L266.01 241.806H281.733C287.36 240.562 287.586 294.659 281.733 295.959C281.733 295.959 209.029 295.394 169.721 316.376L158.099 315.896" stroke="#231F20" stroke-width="1.13114"/>
<path d="M237.194 249.696C234.875 249.696 234.875 283.771 237.194 283.771H252.04C250.513 270.933 251.22 259.31 252.04 249.696H237.194V249.696Z" stroke="#231F20" stroke-width="1.13114"/>
<path d="M258.177 234.849C255.858 234.849 255.518 287.504 258.177 296.864" stroke="#231F20" stroke-width="0.706963"/>
<path d="M266.038 241.834C263.719 241.834 263.804 276.843 266.406 296.27" stroke="#231F20" stroke-width="0.706963"/>
<path d="M129 282.527C127.502 282.527 127.388 291.605 128.887 291.633L177.809 291.548L174.925 286.005C172.917 283.008 170.061 282.725 166.441 282.782C154.762 282.98 129 282.555 129 282.555V282.527Z" stroke="#231F20" stroke-width="0.706963"/>
<path d="M130.895 282.301L130.584 274.948C130.499 272.884 132.337 271.244 134.373 271.583L154.225 274.892C155.384 275.09 156.459 275.599 157.364 276.362L164.773 282.782" stroke="#231F20" stroke-width="0.706963"/>
<path d="M91.3333 278.511C95.1909 278.511 98.3181 275.384 98.3181 271.527C98.3181 267.669 95.1909 264.542 91.3333 264.542C87.4757 264.542 84.3485 267.669 84.3485 271.527C84.3485 275.384 87.4757 278.511 91.3333 278.511Z" stroke="#231F20" stroke-width="1.13114"/>
<path d="M38.905 283.771L57.9082 283.941" stroke="#231F20" stroke-width="0.56557"/>
<path d="M38.2546 276.843C44.5607 273.732 50.3295 272.092 58.1627 269.971" stroke="#231F20" stroke-width="0.56557"/>
<path d="M38.2546 290.586C44.4193 293.669 50.584 295.083 57.6819 296.977" stroke="#231F20" stroke-width="0.56557"/>
<path d="M141.556 251.251L133.27 240.958L96.5649 218.25L87.8268 220.88C82.567 228.996 79.4847 240.138 79.0039 251.279" stroke="#231F20" stroke-width="1.13114"/>
<path d="M96.5649 218.25C91.3333 226.62 90.3719 242.796 97.0173 250.77" stroke="#231F20" stroke-width="0.706963"/>
<path d="M169.071 261.063C169.071 261.063 169.071 261.035 169.071 261.007" stroke="#231F20" stroke-width="1.13114" stroke-linecap="round" stroke-linejoin="round"/>
<path d="M176.508 253.344C187.565 247.405 210.895 242.683 247.374 241.156" stroke="#231F20" stroke-width="1.13114" stroke-linecap="round" stroke-linejoin="round"/>
<path d="M252.86 240.958H252.916" stroke="#231F20" stroke-width="1.13114" stroke-linecap="round" stroke-linejoin="round"/>
<path d="M70.2376 313.095C70.2376 313.095 70.2376 313.039 70.2376 313.011" stroke="#231F20" stroke-width="1.13114" stroke-linecap="round" stroke-linejoin="round"/>
<path d="M69.0216 301.813C67.7208 287.645 67.7774 276.108 69.5872 261.912" stroke="#231F20" stroke-width="1.13114" stroke-linecap="round" stroke-linejoin="round"/>
<path d="M70.3507 256.312C70.3507 256.312 70.3507 256.256 70.3507 256.228" stroke="#231F20" stroke-width="1.13114" stroke-linecap="round" stroke-linejoin="round"/>
<path d="M191.072 241.071C190.28 230.127 212.111 226.677 242.963 224.245C249.948 223.708 253.85 229.929 254.331 234.68" stroke="#231F20" stroke-width="1.13114"/>
<path d="M208.35 228.515C211.206 231.117 211.432 233.973 211.913 236.575" stroke="#231F20" stroke-width="0.706963"/>
<path d="M215.448 227.101C217.823 229.477 218.756 232.304 219.011 235.868" stroke="#231F20" stroke-width="0.706963"/>
<path d="M221.867 226.14C225.176 227.554 226.25 232.191 225.882 235.387" stroke="#231F20" stroke-width="0.706963"/>
<path d="M241.577 249.696C239.173 256.002 238.919 278.031 241.521 283.941" stroke="#231F20" stroke-width="0.706963"/>
<path d="M153.15 261.431C158.353 265.447 169.071 273.28 169.071 273.28L177.809 275.033L186.802 303.849" stroke="#231F20" stroke-width="0.706963"/>
<path d="M187.395 282.018L200.064 283.121C206.455 283.488 211.178 285.864 214.486 290.982L220.425 301.021" stroke="#231F20" stroke-width="1.13114"/>
<path d="M187.395 287.25L197.378 287.702C203.175 287.957 207.869 289.851 211.517 295.959L214.26 302.181" stroke="#231F20" stroke-width="1.13114"/>
<path d="M74.7338 251.449C70.9445 270.452 71.8494 295.592 75.2146 316.405" stroke="#231F20" stroke-width="0.848355"/>
<path d="M58.6151 332.269C52.3373 334.051 42.9771 337.953 38.905 341.403C38.0283 345.758 38.0283 361.481 38.905 366.74C44.8152 370.897 51.6303 374.347 58.9827 377.232" stroke="#231F20" stroke-width="1.13114"/>
<path d="M91.3333 349.264C95.1909 349.264 98.3181 346.137 98.3181 342.28C98.3181 338.422 95.1909 335.295 91.3333 335.295C87.4757 335.295 84.3485 338.422 84.3485 342.28C84.3485 346.137 87.4757 349.264 91.3333 349.264Z" stroke="#231F20" stroke-width="1.13114"/>
<path d="M38.2546 354.298L57.2577 354.524" stroke="#231F20" stroke-width="0.56557"/>
<path d="M38.905 347.539C44.8152 344.457 50.8103 342.223 58.1627 340.809" stroke="#231F20" stroke-width="0.56557"/>
<path d="M38.2546 360.236C43.2316 363.093 51.5172 364.987 57.9081 366.147" stroke="#231F20" stroke-width="0.56557"/>
<path d="M70.4637 384.159C70.4637 384.159 70.4637 384.103 70.4637 384.075" stroke="#231F20" stroke-width="1.13114" stroke-linecap="round" stroke-linejoin="round"/>
<path d="M68.7671 372.736C67.24 358.031 68.1449 343.411 69.6154 332.071" stroke="#231F20" stroke-width="1.13114" stroke-linecap="round" stroke-linejoin="round"/>
<path d="M70.4637 326.415V326.359" stroke="#231F20" stroke-width="1.13114" stroke-linecap="round" stroke-linejoin="round"/>
<path d="M74.7338 323.05C72.217 345.814 72.2453 366.882 75.5822 387.723" stroke="#231F20" stroke-width="0.848355"/>
<path d="M273.023 296.044C272.655 300.965 267.565 304.811 264.256 306.479L248.618 302.209L230.86 309.788L213.808 314.765L209.538 319.035L196.756 318.328L187.65 327.688L139.181 367.645L138.53 377.486L130.697 383.736L129.99 390.834C129.99 390.834 67.9187 389.165 60.7925 385.998C56.777 373.047 55.8438 337.048 60.7925 325.737C62.9417 320.703 147.042 322.456 155.582 323.757C165.423 324.408 166.894 335.521 166.243 345.334" stroke="#231F20" stroke-width="1.13114"/>
<path d="M164.688 330.289C167.968 327.009 169.269 323.078 169.919 316.518" stroke="#231F20" stroke-width="1.13114"/>
<path d="M96.5365 316.885L99.3644 322.569" stroke="#231F20" stroke-width="1.13114"/>
<path d="M98.3181 342.28H130.64L145.685 362.386" stroke="#231F20" stroke-width="0.706963"/>
<path d="M98.3181 271.527H121.45" stroke="#231F20" stroke-width="0.706963"/>
<path d="M196.812 306.027C195.087 310.947 196.529 316.631 200.064 318.526" stroke="#231F20" stroke-width="0.706963"/>
<path d="M203.995 304.075C203.995 304.075 201.704 312.389 209.764 319.006" stroke="#231F20" stroke-width="0.706963"/>
<path d="M187.735 309.052C187.735 309.052 186.773 318.299 193.899 321.834" stroke="#231F20" stroke-width="0.706963"/>
<path d="M91.3334 346.012C93.5042 346.012 95.2641 344.252 95.2641 342.082C95.2641 339.911 93.5042 338.151 91.3334 338.151C89.1625 338.151 87.4026 339.911 87.4026 342.082C87.4026 344.252 89.1625 346.012 91.3334 346.012Z" stroke="#231F20" stroke-width="0.706963"/>
<path d="M90.6546 275.26C92.8255 275.26 94.5853 273.5 94.5853 271.329C94.5853 269.158 92.8255 267.398 90.6546 267.398C88.4838 267.398 86.7239 269.158 86.7239 271.329C86.7239 273.5 88.4838 275.26 90.6546 275.26Z" stroke="#231F20" stroke-width="0.706963"/>
<path d="M87.5441 388.911C87.5441 388.911 83.7547 377.769 86.7523 359.784C110.337 358.483 124.985 368.07 125.466 390.805" stroke="#231F20" stroke-width="0.706963"/>
<path d="M82.1428 285.072C80.0785 285.129 80.7289 310.07 82.7932 310.014L112.175 310.495C113.589 310.438 113.051 285.016 111.637 285.1H82.1428V285.072Z" stroke="#231F20" stroke-width="0.706963"/>
<path d="M108.385 225.433C108.385 225.433 112.57 237.366 115.568 240.533C118.566 243.701 133.921 251.025 133.921 251.025" stroke="#231F20" stroke-width="0.706963"/>
<path d="M148.315 323.078C147.014 338.151 150.944 345.362 160.757 349.943" stroke="#231F20" stroke-width="0.706963"/>
<path d="M152.443 356.447L165.706 363.319L168.307 361.311L171.164 362.725L177.922 355.966L176.48 353.478L177.555 352.403" stroke="#231F20" stroke-width="1.13114"/>
<path d="M164.292 346.719L177.074 353.365" stroke="#231F20" stroke-width="1.13114"/>
<path d="M168.562 343.411L172.097 350.989" stroke="#231F20" stroke-width="1.13114"/>
<path d="M93.4543 268.784C88.4773 265.701 86.1019 273.535 90.372 275.175" stroke="#231F20" stroke-width="0.424178"/>
<path d="M90.1457 346.012C86.3846 342.336 90.5698 336.596 94.8965 341.035" stroke="#231F20" stroke-width="0.424178"/>
<path d="M101.033 317.112L102.447 319.968H142.744L145.091 323.05" stroke="#231F20" stroke-width="0.706963"/>
<path d="M171.39 341.29C173.285 345.079 177.074 352.912 177.074 352.912" stroke="#231F20" stroke-width="1.13114"/>
<path d="M156.459 352.884L161.266 355.627" stroke="#231F20" stroke-width="0.424178"/>
<path d="M163.104 359.02V362.131" stroke="#231F20" stroke-width="0.424178"/>
<path d="M166.187 347.907L166.696 353.054" stroke="#231F20" stroke-width="0.424178"/>
<path d="M168.223 355.655L174.953 358.822" stroke="#231F20" stroke-width="0.424178"/>
<path d="M239.852 305.744L233.998 312.106" stroke="#231F20" stroke-width="1.13114"/>
<path d="M230.718 315.67L225.883 320.901L222.319 319.487L219.972 312.842" stroke="#231F20" stroke-width="1.13114"/>
<path d="M217.116 314.029L218.078 317.366L222.319 319.487" stroke="#231F20" stroke-width="0.424178"/>
<path d="M224.949 324.945L230.916 318.299" stroke="#231F20" stroke-width="0.424178"/>
<path d="M236.544 312.05L237.731 310.721L241.04 310.495" stroke="#231F20" stroke-width="0.424178"/>
<path d="M225.402 300.286C225.402 300.286 227.296 302.407 230.153 303.849C245.564 298.646 250.513 298.872 264.256 302.435C267.339 301.021 268.753 299.579 270.647 296.27" stroke="#231F20" stroke-width="0.424178"/>
<path d="M84.2072 341.516L73.0937 341.29" stroke="#231F20" stroke-width="0.706963"/>
<path d="M83.5844 287.023H83.5285V287.079" stroke="#231F20" stroke-width="1.13114" stroke-linecap="round" stroke-linejoin="round"/>
<path d="M82.765 297.571C82.8498 299.353 83.0195 301.134 83.3023 302.916" stroke="#231F20" stroke-width="1.13114" stroke-linecap="round" stroke-linejoin="round"/>
<path d="M84.4334 308.034V308.09H84.5175" stroke="#231F20" stroke-width="1.13114" stroke-linecap="round" stroke-linejoin="round"/>
<path d="M97.2719 308.345L103.833 308.459" stroke="#231F20" stroke-width="1.13114" stroke-linecap="round" stroke-linejoin="round"/>
<path d="M110.195 308.599H110.251V308.543" stroke="#231F20" stroke-width="1.13114" stroke-linecap="round" stroke-linejoin="round"/>
<path d="M110.817 297.995C110.817 296.157 110.817 294.376 110.704 292.594" stroke="#231F20" stroke-width="1.13114" stroke-linecap="round" stroke-linejoin="round"/>
<path d="M110.279 287.334V287.278H110.223" stroke="#231F20" stroke-width="1.13114" stroke-linecap="round" stroke-linejoin="round"/>
<path d="M96.9608 287.137L90.2023 287.08" stroke="#231F20" stroke-width="1.13114" stroke-linecap="round" stroke-linejoin="round"/>
<path d="M99.8452 340.809H99.9293" stroke="#231F20" stroke-width="1.13114" stroke-linecap="round" stroke-linejoin="round"/>
<path d="M110.28 340.894L126.116 341.007" stroke="#231F20" stroke-width="1.13114" stroke-linecap="round" stroke-linejoin="round"/>
<path d="M131.291 341.035H131.347L131.403 341.091" stroke="#231F20" stroke-width="1.13114" stroke-linecap="round" stroke-linejoin="round"/>
<path d="M138.53 350.452L142.206 355.259" stroke="#231F20" stroke-width="1.13114" stroke-linecap="round" stroke-linejoin="round"/>
<path d="M145.769 359.954L145.797 360.01" stroke="#231F20" stroke-width="1.13114" stroke-linecap="round" stroke-linejoin="round"/>
<path d="M81.8312 339.395C81.8312 339.395 81.8032 339.395 81.7752 339.395" stroke="#231F20" stroke-width="1.13114" stroke-linecap="round" stroke-linejoin="round"/>
<path d="M75.2706 339.621H75.2146" stroke="#231F20" stroke-width="1.13114" stroke-linecap="round" stroke-linejoin="round"/>
<path d="M89.8912 388.656C89.8912 388.656 89.8912 388.656 89.8912 388.6" stroke="#231F20" stroke-width="1.13114" stroke-linecap="round" stroke-linejoin="round"/>
<path d="M87.3461 375.139C87.2613 372.99 87.2613 370.643 87.4875 368.098" stroke="#231F20" stroke-width="1.13114" stroke-linecap="round" stroke-linejoin="round"/>
<path d="M88.4772 361.254V361.198C88.4772 361.198 88.4772 361.198 88.5332 361.198" stroke="#231F20" stroke-width="1.13114" stroke-linecap="round" stroke-linejoin="round"/>
<path d="M98.6575 362.103C107.989 363.969 120.686 369.455 122.949 385.376" stroke="#231F20" stroke-width="1.13114" stroke-linecap="round" stroke-linejoin="round"/>
<path d="M123.316 390.494V390.55" stroke="#231F20" stroke-width="1.13114" stroke-linecap="round" stroke-linejoin="round"/>
<path d="M191.524 282.046C192.966 282.103 192.712 287.787 191.298 287.73" stroke="#231F20" stroke-width="0.56557"/>
<path d="M198.17 287.73C199.357 286.769 199.838 284.422 198.877 282.98" stroke="#231F20" stroke-width="0.56557"/>
<path d="M203.373 288.918C205.041 287.957 206.229 285.129 205.268 284.167" stroke="#231F20" stroke-width="0.56557"/>
<path d="M207.417 291.067C209.085 290.36 210.725 288.692 210.499 286.571" stroke="#231F20" stroke-width="0.56557"/>
<path d="M212.139 296.751C213.327 296.751 216.636 295.564 215.929 293.443" stroke="#231F20" stroke-width="0.56557"/>
<path d="M213.101 299.579C214.995 300.541 217.597 298.872 218.078 296.977" stroke="#231F20" stroke-width="0.56557"/>
<path d="M210.018 293.669C211.885 293.443 214.034 291.774 213.808 290.106" stroke="#231F20" stroke-width="0.56557"/>
<path d="M134.204 302.916L134.26 302.888" stroke="#231F20" stroke-width="1.13114" stroke-linecap="round" stroke-linejoin="round"/>
<path d="M146.674 302.605L178.148 301.87" stroke="#231F20" stroke-width="1.13114" stroke-linecap="round" stroke-linejoin="round"/>
<path d="M184.341 301.727H184.426L184.397 301.643" stroke="#231F20" stroke-width="1.13114" stroke-linecap="round" stroke-linejoin="round"/>
<path d="M180.552 289.229L178.573 282.866" stroke="#231F20" stroke-width="1.13114" stroke-linecap="round" stroke-linejoin="round"/>
<path d="M176.621 276.673V276.617L176.536 276.589" stroke="#231F20" stroke-width="1.13114" stroke-linecap="round" stroke-linejoin="round"/>
<path d="M167.459 274.185L156.006 265.503" stroke="#231F20" stroke-width="1.13114" stroke-linecap="round" stroke-linejoin="round"/>
<path d="M152.273 262.675L152.217 262.619" stroke="#231F20" stroke-width="1.13114" stroke-linecap="round" stroke-linejoin="round"/>
<path d="M146.052 323.276C146.052 323.276 141.556 344.825 159.089 351.47" stroke="#231F20" stroke-width="0.706963"/>
<path d="M157.647 325.878C160.022 324.69 165.706 334.644 164.037 336.058C160.729 338.179 154.564 327.292 157.647 325.878Z" stroke="#231F20" stroke-width="0.706963"/>
<path d="M156.94 327.292C158.919 325.878 164.122 334.871 162.143 336.285" stroke="#231F20" stroke-width="0.424178"/>
<path d="M248.618 302.181L238.693 313.294" stroke="#231F20" stroke-width="1.13114"/>
<path d="M239.598 318.752L252.889 341.516L249.806 344.598L235.667 321.382" stroke="#231F20" stroke-width="1.13114"/>
<path d="M232.387 320.335L226.59 326.811C220.679 322.315 216.89 321.834 216.89 321.834L213.808 314.736" stroke="#231F20" stroke-width="1.13114"/>
<path d="M235.356 321.382C237.98 321.382 240.107 319.255 240.107 316.631C240.107 314.007 237.98 311.88 235.356 311.88C232.732 311.88 230.605 314.007 230.605 316.631C230.605 319.255 232.732 321.382 235.356 321.382Z" stroke="#231F20" stroke-width="1.13114"/>
<path d="M164.744 359.416C166.665 359.416 168.223 357.859 168.223 355.938C168.223 354.017 166.665 352.46 164.744 352.46C162.823 352.46 161.266 354.017 161.266 355.938C161.266 357.859 162.823 359.416 164.744 359.416Z" stroke="#231F20" stroke-width="0.706963"/>
<path d="M235.469 319.119C236.843 319.119 237.957 318.005 237.957 316.631C237.957 315.257 236.843 314.142 235.469 314.142C234.095 314.142 232.98 315.257 232.98 316.631C232.98 318.005 234.095 319.119 235.469 319.119Z" stroke="#231F20" stroke-width="0.706963"/>
<path d="M236.77 314.51L233.942 319.006" stroke="#231F20" stroke-width="0.706963"/>
<path d="M167.601 354.298L161.917 357.635" stroke="#231F20" stroke-width="0.706963"/>
<path d="M130.641 383.679C130.697 383.849 131.8 386.96 133.412 391.541" stroke="#231F20" stroke-width="1.13114"/>
<path d="M146.165 427.313C147.551 431.187 148.428 433.676 148.428 433.676L140.849 440.067C140.849 440.067 139.181 435.514 136.805 429.151L137.993 426.097L129.453 402.654L126.597 401.976C124.532 396.574 122.864 392.276 122.1 390.579" stroke="#231F20" stroke-width="1.13114"/>
<path d="M133.497 391.513L137.767 394.821L146.985 420.413L146.279 427.285L144.384 428.473L131.347 392.7L133.497 391.513Z" stroke="#231F20" stroke-width="1.13114"/>
<path d="M128.52 397.423C129.691 397.423 130.64 396.473 130.64 395.302C130.64 394.131 129.691 393.181 128.52 393.181C127.348 393.181 126.399 394.131 126.399 395.302C126.399 396.473 127.348 397.423 128.52 397.423Z" stroke="#231F20" stroke-width="0.706963"/>
<path d="M142.744 434.609C143.915 434.609 144.865 433.659 144.865 432.488C144.865 431.317 143.915 430.367 142.744 430.367C141.572 430.367 140.623 431.317 140.623 432.488C140.623 433.659 141.572 434.609 142.744 434.609Z" stroke="#231F20" stroke-width="0.706963"/>
<path d="M128.52 393.153V397.423" stroke="#231F20" stroke-width="0.424178"/>
<path d="M140.595 431.555L144.865 433.45" stroke="#231F20" stroke-width="0.424178"/>
<path d="M131.347 406.896L134.204 408.338L138.926 420.894L142.489 423.495" stroke="#231F20" stroke-width="0.424178"/>
<path d="M135.391 393.153L141.075 409.045V418.999" stroke="#231F20" stroke-width="0.424178"/>
<path d="M126.37 390.806L127.558 393.407" stroke="#231F20" stroke-width="0.424178"/>
<path d="M129.453 397.196C129.453 397.903 134.204 408.338 134.204 408.338" stroke="#231F20" stroke-width="0.424178"/>
<path d="M142.744 434.609L142.008 438.879" stroke="#231F20" stroke-width="0.424178"/>
<path d="M169.014 349.575L169.495 352.658L176.621 357.154" stroke="#231F20" stroke-width="0.424178"/>
<path d="M172.804 343.411L172.097 346.267L174.472 351.696" stroke="#231F20" stroke-width="0.424178"/>
<path d="M240.559 320.901L239.852 323.757L251.22 342.704" stroke="#231F20" stroke-width="0.424178"/>
<path d="M237.731 308.6L240.333 308.119L243.641 304.075" stroke="#231F20" stroke-width="0.424178"/>
<path d="M242.482 324.21L241.747 326.359" stroke="#231F20" stroke-width="0.424178"/>
<path d="M243.189 328.734L244.377 326.839" stroke="#231F20" stroke-width="0.424178"/>
</g>
<defs>
<radialGradient id="paint0_radial_19_32692" cx="0" cy="0" r="1" gradientUnits="userSpaceOnUse" gradientTransform="translate(283.062 268.925) scale(19.3425 19.3425)">
<stop offset="0.18" stop-color="#F4E8D9"/>
<stop offset="0.59" stop-color="#EDD089"/>
<stop offset="1" stop-color="#C08329"/>
</radialGradient>
<linearGradient id="paint1_linear_19_32692" x1="264.568" y1="269.095" x2="281.761" y2="269.095" gradientUnits="userSpaceOnUse">
<stop stop-color="#DED9D6"/>
<stop offset="0.06" stop-color="#CFCAC8"/>
<stop offset="0.18" stop-color="#A8A4A6"/>
<stop offset="0.26" stop-color="#8B878D"/>
<stop offset="0.52" stop-color="#F3F4F4"/>
<stop offset="0.58" stop-color="#E4E5E5"/>
<stop offset="0.7" stop-color="#BFBEC0"/>
<stop offset="0.86" stop-color="#847F84"/>
<stop offset="0.88" stop-color="#807B80"/>
<stop offset="1" stop-color="#A7A9AC"/>
</linearGradient>
<linearGradient id="paint2_linear_19_32692" x1="203.854" y1="307.186" x2="273.843" y2="307.186" gradientUnits="userSpaceOnUse">
<stop offset="0.03" stop-color="#9B9B98"/>
<stop offset="0.13" stop-color="#A4A5A6"/>
<stop offset="0.22" stop-color="#AEB0B7"/>
<stop offset="0.35" stop-color="#9FA3A9"/>
<stop offset="0.61" stop-color="#788187"/>
<stop offset="0.72" stop-color="#657076"/>
<stop offset="1" stop-color="#8B949A"/>
</linearGradient>
<linearGradient id="paint3_linear_19_32692" x1="225.402" y1="300.003" x2="270.647" y2="300.003" gradientUnits="userSpaceOnUse">
<stop offset="0.03" stop-color="#9B9B98"/>
<stop offset="0.13" stop-color="#A4A5A6"/>
<stop offset="0.22" stop-color="#AEB0B7"/>
<stop offset="0.35" stop-color="#9FA3A9"/>
<stop offset="0.61" stop-color="#788187"/>
<stop offset="0.72" stop-color="#657076"/>
<stop offset="1" stop-color="#8B949A"/>
</linearGradient>
<linearGradient id="paint4_linear_19_32692" x1="256.423" y1="265.814" x2="266.519" y2="265.814" gradientUnits="userSpaceOnUse">
<stop stop-color="#85878D"/>
<stop offset="0.53" stop-color="#979899"/>
<stop offset="1" stop-color="#5D5C62"/>
</linearGradient>
<linearGradient id="paint5_linear_19_32692" x1="163.811" y1="267.879" x2="258.177" y2="267.879" gradientUnits="userSpaceOnUse">
<stop stop-color="#DED9D6"/>
<stop offset="0.04" stop-color="#CFCBC9"/>
<stop offset="0.11" stop-color="#A8A8A7"/>
<stop offset="0.21" stop-color="#697071"/>
<stop offset="0.26" stop-color="#465053"/>
<stop offset="0.37" stop-color="#878D8E"/>
<stop offset="0.46" stop-color="#B7B9BA"/>
<stop offset="0.53" stop-color="#D4D5D5"/>
<stop offset="0.57" stop-color="#E0E0E0"/>
<stop offset="0.63" stop-color="#D6D7D7"/>
<stop offset="0.73" stop-color="#BCBFC1"/>
<stop offset="0.86" stop-color="#91989D"/>
<stop offset="0.88" stop-color="#8B9298"/>
<stop offset="1" stop-color="#A7A9AC"/>
</linearGradient>
<linearGradient id="paint6_linear_19_32692" x1="220.594" y1="229.986" x2="256.423" y2="229.986" gradientUnits="userSpaceOnUse">
<stop stop-color="#85878D"/>
<stop offset="0.53" stop-color="#979899"/>
<stop offset="1" stop-color="#5D5C62"/>
</linearGradient>
<linearGradient id="paint7_linear_19_32692" x1="235.667" y1="331.675" x2="252.889" y2="331.675" gradientUnits="userSpaceOnUse">
<stop stop-color="#85878D"/>
<stop offset="0.53" stop-color="#979899"/>
<stop offset="1" stop-color="#5D5C62"/>
</linearGradient>
<linearGradient id="paint8_linear_19_32692" x1="239.824" y1="266.748" x2="252.04" y2="266.748" gradientUnits="userSpaceOnUse">
<stop stop-color="#6D583F"/>
<stop offset="0.5" stop-color="#483318"/>
<stop offset="1" stop-color="#282913"/>
</linearGradient>
<linearGradient id="paint9_linear_19_32692" x1="233.998" y1="307.186" x2="248.562" y2="307.186" gradientUnits="userSpaceOnUse">
<stop stop-color="#DED9D6"/>
<stop offset="0.04" stop-color="#CFCBC9"/>
<stop offset="0.11" stop-color="#A8A8A7"/>
<stop offset="0.21" stop-color="#697071"/>
<stop offset="0.26" stop-color="#465053"/>
<stop offset="0.37" stop-color="#878D8E"/>
<stop offset="0.46" stop-color="#B7B9BA"/>
<stop offset="0.53" stop-color="#D4D5D5"/>
<stop offset="0.57" stop-color="#E0E0E0"/>
<stop offset="0.63" stop-color="#D6D7D7"/>
<stop offset="0.73" stop-color="#BCBFC1"/>
<stop offset="0.86" stop-color="#91989D"/>
<stop offset="0.88" stop-color="#8B9298"/>
<stop offset="1" stop-color="#A7A9AC"/>
</linearGradient>
<linearGradient id="paint10_linear_19_32692" x1="235.469" y1="266.748" x2="241.577" y2="266.748" gradientUnits="userSpaceOnUse">
<stop stop-color="#85878D"/>
<stop offset="0.53" stop-color="#979899"/>
<stop offset="1" stop-color="#5D5C62"/>
</linearGradient>
<linearGradient id="paint11_linear_19_32692" x1="236.515" y1="311.88" x2="241.153" y2="311.88" gradientUnits="userSpaceOnUse">
<stop stop-color="#DED9D6"/>
<stop offset="0.04" stop-color="#CFCBC9"/>
<stop offset="0.11" stop-color="#A8A8A7"/>
<stop offset="0.21" stop-color="#697071"/>
<stop offset="0.26" stop-color="#465053"/>
<stop offset="0.37" stop-color="#878D8E"/>
<stop offset="0.46" stop-color="#B7B9BA"/>
<stop offset="0.53" stop-color="#D4D5D5"/>
<stop offset="0.57" stop-color="#E0E0E0"/>
<stop offset="0.63" stop-color="#D6D7D7"/>
<stop offset="0.73" stop-color="#BCBFC1"/>
<stop offset="0.86" stop-color="#91989D"/>
<stop offset="0.88" stop-color="#8B9298"/>
<stop offset="1" stop-color="#A7A9AC"/>
</linearGradient>
<linearGradient id="paint12_linear_19_32692" x1="230.633" y1="316.631" x2="240.107" y2="316.631" gradientUnits="userSpaceOnUse">
<stop stop-color="#DED9D6"/>
<stop offset="0.06" stop-color="#CFCAC8"/>
<stop offset="0.18" stop-color="#A8A4A6"/>
<stop offset="0.26" stop-color="#8B878D"/>
<stop offset="0.52" stop-color="#F3F4F4"/>
<stop offset="0.58" stop-color="#E4E5E5"/>
<stop offset="0.7" stop-color="#BFBEC0"/>
<stop offset="0.86" stop-color="#847F84"/>
<stop offset="0.88" stop-color="#807B80"/>
<stop offset="1" stop-color="#A7A9AC"/>
</linearGradient>
<linearGradient id="paint13_linear_19_32692" x1="213.412" y1="316.348" x2="239.711" y2="316.348" gradientUnits="userSpaceOnUse">
<stop stop-color="#85878D"/>
<stop offset="0.53" stop-color="#979899"/>
<stop offset="1" stop-color="#5D5C62"/>
</linearGradient>
<linearGradient id="paint14_linear_19_32692" x1="234.14" y1="316.829" x2="237.957" y2="316.829" gradientUnits="userSpaceOnUse">
<stop stop-color="#DED9D6"/>
<stop offset="0.04" stop-color="#CFCBC9"/>
<stop offset="0.11" stop-color="#A8A8A7"/>
<stop offset="0.21" stop-color="#697071"/>
<stop offset="0.26" stop-color="#465053"/>
<stop offset="0.37" stop-color="#878D8E"/>
<stop offset="0.46" stop-color="#B7B9BA"/>
<stop offset="0.53" stop-color="#D4D5D5"/>
<stop offset="0.57" stop-color="#E0E0E0"/>
<stop offset="0.63" stop-color="#D6D7D7"/>
<stop offset="0.73" stop-color="#BCBFC1"/>
<stop offset="0.86" stop-color="#91989D"/>
<stop offset="0.88" stop-color="#8B9298"/>
<stop offset="1" stop-color="#A7A9AC"/>
</linearGradient>
<linearGradient id="paint15_linear_19_32692" x1="233.009" y1="316.461" x2="236.798" y2="316.461" gradientUnits="userSpaceOnUse">
<stop stop-color="#DED9D6"/>
<stop offset="0.04" stop-color="#CFCBC9"/>
<stop offset="0.11" stop-color="#A8A8A7"/>
<stop offset="0.21" stop-color="#697071"/>
<stop offset="0.26" stop-color="#465053"/>
<stop offset="0.37" stop-color="#878D8E"/>
<stop offset="0.46" stop-color="#B7B9BA"/>
<stop offset="0.53" stop-color="#D4D5D5"/>
<stop offset="0.57" stop-color="#E0E0E0"/>
<stop offset="0.63" stop-color="#D6D7D7"/>
<stop offset="0.73" stop-color="#BCBFC1"/>
<stop offset="0.86" stop-color="#91989D"/>
<stop offset="0.88" stop-color="#8B9298"/>
<stop offset="1" stop-color="#A7A9AC"/>
</linearGradient>
<linearGradient id="paint16_linear_19_32692" x1="213.496" y1="231.06" x2="226.674" y2="231.06" gradientUnits="userSpaceOnUse">
<stop offset="0.03" stop-color="#BFA730"/>
<stop offset="0.17" stop-color="#C5B323"/>
<stop offset="0.45" stop-color="#CFC80F"/>
<stop offset="0.73" stop-color="#D5D403"/>
<stop offset="1" stop-color="#D8D900"/>
</linearGradient>
<linearGradient id="paint17_linear_19_32692" x1="213.242" y1="299.551" x2="220.34" y2="299.551" gradientUnits="userSpaceOnUse">
<stop stop-color="#85878D"/>
<stop offset="0.53" stop-color="#979899"/>
<stop offset="1" stop-color="#5D5C62"/>
</linearGradient>
<linearGradient id="paint18_linear_19_32692" x1="209.311" y1="232.022" x2="219.35" y2="232.022" gradientUnits="userSpaceOnUse">
<stop offset="0.03" stop-color="#BFA730"/>
<stop offset="0.17" stop-color="#C5B323"/>
<stop offset="0.45" stop-color="#CFC80F"/>
<stop offset="0.73" stop-color="#D5D403"/>
<stop offset="1" stop-color="#D8D900"/>
</linearGradient>
<linearGradient id="paint19_linear_19_32692" x1="211.941" y1="296.638" x2="218.049" y2="296.638" gradientUnits="userSpaceOnUse">
<stop stop-color="#85878D"/>
<stop offset="0.53" stop-color="#979899"/>
<stop offset="1" stop-color="#5D5C62"/>
</linearGradient>
<linearGradient id="paint20_linear_19_32692" x1="209.905" y1="293.527" x2="216.042" y2="293.527" gradientUnits="userSpaceOnUse">
<stop stop-color="#85878D"/>
<stop offset="0.53" stop-color="#979899"/>
<stop offset="1" stop-color="#5D5C62"/>
</linearGradient>
<linearGradient id="paint21_linear_19_32692" x1="185.444" y1="298.137" x2="214.401" y2="298.137" gradientUnits="userSpaceOnUse">
<stop stop-color="#DED9D6"/>
<stop offset="0.04" stop-color="#CFCBC9"/>
<stop offset="0.11" stop-color="#A8A8A7"/>
<stop offset="0.21" stop-color="#697071"/>
<stop offset="0.26" stop-color="#465053"/>
<stop offset="0.37" stop-color="#878D8E"/>
<stop offset="0.46" stop-color="#B7B9BA"/>
<stop offset="0.53" stop-color="#D4D5D5"/>
<stop offset="0.57" stop-color="#E0E0E0"/>
<stop offset="0.63" stop-color="#D6D7D7"/>
<stop offset="0.73" stop-color="#BCBFC1"/>
<stop offset="0.86" stop-color="#91989D"/>
<stop offset="0.88" stop-color="#8B9298"/>
<stop offset="1" stop-color="#A7A9AC"/>
</linearGradient>
<linearGradient id="paint22_linear_19_32692" x1="207.219" y1="290.558" x2="213.808" y2="290.558" gradientUnits="userSpaceOnUse">
<stop stop-color="#85878D"/>
<stop offset="0.53" stop-color="#979899"/>
<stop offset="1" stop-color="#5D5C62"/>
</linearGradient>
<linearGradient id="paint23_linear_19_32692" x1="190.817" y1="234.482" x2="211.828" y2="234.482" gradientUnits="userSpaceOnUse">
<stop stop-color="#85878D"/>
<stop offset="0.53" stop-color="#979899"/>
<stop offset="1" stop-color="#5D5C62"/>
</linearGradient>
<linearGradient id="paint24_linear_19_32692" x1="196.586" y1="311.654" x2="208.944" y2="311.654" gradientUnits="userSpaceOnUse">
<stop offset="0.03" stop-color="#BFA730"/>
<stop offset="0.17" stop-color="#C5B323"/>
<stop offset="0.45" stop-color="#CFC80F"/>
<stop offset="0.73" stop-color="#D5D403"/>
<stop offset="1" stop-color="#D8D900"/>
</linearGradient>
<linearGradient id="paint25_linear_19_32692" x1="203.316" y1="287.872" x2="210.471" y2="287.872" gradientUnits="userSpaceOnUse">
<stop stop-color="#85878D"/>
<stop offset="0.53" stop-color="#979899"/>
<stop offset="1" stop-color="#5D5C62"/>
</linearGradient>
<linearGradient id="paint26_linear_19_32692" x1="198.17" y1="286.034" x2="205.579" y2="286.034" gradientUnits="userSpaceOnUse">
<stop stop-color="#85878D"/>
<stop offset="0.53" stop-color="#979899"/>
<stop offset="1" stop-color="#5D5C62"/>
</linearGradient>
<linearGradient id="paint27_linear_19_32692" x1="191.835" y1="285.1" x2="199.386" y2="285.1" gradientUnits="userSpaceOnUse">
<stop stop-color="#85878D"/>
<stop offset="0.53" stop-color="#979899"/>
<stop offset="1" stop-color="#5D5C62"/>
</linearGradient>
<linearGradient id="paint28_linear_19_32692" x1="187.48" y1="313.944" x2="197.943" y2="313.944" gradientUnits="userSpaceOnUse">
<stop offset="0.03" stop-color="#BFA730"/>
<stop offset="0.17" stop-color="#C5B323"/>
<stop offset="0.45" stop-color="#CFC80F"/>
<stop offset="0.73" stop-color="#D5D403"/>
<stop offset="1" stop-color="#D8D900"/>
</linearGradient>
<linearGradient id="paint29_linear_19_32692" x1="164.886" y1="326.698" x2="193.306" y2="326.698" gradientUnits="userSpaceOnUse">
<stop offset="0.03" stop-color="#9B9B98"/>
<stop offset="0.13" stop-color="#A4A5A6"/>
<stop offset="0.22" stop-color="#AEB0B7"/>
<stop offset="0.35" stop-color="#9FA3A9"/>
<stop offset="0.61" stop-color="#788187"/>
<stop offset="0.72" stop-color="#657076"/>
<stop offset="1" stop-color="#8B949A"/>
</linearGradient>
<linearGradient id="paint30_linear_19_32692" x1="186.971" y1="284.733" x2="192.486" y2="284.733" gradientUnits="userSpaceOnUse">
<stop stop-color="#85878D"/>
<stop offset="0.53" stop-color="#979899"/>
<stop offset="1" stop-color="#5D5C62"/>
</linearGradient>
<linearGradient id="paint31_linear_19_32692" x1="159.456" y1="309.561" x2="187.509" y2="309.561" gradientUnits="userSpaceOnUse">
<stop stop-color="#DED9D6"/>
<stop offset="0.04" stop-color="#CFCBC9"/>
<stop offset="0.11" stop-color="#A8A8A7"/>
<stop offset="0.21" stop-color="#697071"/>
<stop offset="0.26" stop-color="#465053"/>
<stop offset="0.37" stop-color="#878D8E"/>
<stop offset="0.46" stop-color="#B7B9BA"/>
<stop offset="0.53" stop-color="#D4D5D5"/>
<stop offset="0.57" stop-color="#E0E0E0"/>
<stop offset="0.63" stop-color="#D6D7D7"/>
<stop offset="0.73" stop-color="#BCBFC1"/>
<stop offset="0.86" stop-color="#91989D"/>
<stop offset="0.88" stop-color="#8B9298"/>
<stop offset="1" stop-color="#A7A9AC"/>
</linearGradient>
<linearGradient id="paint32_linear_19_32692" x1="151.878" y1="282.046" x2="187.395" y2="282.046" gradientUnits="userSpaceOnUse">
<stop stop-color="#DED9D6"/>
<stop offset="0.06" stop-color="#CFCAC8"/>
<stop offset="0.18" stop-color="#A8A4A6"/>
<stop offset="0.26" stop-color="#8B878D"/>
<stop offset="0.52" stop-color="#F3F4F4"/>
<stop offset="0.58" stop-color="#E4E5E5"/>
<stop offset="0.7" stop-color="#BFBEC0"/>
<stop offset="0.86" stop-color="#847F84"/>
<stop offset="0.88" stop-color="#807B80"/>
<stop offset="1" stop-color="#A7A9AC"/>
</linearGradient>
<linearGradient id="paint33_linear_19_32692" x1="120.149" y1="283.064" x2="185.444" y2="283.064" gradientUnits="userSpaceOnUse">
<stop stop-color="#DED9D6"/>
<stop offset="0.06" stop-color="#CFCAC8"/>
<stop offset="0.18" stop-color="#A8A4A6"/>
<stop offset="0.26" stop-color="#8B878D"/>
<stop offset="0.52" stop-color="#F3F4F4"/>
<stop offset="0.58" stop-color="#E4E5E5"/>
<stop offset="0.7" stop-color="#BFBEC0"/>
<stop offset="0.86" stop-color="#847F84"/>
<stop offset="0.88" stop-color="#807B80"/>
<stop offset="1" stop-color="#A7A9AC"/>
</linearGradient>
<linearGradient id="paint34_linear_19_32692" x1="128.887" y1="287.023" x2="178.657" y2="287.023" gradientUnits="userSpaceOnUse">
<stop stop-color="#DED9D6"/>
<stop offset="0.06" stop-color="#CFCAC8"/>
<stop offset="0.18" stop-color="#A8A4A6"/>
<stop offset="0.26" stop-color="#8B878D"/>
<stop offset="0.52" stop-color="#F3F4F4"/>
<stop offset="0.58" stop-color="#E4E5E5"/>
<stop offset="0.7" stop-color="#BFBEC0"/>
<stop offset="0.86" stop-color="#847F84"/>
<stop offset="0.88" stop-color="#807B80"/>
<stop offset="1" stop-color="#A7A9AC"/>
</linearGradient>
<linearGradient id="paint35_linear_19_32692" x1="166.187" y1="353.336" x2="177.555" y2="353.336" gradientUnits="userSpaceOnUse">
<stop stop-color="#85878D"/>
<stop offset="0.53" stop-color="#979899"/>
<stop offset="1" stop-color="#5D5C62"/>
</linearGradient>
<linearGradient id="paint36_linear_19_32692" x1="168.562" y1="347.172" x2="177.102" y2="347.172" gradientUnits="userSpaceOnUse">
<stop stop-color="#DED9D6"/>
<stop offset="0.06" stop-color="#CFCAC8"/>
<stop offset="0.18" stop-color="#A8A4A6"/>
<stop offset="0.26" stop-color="#8B878D"/>
<stop offset="0.52" stop-color="#F3F4F4"/>
<stop offset="0.58" stop-color="#E4E5E5"/>
<stop offset="0.7" stop-color="#BFBEC0"/>
<stop offset="0.86" stop-color="#847F84"/>
<stop offset="0.88" stop-color="#807B80"/>
<stop offset="1" stop-color="#A7A9AC"/>
</linearGradient>
<linearGradient id="paint37_linear_19_32692" x1="163.104" y1="359.473" x2="175.038" y2="359.473" gradientUnits="userSpaceOnUse">
<stop stop-color="#DED9D6"/>
<stop offset="0.06" stop-color="#CFCAC8"/>
<stop offset="0.18" stop-color="#A8A4A6"/>
<stop offset="0.26" stop-color="#8B878D"/>
<stop offset="0.52" stop-color="#F3F4F4"/>
<stop offset="0.58" stop-color="#E4E5E5"/>
<stop offset="0.7" stop-color="#BFBEC0"/>
<stop offset="0.86" stop-color="#847F84"/>
<stop offset="0.88" stop-color="#807B80"/>
<stop offset="1" stop-color="#A7A9AC"/>
</linearGradient>
<linearGradient id="paint38_linear_19_32692" x1="164.405" y1="347.087" x2="171.984" y2="347.087" gradientUnits="userSpaceOnUse">
<stop stop-color="#DED9D6"/>
<stop offset="0.06" stop-color="#CFCAC8"/>
<stop offset="0.18" stop-color="#A8A4A6"/>
<stop offset="0.26" stop-color="#8B878D"/>
<stop offset="0.52" stop-color="#F3F4F4"/>
<stop offset="0.58" stop-color="#E4E5E5"/>
<stop offset="0.7" stop-color="#BFBEC0"/>
<stop offset="0.86" stop-color="#847F84"/>
<stop offset="0.88" stop-color="#807B80"/>
<stop offset="1" stop-color="#A7A9AC"/>
</linearGradient>
<linearGradient id="paint39_linear_19_32692" x1="101.033" y1="322.654" x2="170.004" y2="322.654" gradientUnits="userSpaceOnUse">
<stop stop-color="#85878D"/>
<stop offset="0.53" stop-color="#979899"/>
<stop offset="1" stop-color="#5D5C62"/>
</linearGradient>
<linearGradient id="paint40_linear_19_32692" x1="161.747" y1="356.843" x2="168.223" y2="356.843" gradientUnits="userSpaceOnUse">
<stop stop-color="#DED9D6"/>
<stop offset="0.06" stop-color="#CFCAC8"/>
<stop offset="0.18" stop-color="#A8A4A6"/>
<stop offset="0.26" stop-color="#8B878D"/>
<stop offset="0.52" stop-color="#F3F4F4"/>
<stop offset="0.58" stop-color="#E4E5E5"/>
<stop offset="0.7" stop-color="#BFBEC0"/>
<stop offset="0.86" stop-color="#847F84"/>
<stop offset="0.88" stop-color="#807B80"/>
<stop offset="1" stop-color="#A7A9AC"/>
</linearGradient>
<linearGradient id="paint41_linear_19_32692" x1="161.266" y1="355.061" x2="167.77" y2="355.061" gradientUnits="userSpaceOnUse">
<stop stop-color="#DED9D6"/>
<stop offset="0.06" stop-color="#CFCAC8"/>
<stop offset="0.18" stop-color="#A8A4A6"/>
<stop offset="0.26" stop-color="#8B878D"/>
<stop offset="0.52" stop-color="#F3F4F4"/>
<stop offset="0.58" stop-color="#E4E5E5"/>
<stop offset="0.7" stop-color="#BFBEC0"/>
<stop offset="0.86" stop-color="#847F84"/>
<stop offset="0.88" stop-color="#807B80"/>
<stop offset="1" stop-color="#A7A9AC"/>
</linearGradient>
<linearGradient id="paint42_linear_19_32692" x1="148.088" y1="336.511" x2="167.403" y2="336.511" gradientUnits="userSpaceOnUse">
<stop stop-color="#DED9D6"/>
<stop offset="0.04" stop-color="#CFCBC9"/>
<stop offset="0.11" stop-color="#A8A8A7"/>
<stop offset="0.21" stop-color="#697071"/>
<stop offset="0.26" stop-color="#465053"/>
<stop offset="0.37" stop-color="#878D8E"/>
<stop offset="0.46" stop-color="#B7B9BA"/>
<stop offset="0.53" stop-color="#D4D5D5"/>
<stop offset="0.57" stop-color="#E0E0E0"/>
<stop offset="0.63" stop-color="#D6D7D7"/>
<stop offset="0.73" stop-color="#BCBFC1"/>
<stop offset="0.86" stop-color="#91989D"/>
<stop offset="0.88" stop-color="#8B9298"/>
<stop offset="1" stop-color="#A7A9AC"/>
</linearGradient>
<linearGradient id="paint43_linear_19_32692" x1="156.798" y1="351.216" x2="166.696" y2="351.216" gradientUnits="userSpaceOnUse">
<stop stop-color="#DED9D6"/>
<stop offset="0.04" stop-color="#CFCBC9"/>
<stop offset="0.11" stop-color="#A8A8A7"/>
<stop offset="0.21" stop-color="#697071"/>
<stop offset="0.26" stop-color="#465053"/>
<stop offset="0.37" stop-color="#878D8E"/>
<stop offset="0.46" stop-color="#B7B9BA"/>
<stop offset="0.53" stop-color="#D4D5D5"/>
<stop offset="0.57" stop-color="#E0E0E0"/>
<stop offset="0.63" stop-color="#D6D7D7"/>
<stop offset="0.73" stop-color="#BCBFC1"/>
<stop offset="0.86" stop-color="#91989D"/>
<stop offset="0.88" stop-color="#8B9298"/>
<stop offset="1" stop-color="#A7A9AC"/>
</linearGradient>
<linearGradient id="paint44_linear_19_32692" x1="130.556" y1="277.296" x2="164.773" y2="277.296" gradientUnits="userSpaceOnUse">
<stop stop-color="#DED9D6"/>
<stop offset="0.06" stop-color="#CFCAC8"/>
<stop offset="0.18" stop-color="#A8A4A6"/>
<stop offset="0.26" stop-color="#8B878D"/>
<stop offset="0.52" stop-color="#F3F4F4"/>
<stop offset="0.58" stop-color="#E4E5E5"/>
<stop offset="0.7" stop-color="#BFBEC0"/>
<stop offset="0.86" stop-color="#847F84"/>
<stop offset="0.88" stop-color="#807B80"/>
<stop offset="1" stop-color="#A7A9AC"/>
</linearGradient>
<linearGradient id="paint45_linear_19_32692" x1="156.826" y1="331.081" x2="164.348" y2="331.081" gradientUnits="userSpaceOnUse">
<stop offset="0.03" stop-color="#9B9B98"/>
<stop offset="0.13" stop-color="#A4A5A6"/>
<stop offset="0.22" stop-color="#AEB0B7"/>
<stop offset="0.35" stop-color="#9FA3A9"/>
<stop offset="0.61" stop-color="#788187"/>
<stop offset="0.72" stop-color="#657076"/>
<stop offset="1" stop-color="#8B949A"/>
</linearGradient>
<linearGradient id="paint46_linear_19_32692" x1="152.641" y1="357.522" x2="163.104" y2="357.522" gradientUnits="userSpaceOnUse">
<stop stop-color="#85878D"/>
<stop offset="0.53" stop-color="#979899"/>
<stop offset="1" stop-color="#5D5C62"/>
</linearGradient>
<linearGradient id="paint47_linear_19_32692" x1="156.826" y1="331.675" x2="162.595" y2="331.675" gradientUnits="userSpaceOnUse">
<stop offset="0.03" stop-color="#9B9B98"/>
<stop offset="0.13" stop-color="#A4A5A6"/>
<stop offset="0.22" stop-color="#AEB0B7"/>
<stop offset="0.35" stop-color="#9FA3A9"/>
<stop offset="0.61" stop-color="#788187"/>
<stop offset="0.72" stop-color="#657076"/>
<stop offset="1" stop-color="#8B949A"/>
</linearGradient>
<linearGradient id="paint48_linear_19_32692" x1="145.543" y1="337.218" x2="160.672" y2="337.218" gradientUnits="userSpaceOnUse">
<stop stop-color="#DED9D6"/>
<stop offset="0.04" stop-color="#CFCBC9"/>
<stop offset="0.11" stop-color="#A8A8A7"/>
<stop offset="0.21" stop-color="#697071"/>
<stop offset="0.26" stop-color="#465053"/>
<stop offset="0.37" stop-color="#878D8E"/>
<stop offset="0.46" stop-color="#B7B9BA"/>
<stop offset="0.53" stop-color="#D4D5D5"/>
<stop offset="0.57" stop-color="#E0E0E0"/>
<stop offset="0.63" stop-color="#D6D7D7"/>
<stop offset="0.73" stop-color="#BCBFC1"/>
<stop offset="0.86" stop-color="#91989D"/>
<stop offset="0.88" stop-color="#8B9298"/>
<stop offset="1" stop-color="#A7A9AC"/>
</linearGradient>
<linearGradient id="paint49_linear_19_32692" x1="72.9523" y1="283.743" x2="159.456" y2="283.743" gradientUnits="userSpaceOnUse">
<stop stop-color="#DED9D6"/>
<stop offset="0.04" stop-color="#CFCBC9"/>
<stop offset="0.11" stop-color="#A8A8A7"/>
<stop offset="0.21" stop-color="#697071"/>
<stop offset="0.26" stop-color="#465053"/>
<stop offset="0.37" stop-color="#878D8E"/>
<stop offset="0.46" stop-color="#B7B9BA"/>
<stop offset="0.53" stop-color="#D4D5D5"/>
<stop offset="0.57" stop-color="#E0E0E0"/>
<stop offset="0.63" stop-color="#D6D7D7"/>
<stop offset="0.73" stop-color="#BCBFC1"/>
<stop offset="0.86" stop-color="#91989D"/>
<stop offset="0.88" stop-color="#8B9298"/>
<stop offset="1" stop-color="#A7A9AC"/>
</linearGradient>
<linearGradient id="paint50_linear_19_32692" x1="73.2068" y1="342.251" x2="158.862" y2="342.251" gradientUnits="userSpaceOnUse">
<stop stop-color="#DED9D6"/>
<stop offset="0.04" stop-color="#CFCBC9"/>
<stop offset="0.11" stop-color="#A8A8A7"/>
<stop offset="0.21" stop-color="#697071"/>
<stop offset="0.26" stop-color="#465053"/>
<stop offset="0.37" stop-color="#878D8E"/>
<stop offset="0.46" stop-color="#B7B9BA"/>
<stop offset="0.53" stop-color="#D4D5D5"/>
<stop offset="0.57" stop-color="#E0E0E0"/>
<stop offset="0.63" stop-color="#D6D7D7"/>
<stop offset="0.73" stop-color="#BCBFC1"/>
<stop offset="0.86" stop-color="#91989D"/>
<stop offset="0.88" stop-color="#8B9298"/>
<stop offset="1" stop-color="#A7A9AC"/>
</linearGradient>
<linearGradient id="paint51_linear_19_32692" x1="131.065" y1="423.495" x2="148.428" y2="423.495" gradientUnits="userSpaceOnUse">
<stop stop-color="#85878D"/>
<stop offset="0.53" stop-color="#979899"/>
<stop offset="1" stop-color="#5D5C62"/>
</linearGradient>
<linearGradient id="paint52_linear_19_32692" x1="135.391" y1="410.77" x2="146.985" y2="410.77" gradientUnits="userSpaceOnUse">
<stop stop-color="#DED9D6"/>
<stop offset="0.06" stop-color="#CFCAC8"/>
<stop offset="0.18" stop-color="#A8A4A6"/>
<stop offset="0.26" stop-color="#8B878D"/>
<stop offset="0.52" stop-color="#F3F4F4"/>
<stop offset="0.58" stop-color="#E4E5E5"/>
<stop offset="0.7" stop-color="#BFBEC0"/>
<stop offset="0.86" stop-color="#847F84"/>
<stop offset="0.88" stop-color="#807B80"/>
<stop offset="1" stop-color="#A7A9AC"/>
</linearGradient>
<linearGradient id="paint53_linear_19_32692" x1="72.9523" y1="366.033" x2="145.628" y2="366.033" gradientUnits="userSpaceOnUse">
<stop stop-color="#DED9D6"/>
<stop offset="0.04" stop-color="#CFCBC9"/>
<stop offset="0.11" stop-color="#A8A8A7"/>
<stop offset="0.21" stop-color="#697071"/>
<stop offset="0.26" stop-color="#465053"/>
<stop offset="0.37" stop-color="#878D8E"/>
<stop offset="0.46" stop-color="#B7B9BA"/>
<stop offset="0.53" stop-color="#D4D5D5"/>
<stop offset="0.57" stop-color="#E0E0E0"/>
<stop offset="0.63" stop-color="#D6D7D7"/>
<stop offset="0.73" stop-color="#BCBFC1"/>
<stop offset="0.86" stop-color="#91989D"/>
<stop offset="0.88" stop-color="#8B9298"/>
<stop offset="1" stop-color="#A7A9AC"/>
</linearGradient>
<linearGradient id="paint54_linear_19_32692" x1="96.5366" y1="319.968" x2="145.091" y2="319.968" gradientUnits="userSpaceOnUse">
<stop stop-color="#DED9D6"/>
<stop offset="0.06" stop-color="#CFCAC8"/>
<stop offset="0.18" stop-color="#A8A4A6"/>
<stop offset="0.26" stop-color="#8B878D"/>
<stop offset="0.52" stop-color="#F3F4F4"/>
<stop offset="0.58" stop-color="#E4E5E5"/>
<stop offset="0.7" stop-color="#BFBEC0"/>
<stop offset="0.86" stop-color="#847F84"/>
<stop offset="0.88" stop-color="#807B80"/>
<stop offset="1" stop-color="#A7A9AC"/>
</linearGradient>
<linearGradient id="paint55_linear_19_32692" x1="140.792" y1="431.866" x2="144.865" y2="431.866" gradientUnits="userSpaceOnUse">
<stop stop-color="#DED9D6"/>
<stop offset="0.04" stop-color="#CFCBC9"/>
<stop offset="0.11" stop-color="#A8A8A7"/>
<stop offset="0.21" stop-color="#697071"/>
<stop offset="0.26" stop-color="#465053"/>
<stop offset="0.37" stop-color="#878D8E"/>
<stop offset="0.46" stop-color="#B7B9BA"/>
<stop offset="0.53" stop-color="#D4D5D5"/>
<stop offset="0.57" stop-color="#E0E0E0"/>
<stop offset="0.63" stop-color="#D6D7D7"/>
<stop offset="0.73" stop-color="#BCBFC1"/>
<stop offset="0.86" stop-color="#91989D"/>
<stop offset="0.88" stop-color="#8B9298"/>
<stop offset="1" stop-color="#A7A9AC"/>
</linearGradient>
<linearGradient id="paint56_linear_19_32692" x1="140.595" y1="433.11" x2="144.667" y2="433.11" gradientUnits="userSpaceOnUse">
<stop stop-color="#DED9D6"/>
<stop offset="0.04" stop-color="#CFCBC9"/>
<stop offset="0.11" stop-color="#A8A8A7"/>
<stop offset="0.21" stop-color="#697071"/>
<stop offset="0.26" stop-color="#465053"/>
<stop offset="0.37" stop-color="#878D8E"/>
<stop offset="0.46" stop-color="#B7B9BA"/>
<stop offset="0.53" stop-color="#D4D5D5"/>
<stop offset="0.57" stop-color="#E0E0E0"/>
<stop offset="0.63" stop-color="#D6D7D7"/>
<stop offset="0.73" stop-color="#BCBFC1"/>
<stop offset="0.86" stop-color="#91989D"/>
<stop offset="0.88" stop-color="#8B9298"/>
<stop offset="1" stop-color="#A7A9AC"/>
</linearGradient>
<linearGradient id="paint57_linear_19_32692" x1="126.399" y1="404.464" x2="142.546" y2="404.464" gradientUnits="userSpaceOnUse">
<stop stop-color="#DED9D6"/>
<stop offset="0.06" stop-color="#CFCAC8"/>
<stop offset="0.18" stop-color="#A8A4A6"/>
<stop offset="0.26" stop-color="#8B878D"/>
<stop offset="0.52" stop-color="#F3F4F4"/>
<stop offset="0.58" stop-color="#E4E5E5"/>
<stop offset="0.7" stop-color="#BFBEC0"/>
<stop offset="0.86" stop-color="#847F84"/>
<stop offset="0.88" stop-color="#807B80"/>
<stop offset="1" stop-color="#A7A9AC"/>
</linearGradient>
<linearGradient id="paint58_linear_19_32692" x1="131.376" y1="405.284" x2="141.075" y2="405.284" gradientUnits="userSpaceOnUse">
<stop stop-color="#85878D"/>
<stop offset="0.53" stop-color="#979899"/>
<stop offset="1" stop-color="#5D5C62"/>
</linearGradient>
<linearGradient id="paint59_linear_19_32692" x1="108.696" y1="238.384" x2="139.944" y2="238.384" gradientUnits="userSpaceOnUse">
<stop stop-color="#DED9D6"/>
<stop offset="0.04" stop-color="#CFCBC9"/>
<stop offset="0.11" stop-color="#A8A8A7"/>
<stop offset="0.21" stop-color="#697071"/>
<stop offset="0.26" stop-color="#465053"/>
<stop offset="0.37" stop-color="#878D8E"/>
<stop offset="0.46" stop-color="#B7B9BA"/>
<stop offset="0.53" stop-color="#D4D5D5"/>
<stop offset="0.57" stop-color="#E0E0E0"/>
<stop offset="0.63" stop-color="#D6D7D7"/>
<stop offset="0.73" stop-color="#BCBFC1"/>
<stop offset="0.86" stop-color="#91989D"/>
<stop offset="0.88" stop-color="#8B9298"/>
<stop offset="1" stop-color="#A7A9AC"/>
</linearGradient>
<linearGradient id="paint60_linear_19_32692" x1="122.1" y1="399.346" x2="134.175" y2="399.346" gradientUnits="userSpaceOnUse">
<stop stop-color="#DED9D6"/>
<stop offset="0.06" stop-color="#CFCAC8"/>
<stop offset="0.18" stop-color="#A8A4A6"/>
<stop offset="0.26" stop-color="#8B878D"/>
<stop offset="0.52" stop-color="#F3F4F4"/>
<stop offset="0.58" stop-color="#E4E5E5"/>
<stop offset="0.7" stop-color="#BFBEC0"/>
<stop offset="0.86" stop-color="#847F84"/>
<stop offset="0.88" stop-color="#807B80"/>
<stop offset="1" stop-color="#A7A9AC"/>
</linearGradient>
<linearGradient id="paint61_linear_19_32692" x1="92.1817" y1="234.538" x2="133.468" y2="234.538" gradientUnits="userSpaceOnUse">
<stop stop-color="#DED9D6"/>
<stop offset="0.06" stop-color="#CFCAC8"/>
<stop offset="0.18" stop-color="#A8A4A6"/>
<stop offset="0.26" stop-color="#8B878D"/>
<stop offset="0.52" stop-color="#F3F4F4"/>
<stop offset="0.58" stop-color="#E4E5E5"/>
<stop offset="0.7" stop-color="#BFBEC0"/>
<stop offset="0.86" stop-color="#847F84"/>
<stop offset="0.88" stop-color="#807B80"/>
<stop offset="1" stop-color="#A7A9AC"/>
</linearGradient>
<linearGradient id="paint62_linear_19_32692" x1="128.491" y1="395.302" x2="130.64" y2="395.302" gradientUnits="userSpaceOnUse">
<stop stop-color="#DED9D6"/>
<stop offset="0.04" stop-color="#CFCBC9"/>
<stop offset="0.11" stop-color="#A8A8A7"/>
<stop offset="0.21" stop-color="#697071"/>
<stop offset="0.26" stop-color="#465053"/>
<stop offset="0.37" stop-color="#878D8E"/>
<stop offset="0.46" stop-color="#B7B9BA"/>
<stop offset="0.53" stop-color="#D4D5D5"/>
<stop offset="0.57" stop-color="#E0E0E0"/>
<stop offset="0.63" stop-color="#D6D7D7"/>
<stop offset="0.73" stop-color="#BCBFC1"/>
<stop offset="0.86" stop-color="#91989D"/>
<stop offset="0.88" stop-color="#8B9298"/>
<stop offset="1" stop-color="#A7A9AC"/>
</linearGradient>
<linearGradient id="paint63_linear_19_32692" x1="126.399" y1="395.302" x2="128.491" y2="395.302" gradientUnits="userSpaceOnUse">
<stop stop-color="#DED9D6"/>
<stop offset="0.04" stop-color="#CFCBC9"/>
<stop offset="0.11" stop-color="#A8A8A7"/>
<stop offset="0.21" stop-color="#697071"/>
<stop offset="0.26" stop-color="#465053"/>
<stop offset="0.37" stop-color="#878D8E"/>
<stop offset="0.46" stop-color="#B7B9BA"/>
<stop offset="0.53" stop-color="#D4D5D5"/>
<stop offset="0.57" stop-color="#E0E0E0"/>
<stop offset="0.63" stop-color="#D6D7D7"/>
<stop offset="0.73" stop-color="#BCBFC1"/>
<stop offset="0.86" stop-color="#91989D"/>
<stop offset="0.88" stop-color="#8B9298"/>
<stop offset="1" stop-color="#A7A9AC"/>
</linearGradient>
<linearGradient id="paint64_linear_19_32692" x1="86.2714" y1="375.111" x2="126.088" y2="375.111" gradientUnits="userSpaceOnUse">
<stop stop-color="#DED9D6"/>
<stop offset="0.06" stop-color="#CFCAC8"/>
<stop offset="0.18" stop-color="#A8A4A6"/>
<stop offset="0.26" stop-color="#8B878D"/>
<stop offset="0.52" stop-color="#F3F4F4"/>
<stop offset="0.58" stop-color="#E4E5E5"/>
<stop offset="0.7" stop-color="#BFBEC0"/>
<stop offset="0.86" stop-color="#847F84"/>
<stop offset="0.88" stop-color="#807B80"/>
<stop offset="1" stop-color="#A7A9AC"/>
</linearGradient>
<linearGradient id="paint65_linear_19_32692" x1="81.6056" y1="297.854" x2="112.938" y2="297.854" gradientUnits="userSpaceOnUse">
<stop stop-color="#DED9D6"/>
<stop offset="0.06" stop-color="#CFCAC8"/>
<stop offset="0.18" stop-color="#A8A4A6"/>
<stop offset="0.26" stop-color="#8B878D"/>
<stop offset="0.52" stop-color="#F3F4F4"/>
<stop offset="0.58" stop-color="#E4E5E5"/>
<stop offset="0.7" stop-color="#BFBEC0"/>
<stop offset="0.86" stop-color="#847F84"/>
<stop offset="0.88" stop-color="#807B80"/>
<stop offset="1" stop-color="#A7A9AC"/>
</linearGradient>
<linearGradient id="paint66_linear_19_32692" x1="84.3203" y1="271.527" x2="98.2899" y2="271.527" gradientUnits="userSpaceOnUse">
<stop stop-color="#DED9D6"/>
<stop offset="0.06" stop-color="#CFCAC8"/>
<stop offset="0.18" stop-color="#A8A4A6"/>
<stop offset="0.26" stop-color="#8B878D"/>
<stop offset="0.52" stop-color="#F3F4F4"/>
<stop offset="0.58" stop-color="#E4E5E5"/>
<stop offset="0.7" stop-color="#BFBEC0"/>
<stop offset="0.86" stop-color="#847F84"/>
<stop offset="0.88" stop-color="#807B80"/>
<stop offset="1" stop-color="#A7A9AC"/>
</linearGradient>
<linearGradient id="paint67_linear_19_32692" x1="84.3203" y1="342.308" x2="98.2899" y2="342.308" gradientUnits="userSpaceOnUse">
<stop stop-color="#DED9D6"/>
<stop offset="0.06" stop-color="#CFCAC8"/>
<stop offset="0.18" stop-color="#A8A4A6"/>
<stop offset="0.26" stop-color="#8B878D"/>
<stop offset="0.52" stop-color="#F3F4F4"/>
<stop offset="0.58" stop-color="#E4E5E5"/>
<stop offset="0.7" stop-color="#BFBEC0"/>
<stop offset="0.86" stop-color="#847F84"/>
<stop offset="0.88" stop-color="#807B80"/>
<stop offset="1" stop-color="#A7A9AC"/>
</linearGradient>
<linearGradient id="paint68_linear_19_32692" x1="79.7958" y1="234.906" x2="96.5649" y2="234.906" gradientUnits="userSpaceOnUse">
<stop stop-color="#DED9D6"/>
<stop offset="0.04" stop-color="#CFCBC9"/>
<stop offset="0.11" stop-color="#A8A8A7"/>
<stop offset="0.21" stop-color="#697071"/>
<stop offset="0.26" stop-color="#465053"/>
<stop offset="0.37" stop-color="#878D8E"/>
<stop offset="0.46" stop-color="#B7B9BA"/>
<stop offset="0.53" stop-color="#D4D5D5"/>
<stop offset="0.57" stop-color="#E0E0E0"/>
<stop offset="0.63" stop-color="#D6D7D7"/>
<stop offset="0.73" stop-color="#BCBFC1"/>
<stop offset="0.86" stop-color="#91989D"/>
<stop offset="0.88" stop-color="#8B9298"/>
<stop offset="1" stop-color="#A7A9AC"/>
</linearGradient>
<radialGradient id="paint69_radial_19_32692" cx="0" cy="0" r="1" gradientUnits="userSpaceOnUse" gradientTransform="translate(91.3333 342.053) scale(3.93071)">
<stop stop-color="white"/>
<stop offset="0.14" stop-color="#FDF4CC"/>
<stop offset="0.29" stop-color="#FBEA9E"/>
<stop offset="0.43" stop-color="#FAE279"/>
<stop offset="0.58" stop-color="#F9DC5C"/>
<stop offset="0.72" stop-color="#F8D747"/>
<stop offset="0.86" stop-color="#F8D43B"/>
<stop offset="1" stop-color="#F8D437"/>
</radialGradient>
<radialGradient id="paint70_radial_19_32692" cx="0" cy="0" r="1" gradientUnits="userSpaceOnUse" gradientTransform="translate(90.6547 271.3) scale(3.93071 3.93071)">
<stop stop-color="white"/>
<stop offset="0.14" stop-color="#FDF4CC"/>
<stop offset="0.29" stop-color="#FBEA9E"/>
<stop offset="0.43" stop-color="#FAE279"/>
<stop offset="0.58" stop-color="#F9DC5C"/>
<stop offset="0.72" stop-color="#F8D747"/>
<stop offset="0.86" stop-color="#F8D43B"/>
<stop offset="1" stop-color="#F8D437"/>
</radialGradient>
<linearGradient id="paint71_linear_19_32692" x1="57.2295" y1="355.316" x2="75.5822" y2="355.316" gradientUnits="userSpaceOnUse">
<stop stop-color="#DED9D6"/>
<stop offset="0.06" stop-color="#CFCAC8"/>
<stop offset="0.18" stop-color="#A8A4A6"/>
<stop offset="0.26" stop-color="#8B878D"/>
<stop offset="0.52" stop-color="#F3F4F4"/>
<stop offset="0.58" stop-color="#E4E5E5"/>
<stop offset="0.7" stop-color="#BFBEC0"/>
<stop offset="0.86" stop-color="#847F84"/>
<stop offset="0.88" stop-color="#807B80"/>
<stop offset="1" stop-color="#A7A9AC"/>
</linearGradient>
<linearGradient id="paint72_linear_19_32692" x1="57.2295" y1="284.224" x2="75.5257" y2="284.224" gradientUnits="userSpaceOnUse">
<stop stop-color="#DED9D6"/>
<stop offset="0.06" stop-color="#CFCAC8"/>
<stop offset="0.18" stop-color="#A8A4A6"/>
<stop offset="0.26" stop-color="#8B878D"/>
<stop offset="0.52" stop-color="#F3F4F4"/>
<stop offset="0.58" stop-color="#E4E5E5"/>
<stop offset="0.7" stop-color="#BFBEC0"/>
<stop offset="0.86" stop-color="#847F84"/>
<stop offset="0.88" stop-color="#807B80"/>
<stop offset="1" stop-color="#A7A9AC"/>
</linearGradient>
<linearGradient id="paint73_linear_19_32692" x1="38.3677" y1="268.925" x2="59.5201" y2="268.925" gradientUnits="userSpaceOnUse">
<stop stop-color="#401617"/>
<stop offset="0.08" stop-color="#6B4C2D"/>
<stop offset="0.38" stop-color="#A58A55"/>
<stop offset="0.56" stop-color="#E5D4B5"/>
<stop offset="0.8" stop-color="#967857"/>
<stop offset="0.96" stop-color="#814F2F"/>
</linearGradient>
<linearGradient id="paint74_linear_19_32692" x1="37.5477" y1="339.678" x2="40.3755" y2="339.678" gradientUnits="userSpaceOnUse">
<stop stop-color="#401617"/>
<stop offset="0.08" stop-color="#6B4C2D"/>
<stop offset="0.38" stop-color="#A58A55"/>
<stop offset="0.56" stop-color="#E5D4B5"/>
<stop offset="0.8" stop-color="#967857"/>
<stop offset="0.96" stop-color="#814F2F"/>
</linearGradient>
<linearGradient id="paint75_linear_19_32692" x1="38.2546" y1="277.663" x2="58.0495" y2="277.663" gradientUnits="userSpaceOnUse">
<stop stop-color="#401617"/>
<stop offset="0.08" stop-color="#6B4C2D"/>
<stop offset="0.38" stop-color="#A58A55"/>
<stop offset="0.56" stop-color="#E5D4B5"/>
<stop offset="0.8" stop-color="#967857"/>
<stop offset="0.96" stop-color="#814F2F"/>
</linearGradient>
<linearGradient id="paint76_linear_19_32692" x1="38.2546" y1="348.416" x2="58.0495" y2="348.416" gradientUnits="userSpaceOnUse">
<stop stop-color="#401617"/>
<stop offset="0.08" stop-color="#6B4C2D"/>
<stop offset="0.38" stop-color="#A58A55"/>
<stop offset="0.56" stop-color="#E5D4B5"/>
<stop offset="0.8" stop-color="#967857"/>
<stop offset="0.96" stop-color="#814F2F"/>
</linearGradient>
<linearGradient id="paint77_linear_19_32692" x1="38.3959" y1="298.193" x2="58.9544" y2="298.193" gradientUnits="userSpaceOnUse">
<stop stop-color="#401617"/>
<stop offset="0.08" stop-color="#6B4C2D"/>
<stop offset="0.38" stop-color="#A58A55"/>
<stop offset="0.56" stop-color="#E5D4B5"/>
<stop offset="0.8" stop-color="#967857"/>
<stop offset="0.96" stop-color="#814F2F"/>
</linearGradient>
<linearGradient id="paint78_linear_19_32692" x1="38.3959" y1="368.946" x2="58.9544" y2="368.946" gradientUnits="userSpaceOnUse">
<stop stop-color="#401617"/>
<stop offset="0.08" stop-color="#6B4C2D"/>
<stop offset="0.38" stop-color="#A58A55"/>
<stop offset="0.56" stop-color="#E5D4B5"/>
<stop offset="0.8" stop-color="#967857"/>
<stop offset="0.96" stop-color="#814F2F"/>
</linearGradient>
<linearGradient id="paint79_linear_19_32692" x1="38.2546" y1="289.795" x2="57.6254" y2="289.795" gradientUnits="userSpaceOnUse">
<stop stop-color="#401617"/>
<stop offset="0.08" stop-color="#6B4C2D"/>
<stop offset="0.38" stop-color="#A58A55"/>
<stop offset="0.56" stop-color="#E5D4B5"/>
<stop offset="0.8" stop-color="#967857"/>
<stop offset="0.96" stop-color="#814F2F"/>
</linearGradient>
<linearGradient id="paint80_linear_19_32692" x1="38.2546" y1="360.547" x2="57.6254" y2="360.547" gradientUnits="userSpaceOnUse">
<stop stop-color="#401617"/>
<stop offset="0.08" stop-color="#6B4C2D"/>
<stop offset="0.38" stop-color="#A58A55"/>
<stop offset="0.56" stop-color="#E5D4B5"/>
<stop offset="0.8" stop-color="#967857"/>
<stop offset="0.96" stop-color="#814F2F"/>
</linearGradient>
<clipPath id="clip0_19_32692">
<rect width="250" height="225" fill="white" transform="translate(37 217)"/>
</clipPath>
</defs>
</svg>
