<svg width="172" height="172" viewBox="0 0 172 172" fill="none" xmlns="http://www.w3.org/2000/svg">
<g clip-path="url(#clip0_54_234)">
<path d="M86.6845 166.503C131.285 166.503 167.441 130.339 167.441 85.7284C167.441 41.1177 131.285 4.95361 86.6845 4.95361C42.084 4.95361 5.92822 41.1177 5.92822 85.7284C5.92822 130.339 42.084 166.503 86.6845 166.503Z" fill="url(#paint0_radial_54_234)"/>
<path d="M36.4171 87.1333C36.4171 79.3921 38.1761 72.0418 41.3031 65.5126C44.8211 58.2405 50.0198 51.9458 56.4303 47.176C63.4662 41.8979 71.9483 38.4573 81.134 37.519C82.8148 37.3626 84.5347 37.2453 86.2546 37.2453C102.593 37.2453 117.056 45.1429 126.164 57.2631C131.441 64.3006 134.88 72.7847 135.818 81.9725C135.975 83.6537 136.092 85.3739 136.092 87.0942C136.092 94.0144 134.724 100.544 132.183 106.526C128.392 115.44 122.059 123.064 114.124 128.42C106.971 133.307 98.4501 136.318 89.2253 136.826C88.2481 136.904 87.2709 136.943 86.2937 136.943C77.6943 136.943 69.603 134.793 62.5671 130.922C54.7886 126.7 48.2608 120.483 43.6484 112.937C40.0914 107.073 37.707 100.426 36.8471 93.2716C36.5735 91.2776 36.4562 89.2055 36.4562 87.1333H36.4171V87.1333ZM49.0426 87.1333C49.0426 107.659 65.7333 124.354 86.2937 124.354C106.854 124.354 123.506 107.659 123.506 87.1333C123.506 66.6073 106.815 49.8737 86.2937 49.8737C65.7724 49.8737 49.0426 66.5682 49.0426 87.1333Z" fill="url(#paint1_radial_54_234)"/>
<path d="M136.6 106.096C150.241 103.946 168.3 100.974 169.864 100.192C169.981 98.472 171.545 83.8888 170.724 81.7384C169.942 80.9956 153.681 73.8408 152.079 73.2543C151.101 73.8408 145.629 78.1806 140.313 82.5203C140.313 82.2467 140.313 81.973 140.235 81.6993C140.118 80.4873 140.039 79.2753 139.844 78.0633C150.554 69.3837 164.704 57.85 165.72 56.3643C164.939 54.7613 159.036 41.3901 157.199 39.9044C156.183 39.6698 138.515 41.5856 136.795 41.8984C136.248 42.8758 133.707 49.405 131.245 55.7779C130.424 54.5659 129.564 53.3929 128.626 52.22C133.59 39.2789 140.039 22.2325 140.196 20.434C138.75 19.4566 126.906 10.8161 124.6 10.4642C123.583 10.777 109.277 21.2941 107.909 22.3889C107.909 23.5227 109.003 30.4038 110.059 37.1676C108.73 36.542 107.401 35.9165 105.994 35.3691C103.844 21.6851 100.873 3.6613 100.091 2.09742C98.3714 1.98012 83.7915 0.416237 81.6417 1.23728C80.899 1.98012 73.7458 18.2837 73.1595 19.8866C73.7458 20.8641 78.0846 26.3377 82.4234 31.6549C81.798 31.6549 81.2508 31.7722 80.6254 31.7722C79.7654 31.8895 78.8664 31.9286 78.0065 32.085C69.3289 21.3723 57.7588 7.18005 56.3125 6.20262C54.7099 6.94547 41.3417 12.8882 39.8564 14.6867C39.6218 15.7423 41.5372 33.3752 41.8499 35.1346C42.8271 35.6819 49.3157 38.2232 55.7262 40.6473C54.5144 41.5074 53.3418 42.3284 52.1301 43.2668C39.231 38.3405 22.1494 31.8504 20.3904 31.7331C19.4132 33.1797 10.7747 45.0261 10.423 47.3329C10.7357 48.3494 21.2504 62.659 22.3449 64.0274C23.4784 64.0274 30.397 62.9327 37.1593 61.877C36.4948 63.2063 35.9085 64.5356 35.3612 65.9431C21.6804 68.0935 3.66069 71.0649 2.09716 71.8468C1.9799 73.5671 0.416371 88.1504 1.23722 90.3007C1.9799 91.0435 18.2797 98.1983 19.8823 98.7848C20.8595 98.1983 26.3319 93.8585 31.6478 89.5188C31.726 91.0044 31.8824 92.4901 32.0778 93.8976C21.3676 103.242 7.17863 114.15 6.20143 115.636C6.9441 117.2 12.8855 130.61 14.6836 132.096C15.7389 132.33 33.3677 130.375 35.0876 130.102C35.6739 129.124 38.2147 122.595 40.6381 116.222C41.4981 117.434 42.3189 118.607 43.257 119.78C38.3319 132.721 31.8433 149.768 31.726 151.566C33.1332 152.543 45.016 161.184 47.2831 161.536C48.2994 161.223 62.6448 150.706 63.9738 149.611C63.9738 148.477 62.9184 141.557 61.8239 134.832C63.1529 135.458 64.4819 136.084 65.8891 136.631C68.039 150.315 70.9706 168.339 71.7523 169.903C73.5113 170.02 88.0912 171.584 90.2411 170.763C90.9837 170.02 98.1369 153.716 98.7232 152.113C98.1369 151.136 93.759 145.662 89.4593 140.345C90.9447 140.228 92.3909 140.111 93.8372 139.915C102.515 150.628 114.085 164.82 115.57 165.797C117.134 165.055 130.541 159.112 132.026 157.313C132.261 156.258 130.306 138.625 130.033 136.865C129.056 136.318 122.528 133.777 116.117 131.314C117.368 130.493 118.541 129.672 119.714 128.694C132.613 133.659 149.694 140.111 151.492 140.267C152.469 138.82 161.108 126.974 161.46 124.667C161.147 123.651 150.632 109.341 149.538 107.973C148.404 107.973 141.486 109.067 134.763 110.123C135.114 109.458 135.388 108.794 135.701 108.129C135.974 107.464 136.287 106.761 136.561 106.057L136.6 106.096ZM114.124 128.499C106.971 133.386 98.4496 136.396 89.2248 136.905C88.2476 136.983 87.2704 137.022 86.2932 137.022C77.6938 137.022 69.6025 134.872 62.5666 131.001C54.7881 126.778 48.2603 120.562 43.6479 113.016C40.0909 107.152 37.7065 100.505 36.8466 93.3503C36.573 91.3563 36.4557 89.2842 36.4557 87.212C36.4557 79.4708 38.2147 72.1205 41.3417 65.5913C44.8597 58.3192 50.0584 52.0245 56.4689 47.2547C63.5047 41.9766 71.9869 38.536 81.1726 37.5977C82.8534 37.4413 84.5733 37.324 86.2932 37.324C102.632 37.324 117.095 45.2216 126.202 57.3418C131.479 64.3793 134.919 72.8633 135.857 82.0512C136.013 83.7324 136.131 85.4526 136.131 87.1729C136.131 94.0931 134.763 100.622 132.222 106.604C128.43 115.518 122.098 123.142 114.163 128.499H114.124V128.499Z" fill="url(#paint2_radial_54_234)"/>
<path d="M86.2544 49.9132C106.776 49.9132 123.466 66.6077 123.466 87.1728C123.466 107.738 106.776 124.393 86.2544 124.393C65.7331 124.393 49.0033 107.699 49.0033 87.1728C49.0033 66.6468 65.694 49.9132 86.2544 49.9132V49.9132ZM119.753 87.1728C119.753 68.6799 104.743 53.6665 86.2544 53.6665C67.7656 53.6665 52.7558 68.6408 52.7558 87.1728C52.7558 105.705 67.7266 120.679 86.2544 120.679C104.782 120.679 119.753 105.666 119.753 87.1728Z" fill="url(#paint3_radial_54_234)"/>
<path d="M86.2542 53.6683C104.704 53.6683 119.753 68.6425 119.753 87.1746C119.753 105.707 104.743 120.681 86.2542 120.681C67.7655 120.681 52.7556 105.668 52.7556 87.1746C52.7556 68.6816 67.7264 53.6683 86.2542 53.6683V53.6683ZM117.447 87.1746C117.447 69.9327 103.492 55.9359 86.2542 55.9359C69.0163 55.9359 55.0618 69.8936 55.0618 87.1746C55.0618 104.456 68.9772 118.374 86.2542 118.374C103.531 118.374 117.447 104.416 117.447 87.1746Z" fill="url(#paint4_radial_54_234)"/>
<path d="M86.2544 55.9358C103.453 55.9358 117.447 69.8935 117.447 87.1745C117.447 104.455 103.492 118.374 86.2544 118.374C69.0165 118.374 55.062 104.416 55.062 87.1745C55.062 69.9326 68.9774 55.9358 86.2544 55.9358V55.9358ZM107.323 86.8617C110.528 85.8452 112.326 82.4046 111.271 79.1595C110.255 75.9536 106.815 74.1551 103.61 75.2107C100.365 76.2272 98.6063 79.6678 99.6226 82.9129C100.639 86.1188 104.079 87.9173 107.323 86.8617ZM101.577 108.522C104.352 106.567 104.978 102.735 102.984 99.9592C100.991 97.2224 97.16 96.5578 94.4238 98.5908C91.6486 100.546 91.0232 104.377 93.0167 107.153C95.0102 109.89 98.8408 110.555 101.577 108.522ZM100.561 91.9443C101.577 88.8947 99.9353 85.6106 96.8864 84.594C96.3392 84.4377 95.7919 84.3595 95.2447 84.3204C95.6356 84.0076 96.0656 83.6557 96.3783 83.1865C98.2545 80.6061 97.7463 76.9701 95.1274 75.0543C92.5476 73.1777 88.9124 73.6859 86.9971 76.3054C86.6453 76.7355 86.4108 77.2438 86.2544 77.752C86.0981 77.2438 85.8635 76.7355 85.5117 76.3054C83.6355 73.6859 80.0003 73.0995 77.3814 74.9761C74.7625 76.8528 74.2152 80.4497 76.0524 83.0693C76.4042 83.5384 76.7951 83.9294 77.225 84.2422C76.6778 84.2422 76.0915 84.3204 75.5833 84.4767C72.5344 85.4542 70.8536 88.7383 71.8309 91.7879C72.8081 94.8766 76.0915 96.5578 79.1404 95.5804C79.6876 95.3849 80.1566 95.1503 80.5866 94.8375C80.4693 95.3458 80.3521 95.8931 80.3521 96.4796C80.3521 99.6856 82.9319 102.305 86.1371 102.305C89.3424 102.305 91.9613 99.7247 91.9613 96.5187C91.9613 95.9322 91.844 95.424 91.7268 94.8766C92.1567 95.1894 92.6258 95.4631 93.173 95.6586C96.2219 96.636 99.5053 94.9939 100.522 91.9443H100.561ZM92.4694 67.0003C92.4694 63.5988 89.7723 60.862 86.3717 60.862C82.971 60.862 80.2348 63.5597 80.2348 66.9612C80.2348 70.3627 82.9319 73.0995 86.3326 73.1386C89.7333 73.1386 92.4694 70.4409 92.4694 67.0003V67.0003ZM79.2576 107.036C81.2511 104.338 80.6648 100.468 77.9286 98.4735C75.1924 96.4796 71.3618 97.066 69.3292 99.8029C67.3357 102.501 67.9611 106.371 70.6582 108.365C73.3944 110.359 77.225 109.773 79.2576 107.036ZM72.9253 82.7565C73.9807 79.5505 72.2608 76.1099 69.0165 75.0152C65.8113 73.9596 62.3324 75.6799 61.2379 78.9249C60.1826 82.1309 61.9415 85.6106 65.1468 86.6662C68.352 87.7609 71.7918 86.0015 72.8862 82.7565H72.9253Z" fill="url(#paint5_radial_54_234)"/>
<path d="M96.8863 84.5947C99.9352 85.6112 101.577 88.8954 100.561 91.9449C99.5443 94.9945 96.2609 96.6366 93.212 95.6592C92.6648 95.4637 92.1957 95.19 91.7657 94.8772C91.883 95.4246 92.0003 95.9329 92.0003 96.5193C92.0003 99.7253 89.3814 102.345 86.1761 102.306C82.9709 102.306 80.352 99.6862 80.3911 96.4802C80.3911 95.8938 80.5083 95.3464 80.6256 94.8381C80.1956 95.1509 79.7266 95.3855 79.1793 95.581C76.1305 96.5584 72.8471 94.8772 71.8698 91.7886C70.8926 88.739 72.5734 85.4548 75.6223 84.4774C76.1696 84.321 76.7559 84.2428 77.264 84.2428C76.834 83.8909 76.4041 83.5391 76.0914 83.0699C74.2151 80.4504 74.8015 76.8534 77.4204 74.9768C80.0393 73.1001 83.6745 73.6865 85.5507 76.3061C85.9025 76.7361 86.137 77.2444 86.2934 77.7527C86.4498 77.2444 86.6843 76.7361 87.0361 76.3061C88.9123 73.6865 92.5866 73.1783 95.1664 75.055C97.7853 76.9316 98.2935 80.6068 96.4172 83.1872C96.0655 83.6563 95.6746 84.0473 95.2837 84.321C95.8309 84.321 96.3782 84.4383 96.9254 84.5947H96.8863ZM98.5671 91.2412C99.0752 89.6382 98.2153 87.9179 96.6518 87.4097C95.0492 86.8623 93.3293 87.7616 92.8211 89.3254C92.313 90.8893 93.1729 92.6096 94.7365 93.157C96.3391 93.6652 98.0199 92.8051 98.5671 91.2412ZM94.5801 80.9195C95.5573 79.5902 95.2446 77.7136 93.9156 76.697C92.5866 75.7196 90.7104 76.0324 89.6941 77.3617C88.7169 78.691 89.0296 80.5677 90.3586 81.5842C91.7267 82.5616 93.5638 82.2488 94.5801 80.9195V80.9195ZM91.4921 87.1751C91.4921 84.2819 89.1468 81.897 86.2543 81.897C83.3618 81.897 80.9774 84.2819 80.9774 87.1751C80.9774 90.0683 83.3618 92.4141 86.2543 92.4141C89.1468 92.4141 91.4921 90.0683 91.4921 87.1751ZM89.225 97.1058C89.225 95.4637 87.8569 94.0562 86.2152 94.0562C84.5735 94.0562 83.1663 95.4246 83.1663 97.0667C83.1663 98.7088 84.5344 100.116 86.1761 100.116C87.8178 100.116 89.225 98.7479 89.225 97.1058ZM82.1891 81.5451C83.5572 80.5677 83.8308 78.6519 82.8536 77.3226C81.9155 75.9542 80.0002 75.6805 78.6712 76.6188C77.3031 77.5963 76.9904 79.512 77.9676 80.8413C78.9448 82.1707 80.8601 82.4834 82.1891 81.5451V81.5451ZM77.694 93.0397C79.2966 92.5314 80.1565 90.8502 79.6484 89.2472C79.1403 87.6443 77.4204 86.7841 75.8178 87.2924C74.2151 87.8006 73.3552 89.5209 73.8633 91.1239C74.3715 92.7269 76.0914 93.587 77.694 93.0397Z" fill="url(#paint6_radial_54_234)"/>
<path d="M96.6518 87.3675C98.2544 87.8758 99.0753 89.5961 98.5671 91.1991C98.0199 92.802 96.3391 93.6231 94.7365 93.1148C93.1339 92.5675 92.313 90.8863 92.8212 89.2833C93.3293 87.6803 95.0492 86.8202 96.6518 87.3675Z" fill="url(#paint7_radial_54_234)"/>
<path d="M93.9152 76.6581C95.2833 77.6747 95.5569 79.5513 94.5797 80.8806C93.5634 82.249 91.6872 82.5227 90.3582 81.5453C88.9901 80.5288 88.7165 78.6521 89.6937 77.3228C90.71 75.9544 92.5862 75.6807 93.9152 76.6581V76.6581Z" fill="url(#paint8_radial_54_234)"/>
<path d="M86.2543 81.8558C89.1469 81.8558 91.4921 84.2407 91.4921 87.1339C91.4921 90.0271 89.1469 92.3729 86.2543 92.3729C83.3618 92.3729 80.9774 90.0271 80.9774 87.1339C80.9774 84.2407 83.3618 81.8558 86.2543 81.8558ZM89.2641 87.1339C89.2641 85.4527 87.896 84.0843 86.2543 84.0843C84.6126 84.0843 83.2445 85.4527 83.2445 87.1339C83.2445 88.8151 84.5735 90.1444 86.2543 90.1444C87.9351 90.1444 89.2641 88.776 89.2641 87.1339Z" fill="url(#paint9_radial_54_234)"/>
<path d="M86.2549 84.1246C87.8966 84.1246 89.2647 85.493 89.2647 87.1742C89.2647 88.8553 87.8966 90.1846 86.2549 90.1846C84.6132 90.1846 83.2451 88.8162 83.2451 87.1742C83.2451 85.5321 84.5741 84.1246 86.2549 84.1246Z" fill="url(#paint10_radial_54_234)"/>
<path d="M86.2153 94.0562C87.857 94.0562 89.2251 95.4246 89.2251 97.1057C89.2251 98.7869 87.857 100.116 86.1762 100.116C84.4954 100.116 83.1664 98.7478 83.1664 97.0666C83.1664 95.3855 84.5345 94.0562 86.2153 94.0562Z" fill="url(#paint11_radial_54_234)"/>
<path d="M82.853 77.3204C83.8302 78.6888 83.5175 80.5654 82.1885 81.5429C80.8204 82.4812 78.9442 82.1684 77.967 80.8391C76.9898 79.5098 77.3416 77.5941 78.6706 76.6166C80.0387 75.6783 81.9149 75.9911 82.853 77.3204Z" fill="url(#paint12_radial_54_234)"/>
<path d="M79.6477 89.2478C80.1559 90.8508 79.2568 92.532 77.6933 93.0402C76.0907 93.5876 74.3708 92.6884 73.8627 91.1245C73.3545 89.5606 74.2536 87.8012 75.8171 87.2929C77.3806 86.7847 79.1396 87.6839 79.6477 89.2478Z" fill="url(#paint13_radial_54_234)"/>
<path d="M101.734 9.25494C107.597 10.4279 113.226 12.2263 118.581 14.6113" stroke="#231F20" stroke-width="2.23801" stroke-miterlimit="10"/>
<path d="M138.124 27.0435C142.697 31.0314 146.84 35.4884 150.436 40.4147" stroke="#231F20" stroke-width="1.119" stroke-miterlimit="10"/>
<path d="M161.108 60.6262C163.179 66.4908 164.587 72.6682 165.251 79.041" stroke="#231F20" stroke-width="1.119" stroke-miterlimit="10"/>
<path d="M164.352 101.483C163.179 108.012 161.186 114.268 158.489 120.171" stroke="#231F20" stroke-width="1.119" stroke-miterlimit="10"/>
<path d="M146.567 138.744C142.189 143.827 137.225 148.362 131.714 152.233" stroke="#231F20" stroke-width="1.119" stroke-miterlimit="10"/>
<path d="M112.247 162.2C105.954 164.389 99.3088 165.797 92.4293 166.305" stroke="#231F20" stroke-width="1.119" stroke-miterlimit="10"/>
<path d="M70.6189 165.018C63.9349 163.689 57.6026 161.539 51.6221 158.646" stroke="#231F20" stroke-width="1.119" stroke-miterlimit="10"/>
<path d="M33.3287 146.366C28.4818 142.026 24.1821 137.1 20.5078 131.704" stroke="#231F20" stroke-width="1.119" stroke-miterlimit="10"/>
<path d="M10.6579 111.532C8.78165 105.668 7.53083 99.4902 7.06177 93.0783" stroke="#231F20" stroke-width="1.119" stroke-miterlimit="10"/>
<path d="M8.62524 70.365C9.91516 64.3831 11.8696 58.6358 14.4494 53.2404" stroke="#231F20" stroke-width="1.119" stroke-miterlimit="10"/>
<path d="M27.3096 33.9228C31.2575 29.5439 35.6744 25.6342 40.4823 22.2327" stroke="#231F20" stroke-width="2.23801" stroke-miterlimit="10"/>
<path d="M61.3157 11.7162C66.788 9.91773 72.4949 8.70572 78.3972 8.11926" stroke="#231F20" stroke-width="2.23801" stroke-miterlimit="10"/>
<path d="M86.2558 120.644C104.757 120.644 119.754 105.643 119.754 87.1378C119.754 68.6328 104.757 53.6315 86.2558 53.6315C67.755 53.6315 52.7572 68.6328 52.7572 87.1378C52.7572 105.643 67.755 120.644 86.2558 120.644Z" stroke="#231F20" stroke-width="1.119" stroke-miterlimit="10"/>
<path d="M86.2543 124.358C106.806 124.358 123.466 107.694 123.466 87.1375C123.466 66.5812 106.806 49.917 86.2543 49.917C65.7027 49.917 49.0424 66.5812 49.0424 87.1375C49.0424 107.694 65.7027 124.358 86.2543 124.358Z" stroke="#231F20" stroke-width="0.699377" stroke-miterlimit="10"/>
<path d="M86.255 136.986C113.779 136.986 136.092 114.668 136.092 87.1374C136.092 59.6066 113.779 37.2885 86.255 37.2885C58.7305 37.2885 36.4175 59.6066 36.4175 87.1374C36.4175 114.668 58.7305 136.986 86.255 136.986Z" stroke="#231F20" stroke-width="0.699377" stroke-miterlimit="10"/>
<path d="M86.2548 118.339C103.482 118.339 117.447 104.37 117.447 87.1393C117.447 69.9082 103.482 55.9397 86.2548 55.9397C69.0277 55.9397 55.0624 69.9082 55.0624 87.1393C55.0624 104.37 69.0277 118.339 86.2548 118.339Z" stroke="#231F20" stroke-width="0.699377" stroke-miterlimit="10"/>
<path d="M86.2546 92.416C89.1689 92.416 91.5315 90.0529 91.5315 87.1379C91.5315 84.2228 89.1689 81.8597 86.2546 81.8597C83.3402 81.8597 80.9777 84.2228 80.9777 87.1379C80.9777 90.0529 83.3402 92.416 86.2546 92.416Z" stroke="#231F20" stroke-width="1.119" stroke-miterlimit="10"/>
<path d="M86.2552 90.1482C87.9174 90.1482 89.2649 88.8003 89.2649 87.1377C89.2649 85.475 87.9174 84.1272 86.2552 84.1272C84.5929 84.1272 83.2454 85.475 83.2454 87.1377C83.2454 88.8003 84.5929 90.1482 86.2552 90.1482Z" stroke="#231F20" stroke-width="0.699377" stroke-miterlimit="10"/>
<path d="M98.0203 109.658C101.41 109.658 104.157 106.91 104.157 103.52C104.157 100.13 101.41 97.3818 98.0203 97.3818C94.631 97.3818 91.8834 100.13 91.8834 103.52C91.8834 106.91 94.631 109.658 98.0203 109.658Z" stroke="#231F20" stroke-width="1.119" stroke-miterlimit="10"/>
<path d="M74.294 109.541C77.6832 109.541 80.4308 106.793 80.4308 103.403C80.4308 100.013 77.6832 97.2648 74.294 97.2648C70.9047 97.2648 68.1571 100.013 68.1571 103.403C68.1571 106.793 70.9047 109.541 74.294 109.541Z" stroke="#231F20" stroke-width="1.119" stroke-miterlimit="10"/>
<path d="M67.1016 86.9434C70.4909 86.9434 73.2384 84.1952 73.2384 80.8051C73.2384 77.4151 70.4909 74.6669 67.1016 74.6669C63.7123 74.6669 60.9647 77.4151 60.9647 80.8051C60.9647 84.1952 63.7123 86.9434 67.1016 86.9434Z" stroke="#231F20" stroke-width="1.119" stroke-miterlimit="10"/>
<path d="M86.3721 73.103C89.7614 73.103 92.5089 70.3548 92.5089 66.9647C92.5089 63.5747 89.7614 60.8265 86.3721 60.8265C82.9828 60.8265 80.2352 63.5747 80.2352 66.9647C80.2352 70.3548 82.9828 73.103 86.3721 73.103Z" stroke="#231F20" stroke-width="1.119" stroke-miterlimit="10"/>
<path d="M105.448 87.1389C108.837 87.1389 111.584 84.3908 111.584 81.0007C111.584 77.6106 108.837 74.8624 105.448 74.8624C102.058 74.8624 99.3107 77.6106 99.3107 81.0007C99.3107 84.3908 102.058 87.1389 105.448 87.1389Z" stroke="#231F20" stroke-width="1.119" stroke-miterlimit="10"/>
<path d="M86.215 100.117C87.8773 100.117 89.2248 98.7695 89.2248 97.1069C89.2248 95.4442 87.8773 94.0964 86.215 94.0964C84.5527 94.0964 83.2052 95.4442 83.2052 97.1069C83.2052 98.7695 84.5527 100.117 86.215 100.117Z" stroke="#231F20" stroke-width="0.699377" stroke-miterlimit="10"/>
<path d="M76.7564 93.1966C78.4186 93.1966 79.7662 91.8487 79.7662 90.1861C79.7662 88.5234 78.4186 87.1756 76.7564 87.1756C75.0941 87.1756 73.7466 88.5234 73.7466 90.1861C73.7466 91.8487 75.0941 93.1966 76.7564 93.1966Z" stroke="#231F20" stroke-width="0.699377" stroke-miterlimit="10"/>
<path d="M80.43 82.0926C82.0922 82.0926 83.4398 80.7447 83.4398 79.0821C83.4398 77.4194 82.0922 76.0716 80.43 76.0716C78.7677 76.0716 77.4202 77.4194 77.4202 79.0821C77.4202 80.7447 78.7677 82.0926 80.43 82.0926Z" stroke="#231F20" stroke-width="0.699377" stroke-miterlimit="10"/>
<path d="M92.1182 82.1307C93.7805 82.1307 95.128 80.7829 95.128 79.1202C95.128 77.4576 93.7805 76.1097 92.1182 76.1097C90.4559 76.1097 89.1084 77.4576 89.1084 79.1202C89.1084 80.7829 90.4559 82.1307 92.1182 82.1307Z" stroke="#231F20" stroke-width="0.699377" stroke-miterlimit="10"/>
<path d="M95.6762 93.2741C97.3384 93.2741 98.686 91.9263 98.686 90.2637C98.686 88.601 97.3384 87.2532 95.6762 87.2532C94.0139 87.2532 92.6664 88.601 92.6664 90.2637C92.6664 91.9263 94.0139 93.2741 95.6762 93.2741Z" stroke="#231F20" stroke-width="0.699377" stroke-miterlimit="10"/>
<path d="M96.8478 84.5967C96.3006 84.4012 95.7534 84.3621 95.2061 84.323C95.6361 84.0102 96.027 83.6193 96.3788 83.1501C98.2941 80.5697 97.7078 76.9336 95.128 75.0179C92.5481 73.1021 88.9129 73.6886 86.9976 76.269C86.6458 76.7382 86.4113 77.2073 86.2549 77.7156C86.0595 77.2073 85.8641 76.6991 85.5123 76.2299C83.636 73.6104 80.0008 73.0239 77.3819 74.9006C74.763 76.7773 74.1767 80.4133 76.0529 83.0328C76.4047 83.502 76.7956 83.8538 77.2256 84.2057C76.6783 84.2057 76.1311 84.2839 75.5839 84.4403C72.535 85.4177 70.8542 88.7019 71.8314 91.7515C72.8086 94.8011 76.092 96.4822 79.1409 95.5048C79.6881 95.3484 80.1572 95.0747 80.6262 94.762C80.4699 95.2702 80.3526 95.8176 80.3526 96.404C80.3526 99.61 82.9324 102.23 86.1377 102.23C89.3429 102.23 91.9618 99.6491 91.9618 96.4431C91.9618 95.8567 91.8446 95.3484 91.7273 94.8011C92.1573 95.1138 92.6654 95.3875 93.1736 95.5439C96.2224 96.5604 99.5058 94.8793 100.522 91.8297C101.538 88.7801 99.8576 85.4959 96.8088 84.4794V84.5967H96.8478Z" stroke="#231F20" stroke-width="0.699377" stroke-miterlimit="10"/>
<path d="M128.665 52.22C133.629 39.318 140.079 22.2325 140.235 20.434C138.789 19.4566 126.945 10.8161 124.639 10.4642C123.622 10.777 109.277 21.2941 107.948 22.3889C107.948 23.5227 109.003 30.4429 110.098 37.1676C108.769 36.503 107.44 35.9165 106.072 35.3691C103.922 21.7242 100.99 3.7004 100.209 2.09742C98.4496 1.98012 83.8697 0.416237 81.7198 1.23728C80.9772 2.01922 73.824 18.2837 73.2377 19.8866C73.7849 20.8641 78.2019 26.3377 82.5016 31.6549C81.0163 31.7331 79.5309 31.8895 78.0846 32.1241C69.4071 21.3723 57.8369 7.21915 56.3516 6.24172C54.7881 6.98457 41.3808 12.9273 39.9345 14.7258C39.7 15.7423 41.6153 33.4143 41.928 35.1346C42.9053 35.6819 49.433 38.2232 55.8044 40.6864C54.5926 41.5074 53.3809 42.3675 52.2082 43.3059C39.3091 38.3405 22.2276 31.8895 20.4295 31.7331C19.4523 33.1797 10.8138 45.0261 10.462 47.3329C10.7747 48.3494 21.2895 62.6981 22.3839 64.0274C23.5175 64.0274 30.4361 62.9718 37.1593 61.877C36.4948 63.2064 35.9085 64.5357 35.3612 65.9041C21.7194 68.0544 3.69978 70.9867 2.09716 71.7686C1.9799 73.528 0.416371 88.1113 1.23722 90.2616C2.01899 91.0045 18.2797 98.1593 19.8823 98.7457C20.8595 98.1983 26.3319 93.7804 31.6478 89.4797C31.726 90.9654 31.8824 92.4511 32.1169 93.8977C21.3676 103.203 7.21772 114.15 6.24051 115.636C6.98319 117.2 12.9246 130.61 14.7227 132.057C15.7389 132.291 33.4068 130.375 35.1267 130.063C35.6739 129.085 38.2147 122.556 40.6772 116.183C41.4981 117.395 42.358 118.607 43.2961 119.741C38.3319 132.643 31.8824 149.728 31.726 151.527C33.1723 152.504 45.016 161.145 47.3222 161.497C48.3385 161.184 62.6839 150.667 64.0129 149.572C64.0129 148.438 62.9575 141.518 61.863 134.793C63.192 135.458 64.521 136.044 65.9282 136.592C68.0781 150.237 71.0097 168.261 71.7914 169.864C73.5504 169.981 88.1303 171.545 90.2802 170.724C91.0228 169.942 98.176 153.677 98.7623 152.074C98.2151 151.097 93.7981 145.623 89.4984 140.306C90.9837 140.228 92.4691 140.071 93.9154 139.837C102.593 150.589 114.163 164.742 115.648 165.719C117.212 164.976 130.619 159.034 132.065 157.235C132.3 156.219 130.385 138.547 130.072 136.826C129.095 136.279 122.567 133.738 116.196 131.275C117.407 130.454 118.619 129.593 119.792 128.655C132.691 133.62 149.772 140.071 151.57 140.228C152.548 138.781 161.186 126.935 161.538 124.628C161.225 123.612 150.711 109.263 149.616 107.934C148.483 107.934 141.564 108.989 134.841 110.084C135.505 108.755 136.092 107.425 136.639 106.057C150.281 103.907 168.3 100.974 169.903 100.192C170.02 98.4329 171.584 83.8497 170.763 81.6993C169.981 80.9565 153.72 73.8017 152.118 73.2152C151.14 73.7626 145.668 78.1806 140.352 82.4813C140.274 80.9956 140.118 79.5099 139.883 78.0633C150.632 69.3837 164.782 57.8109 165.759 56.3252C165.017 54.7614 159.075 41.351 157.277 39.9044C156.261 39.6698 138.593 41.5856 136.873 41.8984C136.326 42.8758 133.785 49.405 131.323 55.7779C130.502 54.5659 129.642 53.3539 128.704 52.22H128.665V52.22Z" stroke="#231F20" stroke-width="1.119" stroke-miterlimit="10"/>
</g>
<defs>
<radialGradient id="paint0_radial_54_234" cx="0" cy="0" r="1" gradientUnits="userSpaceOnUse" gradientTransform="translate(86.6845 85.7284) scale(80.7562 80.7748)">
<stop offset="0.62" stop-color="#171717"/>
<stop offset="0.76" stop-color="#2C2C2C"/>
<stop offset="0.87" stop-color="#171717"/>
<stop offset="0.91" stop-color="#1A1A1A"/>
<stop offset="0.95" stop-color="#242424"/>
<stop offset="0.99" stop-color="#343434"/>
<stop offset="1" stop-color="#3F3F3F"/>
</radialGradient>
<radialGradient id="paint1_radial_54_234" cx="0" cy="0" r="1" gradientUnits="userSpaceOnUse" gradientTransform="translate(86.2546 87.0942) scale(49.8375 49.8489)">
<stop offset="0.26" stop-color="#212121"/>
<stop offset="0.36" stop-color="#2A2A2A"/>
<stop offset="0.49" stop-color="#3F3F3F"/>
<stop offset="0.69" stop-color="#333333"/>
<stop offset="0.93" stop-color="#202020"/>
</radialGradient>
<radialGradient id="paint2_radial_54_234" cx="0" cy="0" r="1" gradientUnits="userSpaceOnUse" gradientTransform="translate(85.9805 86) scale(84.9778 84.9973)">
<stop offset="0.57" stop-color="#212121"/>
<stop offset="0.64" stop-color="#2A2A2A"/>
<stop offset="0.74" stop-color="#3F3F3F"/>
<stop offset="0.82" stop-color="#333333"/>
<stop offset="0.93" stop-color="#202020"/>
</radialGradient>
<radialGradient id="paint3_radial_54_234" cx="0" cy="0" r="1" gradientUnits="userSpaceOnUse" gradientTransform="translate(86.2544 87.1337) scale(37.2511 37.2596)">
<stop stop-color="#AEB0B7"/>
<stop offset="0.32" stop-color="#A9A9A8"/>
<stop offset="0.35" stop-color="#A9A9A6"/>
<stop offset="0.5" stop-color="#9A9D9E"/>
<stop offset="0.67" stop-color="#838C92"/>
<stop offset="1" stop-color="#657076"/>
</radialGradient>
<radialGradient id="paint4_radial_54_234" cx="0" cy="0" r="1" gradientUnits="userSpaceOnUse" gradientTransform="translate(86.2542 87.1746) scale(33.4986 33.5063)">
<stop stop-color="white"/>
<stop offset="0.13" stop-color="#F0F0F0"/>
<stop offset="0.37" stop-color="#C9CACB"/>
<stop offset="0.52" stop-color="#ADAEB0"/>
<stop offset="0.6" stop-color="#A3A5A7"/>
<stop offset="0.74" stop-color="#898D8F"/>
<stop offset="0.91" stop-color="#5E6669"/>
<stop offset="1" stop-color="#465053"/>
</radialGradient>
<radialGradient id="paint5_radial_54_234" cx="0" cy="0" r="1" gradientUnits="userSpaceOnUse" gradientTransform="translate(86.2544 87.1354) scale(31.1924 31.1996)">
<stop stop-color="#AEB0B7"/>
<stop offset="0.32" stop-color="#A9A9A8"/>
<stop offset="0.35" stop-color="#A9A9A6"/>
<stop offset="0.5" stop-color="#9A9D9E"/>
<stop offset="0.67" stop-color="#838C92"/>
<stop offset="1" stop-color="#657076"/>
</radialGradient>
<radialGradient id="paint6_radial_54_234" cx="0" cy="0" r="1" gradientUnits="userSpaceOnUse" gradientTransform="translate(86.2152 88.0743) scale(14.4235 14.4269)">
<stop offset="0.26" stop-color="#212121"/>
<stop offset="0.36" stop-color="#2A2A2A"/>
<stop offset="0.49" stop-color="#3F3F3F"/>
<stop offset="0.69" stop-color="#333333"/>
<stop offset="0.93" stop-color="#202020"/>
</radialGradient>
<radialGradient id="paint7_radial_54_234" cx="0" cy="0" r="1" gradientUnits="userSpaceOnUse" gradientTransform="translate(95.6746 90.2607) scale(3.00979 3.01048)">
<stop stop-color="#AEB0B7"/>
<stop offset="0.32" stop-color="#A9A9A8"/>
<stop offset="0.35" stop-color="#A9A9A6"/>
<stop offset="0.5" stop-color="#9A9D9E"/>
<stop offset="0.67" stop-color="#838C92"/>
<stop offset="1" stop-color="#657076"/>
</radialGradient>
<radialGradient id="paint8_radial_54_234" cx="0" cy="0" r="1" gradientUnits="userSpaceOnUse" gradientTransform="translate(92.1172 79.1213) scale(3.00979 3.01048)">
<stop stop-color="#AEB0B7"/>
<stop offset="0.32" stop-color="#A9A9A8"/>
<stop offset="0.35" stop-color="#A9A9A6"/>
<stop offset="0.5" stop-color="#9A9D9E"/>
<stop offset="0.67" stop-color="#838C92"/>
<stop offset="1" stop-color="#657076"/>
</radialGradient>
<radialGradient id="paint9_radial_54_234" cx="0" cy="0" r="1" gradientUnits="userSpaceOnUse" gradientTransform="translate(86.2543 87.1339) scale(5.27691 5.27812)">
<stop stop-color="#AEB0B7"/>
<stop offset="0.32" stop-color="#A9A9A8"/>
<stop offset="0.35" stop-color="#A9A9A6"/>
<stop offset="0.5" stop-color="#9A9D9E"/>
<stop offset="0.67" stop-color="#838C92"/>
<stop offset="1" stop-color="#657076"/>
</radialGradient>
<radialGradient id="paint10_radial_54_234" cx="0" cy="0" r="1" gradientUnits="userSpaceOnUse" gradientTransform="translate(86.2549 87.1351) scale(3.00979 3.01049)">
<stop stop-color="#AEB0B7"/>
<stop offset="0.32" stop-color="#A9A9A8"/>
<stop offset="0.35" stop-color="#A9A9A6"/>
<stop offset="0.5" stop-color="#9A9D9E"/>
<stop offset="0.67" stop-color="#838C92"/>
<stop offset="1" stop-color="#657076"/>
</radialGradient>
<radialGradient id="paint11_radial_54_234" cx="0" cy="0" r="1" gradientUnits="userSpaceOnUse" gradientTransform="translate(86.2153 97.0666) scale(3.00979 3.01048)">
<stop stop-color="#AEB0B7"/>
<stop offset="0.32" stop-color="#A9A9A8"/>
<stop offset="0.35" stop-color="#A9A9A6"/>
<stop offset="0.5" stop-color="#9A9D9E"/>
<stop offset="0.67" stop-color="#838C92"/>
<stop offset="1" stop-color="#657076"/>
</radialGradient>
<radialGradient id="paint12_radial_54_234" cx="0" cy="0" r="1" gradientUnits="userSpaceOnUse" gradientTransform="translate(80.4295 79.0798) scale(3.00979 3.01048)">
<stop stop-color="#AEB0B7"/>
<stop offset="0.32" stop-color="#A9A9A8"/>
<stop offset="0.35" stop-color="#A9A9A6"/>
<stop offset="0.5" stop-color="#9A9D9E"/>
<stop offset="0.67" stop-color="#838C92"/>
<stop offset="1" stop-color="#657076"/>
</radialGradient>
<radialGradient id="paint13_radial_54_234" cx="0" cy="0" r="1" gradientUnits="userSpaceOnUse" gradientTransform="translate(76.7552 90.1861) scale(3.04888 3.04958)">
<stop stop-color="#AEB0B7"/>
<stop offset="0.32" stop-color="#A9A9A8"/>
<stop offset="0.35" stop-color="#A9A9A6"/>
<stop offset="0.5" stop-color="#9A9D9E"/>
<stop offset="0.67" stop-color="#838C92"/>
<stop offset="1" stop-color="#657076"/>
</radialGradient>
<clipPath id="clip0_54_234">
<rect width="172" height="172" fill="white"/>
</clipPath>
</defs>
</svg>
