<svg width="172" height="172" viewBox="0 0 172 172" fill="none" xmlns="http://www.w3.org/2000/svg">
<path d="M55.2177 111.322C52.2426 107.739 49.8759 103.653 48.3207 99.1652C47.915 98.06 47.6108 96.9883 47.3403 95.8496C46.5965 92.8689 46.1908 89.7208 46.1908 86.5056C46.1908 84.9651 46.2922 83.4245 46.4613 81.9174C46.5627 80.7787 46.7655 79.6735 47.0022 78.5348C47.9827 73.8795 49.8083 69.5257 52.3102 65.6408H52.344C52.9187 64.6695 53.5949 63.6983 54.3387 62.794C57.1786 59.043 60.7285 55.8949 64.7518 53.4166C65.6984 52.7802 66.7465 52.2109 67.7608 51.7085C71.8854 49.6321 76.4496 48.259 81.2843 47.7566C82.4337 47.6226 83.5832 47.5556 84.7666 47.5222H85.4765C90.1083 47.5222 94.5035 48.2924 98.6281 49.7661C99.7438 50.1679 100.792 50.5698 101.874 51.0722C106.201 53.0482 110.089 55.7609 113.403 59.0765C114.214 59.8803 114.992 60.7176 115.702 61.6553C118.711 65.2054 121.077 69.3248 122.632 73.8126C123.038 74.9178 123.342 75.9895 123.579 77.1282C124.357 80.1089 124.762 83.257 124.762 86.5056C124.762 88.0462 124.661 89.5868 124.492 91.0604C124.39 92.2326 124.188 93.3378 123.951 94.4765C122.97 99.1317 121.145 103.486 118.609 107.371C118.001 108.342 117.358 109.279 116.614 110.184C113.774 113.935 110.225 117.083 106.201 119.561C105.255 120.198 104.207 120.767 103.192 121.269C99.0676 123.346 94.5035 124.719 89.6688 125.221C88.5193 125.355 87.3698 125.422 86.1865 125.456H85.4765C80.8447 125.456 76.4158 124.652 72.2911 123.212C71.1754 122.81 70.1274 122.408 69.0793 121.906C64.7518 119.93 60.8638 117.217 57.5505 113.901C56.7391 113.097 55.9615 112.193 55.2177 111.322V111.322ZM120.705 86.5056C120.705 67.2148 104.95 51.6081 85.4765 51.6081C66.0027 51.6081 50.2478 67.2148 50.2478 86.5056C50.2478 105.796 66.0027 121.403 85.4765 121.403C104.95 121.403 120.705 105.763 120.705 86.5056Z" fill="url(#paint0_radial_54_234)"/>
<path d="M111.847 78.1674C112.929 81.55 111.036 85.1335 107.655 86.2052C104.274 87.3104 100.656 85.4349 99.5407 82.0523C98.4588 78.7032 100.318 75.1197 103.733 74.048C107.114 72.9428 110.731 74.8183 111.847 78.1674Z" fill="url(#paint1_radial_54_234)"/>
<path d="M85.5112 51.6065C104.985 51.6065 120.74 67.2133 120.74 86.5041C120.74 105.795 104.985 121.402 85.5112 121.402C66.0373 121.402 50.2825 105.761 50.2825 86.5041C50.2825 67.2468 66.0373 51.6065 85.5112 51.6065V51.6065ZM118.306 86.5041C118.306 68.5194 103.599 53.9844 85.5112 53.9844C67.4235 53.9844 52.7167 68.5529 52.7167 86.5041C52.7167 104.455 67.4235 118.99 85.5112 118.99C103.599 118.99 118.306 104.422 118.306 86.5041Z" fill="url(#paint2_radial_54_234)"/>
<path d="M85.5114 53.9857C103.633 53.9857 118.306 68.5542 118.306 86.5054C118.306 104.457 103.599 118.992 85.5114 118.992C67.4237 118.992 52.7169 104.423 52.7169 86.5054C52.7169 68.5877 67.4237 53.9857 85.5114 53.9857ZM107.69 86.204C111.071 85.1323 112.964 81.5487 111.882 78.1661C110.767 74.817 107.149 72.9415 103.768 74.0467C100.353 75.1185 98.4939 78.702 99.5758 82.0511C100.692 85.4337 104.309 87.3092 107.69 86.204ZM101.638 108.743C104.546 106.7 105.188 102.682 103.126 99.8348C101.063 96.9881 97.0064 96.3182 94.1326 98.3947C91.2589 100.438 90.5827 104.423 92.645 107.303C94.7412 110.15 98.7644 110.82 101.638 108.743ZM98.4601 90.7252C99.0011 89.0842 98.0882 87.2757 96.4316 86.7398C94.775 86.1705 92.9831 87.1082 92.4084 88.7493C91.8674 90.3903 92.7803 92.1654 94.4369 92.7347C96.0935 93.2706 97.9192 92.3663 98.4601 90.7252ZM94.2678 79.9746C95.3159 78.6015 94.9778 76.6255 93.5917 75.5538C92.1717 74.5156 90.177 74.8505 89.1289 76.2572C88.047 77.6303 88.3851 79.6062 89.8051 80.678C91.2251 81.7162 93.2198 81.3813 94.2678 79.9746ZM92.0703 65.5065C92.1041 61.99 89.2303 59.1433 85.6804 59.0763C82.1305 59.0093 79.1892 61.8895 79.1892 65.4061C79.1553 68.9226 82.0291 71.8363 85.579 71.8698C89.1289 71.8698 92.0703 69.0231 92.0703 65.5065V65.5065ZM91.0222 86.5054C91.0222 83.4912 88.5542 81.0129 85.5114 81.0129C82.4686 81.0129 79.9668 83.4912 79.9668 86.5054C79.9668 89.5196 82.4686 91.9644 85.5114 91.9644C88.5542 91.9644 91.0222 89.4861 91.0222 86.5054ZM88.6218 96.8541C88.6218 95.1126 87.2018 93.6725 85.4438 93.6725C83.6857 93.6725 82.2319 95.0791 82.2319 96.8206C82.2319 98.5621 83.6519 100.002 85.41 100.002C87.168 100.002 88.6218 98.5956 88.6218 96.8541ZM81.2177 80.611C82.6376 79.6397 82.9757 77.6638 81.9615 76.2572C80.9134 74.8505 78.9525 74.4821 77.4987 75.5203C76.0449 76.5586 75.7407 78.501 76.7549 79.9412C77.803 81.3478 79.7639 81.6827 81.2177 80.6445V80.611ZM78.1073 107.136C80.2034 104.323 79.5949 100.304 76.7211 98.2272C73.8474 96.1508 69.8241 96.7536 67.728 99.6004C65.598 102.414 66.2404 106.433 69.0803 108.509C71.9541 110.585 76.0111 109.983 78.1073 107.136V107.136ZM76.4845 92.5672C78.1411 92.0314 79.0877 90.2899 78.5468 88.6153C78.0058 86.9408 76.2478 86.0365 74.5574 86.5724C72.8669 87.1082 71.9541 88.8498 72.495 90.5578C73.036 92.1988 74.794 93.1031 76.4845 92.5672V92.5672ZM71.4808 81.8167C72.5965 78.4676 70.7708 74.884 67.3899 73.7453C64.009 72.6401 60.3577 74.4486 59.242 77.7977C58.0925 81.1468 59.952 84.7639 63.3329 85.8691C66.7137 87.0077 70.3313 85.1657 71.4808 81.8167Z" fill="url(#paint3_radial_54_234)"/>
<path d="M103.125 99.8344C105.187 102.681 104.545 106.7 101.638 108.743C98.7638 110.819 94.7406 110.15 92.6444 107.303C90.5821 104.423 91.2583 100.437 94.132 98.3943C97.0058 96.3179 101.063 96.9877 103.125 99.8344Z" fill="url(#paint4_radial_54_234)"/>
<path d="M96.4307 86.7406C98.0873 87.2764 99.0002 89.0514 98.4592 90.726C97.9183 92.4005 96.1264 93.2713 94.436 92.7354C92.7794 92.1661 91.8665 90.4246 92.4075 88.75C92.9822 87.109 94.7403 86.1712 96.4307 86.7406Z" fill="url(#paint5_radial_54_234)"/>
<path d="M93.5901 75.5892C94.9762 76.6609 95.3143 78.6034 94.2662 80.01C93.2182 81.4166 91.2573 81.7515 89.8035 80.7133C88.3835 79.6416 88.0454 77.6991 89.1273 76.2925C90.1754 74.8859 92.1363 74.551 93.5901 75.5892Z" fill="url(#paint6_radial_54_234)"/>
<path d="M85.6456 59.0781C89.1955 59.1115 92.0693 61.9583 92.0355 65.5083C92.0355 69.0249 89.1279 71.8716 85.5442 71.8716C81.9943 71.8381 79.1205 68.9579 79.1543 65.4078C79.1543 61.8913 82.0619 59.0446 85.6456 59.0781Z" fill="url(#paint7_radial_54_234)"/>
<path d="M85.5106 81.0146C88.5534 81.0146 91.0214 83.4929 91.0214 86.5071C91.0214 89.5213 88.5534 91.9661 85.5106 91.9661C82.4678 91.9661 79.9659 89.4878 79.9659 86.5071C79.9659 83.5264 82.4678 81.0146 85.5106 81.0146ZM89.1281 86.5071C89.1281 84.4977 87.5053 82.8901 85.5106 82.8901C83.5159 82.8901 81.893 84.4977 81.893 86.5071C81.893 88.5166 83.482 90.0906 85.5106 90.0906C87.5391 90.0906 89.1281 88.4831 89.1281 86.5071Z" fill="#262626"/>
<path d="M85.5108 82.8874C87.5056 82.8874 89.1284 84.495 89.1284 86.5044C89.1284 88.5139 87.5056 90.0879 85.5108 90.0879C83.5161 90.0879 81.8933 88.4804 81.8933 86.5044C81.8933 84.5284 83.4823 82.8874 85.5108 82.8874V82.8874Z" fill="url(#paint8_radial_54_234)"/>
<path d="M85.476 93.7056C87.234 93.7056 88.654 95.1457 88.654 96.8873C88.654 98.6288 87.234 100.035 85.4422 100.035C83.6503 100.035 82.2642 98.6288 82.2642 96.8538C82.2642 95.0788 83.7179 93.7056 85.476 93.7056Z" fill="url(#paint9_radial_54_234)"/>
<path d="M81.9938 76.2578C82.9743 77.6644 82.67 79.6404 81.25 80.6116C79.83 81.6498 77.8353 81.3149 76.7873 79.9083C75.8068 78.5017 76.1111 76.5257 77.531 75.4875C78.951 74.4493 80.9457 74.8177 81.9938 76.2243V76.2578Z" fill="url(#paint10_radial_54_234)"/>
<path d="M76.7545 98.294C79.6283 100.37 80.2368 104.389 78.1407 107.203C76.0445 110.049 71.9875 110.652 69.1138 108.576C66.2738 106.499 65.6315 102.48 67.7614 99.6671C69.8575 96.8204 73.8808 96.2175 76.7545 98.294Z" fill="url(#paint11_radial_54_234)"/>
<path d="M78.5467 88.6811C79.0877 90.3221 78.141 92.0972 76.4844 92.633C74.8278 93.1689 73.0359 92.2646 72.495 90.6236C71.954 88.9155 72.9007 87.174 74.5573 86.6381C76.2139 86.1023 78.0058 87.04 78.5467 88.6811V88.6811Z" fill="url(#paint12_radial_54_234)"/>
<path d="M67.3885 73.8125C70.7693 74.9512 72.595 78.5347 71.4793 81.8838C70.3298 85.2329 66.7123 87.0749 63.3314 85.9362C59.9505 84.831 58.0911 81.214 59.2406 77.8649C60.3562 74.5158 64.0076 72.7073 67.3885 73.8125Z" fill="url(#paint13_radial_54_234)"/>
<path d="M154.919 82.855C148.225 87.2088 131.963 91.4287 124.897 91.0938H124.525C124.424 92.2324 124.221 93.3377 123.984 94.4763C133.349 97.4235 146.636 99.1986 153.939 98.4953C154.649 94.5768 155.021 90.5914 155.021 86.5055C155.021 85.2663 155.021 84.0272 154.919 82.855Z" fill="url(#paint14_radial_54_234)"/>
<path d="M122.666 73.8118C123.072 74.917 123.376 75.9888 123.613 77.1274C133.35 75.7878 146.197 71.6349 152.418 67.8505C150.964 62.6928 148.936 57.8701 146.4 53.3154C142.309 60.114 129.462 70.8981 122.971 73.6779L122.666 73.7783V73.8118Z" fill="url(#paint15_radial_54_234)"/>
<path d="M118.98 107.573L118.676 107.372C118.067 108.343 117.425 109.281 116.681 110.185C123.781 116.884 135.039 124.252 141.936 126.73C144.979 122.51 147.616 117.922 149.644 113.066C141.699 114.137 125.201 110.922 118.98 107.607V107.573Z" fill="url(#paint16_radial_54_234)"/>
<path d="M137.643 40.9254C134.127 37.007 130.205 33.4904 125.911 30.4092C125.201 38.3131 118.372 53.5515 113.707 58.8431L113.47 59.044C114.281 59.8478 115.059 60.6851 115.769 61.6228C123.984 56.2308 133.721 46.9538 137.677 40.8919L137.643 40.9254Z" fill="url(#paint17_radial_54_234)"/>
<path d="M106.403 119.863L106.234 119.595C105.287 120.232 104.239 120.801 103.225 121.303C106.707 130.446 113.57 141.833 118.743 147.024C123.409 144.513 127.736 141.498 131.658 138.049C124.017 135.537 110.595 125.557 106.437 119.897H106.403V119.863Z" fill="url(#paint18_radial_54_234)"/>
<path d="M98.7627 49.4656L98.6613 49.767C99.777 50.1689 100.825 50.5708 101.907 51.0732C106.911 42.7004 111.644 30.2083 112.557 23.0077C107.756 20.9983 102.651 19.4912 97.3766 18.5869C100.183 26.0219 100.69 42.7004 98.7966 49.4321L98.7627 49.4656Z" fill="url(#paint19_radial_54_234)"/>
<path d="M89.7019 125.222C88.5524 125.356 87.4029 125.423 86.2196 125.457C85.3744 135.136 86.6253 148.398 88.9243 155.264C94.3337 155.029 99.5741 154.125 104.544 152.718C98.7289 147.192 91.0205 132.423 89.7357 125.557V125.189L89.7019 125.222Z" fill="url(#paint20_radial_54_234)"/>
<path d="M66.4749 20.261C72.2223 25.787 79.9983 40.5566 81.2831 47.4222V47.7906C82.4664 47.6566 83.6159 47.5897 84.7992 47.5562C85.6106 37.8438 84.3597 24.6149 82.0607 17.7492C76.6851 17.9836 71.4785 18.8879 66.4749 20.2945V20.261Z" fill="url(#paint21_radial_54_234)"/>
<path d="M72.1887 123.514L72.2902 123.212C71.1745 122.81 70.1264 122.408 69.0783 121.906C64.0408 130.346 59.3414 142.804 58.3948 149.972H58.4286C63.2294 151.981 68.3345 153.488 73.6087 154.392C70.8026 146.924 70.2616 130.279 72.1549 123.547H72.1887V123.514Z" fill="url(#paint22_radial_54_234)"/>
<path d="M64.583 53.1498L64.752 53.4177C65.6987 52.7814 66.7468 52.212 67.761 51.7097C64.2787 42.5666 57.3479 31.1797 52.2428 25.9886C47.5772 28.5004 43.2497 31.5146 39.2941 34.9642C46.9348 37.476 60.3569 47.4563 64.5492 53.1163H64.583V53.1498Z" fill="url(#paint23_radial_54_234)"/>
<path d="M33.3438 132.055C36.826 135.973 40.7817 139.49 45.0754 142.571C45.7854 134.667 52.6147 119.462 57.2803 114.17L57.5508 113.936C56.7394 113.132 55.9618 112.228 55.218 111.357C47.0363 116.749 37.3332 125.993 33.3438 132.088V132.055Z" fill="url(#paint24_radial_54_234)"/>
<path d="M52.0048 65.4417L52.2753 65.6426H52.3091C52.8839 64.6714 53.56 63.7001 54.3038 62.7959C47.204 56.0977 35.9457 48.7297 29.0487 46.2513C25.9383 50.4712 23.3689 55.0595 21.3065 59.9157C29.2854 58.8439 45.7502 62.0926 52.0048 65.4082V65.4417Z" fill="url(#paint25_radial_54_234)"/>
<path d="M48.32 99.167C47.9143 98.0618 47.6101 96.9901 47.3396 95.8514C37.6027 97.1911 24.7892 101.344 18.5684 105.128C20.0221 110.286 22.0168 115.109 24.5525 119.664C28.711 112.831 41.5245 102.081 48.0496 99.301L48.3538 99.2005L48.32 99.167Z" fill="url(#paint26_radial_54_234)"/>
<path d="M46.1231 81.8846H46.495C46.5964 80.7794 46.7993 79.6742 47.0359 78.5355C37.6371 75.5548 24.3503 73.7798 17.0476 74.5166C16.3714 78.4351 15.9995 82.387 15.9995 86.5064C15.9995 87.7121 15.9995 88.9512 16.0671 90.1234C22.7613 85.7696 39.0571 81.5497 46.1231 81.8846V81.8846Z" fill="url(#paint27_radial_54_234)"/>
<path d="M156.035 68.7233C155.528 67.4171 153.972 66.9148 152.755 67.6516C152.654 67.7185 152.552 67.7855 152.451 67.819C146.23 71.637 133.383 75.7899 123.646 77.1295C124.424 80.1102 124.829 83.2584 124.829 86.507C124.829 88.0476 124.728 89.5881 124.559 91.0618H124.931C131.997 91.4302 148.259 87.2103 154.953 82.8565C156.339 81.9857 157.353 81.048 157.725 80.1772C158.435 76.0913 157.725 72.9097 156.102 68.7233H156.035V68.7233Z" fill="url(#paint28_radial_54_234)"/>
<path d="M154.377 98.4604C154.377 98.4604 154.107 98.4939 153.938 98.4939C146.635 99.1972 133.348 97.4222 123.983 94.475C123.003 99.1302 121.177 103.484 118.641 107.369L118.946 107.57C125.167 110.886 141.665 114.101 149.61 113.029C151.267 112.828 152.518 112.426 153.262 111.79C155.696 108.407 156.44 105.226 156.812 100.771C156.913 99.3982 155.696 98.2595 154.31 98.4604H154.377V98.4604Z" fill="url(#paint29_radial_54_234)"/>
<path d="M122.666 73.8137L122.97 73.7132C129.495 70.9334 142.309 60.1493 146.4 53.3507C147.245 51.944 147.752 50.7049 147.718 49.7671C146.569 45.7817 144.506 43.2029 141.227 40.1887C140.179 39.2175 138.556 39.4519 137.812 40.6576C137.745 40.7581 137.677 40.8585 137.609 40.959C133.654 47.0209 123.917 56.2979 115.701 61.6899C118.71 65.24 121.077 69.3594 122.632 73.8471L122.666 73.8137Z" fill="url(#paint30_radial_54_234)"/>
<path d="M142.307 126.862C142.307 126.862 142.071 126.761 141.902 126.728C135.005 124.249 123.746 116.881 116.647 110.183C113.807 113.934 110.257 117.082 106.234 119.561L106.403 119.829C110.561 125.488 123.983 135.469 131.624 137.981C133.179 138.483 134.531 138.684 135.512 138.449C139.129 136.44 141.226 133.895 143.525 130.077C144.235 128.838 143.626 127.33 142.307 126.862Z" fill="url(#paint31_radial_54_234)"/>
<path d="M113.672 58.8744C118.337 53.5828 125.167 38.3444 125.877 30.4405C126.046 28.833 125.877 27.4933 125.471 26.6226C122.732 23.5079 119.757 22.1013 115.43 20.7282C114.077 20.3263 112.691 21.2305 112.556 22.6371C112.556 22.7711 112.522 22.8716 112.522 23.039C111.643 30.2396 106.91 42.6982 101.872 51.1045C106.2 53.0804 110.088 55.7932 113.401 59.1088L113.638 58.9079H113.672V58.8744Z" fill="url(#paint32_radial_54_234)"/>
<path d="M118.743 146.989C113.57 141.798 106.707 130.378 103.225 121.268C99.1 123.345 94.5358 124.718 89.7012 125.22V125.589C91.0197 132.454 98.7281 147.224 104.543 152.75C105.76 153.888 106.842 154.659 107.823 154.826C111.981 154.625 114.99 153.219 118.709 150.707C119.892 149.903 120.028 148.262 119.013 147.291C118.912 147.19 118.844 147.123 118.743 147.023V146.989Z" fill="url(#paint33_radial_54_234)"/>
<path d="M82.0609 17.7141C84.3599 24.5798 85.6108 37.8087 84.7994 47.5211H85.5094C90.1412 47.5211 94.5363 48.2914 98.661 49.765L98.7624 49.4636C100.656 42.7319 100.149 26.0534 97.3424 18.6184C96.7677 17.0778 96.0915 15.9391 95.3139 15.3363C91.4597 13.7622 88.1465 13.7622 83.6837 14.3985C82.2976 14.5995 81.4523 15.9726 81.9257 17.3122C81.9595 17.4127 81.9933 17.5467 82.0271 17.7141H82.0609Z" fill="url(#paint34_radial_54_234)"/>
<path d="M88.9246 155.263C86.6256 148.397 85.3747 135.135 86.2199 125.456H85.5099C80.8781 125.456 76.4492 124.652 72.3245 123.212L72.2231 123.513C70.3298 130.245 70.8707 146.89 73.6769 154.358C74.2516 155.899 74.9278 157.038 75.7054 157.641C79.5596 159.215 82.8728 159.215 87.3018 158.578C88.7217 158.411 89.5332 157.004 89.0936 155.665C89.0598 155.564 89.026 155.43 88.9584 155.263H88.9246V155.263Z" fill="url(#paint35_radial_54_234)"/>
<path d="M52.2756 25.9881C57.3469 31.1792 64.3115 42.5997 67.7938 51.7092C71.9185 49.6328 76.4826 48.2596 81.3173 47.7573V47.3889C79.9988 40.5232 72.2566 25.7537 66.4753 20.2277H66.4415C65.2243 19.0555 64.1763 18.3187 63.1958 18.1512C59.0373 18.3522 56.0284 19.7588 52.3094 22.2706C51.1261 23.0744 50.9909 24.7155 52.0051 25.6867C52.1066 25.7537 52.1742 25.8542 52.2756 25.9546V25.9881Z" fill="url(#paint36_radial_54_234)"/>
<path d="M28.6771 46.1144C28.6771 46.1144 28.9138 46.1813 29.0828 46.2483C35.9798 48.7267 47.2381 56.0947 54.3379 62.7929C57.1779 59.0419 60.7278 55.8937 64.751 53.4154L64.582 53.1475C60.3897 47.4875 46.9676 37.5072 39.3269 34.9954C37.7717 34.493 36.4531 34.292 35.4727 34.5265C31.8213 36.5359 29.759 39.0813 27.46 42.9662C26.75 44.1719 27.3248 45.679 28.6771 46.1479V46.1144Z" fill="url(#paint37_radial_54_234)"/>
<path d="M57.2787 114.137C52.6131 119.429 45.7837 134.633 45.0737 142.537C44.9385 144.145 45.0399 145.485 45.4794 146.355C48.2517 149.47 51.2269 150.91 55.5544 152.25C56.9068 152.685 58.2591 151.747 58.3944 150.341C58.3944 150.207 58.4282 150.106 58.4282 149.939C59.341 142.772 64.0404 130.313 69.1117 121.873C64.7842 119.897 60.8962 117.185 57.583 113.869L57.3125 114.104H57.2787V114.137Z" fill="url(#paint38_radial_54_234)"/>
<path d="M16.6065 74.5479C16.6065 74.5479 16.8432 74.5144 17.0122 74.5144C24.3149 73.7776 37.6017 75.5526 47.0006 78.5333C47.981 73.8781 49.8067 69.5243 52.3085 65.6393L52.0381 65.4384C45.7835 62.1228 29.3186 58.8741 21.3397 59.9458C19.7169 60.1468 18.4322 60.5487 17.6884 61.185C15.2542 64.5676 14.5104 67.7492 14.1723 72.2035C14.0709 73.5767 15.288 74.7154 16.6741 74.5814H16.6065V74.5479Z" fill="url(#paint39_radial_54_234)"/>
<path d="M48.3191 99.1649L48.0148 99.2654C41.4897 102.045 28.71 112.796 24.5178 119.628C23.6725 121.034 23.1654 122.274 23.1992 123.211C24.3825 127.197 26.4111 129.776 29.7243 132.823C30.7724 133.761 32.3952 133.527 33.139 132.354C33.2066 132.254 33.2742 132.153 33.3418 131.986C37.3313 125.891 47.0344 116.647 55.2161 111.255C52.2409 107.672 49.8743 103.586 48.3191 99.0979V99.1649Z" fill="url(#paint40_radial_54_234)"/>
<path d="M46.1894 86.503C46.1894 84.9624 46.2908 83.4218 46.4599 81.9147H46.088C39.0219 81.5463 22.7261 85.7662 16.032 90.12C14.6459 91.0242 13.6316 91.962 13.2597 92.8327C12.5835 96.8852 13.2597 100.1 14.9163 104.253C15.4235 105.559 16.9787 106.062 18.1958 105.325C18.2972 105.258 18.3986 105.191 18.5001 105.157C24.7209 101.339 37.5344 97.1866 47.2713 95.8469C46.5275 92.8662 46.1218 89.7181 46.1218 86.503H46.1894V86.503Z" fill="url(#paint41_radial_54_234)"/>
<path d="M85.5108 121.403C104.967 121.403 120.739 105.779 120.739 86.5057C120.739 67.2323 104.967 51.6081 85.5108 51.6081C66.0545 51.6081 50.2821 67.2323 50.2821 86.5057C50.2821 105.779 66.0545 121.403 85.5108 121.403Z" stroke="#231F20" stroke-width="1.119" stroke-miterlimit="10"/>
<path d="M85.51 125.456C107.226 125.456 124.83 108.018 124.83 86.5061C124.83 64.9946 107.226 47.5561 85.51 47.5561C63.7944 47.5561 46.1904 64.9946 46.1904 86.5061C46.1904 108.018 63.7944 125.456 85.51 125.456Z" stroke="#231F20" stroke-width="1.119" stroke-miterlimit="10"/>
<path d="M85.511 118.992C103.623 118.992 118.305 104.447 118.305 86.5058C118.305 68.5641 103.623 54.0195 85.511 54.0195C67.3991 54.0195 52.7166 68.5641 52.7166 86.5058C52.7166 104.447 67.3991 118.992 85.511 118.992Z" stroke="#231F20" stroke-width="0.699377" stroke-miterlimit="10"/>
<path d="M85.5108 91.9976C88.573 91.9976 91.0555 89.5385 91.0555 86.505C91.0555 83.4716 88.573 81.0125 85.5108 81.0125C82.4486 81.0125 79.9662 83.4716 79.9662 86.505C79.9662 89.5385 82.4486 91.9976 85.5108 91.9976Z" stroke="#231F20" stroke-width="0.699377" stroke-miterlimit="10"/>
<path d="M85.5106 90.123C87.5272 90.123 89.1619 88.5036 89.1619 86.506C89.1619 84.5084 87.5272 82.889 85.5106 82.889C83.494 82.889 81.8593 84.5084 81.8593 86.506C81.8593 88.5036 83.494 90.123 85.5106 90.123Z" stroke="#231F20" stroke-width="0.699377" stroke-miterlimit="10"/>
<path d="M97.8509 109.948C101.417 109.948 104.308 107.084 104.308 103.551C104.308 100.018 101.417 97.1545 97.8509 97.1545C94.2845 97.1545 91.3934 100.018 91.3934 103.551C91.3934 107.084 94.2845 109.948 97.8509 109.948Z" stroke="#231F20" stroke-width="1.39875" stroke-miterlimit="10"/>
<path d="M72.9326 109.816C76.4989 109.816 79.39 106.952 79.39 103.419C79.39 99.886 76.4989 97.0221 72.9326 97.0221C69.3662 97.0221 66.4751 99.886 66.4751 103.419C66.4751 106.952 69.3662 109.816 72.9326 109.816Z" stroke="#231F20" stroke-width="1.39875" stroke-miterlimit="10"/>
<path d="M65.3597 86.2725C68.926 86.2725 71.8172 83.4086 71.8172 79.8757C71.8172 76.3429 68.926 73.4789 65.3597 73.4789C61.7933 73.4789 58.9022 76.3429 58.9022 79.8757C58.9022 83.4086 61.7933 86.2725 65.3597 86.2725Z" stroke="#231F20" stroke-width="1.39875" stroke-miterlimit="10"/>
<path d="M85.6112 71.869C89.1775 71.869 92.0686 69.0051 92.0686 65.4722C92.0686 61.9394 89.1775 59.0754 85.6112 59.0754C82.0448 59.0754 79.1537 61.9394 79.1537 65.4722C79.1537 69.0051 82.0448 71.869 85.6112 71.869Z" stroke="#231F20" stroke-width="1.39875" stroke-miterlimit="10"/>
<path d="M105.694 86.5074C109.26 86.5074 112.152 83.6434 112.152 80.1106C112.152 76.5777 109.26 73.7138 105.694 73.7138C102.128 73.7138 99.2366 76.5777 99.2366 80.1106C99.2366 83.6434 102.128 86.5074 105.694 86.5074Z" stroke="#231F20" stroke-width="1.39875" stroke-miterlimit="10"/>
<path d="M85.4419 100.004C87.1971 100.004 88.62 98.5946 88.62 96.8559C88.62 95.1172 87.1971 93.7078 85.4419 93.7078C83.6868 93.7078 82.2639 95.1172 82.2639 96.8559C82.2639 98.5946 83.6868 100.004 85.4419 100.004Z" stroke="#231F20" stroke-width="0.699377" stroke-miterlimit="10"/>
<path d="M75.5372 92.8022C77.2923 92.8022 78.7152 91.3927 78.7152 89.654C78.7152 87.9153 77.2923 86.5059 75.5372 86.5059C73.782 86.5059 72.3591 87.9153 72.3591 89.654C72.3591 91.3927 73.782 92.8022 75.5372 92.8022Z" stroke="#231F20" stroke-width="0.699377" stroke-miterlimit="10"/>
<path d="M79.3902 81.2144C81.1454 81.2144 82.5682 79.8049 82.5682 78.0662C82.5682 76.3276 81.1454 74.9181 79.3902 74.9181C77.635 74.9181 76.2122 76.3276 76.2122 78.0662C76.2122 79.8049 77.635 81.2144 79.3902 81.2144Z" stroke="#231F20" stroke-width="0.699377" stroke-miterlimit="10"/>
<path d="M91.6974 81.2813C93.4526 81.2813 94.8754 79.8718 94.8754 78.1331C94.8754 76.3945 93.4526 74.985 91.6974 74.985C89.9423 74.985 88.5194 76.3945 88.5194 78.1331C88.5194 79.8718 89.9423 81.2813 91.6974 81.2813Z" stroke="#231F20" stroke-width="0.699377" stroke-miterlimit="10"/>
<path d="M95.4164 92.904C97.1716 92.904 98.5944 91.4945 98.5944 89.7558C98.5944 88.0171 97.1716 86.6077 95.4164 86.6077C93.6613 86.6077 92.2384 88.0171 92.2384 89.7558C92.2384 91.4945 93.6613 92.904 95.4164 92.904Z" stroke="#231F20" stroke-width="0.699377" stroke-miterlimit="10"/>
<path d="M72.1884 123.514C69.9232 131.686 71.1403 154.225 75.6707 157.641C79.5249 159.215 82.8043 159.249 87.3009 158.613C88.7208 158.412 89.5323 157.005 89.0589 155.699C86.6247 148.867 85.34 135.035 86.2528 125.122" stroke="#231F20" stroke-width="1.119" stroke-miterlimit="10"/>
<path d="M57.3121 114.138C51.6998 120.535 42.9095 141.366 45.479 146.39C48.2513 149.471 51.2265 150.911 55.5202 152.251C56.8726 152.686 58.2249 151.782 58.3939 150.375C59.1715 143.175 64.0738 130.147 69.2465 121.606" stroke="#231F20" stroke-width="1.119" stroke-miterlimit="10"/>
<path d="M47.9814 99.2683C40.104 102.617 23.0644 117.621 23.1997 123.248C24.3491 127.233 26.4115 129.779 29.6909 132.86C30.739 133.831 32.3618 133.597 33.1056 132.391C36.9936 126.229 47.1024 116.617 55.487 111.158" stroke="#231F20" stroke-width="1.119" stroke-miterlimit="10"/>
<path d="M46.1212 81.8841C37.5676 81.5157 15.6596 87.7115 13.2929 92.8356C12.583 96.9215 13.2929 100.103 14.9496 104.29C15.4567 105.596 17.0119 106.098 18.229 105.328C24.416 101.443 37.7366 97.1225 47.7102 95.8163" stroke="#231F20" stroke-width="1.119" stroke-miterlimit="10"/>
<path d="M52.0383 65.4074C44.499 61.3885 22.0162 57.5706 17.6887 61.1541C15.2545 64.5032 14.5107 67.7183 14.1726 72.1726C14.0711 73.5792 15.2545 74.6844 16.6744 74.517C23.9433 73.6797 37.8387 75.5217 47.4066 78.6029" stroke="#231F20" stroke-width="1.119" stroke-miterlimit="10"/>
<path d="M64.5814 53.116C59.5439 46.2504 40.9829 33.1554 35.4721 34.5285C31.8207 36.5045 29.7584 39.0833 27.4594 42.9348C26.7494 44.1404 27.3242 45.681 28.6765 46.1164C35.6073 48.4943 47.3051 56.0967 54.574 62.9959" stroke="#231F20" stroke-width="1.119" stroke-miterlimit="10"/>
<path d="M81.2489 47.4231C79.7275 39.0839 68.7397 19.2907 63.1613 18.152C59.0028 18.3865 56.0276 19.7931 52.2749 22.2714C51.0916 23.0417 50.9563 24.6828 51.9706 25.654C57.1771 30.7781 64.3784 42.6674 67.8945 52.0114" stroke="#231F20" stroke-width="1.119" stroke-miterlimit="10"/>
<path d="M98.7961 49.5008C101.061 41.329 99.8441 18.7896 95.3138 15.3735C91.4596 13.7995 88.1801 13.766 83.6836 14.4023C82.2636 14.6032 81.4522 16.0099 81.9255 17.316C84.3597 24.1482 85.6445 37.9799 84.7316 47.8933" stroke="#231F20" stroke-width="1.119" stroke-miterlimit="10"/>
<path d="M113.672 58.8776C119.284 52.4808 128.074 31.6494 125.505 26.6258C122.732 23.5446 119.757 22.1045 115.464 20.7649C114.111 20.3295 112.759 21.2337 112.59 22.6404C111.812 29.8409 106.91 42.8689 101.737 51.4091" stroke="#231F20" stroke-width="1.119" stroke-miterlimit="10"/>
<path d="M123.002 73.7134C130.88 70.3643 147.92 55.3603 147.784 49.7339C146.635 45.7484 144.572 43.2031 141.293 40.1219C140.245 39.1507 138.622 39.3851 137.878 40.5908C133.99 46.7532 123.882 56.3651 115.497 61.8241" stroke="#231F20" stroke-width="1.119" stroke-miterlimit="10"/>
<path d="M124.862 91.0943C133.415 91.4627 155.323 85.2669 157.69 80.1428C158.4 76.0569 157.69 72.8752 156.033 68.6889C155.526 67.3827 153.971 66.8803 152.754 67.6506C146.567 71.5356 133.246 75.8559 123.273 77.1621" stroke="#231F20" stroke-width="1.119" stroke-miterlimit="10"/>
<path d="M118.945 107.574C126.485 111.593 148.968 115.411 153.295 111.828C155.729 108.479 156.473 105.264 156.811 100.809C156.913 99.4026 155.729 98.2974 154.309 98.4649C147.04 99.3021 133.145 97.4601 123.577 94.379" stroke="#231F20" stroke-width="1.119" stroke-miterlimit="10"/>
<path d="M106.402 119.862C111.44 126.728 130.001 139.823 135.512 138.45C139.163 136.474 141.225 133.895 143.524 130.043C144.234 128.838 143.659 127.297 142.307 126.862C135.376 124.484 123.678 116.881 116.41 109.982" stroke="#231F20" stroke-width="1.119" stroke-miterlimit="10"/>
<path d="M89.7351 125.554C91.2565 133.894 102.244 153.687 107.823 154.825C111.981 154.591 114.956 153.184 118.709 150.706C119.892 149.936 120.028 148.295 119.013 147.323C113.807 142.199 106.606 130.31 103.09 120.966" stroke="#231F20" stroke-width="1.119" stroke-miterlimit="10"/>
<path d="M21.3397 59.946C23.4021 55.0898 26.0053 50.5015 29.0819 46.2482" stroke="#231F20" stroke-width="1.119" stroke-miterlimit="10"/>
<path d="M39.3267 34.9983C43.2485 31.5487 47.6098 28.501 52.2754 25.9892" stroke="#231F20" stroke-width="1.119" stroke-miterlimit="10"/>
<path d="M66.4418 20.2268C71.4455 18.8202 76.6858 17.9494 82.0614 17.6815" stroke="#231F20" stroke-width="1.119" stroke-miterlimit="10"/>
<path d="M97.3416 18.6211C102.616 19.5253 107.721 20.999 112.522 23.0419" stroke="#231F20" stroke-width="1.119" stroke-miterlimit="10"/>
<path d="M125.91 30.4421C130.204 33.4898 134.159 37.0064 137.642 40.9583" stroke="#231F20" stroke-width="1.119" stroke-miterlimit="10"/>
<path d="M146.466 53.3508C149.001 57.9056 150.996 62.7618 152.45 67.8524" stroke="#231F20" stroke-width="1.119" stroke-miterlimit="10"/>
<path d="M154.918 82.8557C154.986 84.0614 155.02 85.2671 155.02 86.5062C155.02 90.5921 154.648 94.611 153.971 98.496" stroke="#231F20" stroke-width="1.119" stroke-miterlimit="10"/>
<path d="M149.644 113.032C147.582 117.888 144.978 122.477 141.902 126.696" stroke="#231F20" stroke-width="1.119" stroke-miterlimit="10"/>
<path d="M131.658 137.98C127.736 141.429 123.375 144.477 118.709 146.989" stroke="#231F20" stroke-width="1.119" stroke-miterlimit="10"/>
<path d="M104.543 152.752C99.539 154.159 94.2987 155.03 88.9231 155.298" stroke="#231F20" stroke-width="1.119" stroke-miterlimit="10"/>
<path d="M73.6419 154.358C68.3677 153.454 63.2626 151.98 58.4618 149.937" stroke="#231F20" stroke-width="1.119" stroke-miterlimit="10"/>
<path d="M45.0729 142.536C40.7792 139.489 36.8236 135.972 33.3413 132.02" stroke="#231F20" stroke-width="1.119" stroke-miterlimit="10"/>
<path d="M24.5182 119.629C21.9825 115.075 19.9878 110.218 18.5341 105.128" stroke="#231F20" stroke-width="1.119" stroke-miterlimit="10"/>
<path d="M16.0652 90.1561C15.9976 88.9504 15.9637 87.7447 15.9637 86.5056C15.9637 82.4197 16.3356 78.4008 17.0118 74.5158" stroke="#231F20" stroke-width="1.119" stroke-miterlimit="10"/>
<defs>
<radialGradient id="paint0_radial_54_234" cx="0" cy="0" r="1" gradientUnits="userSpaceOnUse" gradientTransform="translate(85.4765 86.4722) scale(39.3195 38.95)">
<stop stop-color="white"/>
<stop offset="0.13" stop-color="#F0F0F0"/>
<stop offset="0.37" stop-color="#C9CACB"/>
<stop offset="0.52" stop-color="#ADAEB0"/>
<stop offset="0.6" stop-color="#A3A5A7"/>
<stop offset="0.74" stop-color="#898D8F"/>
<stop offset="0.91" stop-color="#5E6669"/>
<stop offset="1" stop-color="#465053"/>
</radialGradient>
<radialGradient id="paint1_radial_54_234" cx="0" cy="0" r="1" gradientUnits="userSpaceOnUse" gradientTransform="translate(105.694 80.0764) scale(6.45747 6.39678)">
<stop offset="0.69" stop-color="#171717"/>
<stop offset="0.8" stop-color="#1A1A1A"/>
<stop offset="0.89" stop-color="#242424"/>
<stop offset="0.97" stop-color="#343434"/>
<stop offset="1" stop-color="#3F3F3F"/>
</radialGradient>
<radialGradient id="paint2_radial_54_234" cx="0" cy="0" r="1" gradientUnits="userSpaceOnUse" gradientTransform="translate(85.5112 86.4706) scale(35.2287 34.8976)">
<stop stop-color="white"/>
<stop offset="0.13" stop-color="#F0F0F0"/>
<stop offset="0.37" stop-color="#C9CACB"/>
<stop offset="0.52" stop-color="#ADAEB0"/>
<stop offset="0.6" stop-color="#A3A5A7"/>
<stop offset="0.74" stop-color="#898D8F"/>
<stop offset="0.91" stop-color="#5E6669"/>
<stop offset="1" stop-color="#465053"/>
</radialGradient>
<radialGradient id="paint3_radial_54_234" cx="0" cy="0" r="1" gradientUnits="userSpaceOnUse" gradientTransform="translate(85.5114 86.4719) scale(32.7945 32.4862)">
<stop stop-color="white"/>
<stop offset="0.13" stop-color="#F0F0F0"/>
<stop offset="0.37" stop-color="#C9CACB"/>
<stop offset="0.52" stop-color="#ADAEB0"/>
<stop offset="0.6" stop-color="#A3A5A7"/>
<stop offset="0.74" stop-color="#898D8F"/>
<stop offset="0.91" stop-color="#5E6669"/>
<stop offset="1" stop-color="#465053"/>
</radialGradient>
<radialGradient id="paint4_radial_54_234" cx="0" cy="0" r="1" gradientUnits="userSpaceOnUse" gradientTransform="translate(97.8848 103.518) scale(6.45747 6.39678)">
<stop offset="0.69" stop-color="#171717"/>
<stop offset="0.8" stop-color="#1A1A1A"/>
<stop offset="0.89" stop-color="#242424"/>
<stop offset="0.97" stop-color="#343434"/>
<stop offset="1" stop-color="#3F3F3F"/>
</radialGradient>
<radialGradient id="paint5_radial_54_234" cx="0" cy="0" r="1" gradientUnits="userSpaceOnUse" gradientTransform="translate(95.4164 89.7212) scale(3.17802 3.14815)">
<stop stop-color="white"/>
<stop offset="0.13" stop-color="#F0F0F0"/>
<stop offset="0.37" stop-color="#C9CACB"/>
<stop offset="0.52" stop-color="#ADAEB0"/>
<stop offset="0.6" stop-color="#A3A5A7"/>
<stop offset="0.74" stop-color="#898D8F"/>
<stop offset="0.91" stop-color="#5E6669"/>
<stop offset="1" stop-color="#465053"/>
</radialGradient>
<radialGradient id="paint6_radial_54_234" cx="0" cy="0" r="1" gradientUnits="userSpaceOnUse" gradientTransform="translate(91.663 78.101) scale(3.17802 3.14815)">
<stop stop-color="white"/>
<stop offset="0.13" stop-color="#F0F0F0"/>
<stop offset="0.37" stop-color="#C9CACB"/>
<stop offset="0.52" stop-color="#ADAEB0"/>
<stop offset="0.6" stop-color="#A3A5A7"/>
<stop offset="0.74" stop-color="#898D8F"/>
<stop offset="0.91" stop-color="#5E6669"/>
<stop offset="1" stop-color="#465053"/>
</radialGradient>
<radialGradient id="paint7_radial_54_234" cx="0" cy="0" r="1" gradientUnits="userSpaceOnUse" gradientTransform="translate(85.6118 65.4413) scale(6.45746 6.39677)">
<stop offset="0.69" stop-color="#171717"/>
<stop offset="0.8" stop-color="#1A1A1A"/>
<stop offset="0.89" stop-color="#242424"/>
<stop offset="0.97" stop-color="#343434"/>
<stop offset="1" stop-color="#3F3F3F"/>
</radialGradient>
<radialGradient id="paint8_radial_54_234" cx="0" cy="0" r="1" gradientUnits="userSpaceOnUse" gradientTransform="translate(85.5108 86.4709) scale(3.65134 3.61702)">
<stop stop-color="white"/>
<stop offset="0.13" stop-color="#F0F0F0"/>
<stop offset="0.37" stop-color="#C9CACB"/>
<stop offset="0.52" stop-color="#ADAEB0"/>
<stop offset="0.6" stop-color="#A3A5A7"/>
<stop offset="0.74" stop-color="#898D8F"/>
<stop offset="0.91" stop-color="#5E6669"/>
<stop offset="1" stop-color="#465053"/>
</radialGradient>
<radialGradient id="paint9_radial_54_234" cx="0" cy="0" r="1" gradientUnits="userSpaceOnUse" gradientTransform="translate(85.4422 96.8203) scale(3.17802 3.14815)">
<stop stop-color="white"/>
<stop offset="0.13" stop-color="#F0F0F0"/>
<stop offset="0.37" stop-color="#C9CACB"/>
<stop offset="0.52" stop-color="#ADAEB0"/>
<stop offset="0.6" stop-color="#A3A5A7"/>
<stop offset="0.74" stop-color="#898D8F"/>
<stop offset="0.91" stop-color="#5E6669"/>
<stop offset="1" stop-color="#465053"/>
</radialGradient>
<radialGradient id="paint10_radial_54_234" cx="0" cy="0" r="1" gradientUnits="userSpaceOnUse" gradientTransform="translate(79.3905 78.0328) scale(3.17802 3.14815)">
<stop stop-color="white"/>
<stop offset="0.13" stop-color="#F0F0F0"/>
<stop offset="0.37" stop-color="#C9CACB"/>
<stop offset="0.52" stop-color="#ADAEB0"/>
<stop offset="0.6" stop-color="#A3A5A7"/>
<stop offset="0.74" stop-color="#898D8F"/>
<stop offset="0.91" stop-color="#5E6669"/>
<stop offset="1" stop-color="#465053"/>
</radialGradient>
<radialGradient id="paint11_radial_54_234" cx="0" cy="0" r="1" gradientUnits="userSpaceOnUse" gradientTransform="translate(72.9341 103.385) scale(6.45747 6.39678)">
<stop offset="0.69" stop-color="#171717"/>
<stop offset="0.8" stop-color="#1A1A1A"/>
<stop offset="0.89" stop-color="#242424"/>
<stop offset="0.97" stop-color="#343434"/>
<stop offset="1" stop-color="#3F3F3F"/>
</radialGradient>
<radialGradient id="paint12_radial_54_234" cx="0" cy="0" r="1" gradientUnits="userSpaceOnUse" gradientTransform="translate(75.5378 89.6188) scale(3.17802 3.14815)">
<stop stop-color="white"/>
<stop offset="0.13" stop-color="#F0F0F0"/>
<stop offset="0.37" stop-color="#C9CACB"/>
<stop offset="0.52" stop-color="#ADAEB0"/>
<stop offset="0.6" stop-color="#A3A5A7"/>
<stop offset="0.74" stop-color="#898D8F"/>
<stop offset="0.91" stop-color="#5E6669"/>
<stop offset="1" stop-color="#465053"/>
</radialGradient>
<radialGradient id="paint13_radial_54_234" cx="0" cy="0" r="1" gradientUnits="userSpaceOnUse" gradientTransform="translate(65.3599 79.8744) scale(6.45747 6.39678)">
<stop offset="0.69" stop-color="#171717"/>
<stop offset="0.8" stop-color="#1A1A1A"/>
<stop offset="0.89" stop-color="#242424"/>
<stop offset="0.97" stop-color="#343434"/>
<stop offset="1" stop-color="#3F3F3F"/>
</radialGradient>
<radialGradient id="paint14_radial_54_234" cx="0" cy="0" r="1" gradientUnits="userSpaceOnUse" gradientTransform="translate(86.558 88.2135) scale(59.8753 59.3125)">
<stop offset="0.26" stop-color="#212121"/>
<stop offset="0.74" stop-color="#202020"/>
<stop offset="0.88" stop-color="#3F3F3F"/>
<stop offset="0.94" stop-color="#333333"/>
<stop offset="1" stop-color="#212121"/>
</radialGradient>
<radialGradient id="paint15_radial_54_234" cx="0" cy="0" r="1" gradientUnits="userSpaceOnUse" gradientTransform="translate(86.5585 88.213) scale(59.8752 59.3125)">
<stop offset="0.26" stop-color="#212121"/>
<stop offset="0.74" stop-color="#202020"/>
<stop offset="0.88" stop-color="#3F3F3F"/>
<stop offset="0.94" stop-color="#333333"/>
<stop offset="1" stop-color="#212121"/>
</radialGradient>
<radialGradient id="paint16_radial_54_234" cx="0" cy="0" r="1" gradientUnits="userSpaceOnUse" gradientTransform="translate(86.5572 88.2154) scale(59.8753 59.3125)">
<stop offset="0.26" stop-color="#212121"/>
<stop offset="0.74" stop-color="#202020"/>
<stop offset="0.88" stop-color="#3F3F3F"/>
<stop offset="0.94" stop-color="#333333"/>
<stop offset="1" stop-color="#212121"/>
</radialGradient>
<radialGradient id="paint17_radial_54_234" cx="0" cy="0" r="1" gradientUnits="userSpaceOnUse" gradientTransform="translate(86.5581 88.2147) scale(59.8753 59.3125)">
<stop offset="0.26" stop-color="#212121"/>
<stop offset="0.74" stop-color="#202020"/>
<stop offset="0.88" stop-color="#3F3F3F"/>
<stop offset="0.94" stop-color="#333333"/>
<stop offset="1" stop-color="#212121"/>
</radialGradient>
<radialGradient id="paint18_radial_54_234" cx="0" cy="0" r="1" gradientUnits="userSpaceOnUse" gradientTransform="translate(86.5571 88.2142) scale(59.8753 59.3125)">
<stop offset="0.26" stop-color="#212121"/>
<stop offset="0.74" stop-color="#202020"/>
<stop offset="0.88" stop-color="#3F3F3F"/>
<stop offset="0.94" stop-color="#333333"/>
<stop offset="1" stop-color="#212121"/>
</radialGradient>
<radialGradient id="paint19_radial_54_234" cx="0" cy="0" r="1" gradientUnits="userSpaceOnUse" gradientTransform="translate(86.5578 88.2146) scale(59.8753 59.3125)">
<stop offset="0.26" stop-color="#212121"/>
<stop offset="0.74" stop-color="#202020"/>
<stop offset="0.88" stop-color="#3F3F3F"/>
<stop offset="0.94" stop-color="#333333"/>
<stop offset="1" stop-color="#212121"/>
</radialGradient>
<radialGradient id="paint20_radial_54_234" cx="0" cy="0" r="1" gradientUnits="userSpaceOnUse" gradientTransform="translate(86.5577 88.2147) scale(59.8753 59.3125)">
<stop offset="0.26" stop-color="#212121"/>
<stop offset="0.74" stop-color="#202020"/>
<stop offset="0.88" stop-color="#3F3F3F"/>
<stop offset="0.94" stop-color="#333333"/>
<stop offset="1" stop-color="#212121"/>
</radialGradient>
<radialGradient id="paint21_radial_54_234" cx="0" cy="0" r="1" gradientUnits="userSpaceOnUse" gradientTransform="translate(86.5572 88.2142) scale(59.8752 59.3125)">
<stop offset="0.26" stop-color="#212121"/>
<stop offset="0.74" stop-color="#202020"/>
<stop offset="0.88" stop-color="#3F3F3F"/>
<stop offset="0.94" stop-color="#333333"/>
<stop offset="1" stop-color="#212121"/>
</radialGradient>
<radialGradient id="paint22_radial_54_234" cx="0" cy="0" r="1" gradientUnits="userSpaceOnUse" gradientTransform="translate(86.5575 88.2142) scale(59.8753 59.3125)">
<stop offset="0.26" stop-color="#212121"/>
<stop offset="0.74" stop-color="#202020"/>
<stop offset="0.88" stop-color="#3F3F3F"/>
<stop offset="0.94" stop-color="#333333"/>
<stop offset="1" stop-color="#212121"/>
</radialGradient>
<radialGradient id="paint23_radial_54_234" cx="0" cy="0" r="1" gradientUnits="userSpaceOnUse" gradientTransform="translate(86.5587 88.2148) scale(59.8752 59.3125)">
<stop offset="0.26" stop-color="#212121"/>
<stop offset="0.74" stop-color="#202020"/>
<stop offset="0.88" stop-color="#3F3F3F"/>
<stop offset="0.94" stop-color="#333333"/>
<stop offset="1" stop-color="#212121"/>
</radialGradient>
<radialGradient id="paint24_radial_54_234" cx="0" cy="0" r="1" gradientUnits="userSpaceOnUse" gradientTransform="translate(86.5587 88.2149) scale(59.8753 59.3125)">
<stop offset="0.26" stop-color="#212121"/>
<stop offset="0.74" stop-color="#202020"/>
<stop offset="0.88" stop-color="#3F3F3F"/>
<stop offset="0.94" stop-color="#333333"/>
<stop offset="1" stop-color="#212121"/>
</radialGradient>
<radialGradient id="paint25_radial_54_234" cx="0" cy="0" r="1" gradientUnits="userSpaceOnUse" gradientTransform="translate(86.5574 88.2155) scale(59.8752 59.3125)">
<stop offset="0.26" stop-color="#212121"/>
<stop offset="0.74" stop-color="#202020"/>
<stop offset="0.88" stop-color="#3F3F3F"/>
<stop offset="0.94" stop-color="#333333"/>
<stop offset="1" stop-color="#212121"/>
</radialGradient>
<radialGradient id="paint26_radial_54_234" cx="0" cy="0" r="1" gradientUnits="userSpaceOnUse" gradientTransform="translate(86.5577 88.2155) scale(59.8753 59.3125)">
<stop offset="0.26" stop-color="#212121"/>
<stop offset="0.74" stop-color="#202020"/>
<stop offset="0.88" stop-color="#3F3F3F"/>
<stop offset="0.94" stop-color="#333333"/>
<stop offset="1" stop-color="#212121"/>
</radialGradient>
<radialGradient id="paint27_radial_54_234" cx="0" cy="0" r="1" gradientUnits="userSpaceOnUse" gradientTransform="translate(86.5583 88.2144) scale(59.8753 59.3125)">
<stop offset="0.26" stop-color="#212121"/>
<stop offset="0.74" stop-color="#202020"/>
<stop offset="0.88" stop-color="#3F3F3F"/>
<stop offset="0.94" stop-color="#333333"/>
<stop offset="1" stop-color="#212121"/>
</radialGradient>
<radialGradient id="paint28_radial_54_234" cx="0" cy="0" r="1" gradientUnits="userSpaceOnUse" gradientTransform="translate(86.0507 86.1721) scale(65.3185 64.7045)">
<stop offset="0.62" stop-color="#212121"/>
<stop offset="0.7" stop-color="#2A2A2A"/>
<stop offset="0.75" stop-color="#333333"/>
<stop offset="0.85" stop-color="#272727"/>
<stop offset="0.9" stop-color="#202020"/>
<stop offset="1" stop-color="#353535"/>
</radialGradient>
<radialGradient id="paint29_radial_54_234" cx="0" cy="0" r="1" gradientUnits="userSpaceOnUse" gradientTransform="translate(86.557 87.6428) scale(65.3185 64.7046)">
<stop offset="0.62" stop-color="#212121"/>
<stop offset="0.7" stop-color="#2A2A2A"/>
<stop offset="0.75" stop-color="#333333"/>
<stop offset="0.85" stop-color="#272727"/>
<stop offset="0.9" stop-color="#202020"/>
<stop offset="1" stop-color="#353535"/>
</radialGradient>
<radialGradient id="paint30_radial_54_234" cx="0" cy="0" r="1" gradientUnits="userSpaceOnUse" gradientTransform="translate(86.5582 87.6454) scale(65.3185 64.7046)">
<stop offset="0.62" stop-color="#212121"/>
<stop offset="0.7" stop-color="#2A2A2A"/>
<stop offset="0.75" stop-color="#333333"/>
<stop offset="0.85" stop-color="#272727"/>
<stop offset="0.9" stop-color="#202020"/>
<stop offset="1" stop-color="#353535"/>
</radialGradient>
<radialGradient id="paint31_radial_54_234" cx="0" cy="0" r="1" gradientUnits="userSpaceOnUse" gradientTransform="translate(86.5568 87.6437) scale(65.3184 64.7046)">
<stop offset="0.62" stop-color="#212121"/>
<stop offset="0.7" stop-color="#2A2A2A"/>
<stop offset="0.75" stop-color="#333333"/>
<stop offset="0.85" stop-color="#272727"/>
<stop offset="0.9" stop-color="#202020"/>
<stop offset="1" stop-color="#353535"/>
</radialGradient>
<radialGradient id="paint32_radial_54_234" cx="0" cy="0" r="1" gradientUnits="userSpaceOnUse" gradientTransform="translate(86.5571 87.6431) scale(65.3185 64.7046)">
<stop offset="0.62" stop-color="#212121"/>
<stop offset="0.7" stop-color="#2A2A2A"/>
<stop offset="0.75" stop-color="#333333"/>
<stop offset="0.85" stop-color="#272727"/>
<stop offset="0.9" stop-color="#202020"/>
<stop offset="1" stop-color="#353535"/>
</radialGradient>
<radialGradient id="paint33_radial_54_234" cx="0" cy="0" r="1" gradientUnits="userSpaceOnUse" gradientTransform="translate(86.557 87.6433) scale(65.3185 64.7046)">
<stop offset="0.62" stop-color="#212121"/>
<stop offset="0.7" stop-color="#2A2A2A"/>
<stop offset="0.75" stop-color="#333333"/>
<stop offset="0.85" stop-color="#272727"/>
<stop offset="0.9" stop-color="#202020"/>
<stop offset="1" stop-color="#353535"/>
</radialGradient>
<radialGradient id="paint34_radial_54_234" cx="0" cy="0" r="1" gradientUnits="userSpaceOnUse" gradientTransform="translate(86.5575 87.6433) scale(65.3184 64.7045)">
<stop offset="0.62" stop-color="#212121"/>
<stop offset="0.7" stop-color="#2A2A2A"/>
<stop offset="0.75" stop-color="#333333"/>
<stop offset="0.85" stop-color="#272727"/>
<stop offset="0.9" stop-color="#202020"/>
<stop offset="1" stop-color="#353535"/>
</radialGradient>
<radialGradient id="paint35_radial_54_234" cx="0" cy="0" r="1" gradientUnits="userSpaceOnUse" gradientTransform="translate(86.558 87.6444) scale(65.3185 64.7045)">
<stop offset="0.62" stop-color="#212121"/>
<stop offset="0.7" stop-color="#2A2A2A"/>
<stop offset="0.75" stop-color="#333333"/>
<stop offset="0.85" stop-color="#272727"/>
<stop offset="0.9" stop-color="#202020"/>
<stop offset="1" stop-color="#353535"/>
</radialGradient>
<radialGradient id="paint36_radial_54_234" cx="0" cy="0" r="1" gradientUnits="userSpaceOnUse" gradientTransform="translate(86.5576 87.645) scale(65.3185 64.7046)">
<stop offset="0.62" stop-color="#212121"/>
<stop offset="0.7" stop-color="#2A2A2A"/>
<stop offset="0.75" stop-color="#333333"/>
<stop offset="0.85" stop-color="#272727"/>
<stop offset="0.9" stop-color="#202020"/>
<stop offset="1" stop-color="#353535"/>
</radialGradient>
<radialGradient id="paint37_radial_54_234" cx="0" cy="0" r="1" gradientUnits="userSpaceOnUse" gradientTransform="translate(86.5577 87.6432) scale(65.3185 64.7046)">
<stop offset="0.62" stop-color="#212121"/>
<stop offset="0.7" stop-color="#2A2A2A"/>
<stop offset="0.75" stop-color="#333333"/>
<stop offset="0.85" stop-color="#272727"/>
<stop offset="0.9" stop-color="#202020"/>
<stop offset="1" stop-color="#353535"/>
</radialGradient>
<radialGradient id="paint38_radial_54_234" cx="0" cy="0" r="1" gradientUnits="userSpaceOnUse" gradientTransform="translate(86.557 87.6457) scale(65.3185 64.7045)">
<stop offset="0.62" stop-color="#212121"/>
<stop offset="0.7" stop-color="#2A2A2A"/>
<stop offset="0.75" stop-color="#333333"/>
<stop offset="0.85" stop-color="#272727"/>
<stop offset="0.9" stop-color="#202020"/>
<stop offset="1" stop-color="#353535"/>
</radialGradient>
<radialGradient id="paint39_radial_54_234" cx="0" cy="0" r="1" gradientUnits="userSpaceOnUse" gradientTransform="translate(86.5568 87.6429) scale(65.3185 64.7045)">
<stop offset="0.62" stop-color="#212121"/>
<stop offset="0.7" stop-color="#2A2A2A"/>
<stop offset="0.75" stop-color="#333333"/>
<stop offset="0.85" stop-color="#272727"/>
<stop offset="0.9" stop-color="#202020"/>
<stop offset="1" stop-color="#353535"/>
</radialGradient>
<radialGradient id="paint40_radial_54_234" cx="0" cy="0" r="1" gradientUnits="userSpaceOnUse" gradientTransform="translate(86.5568 87.644) scale(65.3185 64.7046)">
<stop offset="0.62" stop-color="#212121"/>
<stop offset="0.7" stop-color="#2A2A2A"/>
<stop offset="0.75" stop-color="#333333"/>
<stop offset="0.85" stop-color="#272727"/>
<stop offset="0.9" stop-color="#202020"/>
<stop offset="1" stop-color="#353535"/>
</radialGradient>
<radialGradient id="paint41_radial_54_234" cx="0" cy="0" r="1" gradientUnits="userSpaceOnUse" gradientTransform="translate(86.557 87.6417) scale(65.3185 64.7045)">
<stop offset="0.62" stop-color="#212121"/>
<stop offset="0.7" stop-color="#2A2A2A"/>
<stop offset="0.75" stop-color="#333333"/>
<stop offset="0.85" stop-color="#272727"/>
<stop offset="0.9" stop-color="#202020"/>
<stop offset="1" stop-color="#353535"/>
</radialGradient>
</defs>
</svg>
